<?xml version="1.0" encoding="utf-8"?>
<!-- Generator: Adobe Illustrator 16.0.0, SVG Export Plug-In . SVG Version: 6.00 Build 0)  -->
<!DOCTYPE svg PUBLIC "-//W3C//DTD SVG 1.1//EN" "http://www.w3.org/Graphics/SVG/1.1/DTD/svg11.dtd">
<svg version="1.1" id="Layer_1" xmlns="http://www.w3.org/2000/svg" xmlns:xlink="http://www.w3.org/1999/xlink" x="0px" y="0px"
	 width="1545.59px" height="342.186px" viewBox="0 0 1545.59 342.186" enable-background="new 0 0 1545.59 342.186"
	 xml:space="preserve">
<g>
	<g>
		<g>
			<g>
				<g>
					
						<line fill="none" stroke="#ADADAD" stroke-width="0.7212" stroke-miterlimit="10" x1="30.129" y1="235.512" x2="31.571" y2="235.512"/>
					
						<line fill="none" stroke="#ADADAD" stroke-width="0.7212" stroke-miterlimit="10" stroke-dasharray="2.8772,4.3158" x1="35.887" y1="235.512" x2="760.226" y2="235.512"/>
					
						<line fill="none" stroke="#ADADAD" stroke-width="0.7212" stroke-miterlimit="10" x1="762.384" y1="235.512" x2="763.826" y2="235.512"/>
				</g>
			</g>
		</g>
		<g>
			<g>
				<g>
					
						<line fill="none" stroke="#ADADAD" stroke-width="0.7212" stroke-miterlimit="10" x1="30.129" y1="179.757" x2="31.571" y2="179.757"/>
					
						<line fill="none" stroke="#ADADAD" stroke-width="0.7212" stroke-miterlimit="10" stroke-dasharray="2.8772,4.3158" x1="35.887" y1="179.757" x2="760.226" y2="179.757"/>
					
						<line fill="none" stroke="#ADADAD" stroke-width="0.7212" stroke-miterlimit="10" x1="762.384" y1="179.757" x2="763.826" y2="179.757"/>
				</g>
			</g>
		</g>
		<g>
			<g>
				<g>
					
						<line fill="none" stroke="#ADADAD" stroke-width="0.7212" stroke-miterlimit="10" x1="30.129" y1="124.002" x2="31.571" y2="124.002"/>
					
						<line fill="none" stroke="#ADADAD" stroke-width="0.7212" stroke-miterlimit="10" stroke-dasharray="2.8772,4.3158" x1="35.887" y1="124.002" x2="760.226" y2="124.002"/>
					
						<line fill="none" stroke="#ADADAD" stroke-width="0.7212" stroke-miterlimit="10" x1="762.384" y1="124.002" x2="763.826" y2="124.002"/>
				</g>
			</g>
		</g>
		<g>
			<g>
				<g>
					
						<line fill="none" stroke="#ADADAD" stroke-width="0.7212" stroke-miterlimit="10" x1="763.826" y1="68.247" x2="762.384" y2="68.247"/>
					
						<line fill="none" stroke="#ADADAD" stroke-width="0.7212" stroke-miterlimit="10" stroke-dasharray="2.8772,4.3158" x1="758.068" y1="68.247" x2="33.729" y2="68.247"/>
					
						<line fill="none" stroke="#ADADAD" stroke-width="0.7212" stroke-miterlimit="10" x1="31.571" y1="68.247" x2="30.129" y2="68.247"/>
				</g>
			</g>
		</g>
		<g>
			<g>
				<path fill="#676767" d="M89.809,308.225v8.641h-1.844v-7.188H84.09v7.188h-1.836v-8.641H89.809z"/>
				<path fill="#676767" d="M98.926,308.225v1.438h-2.813v7.203H94.27v-7.203h-2.813v-1.438H98.926z"/>
			</g>
		</g>
		<g>
			<g>
				<path fill="#676767" d="M140.098,317.022c-1.308,0-2.301-0.382-2.98-1.145s-1.02-1.858-1.02-3.285
					c0-1.453,0.355-2.57,1.066-3.352s1.738-1.172,3.082-1.172c0.911,0,1.731,0.169,2.461,0.508l-0.555,1.477
					c-0.776-0.302-1.417-0.453-1.922-0.453c-1.495,0-2.242,0.992-2.242,2.977c0,0.969,0.186,1.696,0.559,2.184
					c0.372,0.487,0.918,0.73,1.637,0.73c0.817,0,1.591-0.203,2.32-0.609v1.602c-0.328,0.192-0.679,0.331-1.051,0.414
					C141.081,316.98,140.629,317.022,140.098,317.022z"/>
				<path fill="#676767" d="M144.035,311.678c0-1.927,0.327-3.409,0.98-4.445c0.653-1.036,1.694-1.703,3.121-2
					c1.078-0.219,2.32-0.433,3.727-0.641l0.258,1.617c-1.708,0.261-2.958,0.464-3.75,0.609c-0.818,0.151-1.408,0.487-1.77,1.008
					c-0.362,0.521-0.572,1.305-0.629,2.352h0.117c0.297-0.433,0.685-0.767,1.164-1.004c0.479-0.237,0.992-0.355,1.539-0.355
					c1.063,0,1.891,0.336,2.484,1.008s0.891,1.614,0.891,2.828c0,1.391-0.361,2.466-1.082,3.227
					c-0.722,0.761-1.72,1.141-2.996,1.141c-1.266,0-2.258-0.469-2.977-1.406S144.035,313.365,144.035,311.678z M148.215,315.522
					c1.364,0,2.047-0.896,2.047-2.688c0-1.729-0.617-2.594-1.852-2.594c-0.339,0-0.667,0.073-0.984,0.219
					c-0.318,0.146-0.611,0.339-0.879,0.578c-0.269,0.239-0.476,0.487-0.621,0.742c0,1.229,0.195,2.16,0.586,2.793
					S147.47,315.522,148.215,315.522z"/>
			</g>
		</g>
		<g>
			<g>
				<path fill="#676767" d="M27.686,308.225v3.156c0,0.886,0.458,1.328,1.375,1.328c0.442,0,0.875-0.062,1.297-0.184
					s0.875-0.319,1.359-0.59v-3.711h1.836v8.641h-1.836v-3.664c-0.505,0.313-0.994,0.543-1.465,0.691
					c-0.472,0.148-0.986,0.223-1.543,0.223c-0.901,0-1.604-0.233-2.109-0.699c-0.505-0.466-0.758-1.118-0.758-1.957v-3.234H27.686z"
					/>
				<path fill="#676767" d="M42.671,308.225v1.438h-2.813v7.203h-1.844v-7.203h-2.813v-1.438H42.671z"/>
			</g>
		</g>
		<g>
			<g>
				<path fill="#676767" d="M193.269,308.225v3.469h4.07v-3.469h1.836v8.641h-1.836v-3.727h-4.07v3.727h-1.836v-8.641H193.269z"/>
				<path fill="#676767" d="M210.09,319.92h-1.711v-3.055h-5.922v3.055h-1.695v-4.477h0.703c0.614-0.88,1.103-1.944,1.465-3.191
					c0.362-1.247,0.577-2.59,0.645-4.027h5.25v7.219h1.266V319.92z M207.019,315.444v-5.813h-1.859
					c-0.099,1.073-0.306,2.13-0.621,3.172c-0.315,1.042-0.699,1.922-1.152,2.641H207.019z"/>
			</g>
		</g>
		<g>
			<g>
				<path fill="#676767" d="M255.784,308.225v8.641h-1.844v-7.188h-3.875v7.188h-1.836v-8.641H255.784z"/>
				<path fill="#676767" d="M260.245,308.225v3.469h4.07v-3.469h1.836v8.641h-1.836v-3.727h-4.07v3.727h-1.836v-8.641H260.245z"/>
			</g>
		</g>
		<g>
			<g>
				<path fill="#676767" d="M311.992,310.436c0,1.021-0.597,1.638-1.789,1.852v0.063c0.667,0.078,1.177,0.289,1.531,0.633
					c0.354,0.344,0.531,0.789,0.531,1.336c0,0.817-0.312,1.446-0.934,1.887c-0.623,0.44-1.527,0.66-2.715,0.66h-4.125v-8.641h4.109
					C310.862,308.225,311.992,308.962,311.992,310.436z M310.156,310.592c0-0.344-0.134-0.593-0.402-0.746
					c-0.269-0.153-0.668-0.23-1.199-0.23h-2.227v2.078h1.953c0.614,0,1.081-0.079,1.398-0.238
					C309.997,311.296,310.156,311.009,310.156,310.592z M310.383,314.209c0-0.417-0.162-0.712-0.484-0.887
					c-0.323-0.175-0.808-0.262-1.453-0.262h-2.117v2.445h2.164C309.752,315.506,310.383,315.073,310.383,314.209z"/>
				<path fill="#676767" d="M320.648,308.225v1.438h-2.813v7.203h-1.844v-7.203h-2.813v-1.438H320.648z"/>
			</g>
		</g>
		<g>
			<g>
				<path fill="#676767" d="M362.449,317.022c-1.307,0-2.301-0.382-2.98-1.145s-1.02-1.858-1.02-3.285
					c0-1.453,0.355-2.57,1.066-3.352s1.738-1.172,3.082-1.172c0.912,0,1.732,0.169,2.461,0.508l-0.555,1.477
					c-0.776-0.302-1.417-0.453-1.922-0.453c-1.495,0-2.242,0.992-2.242,2.977c0,0.969,0.186,1.696,0.559,2.184
					s0.918,0.73,1.637,0.73c0.818,0,1.591-0.203,2.32-0.609v1.602c-0.328,0.192-0.678,0.331-1.051,0.414
					S362.981,317.022,362.449,317.022z"/>
				<path fill="#676767" d="M371.27,317.022c-1.094,0-1.943-0.394-2.547-1.18h-0.109c0.073,0.729,0.109,1.172,0.109,1.328v3.539
					h-1.836v-12.484h1.484c0.042,0.161,0.127,0.547,0.258,1.156h0.094c0.573-0.875,1.432-1.313,2.578-1.313
					c1.078,0,1.918,0.391,2.52,1.172s0.902,1.878,0.902,3.289s-0.306,2.513-0.918,3.305S372.348,317.022,371.27,317.022z
					 M370.824,309.569c-0.729,0-1.262,0.214-1.598,0.641s-0.504,1.109-0.504,2.047v0.273c0,1.052,0.167,1.813,0.5,2.285
					s0.877,0.707,1.633,0.707c0.635,0,1.125-0.261,1.469-0.781s0.516-1.263,0.516-2.227c0-0.969-0.17-1.702-0.512-2.199
					S371.486,309.569,370.824,309.569z"/>
			</g>
		</g>
		<g>
			
				<line fill="none" stroke="#0E1968" stroke-width="5" stroke-linecap="round" stroke-miterlimit="10" x1="362.807" y1="295.465" x2="362.807" y2="179.487"/>
			
				<line fill="none" stroke="#49B4DA" stroke-width="5" stroke-linecap="round" stroke-miterlimit="10" x1="370.513" y1="295.42" x2="370.513" y2="179.757"/>
			
				<line fill="none" stroke="#0E1968" stroke-width="5" stroke-linecap="round" stroke-miterlimit="10" x1="417.677" y1="295.465" x2="417.677" y2="231.661"/>
			
				<line fill="none" stroke="#49B4DA" stroke-width="5" stroke-linecap="round" stroke-miterlimit="10" x1="425.381" y1="295.42" x2="425.381" y2="231.661"/>
			
				<line fill="none" stroke="#0E1968" stroke-width="5" stroke-linecap="round" stroke-miterlimit="10" x1="473.123" y1="295.465" x2="473.123" y2="231.661"/>
			
				<line fill="none" stroke="#49B4DA" stroke-width="5" stroke-linecap="round" stroke-miterlimit="10" x1="480.828" y1="295.42" x2="480.828" y2="231.661"/>
			
				<line fill="none" stroke="#0E1968" stroke-width="5" stroke-linecap="round" stroke-miterlimit="10" x1="528.57" y1="295.465" x2="528.57" y2="180.681"/>
			
				<line fill="none" stroke="#49B4DA" stroke-width="5" stroke-linecap="round" stroke-miterlimit="10" x1="536.275" y1="295.42" x2="536.275" y2="180.331"/>
			
				<line fill="none" stroke="#0E1968" stroke-width="5" stroke-linecap="round" stroke-miterlimit="10" x1="584.017" y1="295.465" x2="584.017" y2="180.681"/>
			
				<line fill="none" stroke="#49B4DA" stroke-width="5" stroke-linecap="round" stroke-miterlimit="10" x1="591.722" y1="295.42" x2="591.722" y2="180.331"/>
			
				<line fill="none" stroke="#0E1968" stroke-width="5" stroke-linecap="round" stroke-miterlimit="10" x1="639.462" y1="295.465" x2="639.462" y2="234.664"/>
			
				<line fill="none" stroke="#49B4DA" stroke-width="5" stroke-linecap="round" stroke-miterlimit="10" x1="647.169" y1="295.42" x2="647.169" y2="234.664"/>
			
				<line fill="none" stroke="#0E1968" stroke-width="5" stroke-linecap="round" stroke-miterlimit="10" x1="694.909" y1="295.465" x2="694.909" y2="234.664"/>
			
				<line fill="none" stroke="#49B4DA" stroke-width="5" stroke-linecap="round" stroke-miterlimit="10" x1="702.616" y1="295.42" x2="702.616" y2="234.664"/>
			
				<line fill="none" stroke="#0E1968" stroke-width="5" stroke-linecap="round" stroke-miterlimit="10" x1="750.555" y1="295.465" x2="750.555" y2="235.241"/>
			
				<line fill="none" stroke="#49B4DA" stroke-width="5" stroke-linecap="round" stroke-miterlimit="10" x1="758.261" y1="295.42" x2="758.261" y2="235.512"/>
			
				<line fill="none" stroke="#0E1968" stroke-width="5" stroke-linecap="round" stroke-miterlimit="10" x1="85.574" y1="295.465" x2="85.574" y2="178.486"/>
			
				<line fill="none" stroke="#49B4DA" stroke-width="5" stroke-linecap="round" stroke-miterlimit="10" x1="93.281" y1="295.42" x2="93.281" y2="178.486"/>
			
				<line fill="none" stroke="#0E1968" stroke-width="5" stroke-linecap="round" stroke-miterlimit="10" x1="141.022" y1="295.465" x2="141.022" y2="122.731"/>
			
				<line fill="none" stroke="#49B4DA" stroke-width="5" stroke-linecap="round" stroke-miterlimit="10" x1="148.726" y1="295.42" x2="148.726" y2="122.731"/>
			
				<line fill="none" stroke="#0E1968" stroke-width="5" stroke-linecap="round" stroke-miterlimit="10" x1="196.468" y1="295.465" x2="196.468" y2="122.731"/>
			
				<line fill="none" stroke="#49B4DA" stroke-width="5" stroke-linecap="round" stroke-miterlimit="10" x1="204.173" y1="295.42" x2="204.173" y2="122.731"/>
			
				<line fill="none" stroke="#0E1968" stroke-width="5" stroke-linecap="round" stroke-miterlimit="10" x1="251.914" y1="295.465" x2="251.914" y2="179.487"/>
			
				<line fill="none" stroke="#49B4DA" stroke-width="5" stroke-linecap="round" stroke-miterlimit="10" x1="259.619" y1="295.42" x2="259.619" y2="179.757"/>
			
				<line fill="none" stroke="#0E1968" stroke-width="5" stroke-linecap="round" stroke-miterlimit="10" x1="307.362" y1="295.465" x2="307.362" y2="179.487"/>
			
				<line fill="none" stroke="#49B4DA" stroke-width="5" stroke-linecap="round" stroke-miterlimit="10" x1="315.067" y1="295.42" x2="315.067" y2="179.295"/>
			
				<line fill="none" stroke="#0E1968" stroke-width="5" stroke-linecap="round" stroke-miterlimit="10" x1="30.129" y1="295.465" x2="30.129" y2="178.486"/>
			
				<line fill="none" stroke="#49B4DA" stroke-width="5" stroke-linecap="round" stroke-miterlimit="10" x1="37.833" y1="295.42" x2="37.833" y2="178.486"/>
			<rect x="7.877" y="291.953" fill="#FFFFFF" width="759.741" height="50.232"/>
			
				<line fill="none" stroke="#ADADAD" stroke-width="0.7212" stroke-miterlimit="10" stroke-dasharray="2.8848,4.3272" x1="30.129" y1="292.147" x2="763.604" y2="292.147"/>
		</g>
		<g>
			<g>
				<path fill="#676767" d="M89.809,308.225v8.641h-1.844v-7.188H84.09v7.188h-1.836v-8.641H89.809z"/>
				<path fill="#676767" d="M98.926,308.225v1.438h-2.813v7.203H94.27v-7.203h-2.813v-1.438H98.926z"/>
			</g>
		</g>
		<g>
			<g>
				<path fill="#FF4C29" d="M140.098,317.022c-1.307,0-2.301-0.382-2.98-1.145s-1.02-1.858-1.02-3.285
					c0-1.453,0.355-2.57,1.066-3.352s1.738-1.172,3.082-1.172c0.912,0,1.732,0.169,2.461,0.508l-0.555,1.477
					c-0.776-0.302-1.417-0.453-1.922-0.453c-1.495,0-2.242,0.992-2.242,2.977c0,0.969,0.186,1.696,0.559,2.184
					s0.918,0.73,1.637,0.73c0.818,0,1.591-0.203,2.32-0.609v1.602c-0.328,0.192-0.678,0.331-1.051,0.414
					S140.629,317.022,140.098,317.022z"/>
				<path fill="#FF4C29" d="M144.035,311.678c0-1.927,0.327-3.409,0.98-4.445s1.694-1.703,3.121-2
					c1.078-0.219,2.32-0.433,3.727-0.641l0.258,1.617c-1.708,0.261-2.958,0.464-3.75,0.609c-0.818,0.151-1.408,0.487-1.77,1.008
					s-0.572,1.305-0.629,2.352h0.117c0.297-0.433,0.685-0.767,1.164-1.004s0.992-0.355,1.539-0.355c1.063,0,1.891,0.336,2.484,1.008
					s0.891,1.614,0.891,2.828c0,1.391-0.361,2.466-1.082,3.227s-1.72,1.141-2.996,1.141c-1.266,0-2.258-0.469-2.977-1.406
					S144.035,313.365,144.035,311.678z M148.215,315.522c1.365,0,2.047-0.896,2.047-2.688c0-1.729-0.617-2.594-1.852-2.594
					c-0.338,0-0.667,0.073-0.984,0.219s-0.611,0.339-0.879,0.578s-0.475,0.487-0.621,0.742c0,1.229,0.195,2.16,0.586,2.793
					S147.47,315.522,148.215,315.522z"/>
			</g>
		</g>
		<g>
			<g>
				<path fill="#676767" d="M27.686,308.225v3.156c0,0.886,0.458,1.328,1.375,1.328c0.442,0,0.875-0.062,1.297-0.184
					s0.875-0.319,1.359-0.59v-3.711h1.836v8.641h-1.836v-3.664c-0.505,0.313-0.994,0.543-1.465,0.691
					c-0.472,0.148-0.986,0.223-1.543,0.223c-0.901,0-1.604-0.233-2.109-0.699c-0.505-0.466-0.758-1.118-0.758-1.957v-3.234H27.686z"
					/>
				<path fill="#676767" d="M42.671,308.225v1.438h-2.813v7.203h-1.844v-7.203h-2.813v-1.438H42.671z"/>
			</g>
		</g>
		<g>
			<g>
				<path fill="#FF4C29" d="M193.269,308.225v3.469h4.07v-3.469h1.836v8.641h-1.836v-3.727h-4.07v3.727h-1.836v-8.641H193.269z"/>
				<path fill="#FF4C29" d="M210.09,319.92h-1.711v-3.055h-5.922v3.055h-1.695v-4.477h0.703c0.614-0.88,1.103-1.944,1.465-3.191
					c0.362-1.247,0.577-2.59,0.645-4.027h5.25v7.219h1.266V319.92z M207.019,315.444v-5.813h-1.859
					c-0.099,1.073-0.306,2.13-0.621,3.172c-0.315,1.042-0.699,1.922-1.152,2.641H207.019z"/>
			</g>
		</g>
		<g>
			<g>
				<path fill="#676767" d="M255.784,308.225v8.641h-1.844v-7.188h-3.875v7.188h-1.836v-8.641H255.784z"/>
				<path fill="#676767" d="M260.245,308.225v3.469h4.07v-3.469h1.836v8.641h-1.836v-3.727h-4.07v3.727h-1.836v-8.641H260.245z"/>
			</g>
		</g>
		<g>
			<g>
				<path fill="#676767" d="M311.992,310.436c0,1.021-0.597,1.638-1.789,1.852v0.063c0.667,0.078,1.177,0.289,1.531,0.633
					c0.354,0.344,0.531,0.789,0.531,1.336c0,0.817-0.312,1.446-0.934,1.887c-0.623,0.44-1.527,0.66-2.715,0.66h-4.125v-8.641h4.109
					C310.862,308.225,311.992,308.962,311.992,310.436z M310.156,310.592c0-0.344-0.134-0.593-0.402-0.746
					c-0.269-0.153-0.668-0.23-1.199-0.23h-2.227v2.078h1.953c0.614,0,1.081-0.079,1.398-0.238
					C309.997,311.296,310.156,311.009,310.156,310.592z M310.383,314.209c0-0.417-0.162-0.712-0.484-0.887
					c-0.323-0.175-0.808-0.262-1.453-0.262h-2.117v2.445h2.164C309.752,315.506,310.383,315.073,310.383,314.209z"/>
				<path fill="#676767" d="M320.648,308.225v1.438h-2.813v7.203h-1.844v-7.203h-2.813v-1.438H320.648z"/>
			</g>
		</g>
		<g>
			<g>
				<path fill="#676767" d="M362.45,317.022c-1.308,0-2.301-0.382-2.98-1.145s-1.02-1.858-1.02-3.285
					c0-1.453,0.355-2.57,1.066-3.352s1.738-1.172,3.082-1.172c0.911,0,1.731,0.169,2.461,0.508l-0.555,1.477
					c-0.776-0.302-1.417-0.453-1.922-0.453c-1.495,0-2.242,0.992-2.242,2.977c0,0.969,0.186,1.696,0.559,2.184
					c0.372,0.487,0.918,0.73,1.637,0.73c0.817,0,1.591-0.203,2.32-0.609v1.602c-0.328,0.192-0.679,0.331-1.051,0.414
					C363.433,316.98,362.981,317.022,362.45,317.022z"/>
				<path fill="#676767" d="M371.27,317.022c-1.094,0-1.943-0.394-2.547-1.18h-0.109c0.073,0.729,0.109,1.172,0.109,1.328v3.539
					h-1.836v-12.484h1.484c0.042,0.161,0.127,0.547,0.258,1.156h0.094c0.573-0.875,1.432-1.313,2.578-1.313
					c1.078,0,1.918,0.391,2.52,1.172s0.902,1.878,0.902,3.289s-0.306,2.513-0.918,3.305
					C373.193,316.626,372.348,317.022,371.27,317.022z M370.825,309.569c-0.729,0-1.262,0.214-1.598,0.641s-0.504,1.109-0.504,2.047
					v0.273c0,1.052,0.167,1.813,0.5,2.285c0.333,0.472,0.877,0.707,1.633,0.707c0.635,0,1.125-0.261,1.469-0.781
					s0.516-1.263,0.516-2.227c0-0.969-0.171-1.702-0.512-2.199C371.988,309.818,371.486,309.569,370.825,309.569z"/>
			</g>
		</g>
		<g>
			<g>
				<path fill="#676767" d="M476.809,308.225v8.641h-1.844v-7.188h-3.875v7.188h-1.836v-8.641H476.809z"/>
				<path fill="#676767" d="M485.926,308.225v1.438h-2.813v7.203h-1.844v-7.203h-2.813v-1.438H485.926z"/>
			</g>
		</g>
		<g>
			<g>
				<path fill="#FF4C29" d="M527.098,317.022c-1.307,0-2.301-0.382-2.98-1.145s-1.02-1.858-1.02-3.285
					c0-1.453,0.355-2.57,1.066-3.352s1.738-1.172,3.082-1.172c0.912,0,1.732,0.169,2.461,0.508l-0.555,1.477
					c-0.776-0.302-1.417-0.453-1.922-0.453c-1.495,0-2.242,0.992-2.242,2.977c0,0.969,0.186,1.696,0.559,2.184
					s0.918,0.73,1.637,0.73c0.818,0,1.591-0.203,2.32-0.609v1.602c-0.328,0.192-0.678,0.331-1.051,0.414
					S527.629,317.022,527.098,317.022z"/>
				<path fill="#FF4C29" d="M531.035,311.678c0-1.927,0.327-3.409,0.98-4.445s1.694-1.703,3.121-2
					c1.078-0.219,2.32-0.433,3.727-0.641l0.258,1.617c-1.708,0.261-2.958,0.464-3.75,0.609c-0.818,0.151-1.408,0.487-1.77,1.008
					s-0.572,1.305-0.629,2.352h0.117c0.297-0.433,0.685-0.767,1.164-1.004s0.992-0.355,1.539-0.355c1.063,0,1.891,0.336,2.484,1.008
					s0.891,1.614,0.891,2.828c0,1.391-0.361,2.466-1.082,3.227s-1.72,1.141-2.996,1.141c-1.266,0-2.258-0.469-2.977-1.406
					S531.035,313.365,531.035,311.678z M535.215,315.522c1.365,0,2.047-0.896,2.047-2.688c0-1.729-0.617-2.594-1.852-2.594
					c-0.338,0-0.667,0.073-0.984,0.219s-0.611,0.339-0.879,0.578s-0.475,0.487-0.621,0.742c0,1.229,0.195,2.16,0.586,2.793
					S534.47,315.522,535.215,315.522z"/>
			</g>
		</g>
		<g>
			<g>
				<path fill="#676767" d="M414.686,308.225v3.156c0,0.886,0.458,1.328,1.375,1.328c0.442,0,0.875-0.062,1.297-0.184
					s0.875-0.319,1.359-0.59v-3.711h1.836v8.641h-1.836v-3.664c-0.505,0.313-0.994,0.543-1.465,0.691
					c-0.472,0.148-0.986,0.223-1.543,0.223c-0.901,0-1.604-0.233-2.109-0.699c-0.505-0.466-0.758-1.118-0.758-1.957v-3.234H414.686z
					"/>
				<path fill="#676767" d="M429.671,308.225v1.438h-2.813v7.203h-1.844v-7.203h-2.813v-1.438H429.671z"/>
			</g>
		</g>
		<g>
			<g>
				<path fill="#FF4C29" d="M580.269,308.225v3.469h4.07v-3.469h1.836v8.641h-1.836v-3.727h-4.07v3.727h-1.836v-8.641H580.269z"/>
				<path fill="#FF4C29" d="M597.09,319.92h-1.711v-3.055h-5.922v3.055h-1.695v-4.477h0.703c0.614-0.88,1.103-1.944,1.465-3.191
					c0.362-1.247,0.577-2.59,0.645-4.027h5.25v7.219h1.266V319.92z M594.019,315.444v-5.813h-1.859
					c-0.099,1.073-0.306,2.13-0.621,3.172c-0.315,1.042-0.699,1.922-1.152,2.641H594.019z"/>
			</g>
		</g>
		<g>
			<g>
				<path fill="#676767" d="M642.784,308.225v8.641h-1.844v-7.188h-3.875v7.188h-1.836v-8.641H642.784z"/>
				<path fill="#676767" d="M647.245,308.225v3.469h4.07v-3.469h1.836v8.641h-1.836v-3.727h-4.07v3.727h-1.836v-8.641H647.245z"/>
			</g>
		</g>
		<g>
			<g>
				<path fill="#676767" d="M698.992,310.436c0,1.021-0.597,1.638-1.789,1.852v0.063c0.667,0.078,1.177,0.289,1.531,0.633
					c0.354,0.344,0.531,0.789,0.531,1.336c0,0.817-0.312,1.446-0.934,1.887c-0.623,0.44-1.527,0.66-2.715,0.66h-4.125v-8.641h4.109
					C697.862,308.225,698.992,308.962,698.992,310.436z M697.156,310.592c0-0.344-0.134-0.593-0.402-0.746
					c-0.269-0.153-0.668-0.23-1.199-0.23h-2.227v2.078h1.953c0.614,0,1.081-0.079,1.398-0.238
					C696.997,311.296,697.156,311.009,697.156,310.592z M697.383,314.209c0-0.417-0.162-0.712-0.484-0.887
					c-0.323-0.175-0.808-0.262-1.453-0.262h-2.117v2.445h2.164C696.752,315.506,697.383,315.073,697.383,314.209z"/>
				<path fill="#676767" d="M707.648,308.225v1.438h-2.813v7.203h-1.844v-7.203h-2.813v-1.438H707.648z"/>
			</g>
		</g>
		<g>
			<g>
				<path fill="#676767" d="M749.449,317.022c-1.307,0-2.301-0.382-2.98-1.145s-1.02-1.858-1.02-3.285
					c0-1.453,0.355-2.57,1.066-3.352s1.738-1.172,3.082-1.172c0.912,0,1.732,0.169,2.461,0.508l-0.555,1.477
					c-0.776-0.302-1.417-0.453-1.922-0.453c-1.495,0-2.242,0.992-2.242,2.977c0,0.969,0.186,1.696,0.559,2.184
					s0.918,0.73,1.637,0.73c0.818,0,1.591-0.203,2.32-0.609v1.602c-0.328,0.192-0.678,0.331-1.051,0.414
					S749.981,317.022,749.449,317.022z"/>
				<path fill="#676767" d="M758.27,317.022c-1.094,0-1.943-0.394-2.547-1.18h-0.109c0.073,0.729,0.109,1.172,0.109,1.328v3.539
					h-1.836v-12.484h1.484c0.042,0.161,0.127,0.547,0.258,1.156h0.094c0.573-0.875,1.432-1.313,2.578-1.313
					c1.078,0,1.918,0.391,2.52,1.172s0.902,1.878,0.902,3.289s-0.306,2.513-0.918,3.305S759.348,317.022,758.27,317.022z
					 M757.824,309.569c-0.729,0-1.262,0.214-1.598,0.641s-0.504,1.109-0.504,2.047v0.273c0,1.052,0.167,1.813,0.5,2.285
					s0.877,0.707,1.633,0.707c0.635,0,1.125-0.261,1.469-0.781s0.516-1.263,0.516-2.227c0-0.969-0.17-1.702-0.512-2.199
					S758.486,309.569,757.824,309.569z"/>
			</g>
		</g>
		<g>
			<g>
				<g>
					<path fill="none" stroke="#FFD600" stroke-width="1.1587" stroke-miterlimit="10" d="M388,44.382v236.736v5.188v12.146
						c0,8.709,7.045,15.755,15.754,15.755"/>
					
						<polygon fill="#FFD600" stroke="#FFD600" stroke-width="1.1587" stroke-linecap="round" stroke-linejoin="round" stroke-miterlimit="10" points="
						591.722,0.503 388,0.503 388,30.853 388,43.392 388,50.156 396.206,43.392 591.722,43.392 					"/>
					<g>
						<g>
							<g>
								<path d="M406.517,11.103c0,1.024-0.542,1.654-1.627,1.891v0.032c1.189,0.254,1.783,0.892,1.783,1.912
									c0,0.72-0.253,1.281-0.76,1.684c-0.507,0.402-1.222,0.604-2.146,0.604c-0.867,0-1.595-0.154-2.186-0.462v-0.559
									c0.34,0.165,0.704,0.292,1.09,0.381s0.752,0.134,1.096,0.134c0.716,0,1.281-0.155,1.695-0.464
									c0.413-0.31,0.62-0.744,0.62-1.303c0-0.544-0.201-0.956-0.604-1.235c-0.402-0.279-1.005-0.419-1.807-0.419h-1.166v-0.516
									h1.208c0.759,0,1.319-0.143,1.681-0.43s0.542-0.693,0.542-1.219c0-0.448-0.166-0.806-0.497-1.074
									c-0.332-0.269-0.764-0.403-1.297-0.403c-0.397,0-0.763,0.057-1.096,0.169c-0.333,0.113-0.693,0.307-1.08,0.583l-0.312-0.43
									c0.723-0.551,1.552-0.827,2.487-0.827c0.734,0,1.313,0.175,1.738,0.526C406.305,10.031,406.517,10.505,406.517,11.103z"/>
								<path d="M412.583,17.119l-0.134-0.924h-0.043c-0.293,0.376-0.595,0.642-0.905,0.797c-0.31,0.156-0.676,0.234-1.099,0.234
									c-0.573,0-1.019-0.147-1.337-0.44s-0.478-0.7-0.478-1.219c0-0.569,0.237-1.012,0.712-1.327
									c0.474-0.315,1.161-0.481,2.06-0.5l1.112-0.032v-0.387c0-0.555-0.113-0.974-0.338-1.257s-0.589-0.424-1.09-0.424
									c-0.541,0-1.101,0.15-1.681,0.451l-0.199-0.462c0.641-0.301,1.275-0.451,1.901-0.451c0.641,0,1.12,0.167,1.437,0.5
									c0.316,0.333,0.475,0.852,0.475,1.558v3.883H412.583z M410.435,16.743c0.623,0,1.114-0.178,1.475-0.535
									c0.359-0.356,0.54-0.851,0.54-1.485v-0.575l-1.021,0.043c-0.82,0.04-1.405,0.167-1.753,0.384
									c-0.35,0.217-0.524,0.554-0.524,1.013c0,0.365,0.112,0.649,0.335,0.852C409.711,16.642,410.027,16.743,410.435,16.743z"/>
								<path d="M418.805,11.281h0.661l-2.616,2.825l2.804,3.013h-0.714l-2.761-2.959v2.959h-0.542v-5.838h0.542v2.836
									L418.805,11.281z"/>
								<path d="M421.38,9.658c0-0.344,0.113-0.516,0.338-0.516c0.111,0,0.198,0.045,0.261,0.134
									c0.063,0.089,0.094,0.217,0.094,0.381c0,0.161-0.031,0.288-0.094,0.381c-0.063,0.093-0.15,0.14-0.261,0.14
									C421.492,10.179,421.38,10.006,421.38,9.658z M421.987,17.119h-0.532v-5.838h0.532V17.119z"/>
								<path d="M425.243,11.281v2.562h3.706v-2.562h0.526v5.838h-0.526v-2.814h-3.706v2.814h-0.532v-5.838H425.243z"/>
								<path d="M432.631,11.281v1.955c0,0.494,0.12,0.851,0.36,1.069s0.609,0.328,1.106,0.328c0.351,0,0.686-0.063,1.004-0.188
									s0.65-0.326,0.994-0.602v-2.562h0.532v5.838h-0.532v-2.771c-0.358,0.276-0.71,0.473-1.056,0.591
									c-0.345,0.118-0.719,0.177-1.12,0.177c-0.598,0-1.05-0.156-1.356-0.467c-0.307-0.312-0.459-0.761-0.459-1.348v-2.02H432.631
									z"/>
								<path d="M441.71,17.226c-0.849,0-1.51-0.261-1.985-0.784c-0.474-0.523-0.711-1.255-0.711-2.197
									c0-0.931,0.229-1.677,0.688-2.237c0.458-0.56,1.076-0.84,1.853-0.84c0.688,0,1.23,0.24,1.627,0.72s0.596,1.131,0.596,1.955
									v0.43h-4.206c0.007,0.802,0.194,1.415,0.561,1.837c0.367,0.422,0.893,0.634,1.577,0.634c0.333,0,0.625-0.023,0.878-0.07
									c0.252-0.046,0.572-0.147,0.958-0.301v0.483c-0.33,0.143-0.634,0.241-0.913,0.293
									C442.354,17.2,442.046,17.226,441.71,17.226z M441.554,11.64c-0.562,0-1.013,0.185-1.354,0.556
									c-0.34,0.37-0.539,0.905-0.596,1.603h3.609c0-0.677-0.147-1.206-0.44-1.587C442.48,11.831,442.073,11.64,441.554,11.64z"/>
								<path d="M446.691,11.281v2.562h3.706v-2.562h0.526v5.838h-0.526v-2.814h-3.706v2.814h-0.532v-5.838H446.691z"/>
								<path d="M454.18,11.281v2.562h3.706v-2.562h0.526v5.838h-0.526v-2.814h-3.706v2.814h-0.532v-5.838H454.18z"/>
								<path d="M461.052,17.119h-0.671l1.762-2.519c-0.537-0.1-0.925-0.287-1.163-0.559c-0.238-0.272-0.357-0.621-0.357-1.047
									c0-0.53,0.178-0.948,0.535-1.254c0.356-0.306,0.835-0.459,1.437-0.459h2.406v5.838h-0.526v-2.455h-1.783L461.052,17.119z
									 M461.18,12.972c0,0.401,0.13,0.699,0.389,0.894c0.26,0.195,0.651,0.293,1.174,0.293h1.729v-2.374h-1.891
									c-0.444,0-0.789,0.101-1.034,0.304C461.303,12.291,461.18,12.586,461.18,12.972z"/>
								<path d="M471.884,17.119h-0.532v-5.838h4.657v5.838h-0.532v-5.333h-3.593V17.119z"/>
								<path d="M481.231,17.226c-0.899,0-1.554-0.336-1.966-1.01h-0.038l0.016,0.451c0.014,0.265,0.021,0.555,0.021,0.87v2.224
									h-0.532v-8.481h0.451l0.102,0.833h0.032c0.401-0.63,1.042-0.945,1.923-0.945c0.788,0,1.388,0.259,1.802,0.776
									c0.413,0.518,0.62,1.271,0.62,2.259c0,0.959-0.218,1.704-0.652,2.231C482.576,16.962,481.983,17.226,481.231,17.226z
									 M481.22,16.754c0.598,0,1.061-0.222,1.388-0.666c0.328-0.444,0.492-1.065,0.492-1.864c0-1.715-0.62-2.573-1.858-2.573
									c-0.68,0-1.18,0.187-1.499,0.561c-0.319,0.375-0.478,0.984-0.478,1.829v0.172c0,0.913,0.153,1.565,0.459,1.955
									C480.031,16.558,480.53,16.754,481.22,16.754z"/>
								<path d="M488.408,17.226c-0.849,0-1.51-0.261-1.984-0.784c-0.475-0.523-0.712-1.255-0.712-2.197
									c0-0.931,0.229-1.677,0.688-2.237c0.458-0.56,1.076-0.84,1.853-0.84c0.688,0,1.23,0.24,1.627,0.72s0.596,1.131,0.596,1.955
									v0.43h-4.206c0.007,0.802,0.194,1.415,0.562,1.837c0.367,0.422,0.892,0.634,1.576,0.634c0.333,0,0.626-0.023,0.878-0.07
									c0.253-0.046,0.572-0.147,0.959-0.301v0.483c-0.33,0.143-0.634,0.241-0.913,0.293
									C489.053,17.2,488.745,17.226,488.408,17.226z M488.253,11.64c-0.562,0-1.013,0.185-1.354,0.556
									c-0.34,0.37-0.539,0.905-0.596,1.603h3.609c0-0.677-0.147-1.206-0.44-1.587C489.178,11.831,488.772,11.64,488.253,11.64z"/>
								<path d="M495.575,16.55l0.333-0.94l1.681-4.329h0.736v5.838h-0.505v-5.194c-0.079,0.226-0.162,0.457-0.25,0.693
									c-0.087,0.236-0.672,1.737-1.753,4.501h-0.473l-1.617-4.104c-0.068-0.165-0.132-0.338-0.19-0.521
									c-0.06-0.183-0.125-0.379-0.196-0.591v5.215h-0.483v-5.838h0.704l1.687,4.297C495.38,15.925,495.49,16.249,495.575,16.55z"
									/>
								<path d="M501.448,9.266l0.064,0.107c-0.269,0.949-0.58,1.81-0.935,2.583h-0.349c0.104-0.344,0.213-0.776,0.328-1.297
									c0.115-0.521,0.202-0.986,0.263-1.394H501.448z"/>
								<path d="M505.806,17.226c-0.849,0-1.516-0.268-2.001-0.803c-0.485-0.535-0.728-1.265-0.728-2.188
									c0-0.949,0.251-1.697,0.755-2.245c0.503-0.548,1.186-0.822,2.049-0.822c0.222,0,0.477,0.023,0.766,0.07
									c0.288,0.046,0.536,0.111,0.744,0.193l-0.156,0.473c-0.211-0.075-0.448-0.136-0.712-0.183
									c-0.263-0.046-0.48-0.07-0.652-0.07c-0.663,0-1.184,0.188-1.563,0.564s-0.6,0.904-0.661,1.584h3.357v0.473h-3.378
									c0.007,0.777,0.206,1.383,0.596,1.818c0.39,0.436,0.915,0.653,1.574,0.653c0.562,0,1.071-0.095,1.525-0.285v0.494
									c-0.165,0.083-0.381,0.148-0.65,0.199S506.114,17.226,505.806,17.226z"/>
								<path d="M512.017,17.226c-0.899,0-1.554-0.336-1.966-1.01h-0.038l0.016,0.451c0.014,0.265,0.021,0.555,0.021,0.87v2.224
									h-0.532v-8.481h0.451l0.102,0.833h0.032c0.401-0.63,1.042-0.945,1.923-0.945c0.788,0,1.389,0.259,1.802,0.776
									c0.414,0.518,0.621,1.271,0.621,2.259c0,0.959-0.217,1.704-0.653,2.231C513.363,16.962,512.769,17.226,512.017,17.226z
									 M512.006,16.754c0.598,0,1.061-0.222,1.389-0.666c0.327-0.444,0.491-1.065,0.491-1.864c0-1.715-0.62-2.573-1.858-2.573
									c-0.68,0-1.18,0.187-1.499,0.561c-0.319,0.375-0.478,0.984-0.478,1.829v0.172c0,0.913,0.153,1.565,0.459,1.955
									C510.817,16.558,511.315,16.754,512.006,16.754z"/>
								<path d="M517.368,11.281v2.562h3.706v-2.562h0.526v5.838h-0.526v-2.814h-3.706v2.814h-0.532v-5.838H517.368z"/>
								<path d="M529.155,14.192c0,0.953-0.231,1.696-0.693,2.231c-0.462,0.536-1.099,0.803-1.912,0.803
									c-0.512,0-0.963-0.124-1.354-0.371s-0.689-0.602-0.897-1.063s-0.312-0.996-0.312-1.601c0-0.953,0.231-1.694,0.693-2.227
									c0.462-0.531,1.096-0.797,1.901-0.797c0.802,0,1.431,0.27,1.888,0.808C528.926,12.515,529.155,13.254,529.155,14.192z
									 M524.546,14.192c0,0.802,0.176,1.428,0.529,1.877c0.353,0.45,0.851,0.674,1.496,0.674s1.143-0.225,1.496-0.674
									c0.353-0.449,0.529-1.075,0.529-1.877c0-0.806-0.178-1.431-0.534-1.875c-0.356-0.444-0.857-0.666-1.501-0.666
									s-1.141,0.221-1.491,0.664C524.721,12.757,524.546,13.383,524.546,14.192z"/>
								<path d="M534.973,11.742h-2.9v5.376h-0.532v-5.838h3.432V11.742z"/>
								<path d="M541.77,14.192c0,0.953-0.231,1.696-0.693,2.231c-0.462,0.536-1.099,0.803-1.912,0.803
									c-0.512,0-0.963-0.124-1.354-0.371s-0.689-0.602-0.897-1.063s-0.312-0.996-0.312-1.601c0-0.953,0.231-1.694,0.693-2.227
									c0.462-0.531,1.096-0.797,1.901-0.797c0.802,0,1.431,0.27,1.888,0.808C541.541,12.515,541.77,13.254,541.77,14.192z
									 M537.161,14.192c0,0.802,0.176,1.428,0.529,1.877c0.353,0.45,0.851,0.674,1.496,0.674s1.143-0.225,1.496-0.674
									c0.353-0.449,0.529-1.075,0.529-1.877c0-0.806-0.178-1.431-0.534-1.875c-0.356-0.444-0.857-0.666-1.501-0.666
									s-1.141,0.221-1.491,0.664C537.336,12.757,537.161,13.383,537.161,14.192z"/>
								<path d="M402.65,32.119h-0.532v-5.838h4.657v5.838h-0.532v-5.333h-3.593V32.119z"/>
								<path d="M411.858,32.226c-0.849,0-1.51-0.261-1.985-0.784c-0.474-0.523-0.711-1.255-0.711-2.197
									c0-0.931,0.229-1.677,0.688-2.237c0.458-0.56,1.076-0.84,1.853-0.84c0.688,0,1.23,0.24,1.627,0.72s0.596,1.131,0.596,1.955
									v0.43h-4.206c0.007,0.802,0.194,1.415,0.561,1.837c0.367,0.422,0.893,0.634,1.577,0.634c0.333,0,0.625-0.023,0.878-0.07
									c0.252-0.046,0.572-0.147,0.958-0.301v0.483c-0.33,0.143-0.634,0.241-0.913,0.293
									C412.503,32.2,412.195,32.226,411.858,32.226z M411.702,26.64c-0.562,0-1.013,0.185-1.354,0.556
									c-0.34,0.37-0.539,0.905-0.596,1.603h3.609c0-0.677-0.147-1.206-0.44-1.587C412.628,26.831,412.221,26.64,411.702,26.64z"/>
								<path d="M418.805,32.226c-0.899,0-1.554-0.336-1.966-1.01h-0.038l0.016,0.451c0.014,0.265,0.021,0.555,0.021,0.87v2.224
									h-0.532v-8.481h0.451l0.102,0.833h0.032c0.401-0.63,1.042-0.945,1.923-0.945c0.788,0,1.389,0.259,1.802,0.776
									c0.414,0.518,0.621,1.271,0.621,2.259c0,0.959-0.217,1.704-0.653,2.231C420.151,31.962,419.557,32.226,418.805,32.226z
									 M418.794,31.754c0.598,0,1.061-0.222,1.389-0.666c0.327-0.444,0.491-1.065,0.491-1.864c0-1.715-0.62-2.573-1.858-2.573
									c-0.68,0-1.18,0.187-1.499,0.561c-0.319,0.375-0.478,0.984-0.478,1.829v0.172c0,0.913,0.153,1.565,0.459,1.955
									C417.605,31.558,418.103,31.754,418.794,31.754z"/>
								<path d="M423.55,24.658c0-0.344,0.113-0.516,0.338-0.516c0.111,0,0.198,0.045,0.261,0.134
									c0.063,0.089,0.094,0.217,0.094,0.381c0,0.161-0.031,0.288-0.094,0.381c-0.063,0.093-0.15,0.14-0.261,0.14
									C423.662,25.179,423.55,25.006,423.55,24.658z M424.156,32.119h-0.532v-5.838h0.532V32.119z"/>
								<path d="M431.71,29.192c0,0.953-0.231,1.696-0.693,2.231c-0.462,0.536-1.099,0.803-1.912,0.803
									c-0.512,0-0.963-0.124-1.354-0.371s-0.689-0.602-0.897-1.063s-0.312-0.996-0.312-1.601c0-0.953,0.231-1.694,0.693-2.227
									c0.462-0.531,1.096-0.797,1.901-0.797c0.802,0,1.431,0.27,1.888,0.808C431.482,27.515,431.71,28.254,431.71,29.192z
									 M427.102,29.192c0,0.802,0.176,1.428,0.529,1.877c0.353,0.45,0.851,0.674,1.496,0.674s1.143-0.225,1.496-0.674
									c0.353-0.449,0.529-1.075,0.529-1.877c0-0.806-0.178-1.431-0.534-1.875c-0.356-0.444-0.857-0.666-1.501-0.666
									s-1.141,0.221-1.491,0.664C427.277,27.757,427.102,28.383,427.102,29.192z"/>
								<path d="M438.861,34.101h-0.526v-1.982h-4.469v1.982h-0.526v-2.487h0.387c0.487-0.684,0.863-1.477,1.128-2.379
									s0.405-1.887,0.419-2.954h2.809v5.333h0.779V34.101z M437.551,31.614v-4.839h-1.815c-0.086,1.937-0.555,3.55-1.407,4.839
									H437.551z"/>
								<path d="M439.894,26.281h0.548l1.235,3.276c0.376,1.006,0.614,1.685,0.714,2.036h0.032c0.15-0.462,0.396-1.151,0.736-2.068
									l1.235-3.244h0.548l-2.616,6.784c-0.211,0.551-0.389,0.924-0.532,1.117s-0.311,0.338-0.502,0.435
									c-0.191,0.097-0.423,0.145-0.695,0.145c-0.204,0-0.432-0.038-0.682-0.113v-0.462c0.208,0.057,0.432,0.086,0.671,0.086
									c0.183,0,0.344-0.043,0.483-0.129s0.266-0.219,0.379-0.4c0.112-0.181,0.243-0.467,0.392-0.859
									c0.149-0.392,0.245-0.647,0.288-0.765L439.894,26.281z"/>
								<path d="M454.024,26.742h-1.944v5.376h-0.526v-5.376h-1.993v-0.462h4.463V26.742z"/>
								<path d="M459.537,32.119l-0.134-0.924h-0.043c-0.293,0.376-0.595,0.642-0.905,0.797c-0.31,0.156-0.676,0.234-1.098,0.234
									c-0.573,0-1.019-0.147-1.337-0.44s-0.478-0.7-0.478-1.219c0-0.569,0.237-1.012,0.711-1.327
									c0.475-0.315,1.161-0.481,2.06-0.5l1.112-0.032v-0.387c0-0.555-0.113-0.974-0.338-1.257s-0.589-0.424-1.09-0.424
									c-0.541,0-1.101,0.15-1.681,0.451l-0.199-0.462c0.641-0.301,1.275-0.451,1.901-0.451c0.641,0,1.12,0.167,1.437,0.5
									c0.317,0.333,0.476,0.852,0.476,1.558v3.883H459.537z M457.388,31.743c0.623,0,1.115-0.178,1.474-0.535
									c0.36-0.356,0.54-0.851,0.54-1.485v-0.575l-1.021,0.043c-0.82,0.04-1.404,0.167-1.754,0.384
									c-0.349,0.217-0.523,0.554-0.523,1.013c0,0.365,0.112,0.649,0.336,0.852C456.664,31.642,456.98,31.743,457.388,31.743z"/>
								<path d="M466.749,32.119h-0.532v-5.838h4.657v5.838h-0.532v-5.333h-3.593V32.119z"/>
								<path d="M478.427,29.192c0,0.953-0.231,1.696-0.693,2.231c-0.462,0.536-1.099,0.803-1.912,0.803
									c-0.512,0-0.963-0.124-1.354-0.371s-0.689-0.602-0.897-1.063s-0.312-0.996-0.312-1.601c0-0.953,0.231-1.694,0.693-2.227
									c0.462-0.531,1.096-0.797,1.901-0.797c0.802,0,1.432,0.27,1.888,0.808C478.199,27.515,478.427,28.254,478.427,29.192z
									 M473.819,29.192c0,0.802,0.176,1.428,0.529,1.877c0.353,0.45,0.852,0.674,1.496,0.674s1.143-0.225,1.496-0.674
									c0.353-0.449,0.529-1.075,0.529-1.877c0-0.806-0.178-1.431-0.535-1.875c-0.356-0.444-0.856-0.666-1.501-0.666
									s-1.142,0.221-1.49,0.664C473.993,27.757,473.819,28.383,473.819,29.192z"/>
								<path d="M481.243,26.281v1.955c0,0.494,0.12,0.851,0.36,1.069s0.609,0.328,1.106,0.328c0.351,0,0.686-0.063,1.004-0.188
									s0.65-0.326,0.994-0.602v-2.562h0.532v5.838h-0.532v-2.771c-0.358,0.276-0.71,0.473-1.055,0.591
									c-0.346,0.118-0.719,0.177-1.12,0.177c-0.598,0-1.05-0.156-1.356-0.467c-0.306-0.312-0.459-0.761-0.459-1.348v-2.02H481.243
									z"/>
								<path d="M491.51,32.119l-0.134-0.924h-0.043c-0.293,0.376-0.595,0.642-0.905,0.797c-0.31,0.156-0.676,0.234-1.098,0.234
									c-0.573,0-1.019-0.147-1.337-0.44s-0.478-0.7-0.478-1.219c0-0.569,0.237-1.012,0.711-1.327
									c0.475-0.315,1.161-0.481,2.06-0.5l1.112-0.032v-0.387c0-0.555-0.113-0.974-0.338-1.257s-0.589-0.424-1.09-0.424
									c-0.541,0-1.101,0.15-1.681,0.451l-0.199-0.462c0.641-0.301,1.275-0.451,1.901-0.451c0.641,0,1.12,0.167,1.437,0.5
									c0.317,0.333,0.476,0.852,0.476,1.558v3.883H491.51z M489.361,31.743c0.623,0,1.115-0.178,1.474-0.535
									c0.36-0.356,0.54-0.851,0.54-1.485v-0.575l-1.021,0.043c-0.82,0.04-1.404,0.167-1.754,0.384
									c-0.349,0.217-0.523,0.554-0.523,1.013c0,0.365,0.112,0.649,0.336,0.852C488.637,31.642,488.953,31.743,489.361,31.743z"/>
								<path d="M498.268,26.742h-1.944v5.376h-0.526v-5.376h-1.993v-0.462h4.463V26.742z"/>
								<path d="M505.065,29.192c0,0.953-0.231,1.696-0.693,2.231c-0.462,0.536-1.099,0.803-1.912,0.803
									c-0.512,0-0.963-0.124-1.354-0.371s-0.689-0.602-0.897-1.063s-0.312-0.996-0.312-1.601c0-0.953,0.231-1.694,0.693-2.227
									c0.462-0.531,1.096-0.797,1.901-0.797c0.802,0,1.431,0.27,1.888,0.808C504.836,27.515,505.065,28.254,505.065,29.192z
									 M500.456,29.192c0,0.802,0.176,1.428,0.529,1.877c0.353,0.45,0.851,0.674,1.496,0.674s1.143-0.225,1.496-0.674
									c0.353-0.449,0.529-1.075,0.529-1.877c0-0.806-0.178-1.431-0.534-1.875c-0.356-0.444-0.857-0.666-1.501-0.666
									s-1.141,0.221-1.491,0.664C500.631,27.757,500.456,28.383,500.456,29.192z"/>
								<path d="M510.62,26.281h0.661l-2.616,2.825l2.804,3.013h-0.714l-2.761-2.959v2.959h-0.542v-5.838h0.542v2.836L510.62,26.281
									z"/>
								<path d="M521.662,34.101h-0.526v-1.982h-4.469v1.982h-0.526v-2.487h0.387c0.487-0.684,0.863-1.477,1.128-2.379
									s0.405-1.887,0.419-2.954h2.809v5.333h0.779V34.101z M520.351,31.614v-4.839h-1.815c-0.086,1.937-0.555,3.55-1.407,4.839
									H520.351z"/>
								<path d="M523.597,24.658c0-0.344,0.113-0.516,0.338-0.516c0.111,0,0.198,0.045,0.261,0.134
									c0.063,0.089,0.094,0.217,0.094,0.381c0,0.161-0.031,0.288-0.094,0.381c-0.063,0.093-0.15,0.14-0.261,0.14
									C523.71,25.179,523.597,25.006,523.597,24.658z M524.204,32.119h-0.532v-5.838h0.532V32.119z"/>
								<path d="M525.839,24.658c0-0.165,0.028-0.283,0.083-0.354c0.056-0.072,0.141-0.107,0.255-0.107
									c0.229,0,0.344,0.154,0.344,0.462s-0.115,0.462-0.344,0.462C525.952,25.12,525.839,24.967,525.839,24.658z M527.461,32.119
									h-0.532v-5.838h0.532V32.119z M527.885,24.658c0-0.165,0.028-0.283,0.083-0.354c0.055-0.072,0.14-0.107,0.255-0.107
									c0.229,0,0.344,0.154,0.344,0.462s-0.115,0.462-0.344,0.462C527.998,25.12,527.885,24.967,527.885,24.658z"/>
								<path d="M534.915,28.8c1.056,0,1.584-0.363,1.584-1.09c0-0.347-0.122-0.612-0.365-0.795s-0.591-0.274-1.042-0.274
									c-0.287,0-0.553,0.033-0.8,0.099c-0.247,0.066-0.512,0.162-0.795,0.288l-0.199-0.44c0.623-0.279,1.228-0.419,1.815-0.419
									c0.637,0,1.121,0.132,1.45,0.397s0.494,0.632,0.494,1.101c0,0.677-0.347,1.108-1.042,1.294v0.032
									c0.433,0.107,0.749,0.286,0.945,0.535c0.197,0.249,0.295,0.566,0.295,0.953c0,0.541-0.198,0.967-0.593,1.278
									c-0.396,0.312-0.945,0.467-1.646,0.467c-0.379,0-0.726-0.037-1.039-0.11c-0.313-0.074-0.572-0.171-0.776-0.293v-0.532
									c0.369,0.175,0.688,0.294,0.956,0.357c0.269,0.063,0.555,0.094,0.859,0.094c0.53,0,0.942-0.112,1.238-0.335
									c0.295-0.224,0.443-0.543,0.443-0.959c0-0.405-0.142-0.704-0.424-0.897s-0.707-0.29-1.273-0.29h-0.811V28.8H534.915z"/>
								<path d="M540.089,26.281v2.562h3.706v-2.562h0.526v5.838h-0.526v-2.814h-3.706v2.814h-0.532v-5.838H540.089z"/>
								<path d="M547.552,26.281v4.222l-0.032,1.101l3.464-5.323h0.709v5.838h-0.51v-4.195l0.021-1.128l-3.464,5.323h-0.693v-5.838
									H547.552z"/>
								<path d="M556.829,26.281h0.537v2.836l2.508-2.836h0.65l-2.53,2.836l2.729,3.002h-0.682l-2.675-2.959v2.959h-0.537v-2.959
									l-2.675,2.959h-0.682l2.718-2.981l-2.519-2.857h0.65l2.508,2.836V26.281z"/>
								<path d="M567.332,29.192c0,0.953-0.231,1.696-0.693,2.231c-0.462,0.536-1.099,0.803-1.912,0.803
									c-0.512,0-0.963-0.124-1.354-0.371s-0.689-0.602-0.897-1.063s-0.312-0.996-0.312-1.601c0-0.953,0.231-1.694,0.693-2.227
									c0.462-0.531,1.096-0.797,1.901-0.797c0.802,0,1.432,0.27,1.888,0.808C567.104,27.515,567.332,28.254,567.332,29.192z
									 M562.723,29.192c0,0.802,0.176,1.428,0.529,1.877c0.353,0.45,0.852,0.674,1.496,0.674s1.143-0.225,1.496-0.674
									c0.353-0.449,0.529-1.075,0.529-1.877c0-0.806-0.178-1.431-0.535-1.875c-0.356-0.444-0.856-0.666-1.501-0.666
									s-1.142,0.221-1.49,0.664C562.898,27.757,562.723,28.383,562.723,29.192z"/>
								<path d="M572.887,26.281h0.661l-2.616,2.825l2.804,3.013h-0.714l-2.761-2.959v2.959h-0.542v-5.838h0.542v2.836
									L572.887,26.281z"/>
							</g>
						</g>
					</g>
				</g>
			</g>
			<circle fill="none" stroke="#FFD600" stroke-width="1.1587" stroke-miterlimit="10" cx="421.399" cy="312.196" r="18.037"/>
		</g>
		<g>
			<g>
				<g>
					<path fill="none" stroke="#FFD600" stroke-width="1.1587" stroke-miterlimit="10" d="M0,48.884v233.234v5.188v12.146
						c0,8.709,7.045,15.755,15.754,15.755"/>
					
						<polygon fill="#FFD600" stroke="#FFD600" stroke-width="1.1587" stroke-linecap="round" stroke-linejoin="round" stroke-miterlimit="10" points="
						155.993,0 0,0 0,32.352 0,47.894 0,54.658 8.206,47.894 155.993,47.894 					"/>
					<g>
						<g>
							<path d="M19.882,18.619h-0.548v-7.337h-4.533v7.337h-0.548v-7.853h5.629V18.619z"/>
							<path d="M27.57,15.692c0,0.953-0.231,1.696-0.693,2.231c-0.462,0.536-1.099,0.803-1.912,0.803
								c-0.512,0-0.963-0.124-1.354-0.371s-0.689-0.602-0.897-1.063s-0.312-0.996-0.312-1.601c0-0.953,0.231-1.694,0.693-2.227
								c0.462-0.531,1.096-0.797,1.901-0.797c0.802,0,1.432,0.27,1.888,0.808C27.342,14.015,27.57,14.754,27.57,15.692z
								 M22.962,15.692c0,0.802,0.176,1.428,0.529,1.877c0.353,0.45,0.852,0.674,1.496,0.674s1.143-0.225,1.496-0.674
								c0.353-0.449,0.529-1.075,0.529-1.877c0-0.806-0.178-1.431-0.535-1.875c-0.356-0.444-0.856-0.666-1.501-0.666
								s-1.142,0.221-1.49,0.664C23.136,14.257,22.962,14.883,22.962,15.692z"/>
							<path d="M30.386,12.781v1.955c0,0.494,0.12,0.851,0.36,1.069s0.609,0.328,1.106,0.328c0.351,0,0.686-0.063,1.004-0.188
								s0.65-0.326,0.994-0.602v-2.562h0.532v5.838h-0.532v-2.771c-0.358,0.276-0.71,0.473-1.056,0.591
								c-0.345,0.118-0.719,0.177-1.12,0.177c-0.598,0-1.05-0.156-1.356-0.467c-0.307-0.312-0.459-0.761-0.459-1.348v-2.02H30.386z"
								/>
							<path d="M40.653,18.619l-0.134-0.924h-0.043c-0.293,0.376-0.595,0.642-0.905,0.797c-0.31,0.156-0.676,0.234-1.099,0.234
								c-0.573,0-1.019-0.147-1.337-0.44s-0.478-0.7-0.478-1.219c0-0.569,0.237-1.012,0.712-1.327c0.474-0.315,1.161-0.481,2.06-0.5
								l1.112-0.032v-0.387c0-0.555-0.113-0.974-0.338-1.257s-0.589-0.424-1.09-0.424c-0.541,0-1.101,0.15-1.681,0.451l-0.199-0.462
								c0.641-0.301,1.275-0.451,1.901-0.451c0.641,0,1.12,0.167,1.437,0.5c0.316,0.333,0.475,0.852,0.475,1.558v3.883H40.653z
								 M38.504,18.243c0.623,0,1.114-0.178,1.475-0.535c0.359-0.356,0.54-0.851,0.54-1.485v-0.575l-1.021,0.043
								c-0.82,0.04-1.405,0.167-1.753,0.384c-0.35,0.217-0.524,0.554-0.524,1.013c0,0.365,0.112,0.649,0.335,0.852
								C37.78,18.142,38.096,18.243,38.504,18.243z"/>
							<path d="M47.411,13.242h-1.944v5.376h-0.526v-5.376h-1.993v-0.462h4.463V13.242z"/>
							<path d="M54.208,15.692c0,0.953-0.231,1.696-0.693,2.231c-0.462,0.536-1.099,0.803-1.912,0.803
								c-0.512,0-0.963-0.124-1.354-0.371s-0.689-0.602-0.897-1.063s-0.312-0.996-0.312-1.601c0-0.953,0.231-1.694,0.693-2.227
								c0.462-0.531,1.096-0.797,1.901-0.797c0.802,0,1.432,0.27,1.888,0.808C53.98,14.015,54.208,14.754,54.208,15.692z
								 M49.599,15.692c0,0.802,0.176,1.428,0.529,1.877c0.353,0.45,0.852,0.674,1.496,0.674s1.143-0.225,1.496-0.674
								c0.353-0.449,0.529-1.075,0.529-1.877c0-0.806-0.178-1.431-0.535-1.875c-0.356-0.444-0.856-0.666-1.501-0.666
								s-1.142,0.221-1.49,0.664C49.774,14.257,49.599,14.883,49.599,15.692z"/>
							<path d="M59.763,12.781h0.661l-2.616,2.825l2.804,3.013h-0.714l-2.761-2.959v2.959h-0.542v-5.838h0.542v2.836L59.763,12.781z
								"/>
							<path d="M66.573,18.619h-0.532v-5.838h4.657v5.838h-0.532v-5.333h-3.593V18.619z"/>
							<path d="M75.92,18.726c-0.899,0-1.554-0.336-1.966-1.01h-0.038l0.016,0.451c0.014,0.265,0.021,0.555,0.021,0.87v2.224h-0.532
								v-8.481h0.451l0.102,0.833h0.032c0.401-0.63,1.042-0.945,1.923-0.945c0.788,0,1.389,0.259,1.802,0.776
								c0.414,0.518,0.621,1.271,0.621,2.259c0,0.959-0.217,1.704-0.653,2.231C77.266,18.462,76.672,18.726,75.92,18.726z
								 M75.909,18.254c0.598,0,1.061-0.222,1.389-0.666c0.327-0.444,0.491-1.065,0.491-1.864c0-1.715-0.62-2.573-1.858-2.573
								c-0.68,0-1.18,0.187-1.499,0.561c-0.319,0.375-0.478,0.984-0.478,1.829v0.172c0,0.913,0.153,1.565,0.459,1.955
								C74.72,18.058,75.219,18.254,75.909,18.254z"/>
							<path d="M83.098,18.726c-0.849,0-1.51-0.261-1.984-0.784c-0.475-0.523-0.712-1.255-0.712-2.197
								c0-0.931,0.229-1.677,0.688-2.237c0.458-0.56,1.076-0.84,1.853-0.84c0.688,0,1.23,0.24,1.627,0.72s0.596,1.131,0.596,1.955
								v0.43H80.96c0.007,0.802,0.194,1.415,0.562,1.837c0.367,0.422,0.892,0.634,1.576,0.634c0.333,0,0.626-0.023,0.878-0.07
								c0.253-0.046,0.572-0.147,0.959-0.301v0.483c-0.33,0.143-0.634,0.241-0.913,0.293C83.742,18.7,83.434,18.726,83.098,18.726z
								 M82.942,13.14c-0.562,0-1.013,0.185-1.354,0.556c-0.34,0.37-0.539,0.905-0.596,1.603h3.609c0-0.677-0.147-1.206-0.44-1.587
								C83.868,13.331,83.461,13.14,82.942,13.14z"/>
							<path d="M90.265,18.05l0.333-0.94l1.681-4.329h0.736v5.838H92.51v-5.194c-0.079,0.226-0.162,0.457-0.25,0.693
								c-0.087,0.236-0.672,1.737-1.753,4.501h-0.473l-1.617-4.104c-0.068-0.165-0.132-0.338-0.19-0.521
								c-0.06-0.183-0.125-0.379-0.196-0.591v5.215h-0.483v-5.838h0.704l1.687,4.297C90.07,17.425,90.179,17.749,90.265,18.05z"/>
							<path d="M96.137,10.766l0.064,0.107c-0.269,0.949-0.58,1.81-0.935,2.583h-0.349c0.104-0.344,0.213-0.776,0.328-1.297
								c0.115-0.521,0.202-0.986,0.263-1.394H96.137z"/>
							<path d="M100.495,18.726c-0.849,0-1.516-0.268-2-0.803c-0.485-0.535-0.728-1.265-0.728-2.188
								c0-0.949,0.251-1.697,0.754-2.245c0.503-0.548,1.187-0.822,2.049-0.822c0.222,0,0.477,0.023,0.765,0.07
								c0.289,0.046,0.537,0.111,0.744,0.193l-0.156,0.473c-0.211-0.075-0.449-0.136-0.711-0.183
								c-0.264-0.046-0.481-0.07-0.653-0.07c-0.663,0-1.184,0.188-1.563,0.564s-0.6,0.904-0.661,1.584h3.357v0.473h-3.378
								c0.007,0.777,0.206,1.383,0.596,1.818c0.39,0.436,0.915,0.653,1.574,0.653c0.562,0,1.071-0.095,1.525-0.285v0.494
								c-0.165,0.083-0.381,0.148-0.65,0.199S100.803,18.726,100.495,18.726z"/>
							<path d="M106.706,18.726c-0.899,0-1.554-0.336-1.966-1.01h-0.038l0.016,0.451c0.014,0.265,0.021,0.555,0.021,0.87v2.224
								h-0.532v-8.481h0.451l0.102,0.833h0.032c0.401-0.63,1.042-0.945,1.923-0.945c0.788,0,1.388,0.259,1.802,0.776
								c0.413,0.518,0.62,1.271,0.62,2.259c0,0.959-0.218,1.704-0.652,2.231C108.051,18.462,107.458,18.726,106.706,18.726z
								 M106.695,18.254c0.598,0,1.061-0.222,1.388-0.666c0.328-0.444,0.492-1.065,0.492-1.864c0-1.715-0.62-2.573-1.858-2.573
								c-0.68,0-1.18,0.187-1.499,0.561c-0.319,0.375-0.478,0.984-0.478,1.829v0.172c0,0.913,0.153,1.565,0.459,1.955
								C105.505,18.058,106.004,18.254,106.695,18.254z"/>
							<path d="M112.057,12.781v2.562h3.706v-2.562h0.526v5.838h-0.526v-2.814h-3.706v2.814h-0.532v-5.838H112.057z"/>
							<path d="M123.844,15.692c0,0.953-0.231,1.696-0.693,2.231c-0.462,0.536-1.099,0.803-1.912,0.803
								c-0.512,0-0.963-0.124-1.354-0.371s-0.689-0.602-0.897-1.063s-0.312-0.996-0.312-1.601c0-0.953,0.231-1.694,0.693-2.227
								c0.462-0.531,1.096-0.797,1.901-0.797c0.802,0,1.432,0.27,1.888,0.808C123.615,14.015,123.844,14.754,123.844,15.692z
								 M119.235,15.692c0,0.802,0.176,1.428,0.529,1.877c0.353,0.45,0.852,0.674,1.496,0.674s1.143-0.225,1.496-0.674
								c0.353-0.449,0.529-1.075,0.529-1.877c0-0.806-0.178-1.431-0.535-1.875c-0.356-0.444-0.856-0.666-1.501-0.666
								s-1.142,0.221-1.49,0.664C119.409,14.257,119.235,14.883,119.235,15.692z"/>
							<path d="M129.662,13.242h-2.9v5.376h-0.532v-5.838h3.432V13.242z"/>
							<path d="M136.459,15.692c0,0.953-0.231,1.696-0.693,2.231c-0.462,0.536-1.099,0.803-1.912,0.803
								c-0.512,0-0.963-0.124-1.354-0.371s-0.689-0.602-0.897-1.063s-0.312-0.996-0.312-1.601c0-0.953,0.231-1.694,0.693-2.227
								c0.462-0.531,1.096-0.797,1.901-0.797c0.802,0,1.432,0.27,1.888,0.808C136.231,14.015,136.459,14.754,136.459,15.692z
								 M131.85,15.692c0,0.802,0.176,1.428,0.529,1.877c0.353,0.45,0.852,0.674,1.496,0.674s1.143-0.225,1.496-0.674
								c0.353-0.449,0.529-1.075,0.529-1.877c0-0.806-0.178-1.431-0.535-1.875c-0.356-0.444-0.856-0.666-1.501-0.666
								s-1.142,0.221-1.49,0.664C132.025,14.257,131.85,14.883,131.85,15.692z"/>
							<path d="M14.651,33.619h-0.532v-5.838h4.657v5.838h-0.532v-5.333h-3.593V33.619z"/>
							<path d="M23.859,33.726c-0.849,0-1.51-0.261-1.984-0.784c-0.475-0.523-0.712-1.255-0.712-2.197
								c0-0.931,0.229-1.677,0.688-2.237c0.458-0.56,1.076-0.84,1.853-0.84c0.688,0,1.23,0.24,1.627,0.72s0.596,1.131,0.596,1.955
								v0.43h-4.206c0.007,0.802,0.194,1.415,0.562,1.837c0.367,0.422,0.892,0.634,1.576,0.634c0.333,0,0.626-0.023,0.878-0.07
								c0.253-0.046,0.572-0.147,0.959-0.301v0.483c-0.33,0.143-0.634,0.241-0.913,0.293C24.503,33.7,24.195,33.726,23.859,33.726z
								 M23.703,28.14c-0.562,0-1.013,0.185-1.354,0.556c-0.34,0.37-0.539,0.905-0.596,1.603h3.609c0-0.677-0.147-1.206-0.44-1.587
								C24.629,28.331,24.222,28.14,23.703,28.14z"/>
							<path d="M30.805,33.726c-0.899,0-1.554-0.336-1.966-1.01h-0.038l0.016,0.451c0.014,0.265,0.021,0.555,0.021,0.87v2.224
								h-0.532v-8.481h0.451l0.102,0.833h0.032c0.401-0.63,1.042-0.945,1.923-0.945c0.788,0,1.388,0.259,1.802,0.776
								c0.413,0.518,0.62,1.271,0.62,2.259c0,0.959-0.218,1.704-0.652,2.231C32.151,33.462,31.557,33.726,30.805,33.726z
								 M30.795,33.254c0.598,0,1.061-0.222,1.388-0.666c0.328-0.444,0.492-1.065,0.492-1.864c0-1.715-0.62-2.573-1.858-2.573
								c-0.68,0-1.18,0.187-1.499,0.561c-0.319,0.375-0.478,0.984-0.478,1.829v0.172c0,0.913,0.153,1.565,0.459,1.955
								C29.605,33.058,30.104,33.254,30.795,33.254z"/>
							<path d="M35.55,26.158c0-0.344,0.113-0.516,0.338-0.516c0.111,0,0.198,0.045,0.26,0.134c0.063,0.089,0.094,0.217,0.094,0.381
								c0,0.161-0.031,0.288-0.094,0.381c-0.063,0.093-0.149,0.14-0.26,0.14C35.663,26.679,35.55,26.506,35.55,26.158z
								 M36.157,33.619h-0.532v-5.838h0.532V33.619z"/>
							<path d="M43.711,30.692c0,0.953-0.231,1.696-0.693,2.231c-0.462,0.536-1.099,0.803-1.912,0.803
								c-0.512,0-0.963-0.124-1.354-0.371s-0.689-0.602-0.897-1.063s-0.312-0.996-0.312-1.601c0-0.953,0.231-1.694,0.693-2.227
								c0.462-0.531,1.096-0.797,1.901-0.797c0.802,0,1.432,0.27,1.888,0.808C43.483,29.015,43.711,29.754,43.711,30.692z
								 M39.102,30.692c0,0.802,0.176,1.428,0.529,1.877c0.353,0.45,0.852,0.674,1.496,0.674s1.143-0.225,1.496-0.674
								c0.353-0.449,0.529-1.075,0.529-1.877c0-0.806-0.178-1.431-0.535-1.875c-0.356-0.444-0.856-0.666-1.501-0.666
								s-1.142,0.221-1.49,0.664C39.277,29.257,39.102,29.883,39.102,30.692z"/>
							<path d="M50.862,35.601h-0.526v-1.982h-4.469v1.982H45.34v-2.487h0.387c0.487-0.684,0.863-1.477,1.128-2.379
								s0.405-1.887,0.419-2.954h2.809v5.333h0.779V35.601z M49.551,33.114v-4.839h-1.815c-0.086,1.937-0.555,3.55-1.407,4.839
								H49.551z"/>
							<path d="M51.895,27.781h0.548l1.235,3.276c0.376,1.006,0.614,1.685,0.714,2.036h0.032c0.15-0.462,0.396-1.151,0.736-2.068
								l1.235-3.244h0.548l-2.616,6.784c-0.211,0.551-0.389,0.924-0.532,1.117s-0.311,0.338-0.502,0.435
								c-0.192,0.097-0.424,0.145-0.696,0.145c-0.204,0-0.432-0.038-0.682-0.113v-0.462c0.208,0.057,0.432,0.086,0.671,0.086
								c0.183,0,0.344-0.043,0.483-0.129s0.266-0.219,0.378-0.4c0.113-0.181,0.244-0.467,0.393-0.859
								c0.148-0.392,0.244-0.647,0.287-0.765L51.895,27.781z"/>
						</g>
					</g>
				</g>
			</g>
			<circle fill="none" stroke="#FFD600" stroke-width="1.1587" stroke-miterlimit="10" cx="33.398" cy="313.196" r="18.037"/>
		</g>
	</g>
	
		<line fill="none" stroke="#FF4C29" stroke-miterlimit="10" stroke-dasharray="3,4" x1="394.795" y1="291.593" x2="394.795" y2="67.593"/>
</g>
</svg>
