<?xml version="1.0" encoding="utf-8"?>
<!-- Generator: Adobe Illustrator 16.0.0, SVG Export Plug-In . SVG Version: 6.00 Build 0)  -->
<!DOCTYPE svg PUBLIC "-//W3C//DTD SVG 1.1//EN" "http://www.w3.org/Graphics/SVG/1.1/DTD/svg11.dtd">
<svg version="1.1" id="Layer_1" xmlns="http://www.w3.org/2000/svg" xmlns:xlink="http://www.w3.org/1999/xlink" x="0px" y="0px"
	 width="1541.5px" height="334px" viewBox="0 0 1541.5 334" enable-background="new 0 0 1541.5 334" xml:space="preserve">
<g>
	<g>
		<g>
			<g>
				<g>
					
						<line fill="none" stroke="#ADADAD" stroke-width="0.7212" stroke-miterlimit="10" x1="30.129" y1="235.514" x2="31.571" y2="235.514"/>
					
						<line fill="none" stroke="#ADADAD" stroke-width="0.7212" stroke-miterlimit="10" stroke-dasharray="2.8794,4.319" x1="35.889" y1="235.514" x2="1538.197" y2="235.514"/>
					
						<line fill="none" stroke="#ADADAD" stroke-width="0.7212" stroke-miterlimit="10" x1="1540.356" y1="235.514" x2="1541.799" y2="235.514"/>
				</g>
			</g>
		</g>
		<g>
			<g>
				<g>
					
						<line fill="none" stroke="#ADADAD" stroke-width="0.7212" stroke-miterlimit="10" x1="30.129" y1="179.756" x2="31.571" y2="179.756"/>
					
						<line fill="none" stroke="#ADADAD" stroke-width="0.7212" stroke-miterlimit="10" stroke-dasharray="2.8794,4.319" x1="35.889" y1="179.756" x2="1538.197" y2="179.756"/>
					
						<line fill="none" stroke="#ADADAD" stroke-width="0.7212" stroke-miterlimit="10" x1="1540.356" y1="179.756" x2="1541.799" y2="179.756"/>
				</g>
			</g>
		</g>
		<g>
			<g>
				<g>
					
						<line fill="none" stroke="#ADADAD" stroke-width="0.7212" stroke-miterlimit="10" x1="30.129" y1="124.002" x2="31.571" y2="124.002"/>
					
						<line fill="none" stroke="#ADADAD" stroke-width="0.7212" stroke-miterlimit="10" stroke-dasharray="2.8794,4.319" x1="35.889" y1="124.002" x2="1538.197" y2="124.002"/>
					
						<line fill="none" stroke="#ADADAD" stroke-width="0.7212" stroke-miterlimit="10" x1="1540.356" y1="124.002" x2="1541.799" y2="124.002"/>
				</g>
			</g>
		</g>
		<g>
			<g>
				<g>
					
						<line fill="none" stroke="#ADADAD" stroke-width="0.7212" stroke-miterlimit="10" x1="1541.799" y1="68.247" x2="1540.356" y2="68.247"/>
					
						<line fill="none" stroke="#ADADAD" stroke-width="0.7212" stroke-miterlimit="10" stroke-dasharray="2.8794,4.319" x1="1536.037" y1="68.247" x2="33.731" y2="68.247"/>
					
						<line fill="none" stroke="#ADADAD" stroke-width="0.7212" stroke-miterlimit="10" x1="31.571" y1="68.247" x2="30.129" y2="68.247"/>
				</g>
			</g>
		</g>
		<g>
			<g>
				<path fill="#676767" d="M89.808,308.227v8.641h-1.846v-7.188h-3.875v7.188h-1.836v-8.641H89.808z"/>
				<path fill="#676767" d="M98.927,308.227v1.438h-2.813v7.203h-1.845v-7.203h-2.813v-1.438H98.927z"/>
			</g>
		</g>
		<g>
			<g>
				<path fill="#676767" d="M140.097,317.022c-1.31,0-2.303-0.381-2.979-1.146c-0.68-0.764-1.021-1.855-1.021-3.285
					c0-1.451,0.354-2.568,1.064-3.352s1.738-1.172,3.082-1.172c0.911,0,1.73,0.168,2.461,0.508l-0.555,1.479
					c-0.776-0.303-1.417-0.453-1.922-0.453c-1.495,0-2.242,0.99-2.242,2.977c0,0.971,0.186,1.697,0.559,2.187
					c0.372,0.485,0.918,0.729,1.639,0.729c0.815,0,1.592-0.203,2.318-0.606v1.603c-0.328,0.19-0.679,0.33-1.051,0.414
					C141.081,316.981,140.629,317.022,140.097,317.022z"/>
				<path fill="#676767" d="M144.035,311.68c0-1.93,0.327-3.41,0.979-4.445c0.651-1.037,1.692-1.703,3.12-2
					c1.077-0.219,2.319-0.436,3.729-0.641l0.258,1.615c-1.708,0.262-2.958,0.463-3.75,0.607c-0.817,0.15-1.408,0.488-1.771,1.008
					c-0.361,0.521-0.571,1.307-0.629,2.354h0.115c0.298-0.436,0.688-0.77,1.164-1.006c0.479-0.236,0.992-0.354,1.539-0.354
					c1.063,0,1.893,0.336,2.484,1.008s0.891,1.613,0.891,2.828c0,1.391-0.359,2.465-1.082,3.227
					c-0.722,0.764-1.72,1.143-2.996,1.143c-1.266,0-2.258-0.469-2.977-1.406C144.392,314.682,144.035,313.365,144.035,311.68z
					 M148.215,315.522c1.364,0,2.049-0.896,2.049-2.688c0-1.729-0.617-2.594-1.854-2.594c-0.339,0-0.667,0.072-0.983,0.219
					c-0.316,0.147-0.609,0.34-0.88,0.578c-0.269,0.238-0.476,0.486-0.62,0.742c0,1.229,0.194,2.16,0.587,2.793
					C146.903,315.205,147.469,315.522,148.215,315.522z"/>
			</g>
		</g>
		<g>
			<g>
				<path fill="#676767" d="M27.685,308.227v3.154c0,0.887,0.458,1.328,1.375,1.328c0.44,0,0.875-0.063,1.298-0.186
					c0.422-0.121,0.875-0.318,1.356-0.59v-3.711h1.837v8.641h-1.837v-3.664c-0.505,0.314-0.992,0.543-1.465,0.691
					c-0.472,0.146-0.984,0.223-1.543,0.223c-0.899,0-1.604-0.232-2.107-0.699c-0.506-0.465-0.76-1.117-0.76-1.955v-3.232H27.685
					L27.685,308.227z"/>
				<path fill="#676767" d="M42.671,308.227v1.438h-2.813v7.203h-1.845v-7.203H35.2v-1.438H42.671z"/>
			</g>
		</g>
		<g>
			<g>
				<path fill="#676767" d="M193.268,308.227v3.469h4.068v-3.469h1.836v8.641h-1.836v-3.727h-4.068v3.727h-1.836v-8.641H193.268z"/>
				<path fill="#676767" d="M210.09,319.92h-1.711v-3.057h-5.922v3.057h-1.693v-4.479h0.701c0.614-0.879,1.104-1.943,1.467-3.189
					c0.36-1.248,0.575-2.592,0.646-4.025h5.25v7.219h1.267L210.09,319.92L210.09,319.92z M207.018,315.444v-5.813h-1.858
					c-0.1,1.072-0.307,2.131-0.621,3.174c-0.313,1.041-0.699,1.922-1.151,2.641h3.633L207.018,315.444L207.018,315.444z"/>
			</g>
		</g>
		<g>
			<g>
				<path fill="#676767" d="M255.784,308.227v8.641h-1.844v-7.188h-3.875v7.188h-1.836v-8.641H255.784z"/>
				<path fill="#676767" d="M260.245,308.227v3.469h4.07v-3.469h1.836v8.641h-1.836v-3.727h-4.07v3.727h-1.836v-8.641H260.245z"/>
			</g>
		</g>
		<g>
			<g>
				<path fill="#676767" d="M311.992,310.436c0,1.021-0.597,1.639-1.789,1.852v0.064c0.667,0.078,1.178,0.289,1.531,0.633
					c0.353,0.344,0.531,0.789,0.531,1.336c0,0.816-0.313,1.445-0.937,1.887c-0.623,0.439-1.524,0.66-2.715,0.66h-4.125v-8.641h4.109
					C310.862,308.227,311.992,308.961,311.992,310.436z M310.156,310.594c0-0.348-0.134-0.596-0.402-0.746
					c-0.269-0.154-0.668-0.23-1.197-0.23h-2.229v2.078h1.953c0.614,0,1.081-0.08,1.398-0.238
					C309.997,311.295,310.156,311.01,310.156,310.594z M310.385,314.209c0-0.418-0.162-0.713-0.483-0.889
					c-0.323-0.174-0.809-0.262-1.453-0.262h-2.117v2.443h2.164C309.752,315.506,310.385,315.074,310.385,314.209z"/>
				<path fill="#676767" d="M320.648,308.227v1.438h-2.813v7.203h-1.845v-7.203h-2.812v-1.438H320.648z"/>
			</g>
		</g>
		<g>
			<g>
				<path fill="#676767" d="M362.45,317.022c-1.308,0-2.301-0.381-2.979-1.146c-0.682-0.764-1.021-1.855-1.021-3.285
					c0-1.451,0.354-2.568,1.065-3.352c0.712-0.781,1.737-1.172,3.082-1.172c0.911,0,1.729,0.168,2.461,0.508l-0.556,1.479
					c-0.774-0.303-1.418-0.453-1.923-0.453c-1.495,0-2.241,0.99-2.241,2.977c0,0.971,0.188,1.697,0.561,2.187
					c0.372,0.485,0.918,0.729,1.637,0.729c0.817,0,1.591-0.203,2.32-0.606v1.603c-0.328,0.19-0.679,0.33-1.052,0.414
					C363.433,316.981,362.981,317.022,362.45,317.022z"/>
				<path fill="#676767" d="M371.27,317.022c-1.096,0-1.943-0.395-2.548-1.182h-0.108c0.073,0.729,0.108,1.174,0.108,1.328v3.539
					h-1.836v-12.482h1.482c0.042,0.162,0.127,0.547,0.259,1.154h0.095c0.571-0.875,1.433-1.313,2.577-1.313
					c1.078,0,1.919,0.391,2.521,1.172s0.901,1.877,0.901,3.289c0,1.41-0.308,2.514-0.918,3.305
					C373.193,316.625,372.347,317.022,371.27,317.022z M370.825,309.569c-0.729,0-1.262,0.215-1.598,0.643
					c-0.337,0.428-0.505,1.107-0.505,2.047v0.271c0,1.053,0.168,1.814,0.5,2.285c0.334,0.473,0.877,0.707,1.634,0.707
					c0.635,0,1.125-0.262,1.469-0.781c0.345-0.521,0.518-1.262,0.518-2.227c0-0.971-0.173-1.701-0.514-2.199
					C371.988,309.819,371.486,309.569,370.825,309.569z"/>
			</g>
		</g>
		<g>
			
				<line fill="none" stroke="#0E1968" stroke-width="5" stroke-linecap="round" stroke-miterlimit="10" x1="362.806" y1="295.465" x2="362.806" y2="119.807"/>
			
				<line fill="none" stroke="#49B4DA" stroke-width="5" stroke-linecap="round" stroke-miterlimit="10" x1="370.514" y1="295.42" x2="370.514" y2="68.247"/>
			
				<line fill="none" stroke="#0E1968" stroke-width="5" stroke-linecap="round" stroke-miterlimit="10" x1="417.678" y1="295.465" x2="417.678" y2="174.983"/>
			
				<line fill="none" stroke="#49B4DA" stroke-width="5" stroke-linecap="round" stroke-miterlimit="10" x1="425.382" y1="295.42" x2="425.382" y2="68.247"/>
			
				<line fill="none" stroke="#0E1968" stroke-width="5" stroke-linecap="round" stroke-miterlimit="10" x1="473.123" y1="295.465" x2="473.123" y2="174.983"/>
			
				<line fill="none" stroke="#49B4DA" stroke-width="5" stroke-linecap="round" stroke-miterlimit="10" x1="480.828" y1="295.42" x2="480.828" y2="68.247"/>
			
				<line fill="none" stroke="#0E1968" stroke-width="5" stroke-linecap="round" stroke-miterlimit="10" x1="528.57" y1="295.465" x2="528.57" y2="124.002"/>
			
				<line fill="none" stroke="#49B4DA" stroke-width="5" stroke-linecap="round" stroke-miterlimit="10" x1="536.275" y1="295.42" x2="536.275" y2="68.247"/>
			
				<line fill="none" stroke="#0E1968" stroke-width="5" stroke-linecap="round" stroke-miterlimit="10" x1="584.017" y1="295.465" x2="584.017" y2="124.002"/>
			
				<line fill="none" stroke="#49B4DA" stroke-width="5" stroke-linecap="round" stroke-miterlimit="10" x1="591.722" y1="295.42" x2="591.722" y2="68.247"/>
			
				<line fill="none" stroke="#0E1968" stroke-width="5" stroke-linecap="round" stroke-miterlimit="10" x1="639.464" y1="295.465" x2="639.464" y2="177.987"/>
			
				<line fill="none" stroke="#49B4DA" stroke-width="5" stroke-linecap="round" stroke-miterlimit="10" x1="647.17" y1="295.42" x2="647.17" y2="177.987"/>
			
				<line fill="none" stroke="#0E1968" stroke-width="5" stroke-linecap="round" stroke-miterlimit="10" x1="694.909" y1="295.465" x2="694.909" y2="177.987"/>
			
				<line fill="none" stroke="#49B4DA" stroke-width="5" stroke-linecap="round" stroke-miterlimit="10" x1="702.617" y1="295.42" x2="702.617" y2="177.987"/>
			
				<line fill="none" stroke="#0E1968" stroke-width="5" stroke-linecap="round" stroke-miterlimit="10" x1="750.555" y1="295.465" x2="750.555" y2="178.563"/>
			
				<line fill="none" stroke="#49B4DA" stroke-width="5" stroke-linecap="round" stroke-miterlimit="10" x1="758.262" y1="295.42" x2="758.262" y2="178.563"/>
			
				<line fill="none" stroke="#0E1968" stroke-width="5" stroke-linecap="round" stroke-miterlimit="10" x1="807.836" y1="295.465" x2="807.836" y2="234.319"/>
			
				<line fill="none" stroke="#49B4DA" stroke-width="5" stroke-linecap="round" stroke-miterlimit="10" x1="815.543" y1="295.42" x2="815.543" y2="178.293"/>
			
				<line fill="none" stroke="#0E1968" stroke-width="5" stroke-linecap="round" stroke-miterlimit="10" x1="863.284" y1="295.465" x2="863.284" y2="234.319"/>
			
				<line fill="none" stroke="#49B4DA" stroke-width="5" stroke-linecap="round" stroke-miterlimit="10" x1="870.989" y1="295.42" x2="870.989" y2="178.293"/>
			
				<line fill="none" stroke="#0E1968" stroke-width="5" stroke-linecap="round" stroke-miterlimit="10" x1="918.729" y1="295.465" x2="918.729" y2="179.295"/>
			
				<line fill="none" stroke="#49B4DA" stroke-width="5" stroke-linecap="round" stroke-miterlimit="10" x1="926.436" y1="295.42" x2="926.436" y2="68.247"/>
			
				<line fill="none" stroke="#0E1968" stroke-width="5" stroke-linecap="round" stroke-miterlimit="10" x1="974.177" y1="295.465" x2="974.177" y2="179.295"/>
			
				<line fill="none" stroke="#49B4DA" stroke-width="5" stroke-linecap="round" stroke-miterlimit="10" x1="981.884" y1="295.42" x2="981.884" y2="68.247"/>
			
				<line fill="none" stroke="#0E1968" stroke-width="5" stroke-linecap="round" stroke-miterlimit="10" x1="1029.622" y1="295.465" x2="1029.622" y2="234.319"/>
			
				<line fill="none" stroke="#49B4DA" stroke-width="5" stroke-linecap="round" stroke-miterlimit="10" x1="1037.328" y1="295.42" x2="1037.328" y2="177.987"/>
			
				<line fill="none" stroke="#0E1968" stroke-width="5" stroke-linecap="round" stroke-miterlimit="10" x1="1085.069" y1="295.465" x2="1085.069" y2="234.319"/>
			
				<line fill="none" stroke="#49B4DA" stroke-width="5" stroke-linecap="round" stroke-miterlimit="10" x1="1092.776" y1="295.42" x2="1092.776" y2="177.987"/>
			
				<line fill="none" stroke="#0E1968" stroke-width="5" stroke-linecap="round" stroke-miterlimit="10" x1="1140.516" y1="295.465" x2="1140.516" y2="234.319"/>
			
				<line fill="none" stroke="#49B4DA" stroke-width="5" stroke-linecap="round" stroke-miterlimit="10" x1="1148.222" y1="295.42" x2="1148.222" y2="177.987"/>
			
				<line fill="none" stroke="#0E1968" stroke-width="5" stroke-linecap="round" stroke-miterlimit="10" x1="1194.521" y1="295.465" x2="1194.521" y2="263.391"/>
			
				<line fill="none" stroke="#49B4DA" stroke-width="5" stroke-linecap="round" stroke-miterlimit="10" x1="1202.227" y1="295.42" x2="1202.227" y2="177.996"/>
			
				<line fill="none" stroke="#49B4DA" stroke-width="5" stroke-linecap="round" stroke-miterlimit="10" x1="1251.802" y1="295.465" x2="1251.802" y2="263.367"/>
			
				<line fill="none" stroke="#0E1968" stroke-width="5" stroke-linecap="round" stroke-miterlimit="10" x1="1251.802" y1="295.465" x2="1251.802" y2="263.367"/>
			
				<line fill="none" stroke="#49B4DA" stroke-width="5" stroke-linecap="round" stroke-miterlimit="10" x1="1259.51" y1="295.42" x2="1259.51" y2="177.975"/>
			
				<line fill="none" stroke="#0E1968" stroke-width="5" stroke-linecap="round" stroke-miterlimit="10" x1="1307.25" y1="295.465" x2="1307.25" y2="234.319"/>
			
				<line fill="none" stroke="#49B4DA" stroke-width="5" stroke-linecap="round" stroke-miterlimit="10" x1="1314.954" y1="295.42" x2="1314.954" y2="68.247"/>
			
				<line fill="none" stroke="#0E1968" stroke-width="5" stroke-linecap="round" stroke-miterlimit="10" x1="1362.695" y1="295.465" x2="1362.695" y2="234.319"/>
			
				<line fill="none" stroke="#49B4DA" stroke-width="5" stroke-linecap="round" stroke-miterlimit="10" x1="1370.402" y1="295.42" x2="1370.402" y2="68.247"/>
			
				<line fill="none" stroke="#0E1968" stroke-width="5" stroke-linecap="round" stroke-miterlimit="10" x1="1418.142" y1="295.465" x2="1418.142" y2="263.367"/>
			
				<line fill="none" stroke="#49B4DA" stroke-width="5" stroke-linecap="round" stroke-miterlimit="10" x1="1425.847" y1="295.42" x2="1425.847" y2="177.975"/>
			
				<line fill="none" stroke="#0E1968" stroke-width="5" stroke-linecap="round" stroke-miterlimit="10" x1="1473.589" y1="295.465" x2="1473.589" y2="263.367"/>
			
				<line fill="none" stroke="#49B4DA" stroke-width="5" stroke-linecap="round" stroke-miterlimit="10" x1="1481.296" y1="295.42" x2="1481.296" y2="177.975"/>
			
				<line fill="none" stroke="#0E1968" stroke-width="5" stroke-linecap="round" stroke-miterlimit="10" x1="1529.035" y1="295.465" x2="1529.035" y2="263.367"/>
			
				<line fill="none" stroke="#49B4DA" stroke-width="5" stroke-linecap="round" stroke-miterlimit="10" x1="1536.742" y1="295.42" x2="1536.742" y2="177.975"/>
			
				<line fill="none" stroke="#0E1968" stroke-width="5" stroke-linecap="round" stroke-miterlimit="10" x1="85.575" y1="295.465" x2="85.575" y2="119.807"/>
			
				<line fill="none" stroke="#49B4DA" stroke-width="5" stroke-linecap="round" stroke-miterlimit="10" x1="93.281" y1="295.42" x2="93.281" y2="68.247"/>
			
				<line fill="none" stroke="#0E1968" stroke-width="5" stroke-linecap="round" stroke-miterlimit="10" x1="141.022" y1="295.465" x2="141.022" y2="64.05"/>
			
				<line fill="none" stroke="#49B4DA" stroke-width="5" stroke-linecap="round" stroke-miterlimit="10" x1="148.725" y1="295.42" x2="148.725" y2="64.05"/>
			
				<line fill="none" stroke="#0E1968" stroke-width="5" stroke-linecap="round" stroke-miterlimit="10" x1="196.469" y1="295.465" x2="196.469" y2="64.05"/>
			
				<line fill="none" stroke="#49B4DA" stroke-width="5" stroke-linecap="round" stroke-miterlimit="10" x1="204.173" y1="295.42" x2="204.173" y2="64.05"/>
			
				<line fill="none" stroke="#0E1968" stroke-width="5" stroke-linecap="round" stroke-miterlimit="10" x1="251.914" y1="295.465" x2="251.914" y2="119.807"/>
			
				<line fill="none" stroke="#49B4DA" stroke-width="5" stroke-linecap="round" stroke-miterlimit="10" x1="259.619" y1="295.42" x2="259.619" y2="68.247"/>
			
				<line fill="none" stroke="#0E1968" stroke-width="5" stroke-linecap="round" stroke-miterlimit="10" x1="307.362" y1="295.465" x2="307.362" y2="119.807"/>
			
				<line fill="none" stroke="#49B4DA" stroke-width="5" stroke-linecap="round" stroke-miterlimit="10" x1="315.067" y1="295.42" x2="315.067" y2="68.247"/>
			
				<line fill="none" stroke="#0E1968" stroke-width="5" stroke-linecap="round" stroke-miterlimit="10" x1="30.129" y1="295.465" x2="30.129" y2="119.807"/>
			
				<line fill="none" stroke="#49B4DA" stroke-width="5" stroke-linecap="round" stroke-miterlimit="10" x1="37.833" y1="295.42" x2="37.833" y2="68.247"/>
			<polyline fill="#FFFFFF" points="7.877,328.186 7.877,291.953 1542.59,291.953 1542.59,328.186 			"/>
			
				<line fill="none" stroke="#ADADAD" stroke-width="0.7212" stroke-miterlimit="10" stroke-dasharray="2.8848,4.3272" x1="30.129" y1="292.147" x2="1541.576" y2="292.147"/>
		</g>
		<g>
			<g>
				<path fill="#676767" d="M89.808,308.227v8.641h-1.846v-7.188h-3.875v7.188h-1.836v-8.641H89.808z"/>
				<path fill="#676767" d="M98.927,308.227v1.438h-2.813v7.203h-1.845v-7.203h-2.813v-1.438H98.927z"/>
			</g>
		</g>
		<g>
			<g>
				<path fill="#FF4C29" d="M140.097,317.022c-1.309,0-2.303-0.381-2.979-1.146c-0.68-0.764-1.021-1.855-1.021-3.285
					c0-1.451,0.354-2.568,1.064-3.352s1.738-1.172,3.082-1.172c0.912,0,1.731,0.168,2.461,0.508l-0.555,1.479
					c-0.776-0.303-1.417-0.453-1.922-0.453c-1.495,0-2.242,0.99-2.242,2.977c0,0.971,0.186,1.697,0.559,2.187
					c0.373,0.488,0.918,0.729,1.639,0.729c0.816,0,1.592-0.203,2.318-0.606v1.603c-0.328,0.19-0.678,0.33-1.051,0.414
					C141.08,316.981,140.629,317.022,140.097,317.022z"/>
				<path fill="#FF4C29" d="M144.035,311.68c0-1.93,0.327-3.41,0.979-4.445c0.651-1.037,1.692-1.703,3.12-2
					c1.077-0.219,2.319-0.436,3.729-0.641l0.258,1.615c-1.708,0.262-2.958,0.463-3.75,0.607c-0.817,0.15-1.408,0.488-1.771,1.008
					c-0.361,0.521-0.571,1.307-0.629,2.354h0.115c0.298-0.436,0.688-0.77,1.164-1.006c0.479-0.236,0.992-0.354,1.539-0.354
					c1.063,0,1.893,0.336,2.484,1.008s0.891,1.613,0.891,2.828c0,1.391-0.359,2.465-1.082,3.227
					c-0.721,0.764-1.72,1.143-2.996,1.143c-1.266,0-2.258-0.469-2.977-1.406C144.392,314.682,144.035,313.365,144.035,311.68z
					 M148.215,315.522c1.365,0,2.049-0.896,2.049-2.688c0-1.729-0.617-2.594-1.854-2.594c-0.338,0-0.667,0.072-0.983,0.219
					c-0.315,0.146-0.609,0.34-0.88,0.578c-0.268,0.238-0.475,0.486-0.62,0.742c0,1.229,0.194,2.16,0.587,2.793
					C146.903,315.205,147.471,315.522,148.215,315.522z"/>
			</g>
		</g>
		<g>
			<g>
				<path fill="#676767" d="M27.685,308.227v3.154c0,0.887,0.458,1.328,1.375,1.328c0.44,0,0.875-0.063,1.298-0.186
					c0.422-0.121,0.875-0.318,1.356-0.59v-3.711h1.837v8.641h-1.837v-3.664c-0.505,0.314-0.992,0.543-1.465,0.691
					c-0.472,0.146-0.984,0.223-1.543,0.223c-0.899,0-1.604-0.232-2.107-0.699c-0.506-0.465-0.76-1.117-0.76-1.955v-3.232H27.685
					L27.685,308.227z"/>
				<path fill="#676767" d="M42.671,308.227v1.438h-2.813v7.203h-1.845v-7.203H35.2v-1.438H42.671z"/>
			</g>
		</g>
		<g>
			<g>
				<path fill="#FF4C29" d="M193.268,308.227v3.469h4.068v-3.469h1.836v8.641h-1.836v-3.727h-4.068v3.727h-1.836v-8.641H193.268z"/>
				<path fill="#FF4C29" d="M210.09,319.92h-1.711v-3.057h-5.922v3.057h-1.693v-4.479h0.701c0.614-0.879,1.104-1.943,1.467-3.189
					c0.36-1.248,0.575-2.592,0.646-4.025h5.25v7.219h1.267L210.09,319.92L210.09,319.92z M207.018,315.444v-5.813h-1.858
					c-0.1,1.072-0.307,2.131-0.621,3.174c-0.313,1.041-0.699,1.922-1.151,2.641h3.633L207.018,315.444L207.018,315.444z"/>
			</g>
		</g>
		<g>
			<g>
				<path fill="#676767" d="M255.784,308.227v8.641h-1.844v-7.188h-3.875v7.188h-1.836v-8.641H255.784z"/>
				<path fill="#676767" d="M260.245,308.227v3.469h4.07v-3.469h1.836v8.641h-1.836v-3.727h-4.07v3.727h-1.836v-8.641H260.245z"/>
			</g>
		</g>
		<g>
			<g>
				<path fill="#676767" d="M311.992,310.436c0,1.021-0.597,1.639-1.789,1.852v0.064c0.667,0.078,1.178,0.289,1.531,0.633
					c0.353,0.344,0.531,0.789,0.531,1.336c0,0.816-0.313,1.445-0.937,1.887c-0.623,0.439-1.524,0.66-2.715,0.66h-4.125v-8.641h4.109
					C310.862,308.227,311.992,308.961,311.992,310.436z M310.156,310.594c0-0.348-0.134-0.596-0.402-0.746
					c-0.269-0.154-0.668-0.23-1.197-0.23h-2.229v2.078h1.953c0.614,0,1.081-0.08,1.398-0.238
					C309.997,311.295,310.156,311.01,310.156,310.594z M310.385,314.209c0-0.418-0.162-0.713-0.483-0.889
					c-0.323-0.174-0.809-0.262-1.453-0.262h-2.117v2.443h2.164C309.752,315.506,310.385,315.074,310.385,314.209z"/>
				<path fill="#676767" d="M320.648,308.227v1.438h-2.813v7.203h-1.845v-7.203h-2.812v-1.438H320.648z"/>
			</g>
		</g>
		<g>
			<g>
				<path fill="#676767" d="M362.45,317.022c-1.308,0-2.301-0.381-2.979-1.146c-0.682-0.764-1.021-1.855-1.021-3.285
					c0-1.451,0.354-2.568,1.065-3.352c0.712-0.781,1.737-1.172,3.082-1.172c0.911,0,1.729,0.168,2.461,0.508l-0.556,1.479
					c-0.774-0.303-1.418-0.453-1.923-0.453c-1.495,0-2.241,0.99-2.241,2.977c0,0.971,0.188,1.697,0.561,2.187
					c0.372,0.485,0.918,0.729,1.637,0.729c0.817,0,1.591-0.203,2.32-0.606v1.603c-0.328,0.19-0.679,0.33-1.052,0.414
					C363.433,316.981,362.981,317.022,362.45,317.022z"/>
				<path fill="#676767" d="M371.27,317.022c-1.096,0-1.943-0.395-2.548-1.182h-0.108c0.073,0.729,0.108,1.174,0.108,1.328v3.539
					h-1.836v-12.482h1.482c0.042,0.162,0.127,0.547,0.259,1.154h0.095c0.571-0.875,1.433-1.313,2.577-1.313
					c1.078,0,1.919,0.391,2.521,1.172s0.901,1.877,0.901,3.289c0,1.41-0.308,2.514-0.918,3.305
					C373.193,316.625,372.347,317.022,371.27,317.022z M370.825,309.569c-0.729,0-1.262,0.215-1.598,0.643
					c-0.337,0.428-0.505,1.107-0.505,2.047v0.271c0,1.053,0.168,1.814,0.5,2.285c0.334,0.473,0.877,0.707,1.634,0.707
					c0.635,0,1.125-0.262,1.469-0.781c0.345-0.521,0.518-1.262,0.518-2.227c0-0.971-0.173-1.701-0.514-2.199
					C371.988,309.819,371.486,309.569,370.825,309.569z"/>
			</g>
		</g>
		<g>
			<g>
				<path fill="#676767" d="M1254.569,308.227v8.641h-1.844v-7.188h-3.875v7.188h-1.837v-8.641H1254.569z"/>
				<path fill="#676767" d="M1263.686,308.227v1.438h-2.813v7.203h-1.844v-7.203h-2.813v-1.438H1263.686z"/>
			</g>
		</g>
		<g>
			<g>
				<path fill="#FF4C29" d="M1304.858,317.022c-1.309,0-2.302-0.381-2.979-1.146c-0.68-0.764-1.021-1.855-1.021-3.285
					c0-1.451,0.354-2.568,1.065-3.352s1.736-1.172,3.082-1.172c0.91,0,1.729,0.168,2.461,0.508l-0.557,1.479
					c-0.773-0.303-1.417-0.453-1.922-0.453c-1.495,0-2.242,0.99-2.242,2.977c0,0.971,0.188,1.697,0.562,2.187
					c0.372,0.485,0.918,0.729,1.637,0.729c0.817,0,1.591-0.203,2.319-0.606v1.603c-0.328,0.19-0.68,0.33-1.051,0.414
					C1305.842,316.981,1305.389,317.022,1304.858,317.022z"/>
				<path fill="#FF4C29" d="M1308.796,311.68c0-1.93,0.325-3.41,0.979-4.445c0.652-1.037,1.693-1.703,3.121-2
					c1.078-0.219,2.318-0.436,3.727-0.641l0.26,1.615c-1.709,0.262-2.959,0.463-3.75,0.607c-0.817,0.15-1.408,0.488-1.771,1.008
					c-0.361,0.521-0.572,1.307-0.629,2.354h0.117c0.297-0.436,0.685-0.77,1.164-1.006c0.479-0.236,0.99-0.354,1.537-0.354
					c1.063,0,1.893,0.336,2.483,1.008s0.892,1.613,0.892,2.828c0,1.391-0.359,2.465-1.082,3.227
					c-0.723,0.764-1.722,1.143-2.994,1.143c-1.269,0-2.26-0.469-2.979-1.406C1309.152,314.682,1308.796,313.365,1308.796,311.68z
					 M1312.974,315.522c1.365,0,2.048-0.896,2.048-2.688c0-1.729-0.617-2.594-1.854-2.594c-0.339,0-0.666,0.072-0.982,0.219
					c-0.317,0.147-0.61,0.34-0.879,0.578c-0.271,0.238-0.478,0.486-0.621,0.742c0,1.229,0.193,2.16,0.587,2.793
					C1311.663,315.205,1312.23,315.522,1312.974,315.522z"/>
			</g>
		</g>
		<g>
			<g>
				<path fill="#676767" d="M1192.446,308.227v3.154c0,0.887,0.458,1.328,1.375,1.328c0.442,0,0.875-0.063,1.297-0.186
					c0.423-0.121,0.875-0.318,1.359-0.59v-3.711h1.836v8.641h-1.836v-3.664c-0.507,0.314-0.994,0.543-1.466,0.691
					c-0.473,0.146-0.985,0.223-1.543,0.223c-0.9,0-1.604-0.232-2.108-0.699c-0.506-0.465-0.758-1.117-0.758-1.955v-3.232H1192.446
					L1192.446,308.227z"/>
				<path fill="#676767" d="M1207.43,308.227v1.438h-2.813v7.203h-1.844v-7.203h-2.813v-1.438H1207.43z"/>
			</g>
		</g>
		<g>
			<g>
				<path fill="#FF4C29" d="M1358.029,308.227v3.469h4.07v-3.469h1.836v8.641h-1.836v-3.727h-4.07v3.727h-1.836v-8.641H1358.029z"/>
				<path fill="#FF4C29" d="M1374.849,319.92h-1.711v-3.057h-5.924v3.057h-1.693v-4.479h0.703c0.613-0.879,1.103-1.943,1.465-3.189
					c0.361-1.248,0.576-2.592,0.645-4.025h5.25v7.219h1.268L1374.849,319.92L1374.849,319.92z M1371.779,315.444v-5.813h-1.858
					c-0.1,1.072-0.307,2.131-0.621,3.174c-0.313,1.041-0.698,1.922-1.15,2.641h3.632L1371.779,315.444L1371.779,315.444z"/>
			</g>
		</g>
		<g>
			<g>
				<path fill="#676767" d="M1420.543,308.227v8.641h-1.844v-7.188h-3.875v7.188h-1.836v-8.641H1420.543z"/>
				<path fill="#676767" d="M1425.005,308.227v3.469h4.069v-3.469h1.836v8.641h-1.836v-3.727h-4.069v3.727h-1.837v-8.641H1425.005z"
					/>
			</g>
		</g>
		<g>
			<g>
				<path fill="#676767" d="M1476.752,310.436c0,1.021-0.598,1.639-1.788,1.852v0.064c0.666,0.078,1.177,0.289,1.53,0.633
					c0.354,0.344,0.53,0.789,0.53,1.336c0,0.816-0.312,1.445-0.935,1.887c-0.621,0.441-1.526,0.66-2.715,0.66h-4.125v-8.641h4.107
					C1475.621,308.227,1476.752,308.961,1476.752,310.436z M1474.916,310.594c0-0.348-0.135-0.596-0.4-0.746
					c-0.271-0.154-0.668-0.23-1.199-0.23h-2.228v2.078h1.952c0.613,0,1.08-0.08,1.396-0.238
					C1474.757,311.297,1474.916,311.01,1474.916,310.594z M1475.142,314.209c0-0.418-0.161-0.713-0.484-0.889
					c-0.322-0.174-0.809-0.262-1.453-0.262h-2.116v2.443h2.163C1474.512,315.506,1475.142,315.074,1475.142,314.209z"/>
				<path fill="#676767" d="M1485.408,308.227v1.438h-2.813v7.203h-1.846v-7.203h-2.813v-1.438H1485.408z"/>
			</g>
		</g>
		<g>
			<g>
				<path fill="#676767" d="M1527.209,317.022c-1.307,0-2.301-0.381-2.979-1.146c-0.678-0.764-1.021-1.855-1.021-3.285
					c0-1.451,0.355-2.568,1.066-3.352s1.738-1.172,3.082-1.172c0.912,0,1.732,0.168,2.461,0.508l-0.555,1.479
					c-0.775-0.303-1.416-0.453-1.922-0.453c-1.494,0-2.242,0.99-2.242,2.977c0,0.971,0.188,1.697,0.559,2.187
					c0.373,0.485,0.918,0.729,1.637,0.729c0.818,0,1.594-0.203,2.32-0.606v1.603c-0.328,0.19-0.678,0.33-1.051,0.414
					C1528.193,316.981,1527.741,317.022,1527.209,317.022z"/>
				<path fill="#676767" d="M1536.03,317.022c-1.095,0-1.942-0.395-2.547-1.182h-0.108c0.072,0.729,0.108,1.174,0.108,1.328v3.539
					h-1.837v-12.482h1.484c0.041,0.162,0.129,0.547,0.258,1.154h0.095c0.573-0.875,1.433-1.313,2.577-1.313
					c1.078,0,1.918,0.391,2.521,1.172c0.603,0.781,0.9,1.877,0.9,3.289c0,1.41-0.306,2.514-0.918,3.305
					C1537.953,316.625,1537.108,317.022,1536.03,317.022z M1535.584,309.569c-0.729,0-1.262,0.215-1.598,0.643
					s-0.504,1.107-0.504,2.047v0.271c0,1.053,0.167,1.814,0.5,2.285c0.334,0.473,0.878,0.707,1.633,0.707
					c0.637,0,1.125-0.262,1.469-0.781c0.345-0.521,0.518-1.262,0.518-2.227c0-0.971-0.171-1.701-0.514-2.199
					C1536.748,309.819,1536.246,309.569,1535.584,309.569z"/>
			</g>
		</g>
		<g>
			<g>
				<path fill="#676767" d="M866.889,308.227v8.641h-1.845v-7.188h-3.875v7.188h-1.838v-8.641H866.889z"/>
				<path fill="#676767" d="M876.007,308.227v1.438h-2.813v7.203h-1.845v-7.203h-2.813v-1.438H876.007z"/>
			</g>
		</g>
		<g>
			<g>
				<path fill="#FF4C29" d="M917.178,317.022c-1.31,0-2.302-0.381-2.979-1.146c-0.678-0.764-1.021-1.855-1.021-3.285
					c0-1.451,0.354-2.568,1.064-3.352s1.738-1.172,3.082-1.172c0.911,0,1.731,0.168,2.461,0.508l-0.555,1.479
					c-0.775-0.303-1.417-0.453-1.922-0.453c-1.495,0-2.242,0.99-2.242,2.977c0,0.971,0.187,1.697,0.56,2.187
					c0.373,0.485,0.918,0.729,1.639,0.729c0.815,0,1.591-0.203,2.318-0.606v1.603c-0.328,0.19-0.68,0.33-1.052,0.414
					C918.16,316.981,917.709,317.022,917.178,317.022z"/>
				<path fill="#FF4C29" d="M921.116,311.68c0-1.93,0.326-3.41,0.979-4.445c0.652-1.037,1.691-1.703,3.121-2
					c1.078-0.219,2.318-0.436,3.728-0.641l0.258,1.615c-1.709,0.262-2.959,0.463-3.75,0.607c-0.815,0.15-1.406,0.488-1.77,1.008
					c-0.362,0.521-0.572,1.307-0.63,2.354h0.117c0.297-0.436,0.686-0.77,1.162-1.006c0.479-0.236,0.992-0.354,1.539-0.354
					c1.063,0,1.893,0.336,2.484,1.008s0.891,1.613,0.891,2.828c0,1.391-0.359,2.465-1.082,3.227
					c-0.722,0.764-1.721,1.143-2.995,1.143c-1.267,0-2.259-0.469-2.978-1.406C921.473,314.682,921.116,313.365,921.116,311.68z
					 M925.295,315.522c1.364,0,2.049-0.896,2.049-2.688c0-1.729-0.616-2.594-1.854-2.594c-0.339,0-0.667,0.072-0.984,0.219
					c-0.315,0.147-0.608,0.34-0.879,0.578c-0.269,0.238-0.476,0.486-0.621,0.742c0,1.229,0.195,2.16,0.588,2.793
					C923.983,315.205,924.552,315.522,925.295,315.522z"/>
			</g>
		</g>
		<g>
			<g>
				<path fill="#676767" d="M804.765,308.227v3.154c0,0.887,0.457,1.328,1.375,1.328c0.439,0,0.875-0.063,1.298-0.186
					c0.422-0.121,0.875-0.318,1.358-0.59v-3.711h1.836v8.641h-1.836v-3.664c-0.508,0.314-0.994,0.543-1.467,0.691
					c-0.473,0.146-0.984,0.223-1.543,0.223c-0.9,0-1.604-0.232-2.107-0.699c-0.506-0.465-0.76-1.117-0.76-1.955v-3.232H804.765
					L804.765,308.227z"/>
				<path fill="#676767" d="M819.75,308.227v1.438h-2.813v7.203h-1.844v-7.203h-2.813v-1.438H819.75z"/>
			</g>
		</g>
		<g>
			<g>
				<path fill="#FF4C29" d="M970.347,308.227v3.469h4.068v-3.469h1.838v8.641h-1.838v-3.727h-4.068v3.727h-1.836v-8.641H970.347z"/>
				<path fill="#FF4C29" d="M987.168,319.92h-1.711v-3.057h-5.922v3.057h-1.693v-4.479h0.702c0.614-0.879,1.104-1.943,1.466-3.189
					c0.361-1.248,0.577-2.592,0.646-4.025h5.25v7.219h1.267L987.168,319.92L987.168,319.92z M984.097,315.444v-5.813h-1.858
					c-0.099,1.072-0.306,2.131-0.621,3.174c-0.313,1.041-0.697,1.922-1.15,2.641h3.632L984.097,315.444L984.097,315.444z"/>
			</g>
		</g>
		<g>
			<g>
				<path fill="#676767" d="M1032.864,308.227v8.641h-1.844v-7.188h-3.875v7.188h-1.837v-8.641H1032.864z"/>
				<path fill="#676767" d="M1037.325,308.227v3.469h4.07v-3.469h1.836v8.641h-1.836v-3.727h-4.07v3.727h-1.836v-8.641H1037.325z"/>
			</g>
		</g>
		<g>
			<g>
				<path fill="#676767" d="M1089.071,310.436c0,1.021-0.596,1.639-1.789,1.852v0.064c0.667,0.078,1.18,0.289,1.531,0.633
					c0.353,0.344,0.53,0.789,0.53,1.336c0,0.816-0.313,1.445-0.936,1.887c-0.621,0.439-1.525,0.66-2.715,0.66h-4.125v-8.641h4.109
					C1087.941,308.227,1089.071,308.961,1089.071,310.436z M1087.235,310.594c0-0.348-0.134-0.596-0.401-0.746
					c-0.269-0.154-0.668-0.23-1.197-0.23h-2.229v2.078h1.953c0.615,0,1.081-0.08,1.397-0.238
					C1087.076,311.295,1087.235,311.01,1087.235,310.594z M1087.462,314.209c0-0.418-0.16-0.713-0.482-0.889
					c-0.322-0.174-0.809-0.262-1.453-0.262h-2.117v2.443h2.164C1086.832,315.506,1087.462,315.074,1087.462,314.209z"/>
				<path fill="#676767" d="M1097.727,308.227v1.438h-2.813v7.203h-1.844v-7.203h-2.813v-1.438H1097.727z"/>
			</g>
		</g>
		<g>
			<g>
				<path fill="#676767" d="M1139.528,317.022c-1.308,0-2.301-0.381-2.979-1.146c-0.681-0.764-1.021-1.855-1.021-3.285
					c0-1.451,0.354-2.568,1.065-3.352c0.712-0.781,1.736-1.172,3.082-1.172c0.91,0,1.729,0.168,2.462,0.508l-0.558,1.479
					c-0.773-0.303-1.417-0.453-1.922-0.453c-1.495,0-2.24,0.99-2.24,2.977c0,0.971,0.187,1.697,0.56,2.187
					c0.372,0.485,0.918,0.729,1.637,0.729c0.817,0,1.591-0.203,2.32-0.606v1.603c-0.328,0.19-0.681,0.33-1.052,0.414
					C1140.51,316.981,1140.059,317.022,1139.528,317.022z"/>
				<path fill="#676767" d="M1148.347,317.022c-1.094,0-1.942-0.395-2.547-1.182h-0.108c0.071,0.729,0.108,1.174,0.108,1.328v3.539
					h-1.836v-12.482h1.482c0.041,0.162,0.127,0.547,0.258,1.154h0.096c0.57-0.875,1.433-1.313,2.578-1.313
					c1.076,0,1.918,0.391,2.521,1.172c0.604,0.781,0.901,1.877,0.901,3.289c0,1.41-0.309,2.514-0.918,3.305
					C1150.271,316.625,1149.427,317.022,1148.347,317.022z M1147.903,309.569c-0.729,0-1.262,0.215-1.599,0.643
					c-0.336,0.428-0.504,1.107-0.504,2.047v0.271c0,1.053,0.166,1.814,0.5,2.285c0.333,0.473,0.877,0.707,1.634,0.707
					c0.635,0,1.125-0.262,1.469-0.781c0.344-0.521,0.517-1.262,0.517-2.227c0-0.971-0.172-1.701-0.513-2.199
					C1149.065,309.819,1148.564,309.569,1147.903,309.569z"/>
			</g>
		</g>
		<g>
			<g>
				<path fill="#676767" d="M476.809,308.227v8.641h-1.845v-7.188h-3.875v7.188h-1.836v-8.641H476.809z"/>
				<path fill="#676767" d="M485.927,308.227v1.438h-2.813v7.203h-1.844v-7.203h-2.813v-1.438H485.927z"/>
			</g>
		</g>
		<g>
			<g>
				<path fill="#FF4C29" d="M527.097,317.022c-1.309,0-2.301-0.381-2.979-1.146c-0.678-0.764-1.021-1.855-1.021-3.285
					c0-1.451,0.354-2.568,1.064-3.352s1.738-1.172,3.082-1.172c0.912,0,1.732,0.168,2.461,0.508l-0.555,1.479
					c-0.775-0.303-1.417-0.453-1.922-0.453c-1.495,0-2.242,0.99-2.242,2.977c0,0.971,0.188,1.697,0.561,2.187
					c0.373,0.488,0.918,0.729,1.638,0.729c0.817,0,1.591-0.203,2.319-0.606v1.603c-0.328,0.19-0.68,0.33-1.053,0.414
					C528.08,316.981,527.63,317.022,527.097,317.022z"/>
				<path fill="#FF4C29" d="M531.035,311.68c0-1.93,0.327-3.41,0.98-4.445c0.65-1.037,1.691-1.703,3.12-2
					c1.077-0.219,2.318-0.436,3.728-0.641l0.258,1.615c-1.708,0.262-2.958,0.463-3.75,0.607c-0.816,0.15-1.408,0.488-1.77,1.008
					c-0.362,0.521-0.572,1.307-0.63,2.354h0.116c0.298-0.436,0.687-0.77,1.164-1.006c0.479-0.236,0.991-0.354,1.539-0.354
					c1.063,0,1.893,0.336,2.483,1.008s0.892,1.613,0.892,2.828c0,1.391-0.36,2.465-1.082,3.227
					c-0.722,0.764-1.721,1.143-2.996,1.143c-1.267,0-2.258-0.469-2.978-1.406C531.392,314.682,531.035,313.365,531.035,311.68z
					 M535.216,315.522c1.364,0,2.048-0.896,2.048-2.688c0-1.729-0.616-2.594-1.854-2.594c-0.338,0-0.667,0.072-0.982,0.219
					c-0.316,0.147-0.61,0.34-0.88,0.578c-0.269,0.238-0.476,0.486-0.62,0.742c0,1.229,0.193,2.16,0.586,2.793
					C533.903,315.205,534.471,315.522,535.216,315.522z"/>
			</g>
		</g>
		<g>
			<g>
				<path fill="#676767" d="M414.686,308.227v3.154c0,0.887,0.458,1.328,1.375,1.328c0.439,0,0.875-0.063,1.297-0.186
					c0.422-0.121,0.875-0.318,1.357-0.59v-3.711h1.837v8.641h-1.837v-3.664c-0.506,0.314-0.993,0.543-1.466,0.691
					c-0.472,0.146-0.984,0.223-1.543,0.223c-0.898,0-1.604-0.232-2.107-0.699c-0.506-0.465-0.759-1.117-0.759-1.955v-3.232H414.686
					L414.686,308.227z"/>
				<path fill="#676767" d="M429.673,308.227v1.438h-2.813v7.203h-1.845v-7.203H422.2v-1.438H429.673z"/>
			</g>
		</g>
		<g>
			<g>
				<path fill="#FF4C29" d="M580.269,308.227v3.469h4.068v-3.469h1.836v8.641h-1.836v-3.727h-4.068v3.727h-1.836v-8.641H580.269z"/>
				<path fill="#FF4C29" d="M597.091,319.92h-1.711v-3.057h-5.923v3.057h-1.693v-4.479h0.702c0.614-0.879,1.104-1.943,1.466-3.189
					c0.362-1.248,0.577-2.592,0.646-4.025h5.25v7.219h1.267L597.091,319.92L597.091,319.92z M594.019,315.444v-5.813h-1.859
					c-0.099,1.072-0.306,2.131-0.621,3.174c-0.313,1.041-0.697,1.922-1.15,2.641h3.633L594.019,315.444L594.019,315.444z"/>
			</g>
		</g>
		<g>
			<g>
				<path fill="#676767" d="M642.784,308.227v8.641h-1.844v-7.188h-3.875v7.188h-1.836v-8.641H642.784z"/>
				<path fill="#676767" d="M647.245,308.227v3.469h4.07v-3.469h1.836v8.641h-1.836v-3.727h-4.07v3.727h-1.836v-8.641H647.245z"/>
			</g>
		</g>
		<g>
			<g>
				<path fill="#676767" d="M698.992,310.436c0,1.021-0.597,1.639-1.789,1.852v0.064c0.667,0.078,1.179,0.289,1.531,0.633
					c0.354,0.344,0.531,0.789,0.531,1.336c0,0.816-0.313,1.445-0.936,1.887c-0.623,0.439-1.525,0.66-2.716,0.66h-4.125v-8.641h4.108
					C697.862,308.227,698.992,308.961,698.992,310.436z M697.156,310.594c0-0.348-0.134-0.596-0.401-0.746
					c-0.27-0.154-0.669-0.23-1.198-0.23h-2.229v2.078h1.953c0.614,0,1.081-0.08,1.398-0.238
					C696.998,311.295,697.156,311.01,697.156,310.594z M697.385,314.209c0-0.418-0.162-0.713-0.483-0.889
					c-0.323-0.174-0.809-0.262-1.453-0.262h-2.116v2.443h2.163C696.752,315.506,697.385,315.074,697.385,314.209z"/>
				<path fill="#676767" d="M707.648,308.227v1.438h-2.813v7.203h-1.846v-7.203h-2.812v-1.438H707.648z"/>
			</g>
		</g>
		<g>
			<g>
				<path fill="#676767" d="M749.45,317.022c-1.307,0-2.301-0.381-2.979-1.146c-0.681-0.764-1.021-1.855-1.021-3.285
					c0-1.451,0.354-2.568,1.065-3.352c0.712-0.781,1.738-1.172,3.082-1.172c0.912,0,1.73,0.168,2.461,0.508l-0.555,1.479
					c-0.775-0.303-1.418-0.453-1.924-0.453c-1.494,0-2.24,0.99-2.24,2.977c0,0.971,0.187,1.697,0.56,2.187
					c0.373,0.488,0.918,0.729,1.637,0.729c0.818,0,1.591-0.203,2.32-0.606v1.603c-0.328,0.19-0.679,0.33-1.052,0.414
					C750.431,316.981,749.981,317.022,749.45,317.022z"/>
				<path fill="#676767" d="M758.27,317.022c-1.095,0-1.943-0.395-2.548-1.182h-0.108c0.073,0.729,0.108,1.174,0.108,1.328v3.539
					h-1.836v-12.482h1.482c0.042,0.162,0.127,0.547,0.26,1.154h0.094c0.572-0.875,1.433-1.313,2.578-1.313
					c1.078,0,1.918,0.391,2.521,1.172c0.604,0.781,0.901,1.877,0.901,3.289c0,1.41-0.309,2.514-0.918,3.305
					C760.194,316.625,759.347,317.022,758.27,317.022z M757.825,309.569c-0.729,0-1.262,0.215-1.598,0.643
					c-0.337,0.428-0.505,1.107-0.505,2.047v0.271c0,1.053,0.168,1.814,0.5,2.285c0.334,0.473,0.877,0.707,1.634,0.707
					c0.635,0,1.125-0.262,1.469-0.781c0.345-0.521,0.518-1.262,0.518-2.227c0-0.971-0.17-1.701-0.514-2.199
					C758.987,309.819,758.486,309.569,757.825,309.569z"/>
			</g>
		</g>
		<g>
			<g>
				<g>
					<path fill="none" stroke="#FFD600" stroke-width="1.1587" stroke-miterlimit="10" d="M0,48.884v233.234v5.188v12.146
						c0,8.709,7.045,15.754,15.754,15.754"/>
					
						<polygon fill="#FFD600" stroke="#FFD600" stroke-width="1.1587" stroke-linecap="round" stroke-linejoin="round" stroke-miterlimit="10" points="
						155.993,0 0,0 0,32.354 0,47.896 0,54.658 8.206,47.896 155.993,47.896 					"/>
					<g>
						<g>
							<path d="M19.882,18.619h-0.548v-7.337h-4.532v7.337h-0.549v-7.853h5.629V18.619L19.882,18.619z"/>
							<path d="M27.57,15.692c0,0.953-0.231,1.696-0.693,2.229c-0.462,0.536-1.099,0.805-1.912,0.805
								c-0.512,0-0.963-0.124-1.354-0.371c-0.393-0.247-0.689-0.604-0.897-1.063c-0.208-0.462-0.312-0.996-0.312-1.602
								c0-0.953,0.229-1.694,0.691-2.229c0.463-0.529,1.098-0.797,1.9-0.797c0.802,0,1.433,0.271,1.888,0.81
								C27.342,14.017,27.57,14.753,27.57,15.692z M22.962,15.692c0,0.802,0.178,1.428,0.529,1.877
								c0.354,0.45,0.853,0.674,1.496,0.674s1.143-0.225,1.496-0.674c0.353-0.449,0.527-1.075,0.527-1.877
								c0-0.808-0.179-1.433-0.534-1.875c-0.355-0.444-0.855-0.666-1.501-0.666c-0.646,0-1.144,0.221-1.489,0.664
								C23.135,14.256,22.962,14.882,22.962,15.692z"/>
							<path d="M30.386,12.781v1.955c0,0.494,0.119,0.852,0.359,1.069c0.24,0.217,0.609,0.326,1.105,0.326
								c0.352,0,0.687-0.063,1.005-0.188c0.315-0.125,0.647-0.326,0.993-0.604v-2.563h0.53v5.838H33.85v-2.771
								c-0.357,0.274-0.71,0.473-1.058,0.591c-0.345,0.118-0.719,0.177-1.12,0.177c-0.598,0-1.05-0.155-1.354-0.467
								c-0.309-0.313-0.459-0.761-0.459-1.35v-2.021h0.526V12.781z"/>
							<path d="M40.653,18.619l-0.135-0.924h-0.043c-0.293,0.376-0.597,0.643-0.904,0.797c-0.312,0.156-0.677,0.234-1.1,0.234
								c-0.572,0-1.021-0.147-1.339-0.44c-0.315-0.293-0.478-0.699-0.478-1.219c0-0.569,0.236-1.012,0.712-1.327
								c0.474-0.314,1.161-0.48,2.061-0.5l1.111-0.031v-0.388c0-0.555-0.112-0.974-0.338-1.257s-0.589-0.424-1.09-0.424
								c-0.541,0-1.104,0.148-1.682,0.449l-0.198-0.462c0.641-0.302,1.272-0.449,1.898-0.449c0.644,0,1.12,0.167,1.438,0.5
								c0.313,0.333,0.475,0.852,0.475,1.558v3.883H40.653z M38.504,18.243c0.623,0,1.114-0.178,1.477-0.534
								c0.357-0.354,0.54-0.852,0.54-1.483v-0.575l-1.021,0.043c-0.819,0.04-1.404,0.167-1.753,0.384
								c-0.351,0.218-0.522,0.555-0.522,1.014c0,0.364,0.11,0.648,0.335,0.854C37.78,18.144,38.096,18.243,38.504,18.243z"/>
							<path d="M47.411,13.242h-1.944v5.376h-0.523v-5.376H42.95v-0.462h4.463L47.411,13.242L47.411,13.242z"/>
							<path d="M54.208,15.692c0,0.953-0.229,1.696-0.691,2.229c-0.463,0.536-1.101,0.805-1.912,0.805
								c-0.514,0-0.963-0.124-1.354-0.371c-0.391-0.247-0.688-0.604-0.896-1.063c-0.208-0.462-0.313-0.996-0.313-1.602
								c0-0.953,0.23-1.694,0.693-2.229c0.462-0.529,1.096-0.797,1.898-0.797c0.804,0,1.435,0.271,1.891,0.81
								C53.979,14.017,54.208,14.753,54.208,15.692z M49.598,15.692c0,0.802,0.177,1.428,0.527,1.877
								c0.354,0.45,0.854,0.674,1.496,0.674c0.645,0,1.145-0.225,1.496-0.674c0.354-0.449,0.529-1.075,0.529-1.877
								c0-0.808-0.181-1.433-0.535-1.875c-0.356-0.444-0.856-0.666-1.501-0.666c-0.646,0-1.145,0.221-1.49,0.664
								C49.774,14.256,49.598,14.882,49.598,15.692z"/>
							<path d="M59.763,12.781h0.659l-2.614,2.825l2.805,3.013h-0.714l-2.763-2.959v2.959h-0.542v-5.838h0.543v2.836L59.763,12.781z
								"/>
							<path d="M66.573,18.619h-0.532v-5.838h4.657v5.838h-0.532v-5.333h-3.593V18.619z"/>
							<path d="M75.92,18.728c-0.897,0-1.554-0.336-1.966-1.012h-0.038l0.018,0.451c0.015,0.267,0.021,0.557,0.021,0.869v2.227
								h-0.532v-8.481h0.451l0.104,0.833h0.03c0.401-0.63,1.042-0.944,1.924-0.944c0.788,0,1.391,0.261,1.803,0.775
								c0.414,0.519,0.621,1.271,0.621,2.259c0,0.959-0.218,1.704-0.652,2.231C77.268,18.462,76.672,18.728,75.92,18.728z
								 M75.909,18.253c0.598,0,1.063-0.223,1.389-0.666c0.327-0.442,0.491-1.063,0.491-1.862c0-1.715-0.62-2.573-1.856-2.573
								c-0.682,0-1.182,0.188-1.499,0.562c-0.318,0.375-0.479,0.983-0.479,1.829v0.172c0,0.913,0.153,1.564,0.459,1.955
								C74.719,18.06,75.219,18.253,75.909,18.253z"/>
							<path d="M83.097,18.728c-0.851,0-1.512-0.263-1.983-0.784c-0.476-0.522-0.712-1.255-0.712-2.197
								c0-0.931,0.229-1.677,0.688-2.234c0.458-0.563,1.076-0.842,1.854-0.842c0.688,0,1.229,0.239,1.627,0.722
								c0.396,0.479,0.596,1.131,0.596,1.955v0.43h-4.206c0.008,0.802,0.194,1.415,0.563,1.837c0.366,0.422,0.892,0.634,1.575,0.634
								c0.333,0,0.626-0.021,0.878-0.067c0.253-0.048,0.57-0.147,0.959-0.304v0.483c-0.329,0.144-0.635,0.241-0.912,0.293
								C83.743,18.7,83.433,18.728,83.097,18.728z M82.942,13.142c-0.563,0-1.015,0.185-1.354,0.556
								c-0.34,0.37-0.539,0.905-0.596,1.604H84.6c0-0.678-0.146-1.204-0.439-1.587C83.868,13.333,83.461,13.142,82.942,13.142z"/>
							<path d="M90.264,18.049l0.333-0.938l1.682-4.329h0.735v5.838h-0.507v-5.193c-0.077,0.228-0.16,0.457-0.25,0.692
								c-0.087,0.236-0.672,1.737-1.753,4.501h-0.473l-1.617-4.104c-0.066-0.165-0.132-0.338-0.188-0.521
								c-0.062-0.183-0.125-0.379-0.195-0.591v5.215h-0.483v-5.838h0.704l1.688,4.297C90.07,17.424,90.179,17.748,90.264,18.049z"/>
							<path d="M96.138,10.768l0.063,0.104c-0.27,0.949-0.58,1.813-0.936,2.584h-0.351c0.104-0.345,0.213-0.774,0.328-1.298
								c0.115-0.521,0.202-0.985,0.263-1.394L96.138,10.768L96.138,10.768z"/>
							<path d="M100.495,18.728c-0.85,0-1.517-0.27-2-0.805c-0.484-0.533-0.729-1.266-0.729-2.188c0-0.949,0.251-1.697,0.754-2.245
								c0.504-0.548,1.188-0.821,2.05-0.821c0.222,0,0.477,0.022,0.765,0.069c0.289,0.046,0.537,0.111,0.744,0.193l-0.156,0.473
								c-0.211-0.075-0.447-0.136-0.711-0.183c-0.264-0.048-0.479-0.07-0.651-0.07c-0.663,0-1.186,0.188-1.563,0.563
								s-0.601,0.903-0.661,1.584h3.357v0.475h-3.378c0.007,0.775,0.205,1.383,0.596,1.816c0.391,0.438,0.915,0.652,1.574,0.652
								c0.562,0,1.07-0.095,1.522-0.284v0.493c-0.164,0.083-0.381,0.148-0.647,0.199C101.09,18.702,100.802,18.728,100.495,18.728z"
								/>
							<path d="M106.706,18.728c-0.897,0-1.554-0.336-1.966-1.012h-0.038l0.017,0.451c0.016,0.267,0.021,0.557,0.021,0.869v2.227
								h-0.532v-8.481h0.451l0.103,0.833h0.031c0.401-0.63,1.042-0.944,1.923-0.944c0.788,0,1.39,0.261,1.804,0.775
								c0.413,0.519,0.619,1.271,0.619,2.259c0,0.959-0.219,1.704-0.65,2.231C108.052,18.462,107.458,18.728,106.706,18.728z
								 M106.695,18.253c0.598,0,1.061-0.223,1.388-0.666c0.328-0.442,0.492-1.063,0.492-1.862c0-1.715-0.62-2.573-1.858-2.573
								c-0.68,0-1.18,0.188-1.498,0.562c-0.317,0.375-0.479,0.983-0.479,1.829v0.172c0,0.913,0.152,1.564,0.459,1.955
								C105.505,18.06,106.004,18.253,106.695,18.253z"/>
							<path d="M112.056,12.781v2.563h3.705v-2.563h0.525v5.838h-0.525v-2.813h-3.705v2.813h-0.531v-5.838H112.056z"/>
							<path d="M123.844,15.692c0,0.953-0.229,1.696-0.691,2.229c-0.462,0.536-1.101,0.805-1.912,0.805
								c-0.513,0-0.963-0.124-1.354-0.371c-0.393-0.247-0.688-0.604-0.896-1.063c-0.208-0.462-0.313-0.996-0.313-1.602
								c0-0.953,0.229-1.694,0.691-2.229c0.462-0.529,1.096-0.797,1.9-0.797c0.803,0,1.433,0.271,1.889,0.81
								C123.616,14.017,123.844,14.753,123.844,15.692z M119.235,15.692c0,0.802,0.176,1.428,0.528,1.877
								c0.354,0.45,0.853,0.674,1.494,0.674c0.646,0,1.146-0.225,1.496-0.674c0.354-0.449,0.529-1.075,0.529-1.877
								c0-0.808-0.178-1.433-0.535-1.875c-0.354-0.444-0.854-0.666-1.501-0.666c-0.646,0-1.142,0.221-1.49,0.664
								C119.409,14.256,119.235,14.882,119.235,15.692z"/>
							<path d="M129.662,13.242h-2.898v5.376h-0.532v-5.838h3.433L129.662,13.242L129.662,13.242z"/>
							<path d="M136.459,15.692c0,0.953-0.229,1.696-0.691,2.229c-0.462,0.536-1.101,0.805-1.912,0.805
								c-0.514,0-0.963-0.124-1.354-0.371c-0.391-0.247-0.688-0.604-0.896-1.063c-0.208-0.462-0.313-0.996-0.313-1.602
								c0-0.953,0.23-1.694,0.693-2.229c0.462-0.529,1.096-0.797,1.898-0.797c0.804,0,1.435,0.271,1.891,0.81
								C136.231,14.017,136.459,14.753,136.459,15.692z M131.849,15.692c0,0.802,0.177,1.428,0.527,1.877
								c0.354,0.45,0.854,0.674,1.496,0.674c0.645,0,1.145-0.225,1.496-0.674c0.354-0.449,0.529-1.075,0.529-1.877
								c0-0.808-0.18-1.433-0.535-1.875c-0.356-0.444-0.856-0.666-1.501-0.666c-0.646,0-1.144,0.221-1.49,0.664
								C132.025,14.256,131.849,14.882,131.849,15.692z"/>
							<path d="M14.651,33.619h-0.532v-5.838h4.657v5.838h-0.532v-5.333h-3.593V33.619z"/>
							<path d="M23.859,33.728c-0.852,0-1.511-0.263-1.984-0.784c-0.475-0.522-0.712-1.255-0.712-2.197
								c0-0.931,0.229-1.677,0.688-2.234c0.458-0.563,1.075-0.842,1.854-0.842c0.688,0,1.229,0.239,1.627,0.722
								c0.396,0.479,0.597,1.131,0.597,1.955v0.43h-4.205c0.007,0.802,0.192,1.415,0.563,1.837c0.367,0.422,0.893,0.634,1.576,0.634
								c0.333,0,0.626-0.021,0.878-0.067c0.253-0.048,0.571-0.147,0.959-0.304v0.483c-0.33,0.144-0.635,0.241-0.913,0.293
								C24.503,33.7,24.195,33.728,23.859,33.728z M23.703,28.142c-0.563,0-1.013,0.185-1.354,0.556
								c-0.342,0.37-0.539,0.905-0.598,1.604h3.609c0-0.678-0.147-1.204-0.44-1.587C24.629,28.333,24.222,28.142,23.703,28.142z"/>
							<path d="M30.805,33.728c-0.898,0-1.556-0.336-1.968-1.012H28.8l0.019,0.451c0.014,0.267,0.021,0.557,0.021,0.869v2.227h-0.53
								v-8.481h0.449l0.104,0.833h0.031c0.399-0.63,1.042-0.944,1.924-0.944c0.787,0,1.388,0.261,1.802,0.775
								c0.413,0.519,0.62,1.271,0.62,2.259c0,0.959-0.219,1.704-0.652,2.231C32.151,33.462,31.556,33.728,30.805,33.728z
								 M30.795,33.253c0.6,0,1.063-0.223,1.39-0.666c0.327-0.442,0.49-1.063,0.49-1.862c0-1.715-0.618-2.573-1.855-2.573
								c-0.681,0-1.181,0.188-1.499,0.562c-0.319,0.375-0.479,0.983-0.479,1.829v0.172c0,0.913,0.153,1.564,0.459,1.955
								C29.605,33.061,30.103,33.253,30.795,33.253z"/>
							<path d="M35.55,26.158c0-0.344,0.113-0.516,0.34-0.516c0.109,0,0.196,0.045,0.261,0.134c0.063,0.089,0.094,0.217,0.094,0.381
								c0,0.161-0.031,0.288-0.094,0.382c-0.063,0.093-0.149,0.142-0.261,0.142C35.663,26.681,35.55,26.505,35.55,26.158z
								 M36.157,33.619h-0.532v-5.838h0.532V33.619z"/>
							<path d="M43.711,30.692c0,0.953-0.229,1.696-0.691,2.229c-0.462,0.536-1.101,0.805-1.911,0.805
								c-0.514,0-0.964-0.124-1.354-0.371c-0.39-0.247-0.688-0.604-0.896-1.063c-0.208-0.462-0.313-0.996-0.313-1.602
								c0-0.953,0.231-1.694,0.693-2.229c0.462-0.529,1.096-0.797,1.899-0.797c0.803,0,1.434,0.271,1.89,0.81
								C43.483,29.017,43.711,29.753,43.711,30.692z M39.101,30.692c0,0.802,0.177,1.428,0.527,1.877
								c0.354,0.45,0.854,0.674,1.496,0.674c0.645,0,1.145-0.225,1.496-0.674c0.354-0.449,0.529-1.075,0.529-1.877
								c0-0.808-0.179-1.433-0.535-1.875c-0.356-0.444-0.856-0.666-1.501-0.666c-0.646,0-1.143,0.221-1.49,0.664
								C39.277,29.256,39.101,29.882,39.101,30.692z"/>
							<path d="M50.862,35.603h-0.526V33.62h-4.469v1.982h-0.526v-2.487h0.389c0.485-0.684,0.861-1.477,1.129-2.379
								c0.265-0.901,0.403-1.887,0.419-2.954h2.809v5.333h0.779L50.862,35.603L50.862,35.603z M49.552,33.115v-4.839h-1.813
								c-0.086,1.938-0.556,3.55-1.407,4.839H49.552z"/>
							<path d="M51.894,27.781h0.549l1.233,3.276c0.376,1.006,0.613,1.685,0.715,2.034h0.03c0.15-0.462,0.396-1.149,0.736-2.066
								l1.234-3.244h0.549l-2.616,6.784c-0.211,0.551-0.39,0.924-0.532,1.117c-0.142,0.191-0.311,0.338-0.502,0.435
								c-0.19,0.098-0.424,0.146-0.695,0.146c-0.203,0-0.433-0.038-0.683-0.113v-0.462c0.208,0.057,0.433,0.086,0.671,0.086
								c0.185,0,0.345-0.043,0.483-0.129s0.266-0.219,0.378-0.4c0.112-0.181,0.244-0.467,0.393-0.856
								c0.148-0.395,0.244-0.647,0.287-0.768L51.894,27.781z"/>
						</g>
					</g>
				</g>
			</g>
			<circle fill="none" stroke="#FFD600" stroke-width="1.1587" stroke-miterlimit="10" cx="33.398" cy="313.196" r="18.037"/>
		</g>
		<g>
			<g>
				<g>
					<path fill="none" stroke="#FFD600" stroke-width="1.1587" stroke-miterlimit="10" d="M612,45.382v236.736v5.188v12.146
						c0,8.709,7.045,15.754,15.755,15.754"/>
					
						<polygon fill="#FFD600" stroke="#FFD600" stroke-width="1.1587" stroke-linecap="round" stroke-linejoin="round" stroke-miterlimit="10" points="
						815.722,1.503 612,1.503 612,31.854 612,44.394 612,51.156 620.207,44.394 815.722,44.394 					"/>
					<g>
						<g>
							<g>
								<path d="M630.517,12.104c0,1.022-0.543,1.652-1.627,1.891v0.032c1.188,0.254,1.781,0.893,1.781,1.912
									c0,0.72-0.252,1.281-0.761,1.684c-0.507,0.403-1.222,0.604-2.146,0.604c-0.867,0-1.598-0.154-2.188-0.462v-0.562
									c0.341,0.165,0.704,0.292,1.091,0.382c0.388,0.089,0.753,0.136,1.098,0.136c0.716,0,1.28-0.155,1.693-0.466
									c0.412-0.311,0.619-0.742,0.619-1.304c0-0.544-0.201-0.955-0.604-1.232c-0.403-0.279-1.006-0.421-1.809-0.421H626.5v-0.517
									h1.207c0.762,0,1.319-0.143,1.684-0.43c0.361-0.287,0.542-0.693,0.542-1.221c0-0.446-0.166-0.807-0.497-1.072
									c-0.332-0.271-0.764-0.403-1.297-0.403c-0.397,0-0.766,0.058-1.099,0.169c-0.333,0.113-0.69,0.308-1.079,0.583l-0.313-0.43
									c0.723-0.552,1.552-0.827,2.486-0.827c0.732,0,1.313,0.175,1.736,0.525C630.305,11.031,630.517,11.505,630.517,12.104z"/>
								<path d="M636.584,18.119l-0.135-0.924h-0.043c-0.293,0.376-0.595,0.643-0.904,0.797c-0.311,0.156-0.677,0.234-1.1,0.234
									c-0.573,0-1.02-0.147-1.337-0.44s-0.479-0.699-0.479-1.219c0-0.569,0.237-1.012,0.714-1.327
									c0.475-0.314,1.159-0.48,2.061-0.5l1.111-0.031v-0.388c0-0.555-0.112-0.974-0.338-1.257
									c-0.227-0.283-0.591-0.424-1.091-0.424c-0.541,0-1.102,0.148-1.682,0.449l-0.199-0.462c0.643-0.302,1.275-0.449,1.901-0.449
									c0.641,0,1.119,0.167,1.437,0.5c0.316,0.333,0.478,0.852,0.478,1.558v3.883H636.584z M634.435,17.743
									c0.623,0,1.113-0.178,1.475-0.534c0.359-0.354,0.54-0.852,0.54-1.483v-0.575l-1.021,0.043
									c-0.82,0.04-1.405,0.167-1.754,0.384c-0.352,0.218-0.523,0.555-0.523,1.014c0,0.364,0.111,0.648,0.335,0.854
									C633.711,17.644,634.027,17.743,634.435,17.743z"/>
								<path d="M642.805,12.281h0.661l-2.616,2.825l2.805,3.013h-0.714l-2.761-2.959v2.959h-0.543v-5.838h0.543v2.836
									L642.805,12.281z"/>
								<path d="M645.382,10.658c0-0.344,0.111-0.516,0.339-0.516c0.108,0,0.195,0.045,0.261,0.134
									c0.063,0.089,0.094,0.217,0.094,0.381c0,0.161-0.03,0.288-0.094,0.382c-0.063,0.093-0.15,0.142-0.261,0.142
									C645.493,11.181,645.382,11.005,645.382,10.658z M645.987,18.119h-0.532v-5.838h0.532V18.119z"/>
								<path d="M649.243,12.281v2.563h3.706v-2.563h0.525v5.838h-0.525v-2.813h-3.706v2.813h-0.532v-5.838H649.243z"/>
								<path d="M656.632,12.281v1.955c0,0.494,0.12,0.852,0.359,1.069c0.24,0.217,0.608,0.326,1.106,0.326
									c0.351,0,0.686-0.063,1.004-0.188c0.316-0.125,0.648-0.326,0.994-0.604v-2.563h0.531v5.838h-0.531v-2.771
									c-0.358,0.274-0.711,0.473-1.059,0.591c-0.345,0.118-0.719,0.177-1.119,0.177c-0.599,0-1.051-0.155-1.354-0.467
									c-0.308-0.313-0.459-0.761-0.459-1.35v-2.021h0.526L656.632,12.281L656.632,12.281z"/>
								<path d="M665.711,18.228c-0.85,0-1.511-0.263-1.983-0.784c-0.476-0.522-0.712-1.255-0.712-2.197
									c0-0.931,0.229-1.677,0.688-2.234c0.458-0.563,1.076-0.842,1.854-0.842c0.688,0,1.229,0.239,1.628,0.722
									c0.396,0.479,0.596,1.131,0.596,1.955v0.43h-4.206c0.007,0.802,0.194,1.415,0.563,1.837s0.894,0.634,1.576,0.634
									c0.334,0,0.625-0.021,0.879-0.067c0.252-0.048,0.571-0.147,0.957-0.304v0.483c-0.328,0.144-0.634,0.241-0.912,0.293
									C666.354,18.2,666.048,18.228,665.711,18.228z M665.555,12.642c-0.563,0-1.015,0.185-1.354,0.556
									c-0.34,0.37-0.539,0.905-0.596,1.604h3.607c0-0.678-0.146-1.204-0.438-1.587C666.481,12.833,666.073,12.642,665.555,12.642z
									"/>
								<path d="M670.691,12.281v2.563h3.706v-2.563h0.524v5.838h-0.524v-2.813h-3.706v2.813h-0.532v-5.838H670.691z"/>
								<path d="M678.18,12.281v2.563h3.707v-2.563h0.523v5.838h-0.523v-2.813h-3.707v2.813h-0.531v-5.838H678.18z"/>
								<path d="M685.053,18.119h-0.673l1.763-2.519c-0.537-0.102-0.926-0.287-1.163-0.561c-0.238-0.271-0.357-0.621-0.357-1.048
									c0-0.529,0.18-0.947,0.535-1.254c0.356-0.306,0.835-0.459,1.438-0.459h2.405v5.838h-0.524v-2.455h-1.783L685.053,18.119z
									 M685.18,13.974c0,0.398,0.131,0.697,0.39,0.894c0.26,0.195,0.651,0.293,1.174,0.293h1.729v-2.374h-1.894
									c-0.442,0-0.787,0.104-1.033,0.305C685.303,13.291,685.18,13.585,685.18,13.974z"/>
								<path d="M695.885,18.119h-0.531v-5.838h4.656v5.838h-0.531v-5.333h-3.594V18.119z"/>
								<path d="M705.231,18.228c-0.899,0-1.554-0.336-1.966-1.012h-0.038l0.016,0.451c0.016,0.267,0.021,0.557,0.021,0.869v2.227
									h-0.531v-8.481h0.451l0.102,0.833h0.032c0.4-0.63,1.042-0.944,1.923-0.944c0.788,0,1.388,0.261,1.802,0.775
									c0.413,0.519,0.62,1.271,0.62,2.259c0,0.959-0.218,1.704-0.65,2.231C706.576,17.962,705.983,18.228,705.231,18.228z
									 M705.221,17.753c0.599,0,1.062-0.223,1.389-0.666c0.328-0.442,0.492-1.063,0.492-1.862c0-1.715-0.62-2.573-1.858-2.573
									c-0.68,0-1.18,0.188-1.499,0.562c-0.316,0.375-0.479,0.983-0.479,1.829v0.172c0,0.913,0.153,1.564,0.459,1.955
									C704.031,17.561,704.53,17.753,705.221,17.753z"/>
								<path d="M712.409,18.228c-0.849,0-1.51-0.263-1.982-0.784c-0.477-0.522-0.713-1.255-0.713-2.197
									c0-0.931,0.229-1.677,0.688-2.234c0.458-0.563,1.076-0.842,1.854-0.842c0.688,0,1.229,0.239,1.628,0.722
									c0.396,0.479,0.597,1.131,0.597,1.955v0.43h-4.206c0.007,0.802,0.193,1.415,0.563,1.837
									c0.366,0.422,0.894,0.634,1.575,0.634c0.333,0,0.626-0.021,0.878-0.067c0.254-0.048,0.572-0.147,0.959-0.304v0.483
									c-0.328,0.144-0.634,0.241-0.912,0.293C713.053,18.2,712.745,18.228,712.409,18.228z M712.255,12.642
									c-0.563,0-1.015,0.185-1.354,0.556c-0.341,0.37-0.539,0.905-0.597,1.604h3.607c0-0.678-0.146-1.204-0.438-1.587
									C713.179,12.833,712.772,12.642,712.255,12.642z"/>
								<path d="M719.576,17.549l0.333-0.938l1.683-4.329h0.734v5.838h-0.505v-5.193c-0.079,0.228-0.162,0.457-0.25,0.692
									c-0.087,0.236-0.672,1.737-1.753,4.501h-0.473l-1.617-4.104c-0.068-0.165-0.133-0.338-0.19-0.521
									c-0.06-0.183-0.125-0.379-0.194-0.591v5.215h-0.482v-5.838h0.704l1.688,4.297C719.382,16.924,719.49,17.248,719.576,17.549z
									"/>
								<path d="M725.448,10.268l0.063,0.104c-0.271,0.949-0.58,1.813-0.937,2.584h-0.349c0.104-0.345,0.213-0.774,0.328-1.298
									c0.113-0.521,0.2-0.985,0.263-1.394L725.448,10.268L725.448,10.268z"/>
								<path d="M729.806,18.228c-0.852,0-1.518-0.27-2.002-0.805c-0.484-0.533-0.729-1.266-0.729-2.188
									c0-0.949,0.251-1.697,0.755-2.245s1.188-0.821,2.051-0.821c0.223,0,0.478,0.022,0.767,0.069
									c0.288,0.046,0.536,0.111,0.743,0.193l-0.155,0.473c-0.211-0.075-0.448-0.136-0.712-0.183
									c-0.264-0.048-0.48-0.07-0.652-0.07c-0.662,0-1.184,0.188-1.563,0.563s-0.602,0.903-0.661,1.584h3.356v0.475h-3.379
									c0.008,0.775,0.205,1.383,0.598,1.816c0.39,0.438,0.914,0.652,1.572,0.652c0.563,0,1.07-0.095,1.524-0.284v0.493
									c-0.165,0.083-0.381,0.148-0.649,0.199C730.402,18.202,730.114,18.228,729.806,18.228z"/>
								<path d="M736.017,18.228c-0.899,0-1.555-0.336-1.967-1.012h-0.037l0.016,0.451c0.014,0.267,0.021,0.557,0.021,0.869v2.227
									h-0.532v-8.481h0.451l0.103,0.833h0.032c0.399-0.63,1.041-0.944,1.923-0.944c0.788,0,1.389,0.261,1.803,0.775
									c0.413,0.519,0.62,1.271,0.62,2.259c0,0.959-0.217,1.704-0.652,2.231C737.363,17.962,736.769,18.228,736.017,18.228z
									 M736.007,17.753c0.6,0,1.063-0.223,1.391-0.666c0.327-0.442,0.491-1.063,0.491-1.862c0-1.715-0.621-2.573-1.858-2.573
									c-0.681,0-1.181,0.188-1.499,0.562c-0.318,0.375-0.479,0.983-0.479,1.829v0.172c0,0.913,0.151,1.564,0.459,1.955
									C734.818,17.561,735.315,17.753,736.007,17.753z"/>
								<path d="M741.368,12.281v2.563h3.706v-2.563h0.525v5.838h-0.525v-2.813h-3.706v2.813h-0.532v-5.838H741.368z"/>
								<path d="M753.155,15.192c0,0.953-0.23,1.696-0.691,2.229c-0.464,0.536-1.101,0.805-1.912,0.805
									c-0.513,0-0.963-0.124-1.354-0.371c-0.391-0.247-0.688-0.604-0.896-1.063c-0.207-0.462-0.313-0.996-0.313-1.602
									c0-0.953,0.231-1.694,0.692-2.229c0.463-0.529,1.097-0.797,1.899-0.797c0.804,0,1.433,0.271,1.89,0.81
									C752.927,13.517,753.155,14.253,753.155,15.192z M748.548,15.192c0,0.802,0.177,1.428,0.527,1.877
									c0.354,0.45,0.853,0.674,1.496,0.674c0.646,0,1.145-0.225,1.496-0.674c0.353-0.449,0.528-1.075,0.528-1.877
									c0-0.808-0.18-1.433-0.533-1.875c-0.356-0.444-0.857-0.666-1.501-0.666c-0.646,0-1.144,0.221-1.491,0.664
									C748.721,13.756,748.548,14.382,748.548,15.192z"/>
								<path d="M758.972,12.742h-2.899v5.376h-0.532v-5.838h3.434L758.972,12.742L758.972,12.742z"/>
								<path d="M765.77,15.192c0,0.953-0.229,1.696-0.693,2.229c-0.461,0.536-1.099,0.805-1.911,0.805
									c-0.513,0-0.964-0.124-1.354-0.371c-0.392-0.247-0.688-0.604-0.896-1.063c-0.207-0.462-0.313-0.996-0.313-1.602
									c0-0.953,0.229-1.694,0.691-2.229c0.463-0.529,1.097-0.797,1.9-0.797c0.803,0,1.432,0.271,1.889,0.81
									C765.541,13.517,765.77,14.253,765.77,15.192z M761.161,15.192c0,0.802,0.178,1.428,0.529,1.877
									c0.353,0.45,0.851,0.674,1.495,0.674c0.644,0,1.144-0.225,1.496-0.674c0.354-0.449,0.527-1.075,0.527-1.877
									c0-0.808-0.179-1.433-0.533-1.875c-0.355-0.444-0.855-0.666-1.501-0.666c-0.646,0-1.144,0.221-1.491,0.664
									C761.336,13.756,761.161,14.382,761.161,15.192z"/>
								<path d="M626.65,33.119h-0.532v-5.838h4.657v5.838h-0.532v-5.333h-3.593V33.119z"/>
								<path d="M635.858,33.228c-0.85,0-1.511-0.263-1.985-0.784c-0.474-0.522-0.711-1.255-0.711-2.197
									c0-0.931,0.229-1.677,0.688-2.234c0.459-0.563,1.076-0.842,1.854-0.842c0.688,0,1.23,0.239,1.628,0.722
									c0.396,0.479,0.597,1.131,0.597,1.955v0.43h-4.205c0.007,0.802,0.192,1.415,0.561,1.837
									c0.369,0.422,0.895,0.634,1.577,0.634c0.333,0,0.625-0.021,0.878-0.067c0.252-0.048,0.572-0.147,0.958-0.304v0.483
									c-0.33,0.144-0.634,0.241-0.913,0.293C636.505,33.2,636.195,33.228,635.858,33.228z M635.702,27.642
									c-0.562,0-1.013,0.185-1.354,0.556c-0.341,0.37-0.539,0.905-0.597,1.604h3.608c0-0.678-0.146-1.204-0.438-1.587
									C636.63,27.833,636.222,27.642,635.702,27.642z"/>
								<path d="M642.805,33.228c-0.898,0-1.554-0.336-1.966-1.012h-0.038l0.017,0.451c0.014,0.267,0.021,0.557,0.021,0.869v2.227
									h-0.531v-8.481h0.45l0.103,0.833h0.031c0.4-0.63,1.043-0.944,1.924-0.944c0.787,0,1.389,0.261,1.802,0.775
									c0.414,0.519,0.621,1.271,0.621,2.259c0,0.959-0.218,1.704-0.653,2.231C644.151,32.962,643.556,33.228,642.805,33.228z
									 M642.795,32.753c0.6,0,1.063-0.223,1.391-0.666c0.326-0.442,0.49-1.063,0.49-1.862c0-1.715-0.619-2.573-1.857-2.573
									c-0.68,0-1.18,0.188-1.499,0.562c-0.317,0.375-0.479,0.983-0.479,1.829v0.172c0,0.913,0.151,1.564,0.459,1.955
									C641.606,32.561,642.103,32.753,642.795,32.753z"/>
								<path d="M647.552,25.658c0-0.344,0.112-0.516,0.339-0.516c0.109,0,0.195,0.045,0.261,0.134
									c0.063,0.089,0.094,0.217,0.094,0.381c0,0.161-0.03,0.288-0.094,0.382c-0.063,0.093-0.149,0.142-0.261,0.142
									C647.662,26.181,647.552,26.005,647.552,25.658z M648.157,33.119h-0.532v-5.838h0.532V33.119z"/>
								<path d="M655.711,30.192c0,0.953-0.229,1.696-0.691,2.229c-0.463,0.536-1.102,0.805-1.912,0.805
									c-0.512,0-0.963-0.124-1.354-0.371c-0.392-0.247-0.688-0.604-0.896-1.063c-0.208-0.462-0.313-0.996-0.313-1.602
									c0-0.953,0.23-1.694,0.692-2.229c0.462-0.529,1.097-0.797,1.901-0.797c0.802,0,1.431,0.271,1.888,0.81
									C655.482,28.517,655.711,29.253,655.711,30.192z M651.102,30.192c0,0.802,0.176,1.428,0.528,1.877
									c0.354,0.45,0.852,0.674,1.496,0.674c0.646,0,1.144-0.225,1.494-0.674c0.354-0.449,0.529-1.075,0.529-1.877
									c0-0.808-0.178-1.433-0.534-1.875c-0.354-0.444-0.855-0.666-1.501-0.666c-0.645,0-1.141,0.221-1.49,0.664
									C651.277,28.756,651.102,29.382,651.102,30.192z"/>
								<path d="M662.861,35.103h-0.525V33.12h-4.47v1.982h-0.525v-2.487h0.389c0.486-0.684,0.861-1.477,1.128-2.379
									c0.266-0.901,0.404-1.887,0.419-2.954h2.81v5.333h0.778L662.861,35.103L662.861,35.103z M661.552,32.615v-4.839h-1.814
									c-0.086,1.938-0.555,3.55-1.406,4.839H661.552z"/>
								<path d="M663.894,27.281h0.548l1.234,3.276c0.376,1.006,0.612,1.685,0.714,2.034h0.031c0.149-0.462,0.396-1.149,0.735-2.066
									l1.235-3.244h0.548l-2.616,6.784c-0.211,0.551-0.389,0.924-0.531,1.117c-0.144,0.191-0.312,0.338-0.503,0.435
									c-0.188,0.098-0.423,0.146-0.693,0.146c-0.204,0-0.434-0.038-0.684-0.113v-0.462c0.208,0.057,0.434,0.086,0.671,0.086
									c0.186,0,0.346-0.043,0.483-0.129s0.267-0.219,0.379-0.4c0.112-0.181,0.243-0.467,0.394-0.856
									c0.147-0.395,0.244-0.647,0.287-0.768L663.894,27.281z"/>
								<path d="M678.024,27.742h-1.944v5.376h-0.523v-5.376h-1.993v-0.462h4.463L678.024,27.742L678.024,27.742z"/>
								<path d="M683.537,33.119l-0.134-0.924h-0.043c-0.293,0.376-0.595,0.643-0.905,0.797c-0.31,0.156-0.676,0.234-1.098,0.234
									c-0.573,0-1.02-0.147-1.337-0.44c-0.318-0.293-0.479-0.699-0.479-1.219c0-0.569,0.237-1.012,0.711-1.327
									c0.478-0.314,1.161-0.48,2.063-0.5l1.11-0.031v-0.388c0-0.555-0.111-0.974-0.339-1.257c-0.225-0.283-0.589-0.424-1.09-0.424
									c-0.541,0-1.101,0.148-1.681,0.449l-0.199-0.462c0.643-0.302,1.275-0.449,1.9-0.449c0.642,0,1.12,0.167,1.438,0.5
									c0.318,0.333,0.479,0.852,0.479,1.558v3.883H683.537z M681.389,32.743c0.623,0,1.114-0.178,1.474-0.534
									c0.36-0.354,0.54-0.852,0.54-1.483v-0.575l-1.021,0.043c-0.819,0.04-1.403,0.167-1.754,0.384
									c-0.351,0.218-0.522,0.555-0.522,1.014c0,0.364,0.111,0.648,0.336,0.854C680.664,32.644,680.98,32.743,681.389,32.743z"/>
								<path d="M690.75,33.119h-0.531v-5.838h4.656v5.838h-0.531v-5.333h-3.594V33.119z"/>
								<path d="M702.428,30.192c0,0.953-0.23,1.696-0.692,2.229c-0.462,0.536-1.099,0.805-1.912,0.805
									c-0.512,0-0.963-0.124-1.354-0.371c-0.393-0.247-0.688-0.604-0.896-1.063c-0.208-0.462-0.313-0.996-0.313-1.602
									c0-0.953,0.229-1.694,0.691-2.229c0.463-0.529,1.098-0.797,1.901-0.797c0.802,0,1.432,0.271,1.888,0.81
									C702.2,28.517,702.428,29.253,702.428,30.192z M697.819,30.192c0,0.802,0.176,1.428,0.528,1.877
									c0.354,0.45,0.853,0.674,1.496,0.674c0.645,0,1.144-0.225,1.496-0.674c0.354-0.449,0.527-1.075,0.527-1.877
									c0-0.808-0.178-1.433-0.535-1.875c-0.354-0.444-0.854-0.666-1.5-0.666c-0.646,0-1.143,0.221-1.489,0.664
									C697.993,28.756,697.819,29.382,697.819,30.192z"/>
								<path d="M705.243,27.281v1.955c0,0.494,0.12,0.852,0.36,1.069c0.239,0.218,0.607,0.326,1.104,0.326
									c0.354,0,0.688-0.063,1.006-0.188c0.316-0.125,0.648-0.326,0.992-0.604v-2.563h0.532v5.838h-0.532v-2.771
									c-0.355,0.274-0.71,0.473-1.055,0.591c-0.346,0.118-0.719,0.177-1.12,0.177c-0.598,0-1.05-0.155-1.354-0.467
									c-0.308-0.313-0.459-0.761-0.459-1.35v-2.021h0.525L705.243,27.281L705.243,27.281z"/>
								<path d="M715.51,33.119l-0.134-0.924h-0.043c-0.295,0.376-0.597,0.643-0.905,0.797c-0.312,0.156-0.677,0.234-1.1,0.234
									c-0.571,0-1.019-0.147-1.337-0.44c-0.316-0.293-0.478-0.699-0.478-1.219c0-0.569,0.235-1.012,0.711-1.327
									c0.475-0.314,1.16-0.48,2.06-0.5l1.112-0.031v-0.388c0-0.555-0.113-0.974-0.338-1.257c-0.228-0.283-0.59-0.424-1.091-0.424
									c-0.541,0-1.103,0.148-1.683,0.449l-0.198-0.462c0.643-0.302,1.274-0.449,1.9-0.449c0.641,0,1.12,0.167,1.438,0.5
									c0.315,0.333,0.477,0.852,0.477,1.558v3.883H715.51z M713.361,32.743c0.623,0,1.115-0.178,1.475-0.534
									c0.359-0.354,0.539-0.852,0.539-1.483v-0.575l-1.021,0.043c-0.82,0.04-1.404,0.167-1.755,0.384
									c-0.35,0.218-0.522,0.555-0.522,1.014c0,0.364,0.112,0.648,0.337,0.854C712.637,32.644,712.953,32.743,713.361,32.743z"/>
								<path d="M722.268,27.742h-1.944v5.376H719.8v-5.376h-1.993v-0.462h4.464L722.268,27.742L722.268,27.742z"/>
								<path d="M729.065,30.192c0,0.953-0.231,1.696-0.692,2.229c-0.463,0.536-1.1,0.805-1.912,0.805
									c-0.513,0-0.963-0.124-1.354-0.371c-0.392-0.247-0.688-0.604-0.896-1.063c-0.207-0.462-0.313-0.996-0.313-1.602
									c0-0.953,0.229-1.694,0.692-2.229c0.463-0.529,1.097-0.797,1.899-0.797s1.433,0.271,1.89,0.81
									C728.836,28.517,729.065,29.253,729.065,30.192z M724.457,30.192c0,0.802,0.177,1.428,0.528,1.877
									c0.354,0.45,0.851,0.674,1.496,0.674s1.144-0.225,1.495-0.674c0.354-0.449,0.529-1.075,0.529-1.877
									c0-0.808-0.18-1.433-0.533-1.875c-0.356-0.444-0.857-0.666-1.502-0.666c-0.646,0-1.143,0.221-1.49,0.664
									C724.632,28.756,724.457,29.382,724.457,30.192z"/>
								<path d="M734.62,27.281h0.661l-2.615,2.825l2.805,3.013h-0.714l-2.763-2.959v2.959h-0.542v-5.838h0.542v2.836L734.62,27.281
									z"/>
								<path d="M745.662,35.103h-0.523V33.12h-4.471v1.982h-0.525v-2.487h0.388c0.487-0.684,0.862-1.477,1.128-2.379
									c0.266-0.901,0.405-1.887,0.419-2.954h2.812v5.333h0.777L745.662,35.103L745.662,35.103z M744.351,32.615v-4.839h-1.815
									c-0.086,1.938-0.555,3.55-1.406,4.839H744.351z"/>
								<path d="M747.597,25.658c0-0.344,0.111-0.516,0.338-0.516c0.109,0,0.197,0.045,0.261,0.134
									c0.064,0.089,0.095,0.217,0.095,0.381c0,0.161-0.03,0.288-0.095,0.382c-0.063,0.093-0.148,0.142-0.261,0.142
									C747.711,26.181,747.597,26.005,747.597,25.658z M748.204,33.119h-0.531v-5.838h0.531V33.119z"/>
								<path d="M749.841,25.658c0-0.165,0.026-0.282,0.082-0.354c0.058-0.072,0.143-0.107,0.257-0.107
									c0.229,0,0.344,0.154,0.344,0.462c0,0.311-0.115,0.462-0.344,0.462C749.952,26.12,749.841,25.966,749.841,25.658z
									 M751.461,33.119h-0.529v-5.838h0.529V33.119z M751.887,25.658c0-0.165,0.026-0.282,0.082-0.354
									c0.056-0.072,0.141-0.107,0.256-0.107c0.229,0,0.344,0.154,0.344,0.462c0,0.311-0.115,0.462-0.344,0.462
									C751.998,26.12,751.887,25.966,751.887,25.658z"/>
								<path d="M758.914,29.799c1.059,0,1.586-0.361,1.586-1.09c0-0.348-0.123-0.61-0.363-0.796
									c-0.243-0.183-0.594-0.271-1.043-0.271c-0.287,0-0.555,0.031-0.801,0.099c-0.248,0.066-0.513,0.162-0.796,0.288
									l-0.196-0.439c0.621-0.277,1.228-0.419,1.813-0.419c0.637,0,1.121,0.134,1.45,0.396s0.494,0.632,0.494,1.102
									c0,0.679-0.349,1.107-1.042,1.294v0.031c0.434,0.107,0.748,0.286,0.943,0.535c0.196,0.249,0.297,0.566,0.297,0.953
									c0,0.541-0.197,0.967-0.596,1.278c-0.396,0.311-0.941,0.467-1.646,0.467c-0.38,0-0.728-0.037-1.039-0.11
									c-0.313-0.073-0.572-0.171-0.776-0.293v-0.531c0.369,0.175,0.688,0.294,0.956,0.356c0.271,0.063,0.558,0.094,0.859,0.094
									c0.53,0,0.94-0.111,1.235-0.335c0.297-0.224,0.442-0.543,0.442-0.959c0-0.404-0.141-0.704-0.424-0.896
									c-0.283-0.193-0.707-0.29-1.272-0.29h-0.812v-0.464H758.914L758.914,29.799z"/>
								<path d="M764.091,27.281v2.563h3.705v-2.563h0.525v5.838h-0.525v-2.813h-3.705v2.813h-0.532v-5.838H764.091z"/>
								<path d="M771.552,27.281v4.223l-0.03,1.103l3.464-5.323h0.709v5.838h-0.512v-4.192l0.021-1.13l-3.464,5.322h-0.691v-5.838
									L771.552,27.281L771.552,27.281z"/>
								<path d="M780.829,27.281h0.537v2.836l2.509-2.836h0.649l-2.53,2.836l2.729,3.002h-0.684l-2.675-2.959v2.959h-0.537v-2.959
									l-2.675,2.959h-0.682l2.717-2.979l-2.521-2.857h0.648l2.509,2.836L780.829,27.281L780.829,27.281z"/>
								<path d="M791.332,30.192c0,0.953-0.229,1.696-0.691,2.229c-0.461,0.536-1.102,0.805-1.911,0.805
									c-0.514,0-0.964-0.124-1.354-0.371c-0.39-0.247-0.688-0.604-0.896-1.063c-0.208-0.463-0.313-0.996-0.313-1.602
									c0-0.953,0.231-1.694,0.693-2.229c0.462-0.529,1.096-0.797,1.9-0.797c0.803,0,1.433,0.271,1.889,0.81
									C791.104,28.517,791.332,29.253,791.332,30.192z M786.722,30.192c0,0.802,0.178,1.428,0.529,1.877
									c0.354,0.45,0.853,0.674,1.494,0.674c0.646,0,1.145-0.225,1.496-0.674c0.354-0.449,0.529-1.075,0.529-1.877
									c0-0.808-0.182-1.433-0.535-1.875c-0.354-0.444-0.855-0.666-1.501-0.666s-1.142,0.221-1.49,0.664
									C786.898,28.756,786.722,29.382,786.722,30.192z"/>
								<path d="M796.887,27.281h0.661l-2.616,2.825l2.806,3.013h-0.715l-2.762-2.959v2.959h-0.542v-5.838h0.542v2.836
									L796.887,27.281z"/>
							</g>
						</g>
					</g>
				</g>
			</g>
			<circle fill="none" stroke="#FFD600" stroke-width="1.1587" stroke-miterlimit="10" cx="645.399" cy="313.196" r="18.037"/>
		</g>
	</g>
	
		<line fill="none" stroke="#FF4C29" stroke-miterlimit="10" stroke-dasharray="3,4" x1="394.18" y1="292.332" x2="394.18" y2="68.332"/>
	
		<line fill="none" stroke="#FF4C29" stroke-miterlimit="10" stroke-dasharray="3,4" x1="783.18" y1="292.332" x2="783.18" y2="68.332"/>
	
		<line fill="none" stroke="#FF4C29" stroke-miterlimit="10" stroke-dasharray="3,4" x1="1172.18" y1="292.332" x2="1172.18" y2="68.332"/>
</g>
</svg>
