<?xml version="1.0" encoding="utf-8"?>
<!-- Generator: Adobe Illustrator 16.0.0, SVG Export Plug-In . SVG Version: 6.00 Build 0)  -->
<!DOCTYPE svg PUBLIC "-//W3C//DTD SVG 1.1//EN" "http://www.w3.org/Graphics/SVG/1.1/DTD/svg11.dtd">
<svg version="1.1" id="Layer_1" xmlns="http://www.w3.org/2000/svg" xmlns:xlink="http://www.w3.org/1999/xlink" x="0px" y="0px"
	 width="1541.5px" height="334px" viewBox="0 0 1541.5 334" enable-background="new 0 0 1541.5 334" xml:space="preserve">
<g>
	<g>
		<g>
			<g>
				<g>
					
						<line fill="none" stroke="#ADADAD" stroke-width="0.7212" stroke-miterlimit="10" x1="30.129" y1="235.513" x2="31.571" y2="235.513"/>
					
						<line fill="none" stroke="#ADADAD" stroke-width="0.7212" stroke-miterlimit="10" stroke-dasharray="2.8772,4.3158" x1="35.887" y1="235.513" x2="760.225" y2="235.513"/>
					
						<line fill="none" stroke="#ADADAD" stroke-width="0.7212" stroke-miterlimit="10" x1="762.385" y1="235.513" x2="763.826" y2="235.513"/>
				</g>
			</g>
		</g>
		<g>
			<g>
				<g>
					
						<line fill="none" stroke="#ADADAD" stroke-width="0.7212" stroke-miterlimit="10" x1="30.129" y1="179.757" x2="31.571" y2="179.757"/>
					
						<line fill="none" stroke="#ADADAD" stroke-width="0.7212" stroke-miterlimit="10" stroke-dasharray="2.8772,4.3158" x1="35.887" y1="179.757" x2="760.225" y2="179.757"/>
					
						<line fill="none" stroke="#ADADAD" stroke-width="0.7212" stroke-miterlimit="10" x1="762.385" y1="179.757" x2="763.826" y2="179.757"/>
				</g>
			</g>
		</g>
		<g>
			<g>
				<g>
					
						<line fill="none" stroke="#ADADAD" stroke-width="0.7212" stroke-miterlimit="10" x1="30.129" y1="124.002" x2="31.571" y2="124.002"/>
					
						<line fill="none" stroke="#ADADAD" stroke-width="0.7212" stroke-miterlimit="10" stroke-dasharray="2.8772,4.3158" x1="35.887" y1="124.002" x2="760.225" y2="124.002"/>
					
						<line fill="none" stroke="#ADADAD" stroke-width="0.7212" stroke-miterlimit="10" x1="762.385" y1="124.002" x2="763.826" y2="124.002"/>
				</g>
			</g>
		</g>
		<g>
			<g>
				<g>
					
						<line fill="none" stroke="#ADADAD" stroke-width="0.7212" stroke-miterlimit="10" x1="763.826" y1="68.247" x2="762.385" y2="68.247"/>
					
						<line fill="none" stroke="#ADADAD" stroke-width="0.7212" stroke-miterlimit="10" stroke-dasharray="2.8772,4.3158" x1="758.068" y1="68.247" x2="33.729" y2="68.247"/>
					
						<line fill="none" stroke="#ADADAD" stroke-width="0.7212" stroke-miterlimit="10" x1="31.571" y1="68.247" x2="30.129" y2="68.247"/>
				</g>
			</g>
		</g>
		<g>
			<g>
				<path fill="#676767" d="M89.809,308.226v8.641h-1.846v-7.188H84.09v7.188h-1.836v-8.641H89.809z"/>
				<path fill="#676767" d="M98.927,308.226v1.438h-2.813v7.203h-1.844v-7.203h-2.813v-1.438H98.927z"/>
			</g>
		</g>
		<g>
			<g>
				<path fill="#676767" d="M140.098,317.023c-1.31,0-2.303-0.382-2.98-1.146c-0.679-0.764-1.02-1.857-1.02-3.285
					c0-1.452,0.354-2.569,1.064-3.353c0.711-0.782,1.738-1.172,3.082-1.172c0.911,0,1.731,0.169,2.461,0.508l-0.555,1.479
					c-0.776-0.303-1.417-0.453-1.922-0.453c-1.495,0-2.242,0.991-2.242,2.977c0,0.97,0.186,1.696,0.559,2.186
					c0.372,0.486,0.918,0.729,1.639,0.729c0.815,0,1.591-0.202,2.318-0.608v1.603c-0.327,0.191-0.679,0.331-1.051,0.414
					C141.08,316.981,140.629,317.023,140.098,317.023z"/>
				<path fill="#676767" d="M144.035,311.679c0-1.928,0.327-3.409,0.98-4.445c0.651-1.036,1.692-1.703,3.121-2
					c1.077-0.219,2.318-0.433,3.727-0.642l0.258,1.617c-1.708,0.262-2.958,0.464-3.75,0.608c-0.817,0.151-1.408,0.487-1.77,1.008
					c-0.362,0.521-0.572,1.306-0.629,2.354h0.115c0.299-0.435,0.687-0.769,1.164-1.005c0.479-0.236,0.992-0.354,1.539-0.354
					c1.063,0,1.893,0.336,2.484,1.008c0.592,0.673,0.891,1.614,0.891,2.828c0,1.392-0.359,2.466-1.082,3.228
					c-0.722,0.762-1.72,1.142-2.995,1.142c-1.267,0-2.259-0.469-2.978-1.406C144.393,314.681,144.035,313.365,144.035,311.679z
					 M148.215,315.523c1.364,0,2.049-0.896,2.049-2.688c0-1.729-0.617-2.595-1.854-2.595c-0.339,0-0.667,0.073-0.983,0.22
					c-0.317,0.146-0.61,0.339-0.88,0.577c-0.269,0.239-0.476,0.487-0.62,0.742c0,1.229,0.194,2.16,0.587,2.793
					C146.903,315.204,147.47,315.523,148.215,315.523z"/>
			</g>
		</g>
		<g>
			<g>
				<path fill="#676767" d="M27.686,308.226v3.155c0,0.887,0.458,1.328,1.375,1.328c0.441,0,0.875-0.063,1.297-0.185
					s0.875-0.319,1.357-0.59v-3.711h1.838v8.641h-1.838V313.2c-0.504,0.313-0.992,0.543-1.465,0.691
					c-0.472,0.146-0.984,0.223-1.543,0.223c-0.899,0-1.604-0.232-2.107-0.698c-0.504-0.467-0.76-1.118-0.76-1.957v-3.233H27.686
					L27.686,308.226z"/>
				<path fill="#676767" d="M42.67,308.226v1.438h-2.813v7.203h-1.844v-7.203H35.2v-1.438H42.67z"/>
			</g>
		</g>
		<g>
			<g>
				<path fill="#676767" d="M193.269,308.226v3.469h4.069v-3.469h1.836v8.641h-1.836v-3.727h-4.069v3.727h-1.836v-8.641H193.269z"/>
				<path fill="#676767" d="M210.09,319.92h-1.711v-3.056h-5.923v3.056h-1.693v-4.478h0.702c0.613-0.88,1.104-1.944,1.466-3.19
					c0.36-1.247,0.575-2.591,0.645-4.026h5.25v7.219h1.266L210.09,319.92L210.09,319.92z M207.019,315.445v-5.813h-1.859
					c-0.099,1.072-0.306,2.131-0.621,3.173c-0.313,1.042-0.699,1.922-1.15,2.641L207.019,315.445L207.019,315.445z"/>
			</g>
		</g>
		<g>
			<g>
				<path fill="#676767" d="M255.784,308.226v8.641h-1.844v-7.188h-3.875v7.188h-1.836v-8.641H255.784z"/>
				<path fill="#676767" d="M260.245,308.226v3.469h4.07v-3.469h1.836v8.641h-1.836v-3.727h-4.07v3.727h-1.836v-8.641H260.245z"/>
			</g>
		</g>
		<g>
			<g>
				<path fill="#676767" d="M311.992,310.437c0,1.021-0.597,1.638-1.789,1.852v0.063c0.667,0.078,1.178,0.289,1.531,0.633
					c0.353,0.344,0.531,0.789,0.531,1.336c0,0.817-0.313,1.446-0.936,1.887c-0.623,0.44-1.525,0.66-2.715,0.66h-4.125v-8.641h4.109
					C310.861,308.226,311.992,308.962,311.992,310.437z M310.156,310.592c0-0.345-0.134-0.594-0.402-0.745
					c-0.269-0.153-0.668-0.23-1.197-0.23h-2.229v2.078h1.953c0.614,0,1.081-0.079,1.398-0.237
					C309.996,311.296,310.156,311.01,310.156,310.592z M310.383,314.209c0-0.418-0.161-0.713-0.483-0.888
					c-0.323-0.175-0.81-0.262-1.453-0.262h-2.117v2.444h2.164C309.752,315.506,310.383,315.073,310.383,314.209z"/>
				<path fill="#676767" d="M320.648,308.226v1.438h-2.813v7.203h-1.844v-7.203h-2.813v-1.438H320.648z"/>
			</g>
		</g>
		<g>
			<g>
				<path fill="#676767" d="M362.449,317.023c-1.307,0-2.301-0.382-2.979-1.146c-0.681-0.764-1.021-1.857-1.021-3.285
					c0-1.452,0.355-2.569,1.066-3.353c0.711-0.782,1.736-1.172,3.082-1.172c0.912,0,1.73,0.169,2.461,0.508l-0.557,1.479
					c-0.774-0.303-1.417-0.453-1.922-0.453c-1.495,0-2.241,0.991-2.241,2.977c0,0.97,0.187,1.696,0.56,2.186
					c0.373,0.487,0.918,0.729,1.637,0.729c0.818,0,1.591-0.202,2.32-0.608v1.603c-0.328,0.191-0.678,0.331-1.051,0.414
					S362.98,317.023,362.449,317.023z"/>
				<path fill="#676767" d="M371.269,317.023c-1.094,0-1.943-0.395-2.547-1.181h-0.109c0.073,0.729,0.109,1.173,0.109,1.328v3.539
					h-1.836v-12.483h1.482c0.042,0.161,0.127,0.547,0.259,1.155h0.095c0.571-0.875,1.432-1.313,2.578-1.313
					c1.077,0,1.918,0.392,2.52,1.172c0.602,0.781,0.902,1.878,0.902,3.289s-0.308,2.514-0.918,3.306
					C373.192,316.625,372.348,317.023,371.269,317.023z M370.824,309.57c-0.729,0-1.262,0.214-1.598,0.642s-0.504,1.108-0.504,2.047
					v0.272c0,1.052,0.167,1.813,0.5,2.285s0.877,0.707,1.633,0.707c0.635,0,1.125-0.261,1.469-0.781
					c0.344-0.52,0.516-1.263,0.516-2.227c0-0.97-0.17-1.702-0.512-2.199S371.486,309.57,370.824,309.57z"/>
			</g>
		</g>
		<g>
			
				<line fill="none" stroke="#0E1968" stroke-width="5" stroke-linecap="round" stroke-miterlimit="10" x1="362.807" y1="295.465" x2="362.807" y2="179.488"/>
			
				<line fill="none" stroke="#49B4DA" stroke-width="5" stroke-linecap="round" stroke-miterlimit="10" x1="370.513" y1="295.42" x2="370.513" y2="68.331"/>
			
				<line fill="none" stroke="#0E1968" stroke-width="5" stroke-linecap="round" stroke-miterlimit="10" x1="417.677" y1="295.465" x2="417.677" y2="231.661"/>
			
				<line fill="none" stroke="#49B4DA" stroke-width="5" stroke-linecap="round" stroke-miterlimit="10" x1="425.382" y1="295.42" x2="425.382" y2="174.984"/>
			
				<line fill="none" stroke="#0E1968" stroke-width="5" stroke-linecap="round" stroke-miterlimit="10" x1="473.123" y1="295.465" x2="473.123" y2="231.661"/>
			
				<line fill="none" stroke="#49B4DA" stroke-width="5" stroke-linecap="round" stroke-miterlimit="10" x1="480.828" y1="295.42" x2="480.828" y2="174.984"/>
			
				<line fill="none" stroke="#0E1968" stroke-width="5" stroke-linecap="round" stroke-miterlimit="10" x1="528.569" y1="295.465" x2="528.569" y2="180.682"/>
			
				<line fill="none" stroke="#49B4DA" stroke-width="5" stroke-linecap="round" stroke-miterlimit="10" x1="536.274" y1="295.42" x2="536.274" y2="68.247"/>
			
				<line fill="none" stroke="#0E1968" stroke-width="5" stroke-linecap="round" stroke-miterlimit="10" x1="584.017" y1="295.465" x2="584.017" y2="180.682"/>
			
				<line fill="none" stroke="#49B4DA" stroke-width="5" stroke-linecap="round" stroke-miterlimit="10" x1="591.722" y1="295.42" x2="591.722" y2="68.247"/>
			
				<line fill="none" stroke="#0E1968" stroke-width="5" stroke-linecap="round" stroke-miterlimit="10" x1="639.463" y1="295.465" x2="639.463" y2="234.664"/>
			
				<line fill="none" stroke="#49B4DA" stroke-width="5" stroke-linecap="round" stroke-miterlimit="10" x1="647.17" y1="295.42" x2="647.17" y2="177.987"/>
			
				<line fill="none" stroke="#0E1968" stroke-width="5" stroke-linecap="round" stroke-miterlimit="10" x1="694.909" y1="295.465" x2="694.909" y2="234.664"/>
			
				<line fill="none" stroke="#49B4DA" stroke-width="5" stroke-linecap="round" stroke-miterlimit="10" x1="702.616" y1="295.42" x2="702.616" y2="177.987"/>
			
				<line fill="none" stroke="#0E1968" stroke-width="5" stroke-linecap="round" stroke-miterlimit="10" x1="750.555" y1="295.465" x2="750.555" y2="235.241"/>
			
				<line fill="none" stroke="#49B4DA" stroke-width="5" stroke-linecap="round" stroke-miterlimit="10" x1="758.261" y1="295.42" x2="758.261" y2="178.564"/>
			
				<line fill="none" stroke="#0E1968" stroke-width="5" stroke-linecap="round" stroke-miterlimit="10" x1="85.574" y1="295.465" x2="85.574" y2="178.487"/>
			
				<line fill="none" stroke="#49B4DA" stroke-width="5" stroke-linecap="round" stroke-miterlimit="10" x1="93.28" y1="295.42" x2="93.28" y2="68.247"/>
			
				<line fill="none" stroke="#0E1968" stroke-width="5" stroke-linecap="round" stroke-miterlimit="10" x1="141.021" y1="295.465" x2="141.021" y2="122.732"/>
			
				<line fill="none" stroke="#49B4DA" stroke-width="5" stroke-linecap="round" stroke-miterlimit="10" x1="148.725" y1="295.42" x2="148.725" y2="68.055"/>
			
				<line fill="none" stroke="#0E1968" stroke-width="5" stroke-linecap="round" stroke-miterlimit="10" x1="196.469" y1="295.465" x2="196.469" y2="122.732"/>
			
				<line fill="none" stroke="#49B4DA" stroke-width="5" stroke-linecap="round" stroke-miterlimit="10" x1="204.174" y1="295.42" x2="204.174" y2="68.055"/>
			
				<line fill="none" stroke="#0E1968" stroke-width="5" stroke-linecap="round" stroke-miterlimit="10" x1="251.914" y1="295.465" x2="251.914" y2="179.488"/>
			
				<line fill="none" stroke="#49B4DA" stroke-width="5" stroke-linecap="round" stroke-miterlimit="10" x1="259.619" y1="295.42" x2="259.619" y2="68.247"/>
			
				<line fill="none" stroke="#0E1968" stroke-width="5" stroke-linecap="round" stroke-miterlimit="10" x1="307.361" y1="295.465" x2="307.361" y2="179.488"/>
			
				<line fill="none" stroke="#49B4DA" stroke-width="5" stroke-linecap="round" stroke-miterlimit="10" x1="315.066" y1="295.42" x2="315.066" y2="68.247"/>
			
				<line fill="none" stroke="#0E1968" stroke-width="5" stroke-linecap="round" stroke-miterlimit="10" x1="30.129" y1="295.465" x2="30.129" y2="178.487"/>
			
				<line fill="none" stroke="#49B4DA" stroke-width="5" stroke-linecap="round" stroke-miterlimit="10" x1="37.833" y1="295.42" x2="37.833" y2="68.247"/>
			<rect x="7.877" y="291.953" fill="#FFFFFF" width="759.74" height="38.232"/>
			
				<line fill="none" stroke="#ADADAD" stroke-width="0.7212" stroke-miterlimit="10" stroke-dasharray="2.8848,4.3272" x1="30.129" y1="292.148" x2="763.603" y2="292.148"/>
		</g>
		<g>
			<g>
				<path fill="#676767" d="M89.809,308.226v8.641h-1.846v-7.188H84.09v7.188h-1.836v-8.641H89.809z"/>
				<path fill="#676767" d="M98.927,308.226v1.438h-2.813v7.203h-1.844v-7.203h-2.813v-1.438H98.927z"/>
			</g>
		</g>
		<g>
			<g>
				<path fill="#FF4C29" d="M140.098,317.023c-1.309,0-2.303-0.382-2.98-1.146c-0.679-0.764-1.02-1.857-1.02-3.285
					c0-1.452,0.354-2.569,1.064-3.353c0.711-0.782,1.738-1.172,3.082-1.172c0.912,0,1.732,0.169,2.461,0.508l-0.555,1.479
					c-0.776-0.303-1.417-0.453-1.922-0.453c-1.495,0-2.242,0.991-2.242,2.977c0,0.97,0.186,1.696,0.559,2.186
					c0.373,0.487,0.918,0.729,1.639,0.729c0.816,0,1.591-0.202,2.318-0.608v1.603c-0.327,0.191-0.678,0.331-1.051,0.414
					S140.629,317.023,140.098,317.023z"/>
				<path fill="#FF4C29" d="M144.035,311.679c0-1.928,0.327-3.409,0.98-4.445c0.651-1.036,1.692-1.703,3.121-2
					c1.077-0.219,2.318-0.433,3.727-0.642l0.258,1.617c-1.708,0.262-2.958,0.464-3.75,0.608c-0.817,0.151-1.408,0.487-1.77,1.008
					c-0.362,0.521-0.572,1.306-0.629,2.354h0.115c0.299-0.435,0.687-0.769,1.164-1.005c0.479-0.236,0.992-0.354,1.539-0.354
					c1.063,0,1.893,0.336,2.484,1.008c0.592,0.673,0.891,1.614,0.891,2.828c0,1.392-0.359,2.466-1.082,3.228
					c-0.721,0.762-1.72,1.142-2.995,1.142c-1.267,0-2.259-0.469-2.978-1.406C144.393,314.681,144.035,313.365,144.035,311.679z
					 M148.215,315.523c1.365,0,2.049-0.896,2.049-2.688c0-1.729-0.617-2.595-1.854-2.595c-0.338,0-0.667,0.073-0.983,0.22
					c-0.316,0.146-0.61,0.339-0.88,0.577c-0.268,0.239-0.475,0.487-0.62,0.742c0,1.229,0.194,2.16,0.587,2.793
					C146.903,315.204,147.47,315.523,148.215,315.523z"/>
			</g>
		</g>
		<g>
			<g>
				<path fill="#676767" d="M27.686,308.226v3.155c0,0.887,0.458,1.328,1.375,1.328c0.441,0,0.875-0.063,1.297-0.185
					s0.875-0.319,1.357-0.59v-3.711h1.838v8.641h-1.838V313.2c-0.504,0.313-0.992,0.543-1.465,0.691
					c-0.472,0.146-0.984,0.223-1.543,0.223c-0.899,0-1.604-0.232-2.107-0.698c-0.504-0.467-0.76-1.118-0.76-1.957v-3.233H27.686
					L27.686,308.226z"/>
				<path fill="#676767" d="M42.67,308.226v1.438h-2.813v7.203h-1.844v-7.203H35.2v-1.438H42.67z"/>
			</g>
		</g>
		<g>
			<g>
				<path fill="#FF4C29" d="M193.269,308.226v3.469h4.069v-3.469h1.836v8.641h-1.836v-3.727h-4.069v3.727h-1.836v-8.641H193.269z"/>
				<path fill="#FF4C29" d="M210.09,319.92h-1.711v-3.056h-5.923v3.056h-1.693v-4.478h0.702c0.613-0.88,1.104-1.944,1.466-3.19
					c0.36-1.247,0.575-2.591,0.645-4.026h5.25v7.219h1.266L210.09,319.92L210.09,319.92z M207.019,315.445v-5.813h-1.859
					c-0.099,1.072-0.306,2.131-0.621,3.173c-0.313,1.042-0.699,1.922-1.15,2.641L207.019,315.445L207.019,315.445z"/>
			</g>
		</g>
		<g>
			<g>
				<path fill="#676767" d="M255.784,308.226v8.641h-1.844v-7.188h-3.875v7.188h-1.836v-8.641H255.784z"/>
				<path fill="#676767" d="M260.245,308.226v3.469h4.07v-3.469h1.836v8.641h-1.836v-3.727h-4.07v3.727h-1.836v-8.641H260.245z"/>
			</g>
		</g>
		<g>
			<g>
				<path fill="#676767" d="M311.992,310.437c0,1.021-0.597,1.638-1.789,1.852v0.063c0.667,0.078,1.178,0.289,1.531,0.633
					c0.353,0.344,0.531,0.789,0.531,1.336c0,0.817-0.313,1.446-0.936,1.887c-0.623,0.44-1.525,0.66-2.715,0.66h-4.125v-8.641h4.109
					C310.861,308.226,311.992,308.962,311.992,310.437z M310.156,310.592c0-0.345-0.134-0.594-0.402-0.745
					c-0.269-0.153-0.668-0.23-1.197-0.23h-2.229v2.078h1.953c0.614,0,1.081-0.079,1.398-0.237
					C309.996,311.296,310.156,311.01,310.156,310.592z M310.383,314.209c0-0.418-0.161-0.713-0.483-0.888
					c-0.323-0.175-0.81-0.262-1.453-0.262h-2.117v2.444h2.164C309.752,315.506,310.383,315.073,310.383,314.209z"/>
				<path fill="#676767" d="M320.648,308.226v1.438h-2.813v7.203h-1.844v-7.203h-2.813v-1.438H320.648z"/>
			</g>
		</g>
		<g>
			<g>
				<path fill="#676767" d="M362.45,317.023c-1.308,0-2.301-0.382-2.979-1.146c-0.681-0.764-1.021-1.857-1.021-3.285
					c0-1.452,0.355-2.569,1.066-3.353c0.711-0.782,1.736-1.172,3.082-1.172c0.911,0,1.729,0.169,2.461,0.508l-0.557,1.479
					c-0.774-0.303-1.417-0.453-1.922-0.453c-1.495,0-2.242,0.991-2.242,2.977c0,0.97,0.188,1.696,0.561,2.186
					c0.372,0.486,0.918,0.729,1.637,0.729c0.817,0,1.591-0.202,2.32-0.608v1.603c-0.328,0.191-0.679,0.331-1.051,0.414
					C363.433,316.981,362.981,317.023,362.45,317.023z"/>
				<path fill="#676767" d="M371.27,317.023c-1.096,0-1.943-0.395-2.547-1.181h-0.109c0.073,0.729,0.109,1.173,0.109,1.328v3.539
					h-1.836v-12.483h1.482c0.042,0.161,0.127,0.547,0.258,1.155h0.096c0.572-0.875,1.432-1.313,2.576-1.313
					c1.078,0,1.92,0.392,2.521,1.172c0.603,0.781,0.902,1.878,0.902,3.289s-0.308,2.514-0.918,3.306
					C373.193,316.625,372.348,317.023,371.27,317.023z M370.825,309.57c-0.729,0-1.262,0.214-1.598,0.642s-0.504,1.108-0.504,2.047
					v0.272c0,1.052,0.167,1.813,0.5,2.285s0.877,0.707,1.633,0.707c0.635,0,1.125-0.261,1.469-0.781
					c0.344-0.52,0.518-1.263,0.518-2.227c0-0.97-0.173-1.702-0.514-2.199C371.987,309.819,371.486,309.57,370.825,309.57z"/>
			</g>
		</g>
		<g>
			<g>
				<path fill="#676767" d="M476.809,308.226v8.641h-1.845v-7.188h-3.875v7.188h-1.836v-8.641H476.809z"/>
				<path fill="#676767" d="M485.927,308.226v1.438h-2.813v7.203h-1.844v-7.203h-2.813v-1.438H485.927z"/>
			</g>
		</g>
		<g>
			<g>
				<path fill="#FF4C29" d="M527.098,317.023c-1.308,0-2.302-0.382-2.98-1.146s-1.02-1.857-1.02-3.285
					c0-1.452,0.354-2.569,1.065-3.353c0.711-0.782,1.737-1.172,3.081-1.172c0.912,0,1.732,0.169,2.462,0.508l-0.556,1.479
					c-0.774-0.303-1.416-0.453-1.922-0.453c-1.494,0-2.242,0.991-2.242,2.977c0,0.97,0.188,1.696,0.561,2.186
					c0.372,0.487,0.918,0.729,1.637,0.729c0.817,0,1.592-0.202,2.319-0.608v1.603c-0.327,0.191-0.679,0.331-1.052,0.414
					S527.63,317.023,527.098,317.023z"/>
				<path fill="#FF4C29" d="M531.035,311.679c0-1.928,0.326-3.409,0.98-4.445c0.652-1.036,1.691-1.703,3.121-2
					c1.076-0.219,2.318-0.433,3.727-0.642l0.258,1.617c-1.709,0.262-2.959,0.464-3.75,0.608c-0.816,0.151-1.408,0.487-1.77,1.008
					c-0.362,0.521-0.572,1.306-0.629,2.354h0.115c0.299-0.435,0.688-0.769,1.164-1.005c0.479-0.236,0.992-0.354,1.539-0.354
					c1.063,0,1.893,0.336,2.484,1.008c0.592,0.673,0.891,1.614,0.891,2.828c0,1.392-0.359,2.466-1.082,3.228
					c-0.721,0.762-1.721,1.142-2.996,1.142c-1.266,0-2.258-0.469-2.977-1.406S531.035,313.365,531.035,311.679z M535.216,315.523
					c1.364,0,2.048-0.896,2.048-2.688c0-1.729-0.617-2.595-1.854-2.595c-0.338,0-0.666,0.073-0.983,0.22
					c-0.317,0.146-0.61,0.339-0.88,0.577c-0.268,0.239-0.475,0.487-0.62,0.742c0,1.229,0.194,2.16,0.587,2.793
					C533.903,315.204,534.471,315.523,535.216,315.523z"/>
			</g>
		</g>
		<g>
			<g>
				<path fill="#676767" d="M414.685,308.226v3.155c0,0.887,0.459,1.328,1.375,1.328c0.441,0,0.875-0.063,1.297-0.185
					s0.875-0.319,1.358-0.59v-3.711h1.837v8.641h-1.837V313.2c-0.506,0.313-0.992,0.543-1.466,0.691
					c-0.471,0.146-0.983,0.223-1.543,0.223c-0.898,0-1.604-0.232-2.107-0.698c-0.506-0.467-0.759-1.118-0.759-1.957v-3.233H414.685
					L414.685,308.226z"/>
				<path fill="#676767" d="M429.671,308.226v1.438h-2.813v7.203h-1.844v-7.203H422.2v-1.438H429.671z"/>
			</g>
		</g>
		<g>
			<g>
				<path fill="#FF4C29" d="M580.269,308.226v3.469h4.068v-3.469h1.838v8.641h-1.838v-3.727h-4.068v3.727h-1.836v-8.641H580.269z"/>
				<path fill="#FF4C29" d="M597.091,319.92h-1.711v-3.056h-5.923v3.056h-1.693v-4.478h0.702c0.612-0.88,1.103-1.944,1.466-3.19
					c0.359-1.247,0.575-2.591,0.645-4.026h5.25v7.219h1.268v4.477L597.091,319.92L597.091,319.92z M594.019,315.445v-5.813h-1.859
					c-0.1,1.072-0.307,2.131-0.621,3.173s-0.698,1.922-1.15,2.641L594.019,315.445L594.019,315.445z"/>
			</g>
		</g>
		<g>
			<g>
				<path fill="#676767" d="M642.783,308.226v8.641h-1.844v-7.188h-3.875v7.188h-1.836v-8.641H642.783z"/>
				<path fill="#676767" d="M647.244,308.226v3.469h4.07v-3.469h1.836v8.641h-1.836v-3.727h-4.07v3.727h-1.836v-8.641H647.244z"/>
			</g>
		</g>
		<g>
			<g>
				<path fill="#676767" d="M698.992,310.437c0,1.021-0.598,1.638-1.789,1.852v0.063c0.666,0.078,1.177,0.289,1.531,0.633
					s0.531,0.789,0.531,1.336c0,0.817-0.313,1.446-0.936,1.887c-0.623,0.44-1.525,0.66-2.715,0.66h-4.125v-8.641h4.109
					C697.861,308.226,698.992,308.962,698.992,310.437z M697.156,310.592c0-0.345-0.135-0.594-0.401-0.745
					c-0.271-0.153-0.669-0.23-1.198-0.23h-2.229v2.078h1.953c0.613,0,1.08-0.079,1.398-0.237
					C696.996,311.296,697.156,311.01,697.156,310.592z M697.384,314.209c0-0.418-0.161-0.713-0.483-0.888
					c-0.324-0.175-0.81-0.262-1.453-0.262h-2.117v2.444h2.164C696.752,315.506,697.384,315.073,697.384,314.209z"/>
				<path fill="#676767" d="M707.648,308.226v1.438h-2.813v7.203h-1.845v-7.203h-2.813v-1.438H707.648z"/>
			</g>
		</g>
		<g>
			<g>
				<path fill="#676767" d="M749.449,317.023c-1.307,0-2.301-0.382-2.979-1.146c-0.68-0.764-1.021-1.857-1.021-3.285
					c0-1.452,0.355-2.569,1.066-3.353c0.711-0.782,1.738-1.172,3.082-1.172c0.912,0,1.73,0.169,2.461,0.508l-0.555,1.479
					c-0.775-0.303-1.416-0.453-1.924-0.453c-1.492,0-2.24,0.991-2.24,2.977c0,0.97,0.186,1.696,0.559,2.186
					c0.373,0.487,0.918,0.729,1.637,0.729c0.818,0,1.592-0.202,2.32-0.608v1.603c-0.328,0.191-0.678,0.331-1.051,0.414
					S749.98,317.023,749.449,317.023z"/>
				<path fill="#676767" d="M758.269,317.023c-1.094,0-1.943-0.395-2.547-1.181h-0.109c0.072,0.729,0.109,1.173,0.109,1.328v3.539
					h-1.836v-12.483h1.482c0.041,0.161,0.127,0.547,0.258,1.155h0.096c0.57-0.875,1.432-1.313,2.578-1.313
					c1.076,0,1.918,0.392,2.52,1.172c0.602,0.781,0.902,1.878,0.902,3.289s-0.309,2.514-0.918,3.306
					C760.193,316.625,759.348,317.023,758.269,317.023z M757.824,309.57c-0.729,0-1.262,0.214-1.598,0.642s-0.504,1.108-0.504,2.047
					v0.272c0,1.052,0.166,1.813,0.5,2.285s0.877,0.707,1.633,0.707c0.635,0,1.125-0.261,1.469-0.781
					c0.344-0.52,0.516-1.263,0.516-2.227c0-0.97-0.17-1.702-0.512-2.199S758.486,309.57,757.824,309.57z"/>
			</g>
		</g>
		<g>
			<g>
				<g>
					<path fill="none" stroke="#FFD600" stroke-width="1.1587" stroke-miterlimit="10" d="M388,44.382v236.735v5.188v12.146
						c0,8.709,7.045,15.755,15.754,15.755"/>
					
						<polygon fill="#FFD600" stroke="#FFD600" stroke-width="1.1587" stroke-linecap="round" stroke-linejoin="round" stroke-miterlimit="10" points="
						591.722,0.503 388,0.503 388,30.854 388,43.393 388,50.156 396.206,43.393 591.722,43.393 					"/>
					<g>
						<g>
							<g>
								<path d="M406.517,11.104c0,1.023-0.543,1.653-1.628,1.891v0.032c1.188,0.254,1.781,0.893,1.781,1.912
									c0,0.72-0.252,1.281-0.76,1.684c-0.507,0.402-1.222,0.604-2.146,0.604c-0.867,0-1.598-0.154-2.188-0.462v-0.561
									c0.341,0.165,0.704,0.292,1.091,0.382c0.389,0.09,0.752,0.135,1.098,0.135c0.716,0,1.279-0.155,1.692-0.465
									c0.413-0.311,0.62-0.743,0.62-1.304c0-0.544-0.201-0.956-0.604-1.233c-0.402-0.279-1.005-0.42-1.81-0.42h-1.164v-0.517
									h1.207c0.762,0,1.32-0.143,1.684-0.43c0.362-0.287,0.543-0.693,0.543-1.219c0-0.448-0.166-0.808-0.497-1.074
									c-0.331-0.27-0.765-0.403-1.298-0.403c-0.396,0-0.764,0.058-1.098,0.169c-0.332,0.113-0.69,0.308-1.078,0.583l-0.313-0.43
									c0.723-0.551,1.553-0.827,2.486-0.827c0.733,0,1.313,0.175,1.737,0.526C406.305,10.031,406.517,10.505,406.517,11.104z"/>
								<path d="M412.583,17.118l-0.134-0.924h-0.043c-0.294,0.376-0.596,0.643-0.905,0.797c-0.31,0.156-0.677,0.234-1.099,0.234
									c-0.572,0-1.021-0.147-1.338-0.44c-0.318-0.293-0.479-0.699-0.479-1.219c0-0.569,0.237-1.012,0.712-1.327
									c0.477-0.314,1.16-0.479,2.062-0.5l1.112-0.032v-0.387c0-0.555-0.113-0.974-0.341-1.257
									c-0.226-0.283-0.589-0.424-1.091-0.424c-0.54,0-1.101,0.148-1.681,0.45l-0.198-0.462c0.643-0.302,1.274-0.45,1.9-0.45
									c0.642,0,1.12,0.167,1.438,0.5c0.316,0.333,0.477,0.852,0.477,1.558v3.883H412.583z M410.434,16.742
									c0.623,0,1.113-0.178,1.475-0.535c0.359-0.354,0.54-0.851,0.54-1.483v-0.575l-1.021,0.043
									c-0.818,0.04-1.403,0.167-1.752,0.384c-0.352,0.218-0.524,0.555-0.524,1.014c0,0.364,0.112,0.648,0.336,0.853
									C409.711,16.643,410.026,16.742,410.434,16.742z"/>
								<path d="M418.805,11.281h0.658l-2.613,2.825l2.804,3.013h-0.714l-2.762-2.959v2.959h-0.542v-5.838h0.542v2.836
									L418.805,11.281z"/>
								<path d="M421.38,9.658c0-0.344,0.112-0.516,0.34-0.516c0.108,0,0.196,0.045,0.261,0.134
									c0.063,0.089,0.094,0.217,0.094,0.381c0,0.161-0.031,0.288-0.094,0.381c-0.063,0.095-0.15,0.142-0.261,0.142
									C421.492,10.181,421.38,10.006,421.38,9.658z M421.986,17.118h-0.531v-5.838h0.531V17.118z"/>
								<path d="M425.243,11.281v2.563h3.706v-2.563h0.526v5.838h-0.526v-2.813h-3.706v2.813h-0.531v-5.838H425.243z"/>
								<path d="M432.632,11.281v1.955c0,0.494,0.118,0.852,0.358,1.069s0.609,0.327,1.106,0.327c0.351,0,0.686-0.063,1.005-0.188
									c0.318-0.125,0.648-0.326,0.993-0.602v-2.563h0.53v5.838h-0.53v-2.771c-0.358,0.274-0.71,0.473-1.058,0.591
									c-0.346,0.118-0.719,0.177-1.118,0.177c-0.6,0-1.052-0.155-1.355-0.467c-0.308-0.313-0.46-0.761-0.46-1.349v-2.021h0.528
									V11.281z"/>
								<path d="M441.709,17.228c-0.848,0-1.51-0.262-1.982-0.784c-0.475-0.522-0.711-1.255-0.711-2.197
									c0-0.931,0.229-1.677,0.688-2.235c0.458-0.562,1.076-0.841,1.854-0.841c0.688,0,1.229,0.239,1.628,0.721
									c0.396,0.479,0.596,1.131,0.596,1.955v0.43h-4.205c0.008,0.802,0.193,1.415,0.562,1.837s0.894,0.634,1.576,0.634
									c0.334,0,0.626-0.021,0.879-0.069c0.252-0.046,0.571-0.146,0.959-0.301v0.482c-0.33,0.144-0.636,0.241-0.914,0.293
									C442.353,17.2,442.048,17.228,441.709,17.228z M441.554,11.642c-0.563,0-1.015,0.185-1.354,0.556
									c-0.341,0.37-0.539,0.905-0.597,1.604h3.609c0-0.678-0.146-1.205-0.439-1.587C442.479,11.831,442.072,11.642,441.554,11.642
									z"/>
								<path d="M446.69,11.281v2.563h3.706v-2.563h0.525v5.838h-0.525v-2.813h-3.706v2.813h-0.532v-5.838H446.69z"/>
								<path d="M454.18,11.281v2.563h3.706v-2.563h0.524v5.838h-0.524v-2.813h-3.706v2.813h-0.531v-5.838H454.18z"/>
								<path d="M461.052,17.118h-0.671l1.762-2.519c-0.537-0.102-0.926-0.287-1.163-0.561c-0.238-0.271-0.357-0.62-0.357-1.047
									c0-0.529,0.18-0.947,0.535-1.254c0.355-0.306,0.835-0.459,1.438-0.459H465v5.838h-0.524v-2.455h-1.783L461.052,17.118z
									 M461.18,12.974c0,0.399,0.131,0.698,0.39,0.894c0.26,0.195,0.651,0.293,1.174,0.293h1.729v-2.374h-1.892
									c-0.442,0-0.789,0.103-1.034,0.305C461.303,12.29,461.18,12.586,461.18,12.974z"/>
								<path d="M471.884,17.118h-0.53v-5.838h4.655v5.838h-0.53v-5.333h-3.595V17.118z"/>
								<path d="M481.23,17.228c-0.898,0-1.554-0.336-1.965-1.011h-0.038l0.017,0.451c0.016,0.266,0.021,0.556,0.021,0.869v2.226
									h-0.532v-8.481h0.451l0.103,0.833h0.031c0.401-0.63,1.043-0.944,1.924-0.944c0.787,0,1.39,0.26,1.804,0.775
									c0.411,0.519,0.618,1.271,0.618,2.259c0,0.959-0.218,1.704-0.65,2.231C482.576,16.962,481.982,17.228,481.23,17.228z
									 M481.221,16.754c0.598,0,1.061-0.223,1.388-0.666c0.328-0.443,0.491-1.064,0.491-1.863c0-1.715-0.619-2.573-1.857-2.573
									c-0.681,0-1.18,0.188-1.499,0.562c-0.318,0.375-0.479,0.983-0.479,1.829v0.172c0,0.913,0.152,1.564,0.459,1.955
									C480.03,16.56,480.529,16.754,481.221,16.754z"/>
								<path d="M488.408,17.228c-0.849,0-1.51-0.262-1.983-0.784c-0.475-0.522-0.712-1.255-0.712-2.197
									c0-0.931,0.229-1.677,0.688-2.235c0.458-0.562,1.076-0.841,1.854-0.841c0.688,0,1.229,0.239,1.628,0.721
									c0.397,0.479,0.598,1.131,0.598,1.955v0.43h-4.206c0.007,0.802,0.194,1.415,0.563,1.837
									c0.367,0.422,0.894,0.634,1.575,0.634c0.333,0,0.626-0.021,0.878-0.069c0.254-0.046,0.572-0.146,0.959-0.301v0.482
									c-0.328,0.144-0.634,0.241-0.912,0.293C489.053,17.2,488.744,17.228,488.408,17.228z M488.252,11.642
									c-0.562,0-1.013,0.185-1.354,0.556c-0.34,0.37-0.539,0.905-0.596,1.604h3.607c0-0.678-0.146-1.205-0.438-1.587
									C489.178,11.831,488.771,11.642,488.252,11.642z"/>
								<path d="M495.575,16.55l0.333-0.939l1.683-4.329h0.734v5.838h-0.505v-5.193c-0.078,0.227-0.162,0.457-0.25,0.692
									c-0.088,0.236-0.672,1.737-1.754,4.501h-0.473l-1.616-4.104c-0.067-0.165-0.132-0.338-0.19-0.521
									c-0.06-0.183-0.125-0.379-0.194-0.591v5.215h-0.483v-5.838h0.703l1.688,4.297C495.382,15.925,495.489,16.248,495.575,16.55z
									"/>
								<path d="M501.447,9.268l0.064,0.105c-0.27,0.949-0.58,1.812-0.936,2.583h-0.35c0.104-0.344,0.213-0.774,0.328-1.297
									c0.113-0.521,0.201-0.985,0.263-1.394L501.447,9.268L501.447,9.268z"/>
								<path d="M505.806,17.228c-0.85,0-1.518-0.269-2.001-0.804c-0.484-0.534-0.729-1.266-0.729-2.188
									c0-0.949,0.251-1.697,0.756-2.245c0.502-0.548,1.187-0.821,2.049-0.821c0.224,0,0.478,0.022,0.767,0.069
									c0.288,0.046,0.536,0.111,0.744,0.193l-0.156,0.473c-0.211-0.075-0.448-0.136-0.712-0.183s-0.48-0.07-0.652-0.07
									c-0.662,0-1.184,0.188-1.563,0.563s-0.602,0.903-0.66,1.584h3.355v0.474h-3.379c0.01,0.776,0.206,1.383,0.598,1.817
									c0.391,0.437,0.916,0.652,1.572,0.652c0.563,0,1.07-0.095,1.525-0.285v0.494c-0.164,0.083-0.381,0.148-0.65,0.199
									C506.402,17.201,506.113,17.228,505.806,17.228z"/>
								<path d="M512.017,17.228c-0.899,0-1.555-0.336-1.966-1.011h-0.037l0.016,0.451c0.016,0.266,0.021,0.556,0.021,0.869v2.226
									h-0.531v-8.481h0.451l0.102,0.833h0.032c0.401-0.63,1.042-0.944,1.923-0.944c0.787,0,1.39,0.26,1.802,0.775
									c0.414,0.519,0.62,1.271,0.62,2.259c0,0.959-0.217,1.704-0.65,2.231C513.362,16.962,512.768,17.228,512.017,17.228z
									 M512.007,16.754c0.599,0,1.062-0.223,1.39-0.666c0.327-0.443,0.491-1.064,0.491-1.863c0-1.715-0.62-2.573-1.858-2.573
									c-0.68,0-1.18,0.188-1.498,0.562c-0.318,0.375-0.479,0.983-0.479,1.829v0.172c0,0.913,0.152,1.564,0.459,1.955
									C510.816,16.56,511.314,16.754,512.007,16.754z"/>
								<path d="M517.368,11.281v2.563h3.706v-2.563h0.526v5.838h-0.526v-2.813h-3.706v2.813h-0.532v-5.838H517.368z"/>
								<path d="M529.154,14.193c0,0.953-0.229,1.696-0.693,2.23c-0.461,0.536-1.099,0.804-1.911,0.804
									c-0.513,0-0.964-0.124-1.354-0.371c-0.39-0.247-0.688-0.603-0.896-1.063c-0.207-0.461-0.313-0.996-0.313-1.602
									c0-0.953,0.231-1.694,0.692-2.228c0.463-0.53,1.096-0.798,1.9-0.798c0.803,0,1.433,0.271,1.889,0.81
									C528.927,12.516,529.154,13.254,529.154,14.193z M524.548,14.193c0,0.802,0.177,1.428,0.527,1.877
									c0.354,0.45,0.853,0.674,1.495,0.674c0.646,0,1.146-0.225,1.496-0.674c0.354-0.449,0.529-1.075,0.529-1.877
									c0-0.806-0.178-1.431-0.534-1.875s-0.856-0.666-1.501-0.666c-0.646,0-1.143,0.221-1.491,0.664
									C524.721,12.757,524.548,13.383,524.548,14.193z"/>
								<path d="M534.973,11.742h-2.9v5.376h-0.53v-5.838h3.433L534.973,11.742L534.973,11.742z"/>
								<path d="M541.769,14.193c0,0.953-0.23,1.696-0.693,2.23c-0.461,0.536-1.099,0.804-1.912,0.804
									c-0.512,0-0.963-0.124-1.354-0.371s-0.689-0.603-0.896-1.063c-0.207-0.461-0.312-0.996-0.312-1.602
									c0-0.953,0.229-1.694,0.69-2.228c0.465-0.53,1.098-0.798,1.902-0.798c0.802,0,1.432,0.271,1.889,0.81
									C541.541,12.516,541.769,13.254,541.769,14.193z M537.161,14.193c0,0.802,0.178,1.428,0.529,1.877
									c0.353,0.45,0.851,0.674,1.495,0.674c0.644,0,1.144-0.225,1.496-0.674c0.354-0.449,0.529-1.075,0.529-1.877
									c0-0.806-0.18-1.431-0.534-1.875c-0.356-0.444-0.856-0.666-1.501-0.666c-0.646,0-1.144,0.221-1.491,0.664
									C537.336,12.757,537.161,13.383,537.161,14.193z"/>
								<path d="M402.65,32.118h-0.532v-5.838h4.657v5.838h-0.532v-5.333h-3.593V32.118z"/>
								<path d="M411.857,32.228c-0.848,0-1.51-0.262-1.984-0.784c-0.474-0.522-0.711-1.255-0.711-2.197
									c0-0.931,0.229-1.677,0.688-2.235c0.458-0.562,1.074-0.841,1.853-0.841c0.688,0,1.229,0.239,1.628,0.721
									c0.396,0.479,0.598,1.131,0.598,1.955v0.43h-4.205c0.007,0.802,0.191,1.415,0.561,1.837s0.894,0.634,1.576,0.634
									c0.334,0,0.626-0.021,0.879-0.069c0.252-0.046,0.572-0.146,0.959-0.301v0.482c-0.33,0.144-0.635,0.241-0.914,0.293
									C412.502,32.2,412.194,32.228,411.857,32.228z M411.702,26.642c-0.562,0-1.013,0.185-1.354,0.556
									c-0.342,0.37-0.539,0.905-0.599,1.604h3.609c0-0.678-0.146-1.205-0.438-1.587C412.629,26.831,412.221,26.642,411.702,26.642
									z"/>
								<path d="M418.805,32.228c-0.898,0-1.557-0.336-1.967-1.011H416.8l0.019,0.451c0.015,0.266,0.021,0.556,0.021,0.869v2.226
									h-0.531v-8.481h0.449l0.104,0.833h0.032c0.398-0.63,1.042-0.944,1.923-0.944c0.788,0,1.389,0.26,1.802,0.775
									c0.414,0.519,0.621,1.271,0.621,2.259c0,0.959-0.218,1.704-0.653,2.231C420.15,31.962,419.557,32.228,418.805,32.228z
									 M418.794,31.754c0.601,0,1.063-0.223,1.391-0.666c0.326-0.443,0.489-1.064,0.489-1.863c0-1.715-0.617-2.573-1.856-2.573
									c-0.682,0-1.18,0.188-1.499,0.562c-0.318,0.375-0.479,0.983-0.479,1.829v0.172c0,0.913,0.152,1.564,0.46,1.955
									C417.604,31.56,418.103,31.754,418.794,31.754z"/>
								<path d="M423.55,24.658c0-0.344,0.112-0.516,0.34-0.516c0.108,0,0.197,0.045,0.261,0.134s0.094,0.217,0.094,0.381
									c0,0.161-0.03,0.288-0.094,0.381c-0.063,0.095-0.15,0.142-0.261,0.142C423.662,25.181,423.55,25.006,423.55,24.658z
									 M424.156,32.118h-0.531v-5.838h0.531V32.118z"/>
								<path d="M431.711,29.193c0,0.953-0.23,1.696-0.691,2.23c-0.463,0.536-1.102,0.804-1.912,0.804
									c-0.513,0-0.964-0.124-1.354-0.371c-0.391-0.247-0.688-0.603-0.896-1.063c-0.208-0.461-0.313-0.996-0.313-1.602
									c0-0.953,0.229-1.694,0.692-2.228c0.461-0.53,1.097-0.798,1.9-0.798c0.803,0,1.432,0.271,1.889,0.81
									C431.481,27.516,431.711,28.254,431.711,29.193z M427.101,29.193c0,0.802,0.176,1.428,0.529,1.877
									c0.353,0.45,0.852,0.674,1.494,0.674c0.646,0,1.145-0.225,1.495-0.674c0.354-0.449,0.529-1.075,0.529-1.877
									c0-0.806-0.18-1.431-0.534-1.875c-0.355-0.444-0.855-0.666-1.502-0.666c-0.646,0-1.141,0.221-1.49,0.664
									C427.276,27.757,427.101,28.383,427.101,29.193z"/>
								<path d="M438.861,34.102h-0.527v-1.982h-4.469v1.982h-0.524v-2.487h0.388c0.485-0.684,0.862-1.477,1.127-2.379
									c0.266-0.901,0.405-1.887,0.42-2.954h2.809v5.333h0.779L438.861,34.102L438.861,34.102z M437.552,31.615v-4.839h-1.815
									c-0.086,1.938-0.555,3.55-1.406,4.839H437.552z"/>
								<path d="M439.894,26.281h0.547l1.236,3.276c0.375,1.006,0.611,1.685,0.714,2.036h0.032c0.148-0.463,0.396-1.151,0.734-2.068
									l1.234-3.244h0.549l-2.616,6.784c-0.212,0.551-0.389,0.924-0.53,1.117c-0.145,0.191-0.313,0.338-0.504,0.435
									c-0.189,0.098-0.424,0.146-0.693,0.146c-0.204,0-0.434-0.038-0.684-0.113v-0.462c0.207,0.057,0.434,0.086,0.672,0.086
									c0.184,0,0.345-0.043,0.482-0.129s0.266-0.22,0.379-0.4c0.112-0.181,0.243-0.467,0.393-0.858
									c0.148-0.393,0.246-0.646,0.289-0.766L439.894,26.281z"/>
								<path d="M454.023,26.742h-1.943v5.376h-0.525v-5.376h-1.992v-0.462h4.463L454.023,26.742L454.023,26.742z"/>
								<path d="M459.537,32.118l-0.135-0.924h-0.043c-0.293,0.376-0.596,0.643-0.905,0.797c-0.31,0.156-0.676,0.234-1.099,0.234
									c-0.572,0-1.018-0.147-1.337-0.44s-0.479-0.699-0.479-1.219c0-0.569,0.236-1.012,0.711-1.327
									c0.477-0.314,1.161-0.479,2.063-0.5l1.111-0.032v-0.387c0-0.555-0.113-0.974-0.34-1.257s-0.59-0.424-1.091-0.424
									c-0.54,0-1.101,0.148-1.681,0.45l-0.199-0.462c0.643-0.302,1.275-0.45,1.901-0.45c0.642,0,1.12,0.167,1.437,0.5
									c0.317,0.333,0.478,0.852,0.478,1.558v3.883H459.537z M457.389,31.742c0.623,0,1.113-0.178,1.474-0.535
									c0.36-0.354,0.54-0.851,0.54-1.483v-0.575l-1.021,0.043c-0.819,0.04-1.404,0.167-1.755,0.384
									c-0.35,0.218-0.522,0.555-0.522,1.014c0,0.364,0.112,0.648,0.336,0.853C456.664,31.643,456.98,31.742,457.389,31.742z"/>
								<path d="M466.748,32.118h-0.53v-5.838h4.655v5.838h-0.53v-5.333h-3.595V32.118z"/>
								<path d="M478.428,29.193c0,0.953-0.231,1.696-0.693,2.23c-0.462,0.536-1.1,0.804-1.912,0.804
									c-0.512,0-0.963-0.124-1.354-0.371c-0.393-0.247-0.689-0.603-0.896-1.063c-0.208-0.463-0.313-0.996-0.313-1.602
									c0-0.953,0.229-1.694,0.691-2.228c0.462-0.53,1.097-0.798,1.901-0.798c0.802,0,1.432,0.271,1.888,0.81
									C478.199,27.516,478.428,28.254,478.428,29.193z M473.818,29.193c0,0.802,0.177,1.428,0.529,1.877
									c0.354,0.45,0.852,0.674,1.496,0.674c0.644,0,1.143-0.225,1.496-0.674c0.353-0.449,0.527-1.075,0.527-1.877
									c0-0.806-0.179-1.431-0.535-1.875c-0.354-0.444-0.854-0.666-1.501-0.666c-0.645,0-1.142,0.221-1.488,0.664
									C473.993,27.757,473.818,28.383,473.818,29.193z"/>
								<path d="M481.243,26.281v1.955c0,0.494,0.12,0.852,0.36,1.069c0.238,0.218,0.607,0.327,1.104,0.327
									c0.354,0,0.688-0.063,1.006-0.188s0.648-0.326,0.992-0.602v-2.563h0.532v5.838h-0.532v-2.771
									c-0.355,0.274-0.709,0.473-1.055,0.591c-0.347,0.118-0.719,0.177-1.12,0.177c-0.599,0-1.05-0.155-1.354-0.467
									c-0.308-0.313-0.459-0.761-0.459-1.349v-2.021h0.526V26.281z"/>
								<path d="M491.51,32.118l-0.136-0.924h-0.043c-0.293,0.376-0.597,0.643-0.904,0.797c-0.312,0.156-0.678,0.234-1.101,0.234
									c-0.571,0-1.018-0.147-1.337-0.44c-0.318-0.293-0.478-0.699-0.478-1.219c0-0.569,0.235-1.012,0.711-1.327
									c0.475-0.314,1.161-0.479,2.061-0.5l1.111-0.032v-0.387c0-0.555-0.113-0.974-0.338-1.257
									c-0.229-0.283-0.59-0.424-1.091-0.424c-0.54,0-1.103,0.148-1.683,0.45l-0.198-0.462c0.642-0.302,1.274-0.45,1.9-0.45
									c0.644,0,1.12,0.167,1.438,0.5c0.315,0.333,0.476,0.852,0.476,1.558v3.883H491.51z M489.361,31.742
									c0.623,0,1.114-0.178,1.475-0.535c0.359-0.354,0.539-0.851,0.539-1.483v-0.575l-1.021,0.043
									c-0.819,0.04-1.404,0.167-1.754,0.384c-0.351,0.218-0.523,0.555-0.523,1.014c0,0.364,0.112,0.648,0.336,0.853
									C488.637,31.643,488.953,31.742,489.361,31.742z"/>
								<path d="M498.267,26.742h-1.943v5.376h-0.526v-5.376h-1.991v-0.462h4.463L498.267,26.742L498.267,26.742z"/>
								<path d="M505.064,29.193c0,0.953-0.23,1.696-0.693,2.23c-0.461,0.536-1.099,0.804-1.912,0.804
									c-0.512,0-0.963-0.124-1.354-0.371s-0.689-0.603-0.896-1.063c-0.207-0.461-0.312-0.996-0.312-1.602
									c0-0.953,0.229-1.694,0.692-2.228c0.463-0.53,1.096-0.798,1.9-0.798c0.803,0,1.432,0.271,1.889,0.81
									C504.836,27.516,505.064,28.254,505.064,29.193z M500.457,29.193c0,0.802,0.177,1.428,0.528,1.877
									c0.354,0.45,0.851,0.674,1.495,0.674s1.145-0.225,1.496-0.674c0.354-0.449,0.529-1.075,0.529-1.877
									c0-0.806-0.18-1.431-0.534-1.875c-0.356-0.444-0.856-0.666-1.501-0.666c-0.646,0-1.144,0.221-1.491,0.664
									C500.632,27.757,500.457,28.383,500.457,29.193z"/>
								<path d="M510.62,26.281h0.661l-2.615,2.825l2.805,3.013h-0.716l-2.761-2.959v2.959h-0.543v-5.838h0.543v2.836L510.62,26.281
									z"/>
								<path d="M521.662,34.102h-0.525v-1.982h-4.471v1.982h-0.523v-2.487h0.387c0.486-0.684,0.862-1.477,1.127-2.379
									c0.267-0.901,0.405-1.887,0.42-2.954h2.811v5.333h0.777L521.662,34.102L521.662,34.102z M520.351,31.615v-4.839h-1.816
									c-0.086,1.938-0.555,3.55-1.405,4.839H520.351z"/>
								<path d="M523.598,24.658c0-0.344,0.112-0.516,0.338-0.516c0.11,0,0.197,0.045,0.261,0.134
									c0.064,0.089,0.094,0.217,0.094,0.381c0,0.161-0.029,0.288-0.094,0.381c-0.063,0.094-0.147,0.142-0.261,0.142
									C523.711,25.181,523.598,25.006,523.598,24.658z M524.204,32.118h-0.531v-5.838h0.531V32.118z"/>
								<path d="M525.841,24.658c0-0.165,0.026-0.282,0.082-0.354c0.057-0.072,0.142-0.107,0.257-0.107
									c0.229,0,0.344,0.154,0.344,0.462c0,0.31-0.115,0.462-0.344,0.462C525.951,25.12,525.841,24.967,525.841,24.658z
									 M527.461,32.118h-0.529v-5.838h0.529V32.118z M527.885,24.658c0-0.165,0.026-0.282,0.084-0.354
									c0.055-0.072,0.141-0.107,0.255-0.107c0.229,0,0.344,0.154,0.344,0.462c0,0.31-0.114,0.462-0.344,0.462
									C527.998,25.12,527.885,24.967,527.885,24.658z"/>
								<path d="M534.914,28.8c1.059,0,1.586-0.362,1.586-1.09c0-0.348-0.123-0.611-0.364-0.796
									c-0.243-0.183-0.593-0.272-1.043-0.272c-0.286,0-0.554,0.032-0.802,0.099c-0.246,0.066-0.512,0.162-0.795,0.288
									l-0.197-0.439c0.623-0.278,1.229-0.419,1.814-0.419c0.637,0,1.121,0.132,1.45,0.396s0.493,0.632,0.493,1.102
									c0,0.678-0.348,1.107-1.041,1.294v0.031c0.434,0.107,0.748,0.286,0.943,0.535c0.197,0.249,0.295,0.566,0.295,0.953
									c0,0.541-0.195,0.967-0.593,1.278c-0.396,0.311-0.943,0.467-1.646,0.467c-0.38,0-0.727-0.037-1.038-0.11
									c-0.313-0.073-0.572-0.171-0.776-0.293v-0.531c0.369,0.176,0.688,0.294,0.956,0.356c0.269,0.063,0.556,0.094,0.859,0.094
									c0.528,0,0.94-0.111,1.237-0.335c0.295-0.224,0.441-0.543,0.441-0.959c0-0.404-0.141-0.704-0.424-0.896
									c-0.283-0.193-0.707-0.29-1.273-0.29h-0.811V28.8H534.914L534.914,28.8z"/>
								<path d="M540.091,26.281v2.563h3.705v-2.563h0.525v5.838h-0.525v-2.813h-3.705v2.813h-0.532v-5.838H540.091z"/>
								<path d="M547.552,26.281v4.223l-0.031,1.102l3.464-5.323h0.709v5.838h-0.511v-4.194l0.021-1.128l-3.464,5.322h-0.691v-5.838
									L547.552,26.281L547.552,26.281z"/>
								<path d="M556.829,26.281h0.537v2.836l2.509-2.836h0.649l-2.53,2.836l2.729,3.002h-0.684l-2.675-2.959v2.959h-0.537v-2.959
									l-2.675,2.959h-0.682l2.717-2.979l-2.521-2.857h0.649l2.509,2.836L556.829,26.281L556.829,26.281z"/>
								<path d="M567.332,29.193c0,0.953-0.229,1.696-0.691,2.23c-0.462,0.536-1.102,0.804-1.912,0.804
									c-0.513,0-0.963-0.124-1.354-0.371c-0.392-0.247-0.688-0.603-0.896-1.063c-0.208-0.463-0.313-0.996-0.313-1.602
									c0-0.953,0.23-1.694,0.692-2.228c0.462-0.53,1.096-0.798,1.9-0.798c0.803,0,1.433,0.271,1.889,0.81
									C567.103,27.516,567.332,28.254,567.332,29.193z M562.723,29.193c0,0.802,0.177,1.428,0.528,1.877
									c0.354,0.45,0.853,0.674,1.496,0.674c0.645,0,1.144-0.225,1.495-0.674c0.354-0.449,0.529-1.075,0.529-1.877
									c0-0.806-0.179-1.431-0.535-1.875c-0.354-0.444-0.854-0.666-1.501-0.666c-0.645,0-1.142,0.221-1.49,0.664
									C562.897,27.757,562.723,28.383,562.723,29.193z"/>
								<path d="M572.887,26.281h0.661l-2.616,2.825l2.805,3.013h-0.715l-2.761-2.959v2.959h-0.542v-5.838h0.542v2.836
									L572.887,26.281z"/>
							</g>
						</g>
					</g>
				</g>
			</g>
			<circle fill="none" stroke="#FFD600" stroke-width="1.1587" stroke-miterlimit="10" cx="421.398" cy="312.197" r="18.037"/>
		</g>
		<g>
			<g>
				<g>
					<path fill="none" stroke="#FFD600" stroke-width="1.1587" stroke-miterlimit="10" d="M0,48.884v233.233v5.188v12.146
						c0,8.709,7.045,15.755,15.754,15.755"/>
					
						<polygon fill="#FFD600" stroke="#FFD600" stroke-width="1.1587" stroke-linecap="round" stroke-linejoin="round" stroke-miterlimit="10" points="
						155.993,0 0,0 0,32.353 0,47.895 0,54.658 8.206,47.895 155.993,47.895 					"/>
					<g>
						<g>
							<path d="M19.883,18.618h-0.549v-7.337h-4.532v7.337h-0.548v-7.853h5.629V18.618z"/>
							<path d="M27.57,15.693c0,0.953-0.23,1.696-0.693,2.23c-0.462,0.536-1.099,0.804-1.912,0.804
								c-0.512,0-0.963-0.124-1.354-0.371s-0.689-0.603-0.896-1.063c-0.209-0.462-0.313-0.996-0.313-1.602
								c0-0.953,0.229-1.694,0.693-2.228c0.462-0.53,1.096-0.798,1.899-0.798c0.803,0,1.434,0.271,1.889,0.81
								C27.342,14.016,27.57,14.754,27.57,15.693z M22.961,15.693c0,0.802,0.178,1.428,0.529,1.877
								c0.354,0.45,0.852,0.674,1.496,0.674c0.644,0,1.143-0.225,1.496-0.674c0.353-0.449,0.529-1.075,0.529-1.877
								c0-0.806-0.18-1.431-0.535-1.875c-0.356-0.444-0.856-0.666-1.501-0.666c-0.646,0-1.144,0.221-1.49,0.664
								C23.136,14.257,22.961,14.883,22.961,15.693z"/>
							<path d="M30.386,12.781v1.955c0,0.494,0.118,0.852,0.358,1.069s0.609,0.327,1.106,0.327c0.351,0,0.686-0.063,1.004-0.188
								c0.317-0.125,0.648-0.326,0.994-0.602v-2.563h0.531v5.838h-0.53v-2.771c-0.358,0.274-0.71,0.473-1.057,0.591
								c-0.346,0.118-0.72,0.177-1.121,0.177c-0.598,0-1.05-0.155-1.354-0.467c-0.307-0.313-0.459-0.761-0.459-1.349v-2.021h0.527
								V12.781z"/>
							<path d="M40.652,18.618l-0.134-0.924h-0.043c-0.293,0.376-0.596,0.643-0.905,0.797c-0.311,0.156-0.676,0.234-1.099,0.234
								c-0.573,0-1.021-0.147-1.337-0.44c-0.318-0.293-0.479-0.699-0.479-1.219c0-0.569,0.237-1.012,0.712-1.327
								c0.474-0.314,1.161-0.479,2.061-0.5l1.111-0.032v-0.387c0-0.555-0.111-0.974-0.338-1.257
								c-0.225-0.283-0.589-0.424-1.09-0.424c-0.541,0-1.101,0.148-1.681,0.45l-0.199-0.462c0.641-0.302,1.274-0.45,1.899-0.45
								c0.643,0,1.12,0.167,1.438,0.5c0.316,0.333,0.475,0.852,0.475,1.558v3.883H40.652z M38.504,18.242
								c0.623,0,1.114-0.178,1.477-0.535c0.357-0.354,0.54-0.851,0.54-1.483v-0.575l-1.021,0.043
								c-0.819,0.04-1.403,0.167-1.753,0.384c-0.35,0.218-0.522,0.555-0.522,1.014c0,0.364,0.11,0.648,0.335,0.853
								C37.78,18.143,38.096,18.242,38.504,18.242z"/>
							<path d="M47.411,13.242h-1.944v5.376h-0.524v-5.376h-1.993v-0.462h4.463L47.411,13.242L47.411,13.242z"/>
							<path d="M54.207,15.693c0,0.953-0.229,1.696-0.691,2.23c-0.462,0.536-1.101,0.804-1.912,0.804
								c-0.514,0-0.963-0.124-1.354-0.371c-0.391-0.247-0.688-0.603-0.896-1.063c-0.208-0.461-0.313-0.996-0.313-1.602
								c0-0.953,0.231-1.694,0.693-2.228c0.462-0.53,1.096-0.798,1.899-0.798s1.434,0.271,1.89,0.81
								C53.979,14.016,54.207,14.754,54.207,15.693z M49.599,15.693c0,0.802,0.176,1.428,0.527,1.877
								c0.354,0.45,0.854,0.674,1.496,0.674c0.646,0,1.145-0.225,1.496-0.674c0.354-0.449,0.529-1.075,0.529-1.877
								c0-0.806-0.179-1.431-0.535-1.875s-0.856-0.666-1.501-0.666c-0.646,0-1.143,0.221-1.49,0.664
								C49.773,14.257,49.599,14.883,49.599,15.693z"/>
							<path d="M59.763,12.781h0.659l-2.614,2.825l2.804,3.013h-0.714l-2.761-2.959v2.959h-0.542v-5.838h0.542v2.836L59.763,12.781z
								"/>
							<path d="M66.572,18.618H66.04v-5.838h4.657v5.838h-0.532v-5.333h-3.593V18.618z"/>
							<path d="M75.92,18.728c-0.897,0-1.554-0.336-1.966-1.011h-0.038l0.018,0.451c0.014,0.266,0.021,0.556,0.021,0.869v2.226
								h-0.531v-8.481h0.45l0.104,0.833h0.03c0.401-0.63,1.043-0.944,1.925-0.944c0.787,0,1.389,0.26,1.802,0.775
								c0.414,0.519,0.621,1.271,0.621,2.259c0,0.959-0.218,1.704-0.653,2.231C77.266,18.462,76.672,18.728,75.92,18.728z
								 M75.909,18.254c0.599,0,1.063-0.223,1.39-0.666c0.326-0.443,0.49-1.064,0.49-1.863c0-1.715-0.62-2.573-1.856-2.573
								c-0.682,0-1.182,0.188-1.499,0.562c-0.319,0.375-0.479,0.983-0.479,1.829v0.172c0,0.913,0.153,1.564,0.459,1.955
								C74.72,18.06,75.219,18.254,75.909,18.254z"/>
							<path d="M83.098,18.728c-0.851,0-1.512-0.262-1.984-0.784c-0.475-0.522-0.712-1.255-0.712-2.197
								c0-0.931,0.229-1.677,0.688-2.235c0.459-0.562,1.076-0.841,1.854-0.841c0.688,0,1.229,0.239,1.627,0.721
								c0.397,0.479,0.596,1.131,0.596,1.955v0.43h-4.205c0.008,0.802,0.193,1.415,0.563,1.837c0.367,0.422,0.892,0.634,1.576,0.634
								c0.333,0,0.626-0.021,0.878-0.069c0.253-0.046,0.571-0.146,0.959-0.301v0.482c-0.33,0.144-0.634,0.241-0.913,0.293
								C83.742,18.7,83.434,18.728,83.098,18.728z M82.942,13.142c-0.563,0-1.013,0.185-1.354,0.556
								c-0.34,0.37-0.539,0.905-0.596,1.604h3.609c0-0.678-0.147-1.205-0.44-1.587C83.868,13.331,83.461,13.142,82.942,13.142z"/>
							<path d="M90.265,18.05l0.333-0.939l1.681-4.329h0.736v5.838H92.51v-5.193c-0.079,0.227-0.162,0.457-0.25,0.692
								c-0.088,0.236-0.674,1.737-1.754,4.501h-0.474l-1.617-4.104c-0.066-0.165-0.132-0.338-0.188-0.521
								c-0.062-0.183-0.125-0.379-0.196-0.591v5.215h-0.482v-5.838h0.703l1.688,4.297C90.069,17.425,90.179,17.748,90.265,18.05z"/>
							<path d="M96.137,10.768l0.063,0.105c-0.269,0.949-0.58,1.812-0.935,2.583h-0.351c0.104-0.344,0.214-0.774,0.328-1.297
								c0.115-0.521,0.202-0.985,0.263-1.394L96.137,10.768L96.137,10.768z"/>
							<path d="M100.495,18.728c-0.849,0-1.516-0.269-2-0.804c-0.483-0.534-0.728-1.266-0.728-2.188
								c0-0.949,0.251-1.697,0.754-2.245s1.187-0.821,2.049-0.821c0.222,0,0.477,0.022,0.766,0.069
								c0.288,0.046,0.536,0.111,0.743,0.193l-0.155,0.473c-0.211-0.075-0.448-0.136-0.711-0.183c-0.265-0.047-0.48-0.07-0.652-0.07
								c-0.663,0-1.186,0.188-1.563,0.563s-0.6,0.903-0.66,1.584h3.356v0.474h-3.378c0.007,0.776,0.206,1.383,0.596,1.817
								c0.392,0.437,0.915,0.652,1.574,0.652c0.563,0,1.071-0.095,1.525-0.285v0.494c-0.165,0.083-0.382,0.148-0.65,0.199
								C101.091,18.701,100.803,18.728,100.495,18.728z"/>
							<path d="M106.705,18.728c-0.897,0-1.554-0.336-1.966-1.011h-0.038l0.016,0.451c0.016,0.266,0.021,0.556,0.021,0.869v2.226
								h-0.532v-8.481h0.451l0.104,0.833h0.03c0.401-0.63,1.042-0.944,1.923-0.944c0.788,0,1.39,0.26,1.804,0.775
								c0.413,0.519,0.62,1.271,0.62,2.259c0,0.959-0.22,1.704-0.652,2.231C108.052,18.462,107.457,18.728,106.705,18.728z
								 M106.695,18.254c0.598,0,1.061-0.223,1.388-0.666c0.328-0.443,0.492-1.064,0.492-1.863c0-1.715-0.62-2.573-1.858-2.573
								c-0.68,0-1.18,0.188-1.497,0.562c-0.319,0.375-0.479,0.983-0.479,1.829v0.172c0,0.913,0.153,1.564,0.459,1.955
								C105.506,18.06,106.004,18.254,106.695,18.254z"/>
							<path d="M112.057,12.781v2.563h3.706v-2.563h0.524v5.838h-0.524v-2.813h-3.706v2.813h-0.532v-5.838H112.057z"/>
							<path d="M123.844,15.693c0,0.953-0.231,1.696-0.693,2.23c-0.462,0.536-1.1,0.804-1.912,0.804
								c-0.512,0-0.963-0.124-1.354-0.371c-0.393-0.247-0.689-0.603-0.897-1.063c-0.208-0.461-0.312-0.996-0.312-1.602
								c0-0.953,0.229-1.694,0.691-2.228c0.462-0.53,1.097-0.798,1.901-0.798c0.802,0,1.432,0.271,1.888,0.81
								C123.615,14.016,123.844,14.754,123.844,15.693z M119.235,15.693c0,0.802,0.176,1.428,0.529,1.877
								c0.353,0.45,0.852,0.674,1.495,0.674c0.645,0,1.144-0.225,1.495-0.674c0.354-0.449,0.529-1.075,0.529-1.877
								c0-0.806-0.178-1.431-0.535-1.875c-0.354-0.444-0.854-0.666-1.501-0.666c-0.645,0-1.142,0.221-1.488,0.664
								C119.409,14.257,119.235,14.883,119.235,15.693z"/>
							<path d="M129.662,13.242h-2.898v5.376h-0.532v-5.838h3.432L129.662,13.242L129.662,13.242z"/>
							<path d="M136.458,15.693c0,0.953-0.229,1.696-0.691,2.23c-0.462,0.536-1.101,0.804-1.912,0.804
								c-0.513,0-0.963-0.124-1.354-0.371c-0.391-0.247-0.688-0.603-0.896-1.063c-0.208-0.461-0.313-0.996-0.313-1.602
								c0-0.953,0.231-1.694,0.693-2.228c0.462-0.53,1.096-0.798,1.901-0.798c0.802,0,1.432,0.271,1.888,0.81
								C136.23,14.016,136.458,14.754,136.458,15.693z M131.85,15.693c0,0.802,0.176,1.428,0.527,1.877
								c0.354,0.45,0.854,0.674,1.496,0.674c0.646,0,1.145-0.225,1.496-0.674c0.354-0.449,0.529-1.075,0.529-1.877
								c0-0.806-0.178-1.431-0.535-1.875c-0.354-0.444-0.854-0.666-1.501-0.666c-0.645,0-1.142,0.221-1.49,0.664
								C132.024,14.257,131.85,14.883,131.85,15.693z"/>
							<path d="M14.65,33.618h-0.532v-5.838h4.657v5.838h-0.532v-5.333H14.65V33.618z"/>
							<path d="M23.858,33.728c-0.85,0-1.51-0.262-1.984-0.784s-0.712-1.255-0.712-2.197c0-0.931,0.229-1.677,0.688-2.235
								c0.458-0.562,1.074-0.841,1.853-0.841c0.688,0,1.23,0.239,1.627,0.721c0.397,0.479,0.598,1.131,0.598,1.955v0.43H21.72
								c0.007,0.802,0.192,1.415,0.562,1.837c0.367,0.422,0.893,0.634,1.576,0.634c0.333,0,0.626-0.021,0.878-0.069
								c0.253-0.046,0.572-0.146,0.959-0.301v0.482c-0.33,0.144-0.634,0.241-0.913,0.293C24.504,33.7,24.195,33.728,23.858,33.728z
								 M23.703,28.142c-0.562,0-1.013,0.185-1.354,0.556c-0.341,0.37-0.539,0.905-0.598,1.604h3.609
								c0-0.678-0.147-1.205-0.44-1.587C24.629,28.331,24.222,28.142,23.703,28.142z"/>
							<path d="M30.805,33.728c-0.899,0-1.556-0.336-1.967-1.011H28.8l0.018,0.451c0.014,0.266,0.021,0.556,0.021,0.869v2.226h-0.53
								v-8.481h0.45l0.103,0.833h0.032c0.399-0.63,1.042-0.944,1.923-0.944c0.788,0,1.388,0.26,1.802,0.775
								c0.413,0.519,0.62,1.271,0.62,2.259c0,0.959-0.218,1.704-0.652,2.231C32.15,33.462,31.557,33.728,30.805,33.728z
								 M30.794,33.254c0.6,0,1.063-0.223,1.39-0.666s0.49-1.064,0.49-1.863c0-1.715-0.618-2.573-1.856-2.573
								c-0.68,0-1.18,0.188-1.499,0.562c-0.319,0.375-0.479,0.983-0.479,1.829v0.172c0,0.913,0.152,1.564,0.459,1.955
								C29.604,33.06,30.103,33.254,30.794,33.254z"/>
							<path d="M35.552,26.158c0-0.344,0.111-0.516,0.338-0.516c0.109,0,0.196,0.045,0.26,0.134
								c0.063,0.089,0.094,0.217,0.094,0.381c0,0.161-0.031,0.288-0.094,0.381c-0.063,0.094-0.149,0.142-0.26,0.142
								C35.663,26.681,35.552,26.506,35.552,26.158z M36.157,33.618h-0.532v-5.838h0.532V33.618z"/>
							<path d="M43.71,30.693c0,0.953-0.229,1.696-0.691,2.23c-0.462,0.536-1.101,0.804-1.912,0.804
								c-0.512,0-0.963-0.124-1.354-0.371c-0.391-0.247-0.688-0.603-0.896-1.063c-0.208-0.461-0.313-0.996-0.313-1.602
								c0-0.953,0.231-1.694,0.693-2.228c0.462-0.53,1.096-0.798,1.901-0.798c0.802,0,1.432,0.271,1.888,0.81
								C43.482,29.016,43.71,29.754,43.71,30.693z M39.102,30.693c0,0.802,0.176,1.428,0.527,1.877
								c0.354,0.45,0.854,0.674,1.496,0.674c0.646,0,1.145-0.225,1.496-0.674c0.354-0.449,0.529-1.075,0.529-1.877
								c0-0.806-0.178-1.431-0.535-1.875c-0.354-0.444-0.854-0.666-1.501-0.666c-0.645,0-1.142,0.221-1.49,0.664
								C39.276,29.257,39.102,29.883,39.102,30.693z"/>
							<path d="M50.861,35.602h-0.526v-1.982h-4.469v1.982H45.34v-2.487h0.389c0.486-0.684,0.861-1.477,1.128-2.379
								c0.265-0.901,0.405-1.887,0.419-2.954h2.809v5.333h0.779L50.861,35.602L50.861,35.602z M49.552,33.115v-4.839h-1.814
								c-0.086,1.938-0.555,3.55-1.407,4.839H49.552z"/>
							<path d="M51.894,27.781h0.548l1.235,3.276c0.375,1.006,0.612,1.685,0.714,2.036h0.031c0.149-0.463,0.396-1.151,0.735-2.068
								l1.235-3.244h0.548l-2.616,6.784c-0.211,0.551-0.389,0.924-0.532,1.117c-0.143,0.191-0.311,0.338-0.502,0.435
								c-0.19,0.098-0.424,0.146-0.695,0.146c-0.203,0-0.433-0.038-0.683-0.113v-0.462c0.208,0.057,0.433,0.086,0.671,0.086
								c0.185,0,0.346-0.043,0.483-0.129s0.266-0.22,0.378-0.4c0.113-0.181,0.244-0.467,0.393-0.858
								c0.148-0.393,0.244-0.646,0.287-0.766L51.894,27.781z"/>
						</g>
					</g>
				</g>
			</g>
			<circle fill="none" stroke="#FFD600" stroke-width="1.1587" stroke-miterlimit="10" cx="33.398" cy="313.197" r="18.037"/>
		</g>
	</g>
	
		<line fill="none" stroke="#FF4C29" stroke-miterlimit="10" stroke-dasharray="3,4" x1="393.965" y1="292.594" x2="393.965" y2="68.594"/>
</g>
</svg>
