<?xml version="1.0" encoding="utf-8"?>
<!-- Generator: Adobe Illustrator 16.0.0, SVG Export Plug-In . SVG Version: 6.00 Build 0)  -->
<!DOCTYPE svg PUBLIC "-//W3C//DTD SVG 1.1//EN" "http://www.w3.org/Graphics/SVG/1.1/DTD/svg11.dtd">
<svg version="1.1" id="Layer_1" xmlns="http://www.w3.org/2000/svg" xmlns:xlink="http://www.w3.org/1999/xlink" x="0px" y="0px"
	 width="1545.59px" height="342.186px" viewBox="0 0 1545.59 342.186" enable-background="new 0 0 1545.59 342.186"
	 xml:space="preserve">
<g>
	<g>
		<g>
			<g>
				<g>
					
						<line fill="none" stroke="#ADADAD" stroke-width="0.7212" stroke-miterlimit="10" x1="30.129" y1="235.512" x2="31.571" y2="235.512"/>
					
						<line fill="none" stroke="#ADADAD" stroke-width="0.7212" stroke-miterlimit="10" stroke-dasharray="2.8794,4.319" x1="35.89" y1="235.512" x2="1538.197" y2="235.512"/>
					
						<line fill="none" stroke="#ADADAD" stroke-width="0.7212" stroke-miterlimit="10" x1="1540.356" y1="235.512" x2="1541.799" y2="235.512"/>
				</g>
			</g>
		</g>
		<g>
			<g>
				<g>
					
						<line fill="none" stroke="#ADADAD" stroke-width="0.7212" stroke-miterlimit="10" x1="30.129" y1="179.757" x2="31.571" y2="179.757"/>
					
						<line fill="none" stroke="#ADADAD" stroke-width="0.7212" stroke-miterlimit="10" stroke-dasharray="2.8794,4.319" x1="35.89" y1="179.757" x2="1538.197" y2="179.757"/>
					
						<line fill="none" stroke="#ADADAD" stroke-width="0.7212" stroke-miterlimit="10" x1="1540.356" y1="179.757" x2="1541.799" y2="179.757"/>
				</g>
			</g>
		</g>
		<g>
			<g>
				<g>
					
						<line fill="none" stroke="#ADADAD" stroke-width="0.7212" stroke-miterlimit="10" x1="30.129" y1="124.002" x2="31.571" y2="124.002"/>
					
						<line fill="none" stroke="#ADADAD" stroke-width="0.7212" stroke-miterlimit="10" stroke-dasharray="2.8794,4.319" x1="35.89" y1="124.002" x2="1538.197" y2="124.002"/>
					
						<line fill="none" stroke="#ADADAD" stroke-width="0.7212" stroke-miterlimit="10" x1="1540.356" y1="124.002" x2="1541.799" y2="124.002"/>
				</g>
			</g>
		</g>
		<g>
			<g>
				<g>
					
						<line fill="none" stroke="#ADADAD" stroke-width="0.7212" stroke-miterlimit="10" x1="1541.799" y1="68.247" x2="1540.356" y2="68.247"/>
					
						<line fill="none" stroke="#ADADAD" stroke-width="0.7212" stroke-miterlimit="10" stroke-dasharray="2.8794,4.319" x1="1536.037" y1="68.247" x2="33.731" y2="68.247"/>
					
						<line fill="none" stroke="#ADADAD" stroke-width="0.7212" stroke-miterlimit="10" x1="31.571" y1="68.247" x2="30.129" y2="68.247"/>
				</g>
			</g>
		</g>
		<g>
			<rect x="80.942" y="304.704" fill="none" width="20.673" height="31.177"/>
			<g enable-background="new    ">
				<path fill="#676767" d="M89.809,308.224v8.641h-1.844v-7.188h-3.875v7.188h-1.836v-8.641H89.809z"/>
				<path fill="#676767" d="M98.927,308.224v1.438h-2.813v7.203H94.27v-7.203h-2.813v-1.438H98.927z"/>
			</g>
		</g>
		<g>
			<rect x="135.303" y="304.704" fill="none" width="24.604" height="31.177"/>
			<g enable-background="new    ">
				<path fill="#676767" d="M140.098,317.021c-1.308,0-2.301-0.382-2.98-1.145s-1.02-1.858-1.02-3.285
					c0-1.453,0.355-2.57,1.066-3.352s1.738-1.172,3.082-1.172c0.911,0,1.731,0.169,2.461,0.508l-0.555,1.477
					c-0.776-0.302-1.417-0.453-1.922-0.453c-1.495,0-2.242,0.992-2.242,2.977c0,0.969,0.186,1.696,0.559,2.184
					c0.372,0.487,0.918,0.73,1.637,0.73c0.817,0,1.591-0.203,2.32-0.609v1.602c-0.328,0.192-0.679,0.331-1.051,0.414
					C141.081,316.979,140.63,317.021,140.098,317.021z"/>
				<path fill="#676767" d="M144.036,311.677c0-1.927,0.327-3.409,0.98-4.445c0.653-1.036,1.694-1.703,3.121-2
					c1.078-0.219,2.32-0.433,3.727-0.641l0.258,1.617c-1.708,0.261-2.958,0.464-3.75,0.609c-0.818,0.151-1.408,0.487-1.77,1.008
					c-0.362,0.521-0.572,1.305-0.629,2.352h0.117c0.297-0.433,0.685-0.767,1.164-1.004c0.479-0.237,0.992-0.355,1.539-0.355
					c1.063,0,1.891,0.336,2.484,1.008s0.891,1.614,0.891,2.828c0,1.391-0.361,2.466-1.082,3.227
					c-0.722,0.761-1.72,1.141-2.996,1.141c-1.266,0-2.258-0.469-2.977-1.406S144.036,313.365,144.036,311.677z M148.216,315.521
					c1.364,0,2.047-0.896,2.047-2.688c0-1.729-0.617-2.594-1.852-2.594c-0.339,0-0.667,0.073-0.984,0.219
					c-0.318,0.146-0.611,0.339-0.879,0.578c-0.269,0.239-0.476,0.487-0.621,0.742c0,1.229,0.195,2.16,0.586,2.793
					S147.47,315.521,148.216,315.521z"/>
			</g>
		</g>
		<g>
			<rect x="24.756" y="304.704" fill="none" width="26.1" height="22.315"/>
			<g enable-background="new    ">
				<path fill="#676767" d="M27.687,308.224v3.156c0,0.886,0.458,1.328,1.375,1.328c0.442,0,0.875-0.062,1.297-0.184
					s0.875-0.319,1.359-0.59v-3.711h1.836v8.641h-1.836V313.2c-0.505,0.313-0.994,0.543-1.465,0.691
					c-0.472,0.148-0.986,0.223-1.543,0.223c-0.901,0-1.604-0.233-2.109-0.699c-0.505-0.466-0.758-1.118-0.758-1.957v-3.234H27.687z"
					/>
				<path fill="#676767" d="M42.671,308.224v1.438h-2.813v7.203h-1.844v-7.203h-2.813v-1.438H42.671z"/>
			</g>
		</g>
		<g>
			<rect x="190.124" y="304.704" fill="none" width="25.672" height="22.315"/>
			<g enable-background="new    ">
				<path fill="#676767" d="M193.27,308.224v3.469h4.07v-3.469h1.836v8.641h-1.836v-3.727h-4.07v3.727h-1.836v-8.641H193.27z"/>
				<path fill="#676767" d="M210.09,319.919h-1.711v-3.055h-5.922v3.055h-1.695v-4.477h0.703c0.614-0.88,1.103-1.944,1.465-3.191
					c0.362-1.247,0.577-2.59,0.645-4.027h5.25v7.219h1.266V319.919z M207.02,315.443v-5.813h-1.859
					c-0.099,1.073-0.306,2.13-0.621,3.172c-0.315,1.042-0.699,1.922-1.152,2.641H207.02z"/>
			</g>
		</g>
		<g>
			<rect x="246.92" y="304.704" fill="none" width="20.938" height="22.315"/>
			<g enable-background="new    ">
				<path fill="#676767" d="M255.784,308.224v8.641h-1.844v-7.188h-3.875v7.188h-1.836v-8.641H255.784z"/>
				<path fill="#676767" d="M260.245,308.224v3.469h4.07v-3.469h1.836v8.641h-1.836v-3.727h-4.07v3.727h-1.836v-8.641H260.245z"/>
			</g>
		</g>
		<g>
			<rect x="303.183" y="304.704" fill="none" width="26.156" height="31.177"/>
			<g enable-background="new    ">
				<path fill="#676767" d="M311.992,310.435c0,1.021-0.597,1.638-1.789,1.852v0.063c0.667,0.078,1.177,0.289,1.531,0.633
					c0.354,0.344,0.531,0.789,0.531,1.336c0,0.817-0.312,1.446-0.934,1.887c-0.623,0.44-1.527,0.66-2.715,0.66h-4.125v-8.641h4.109
					C310.862,308.224,311.992,308.961,311.992,310.435z M310.156,310.591c0-0.344-0.134-0.593-0.402-0.746
					c-0.269-0.153-0.668-0.23-1.199-0.23h-2.227v2.078h1.953c0.614,0,1.081-0.079,1.398-0.238
					C309.997,311.295,310.156,311.008,310.156,310.591z M310.383,314.208c0-0.417-0.162-0.712-0.484-0.887
					c-0.323-0.175-0.808-0.262-1.453-0.262h-2.117v2.445h2.164C309.753,315.505,310.383,315.073,310.383,314.208z"/>
				<path fill="#676767" d="M320.649,308.224v1.438h-2.813v7.203h-1.844v-7.203h-2.813v-1.438H320.649z"/>
			</g>
		</g>
		<g>
			<rect x="357.653" y="304.704" fill="none" width="1182.688" height="26.563"/>
			<g enable-background="new    ">
				<path fill="#676767" d="M362.45,317.021c-1.308,0-2.301-0.382-2.98-1.145s-1.02-1.858-1.02-3.285
					c0-1.453,0.355-2.57,1.066-3.352s1.738-1.172,3.082-1.172c0.911,0,1.731,0.169,2.461,0.508l-0.555,1.477
					c-0.776-0.302-1.417-0.453-1.922-0.453c-1.495,0-2.242,0.992-2.242,2.977c0,0.969,0.186,1.696,0.559,2.184
					c0.372,0.487,0.918,0.73,1.637,0.73c0.817,0,1.591-0.203,2.32-0.609v1.602c-0.328,0.192-0.679,0.331-1.051,0.414
					C363.433,316.979,362.982,317.021,362.45,317.021z"/>
				<path fill="#676767" d="M371.271,317.021c-1.094,0-1.943-0.394-2.547-1.18h-0.109c0.073,0.729,0.109,1.172,0.109,1.328v3.539
					h-1.836v-12.484h1.484c0.042,0.161,0.127,0.547,0.258,1.156h0.094c0.573-0.875,1.432-1.313,2.578-1.313
					c1.078,0,1.918,0.391,2.52,1.172s0.902,1.878,0.902,3.289s-0.306,2.513-0.918,3.305
					C373.194,316.625,372.349,317.021,371.271,317.021z M370.825,309.568c-0.729,0-1.262,0.214-1.598,0.641
					s-0.504,1.109-0.504,2.047v0.273c0,1.052,0.167,1.813,0.5,2.285c0.333,0.472,0.877,0.707,1.633,0.707
					c0.635,0,1.125-0.261,1.469-0.781s0.516-1.263,0.516-2.227c0-0.969-0.171-1.702-0.512-2.199
					C371.988,309.817,371.487,309.568,370.825,309.568z"/>
			</g>
		</g>
		<g>
			
				<line fill="none" stroke="#0E1968" stroke-width="5" stroke-linecap="round" stroke-miterlimit="10" x1="362.807" y1="295.465" x2="362.807" y2="119.805"/>
			
				<line fill="none" stroke="#49B4DA" stroke-width="5" stroke-linecap="round" stroke-miterlimit="10" x1="370.513" y1="295.42" x2="370.513" y2="119.805"/>
			
				<line fill="none" stroke="#0E1968" stroke-width="5" stroke-linecap="round" stroke-miterlimit="10" x1="417.677" y1="295.465" x2="417.677" y2="174.982"/>
			
				<line fill="none" stroke="#49B4DA" stroke-width="5" stroke-linecap="round" stroke-miterlimit="10" x1="425.382" y1="295.42" x2="425.382" y2="174.982"/>
			
				<line fill="none" stroke="#0E1968" stroke-width="5" stroke-linecap="round" stroke-miterlimit="10" x1="473.124" y1="295.465" x2="473.124" y2="174.982"/>
			
				<line fill="none" stroke="#49B4DA" stroke-width="5" stroke-linecap="round" stroke-miterlimit="10" x1="480.829" y1="295.42" x2="480.829" y2="174.982"/>
			
				<line fill="none" stroke="#0E1968" stroke-width="5" stroke-linecap="round" stroke-miterlimit="10" x1="528.57" y1="295.465" x2="528.57" y2="124.002"/>
			
				<line fill="none" stroke="#49B4DA" stroke-width="5" stroke-linecap="round" stroke-miterlimit="10" x1="536.275" y1="295.42" x2="536.275" y2="124.002"/>
			
				<line fill="none" stroke="#0E1968" stroke-width="5" stroke-linecap="round" stroke-miterlimit="10" x1="584.017" y1="295.465" x2="584.017" y2="124.002"/>
			
				<line fill="none" stroke="#49B4DA" stroke-width="5" stroke-linecap="round" stroke-miterlimit="10" x1="591.722" y1="295.42" x2="591.722" y2="124.002"/>
			
				<line fill="none" stroke="#0E1968" stroke-width="5" stroke-linecap="round" stroke-miterlimit="10" x1="639.463" y1="295.465" x2="639.463" y2="177.985"/>
			
				<line fill="none" stroke="#49B4DA" stroke-width="5" stroke-linecap="round" stroke-miterlimit="10" x1="647.17" y1="295.42" x2="647.17" y2="177.985"/>
			
				<line fill="none" stroke="#0E1968" stroke-width="5" stroke-linecap="round" stroke-miterlimit="10" x1="694.91" y1="295.465" x2="694.91" y2="177.985"/>
			
				<line fill="none" stroke="#49B4DA" stroke-width="5" stroke-linecap="round" stroke-miterlimit="10" x1="702.617" y1="295.42" x2="702.617" y2="177.985"/>
			
				<line fill="none" stroke="#0E1968" stroke-width="5" stroke-linecap="round" stroke-miterlimit="10" x1="750.555" y1="295.465" x2="750.555" y2="178.563"/>
			
				<line fill="none" stroke="#49B4DA" stroke-width="5" stroke-linecap="round" stroke-miterlimit="10" x1="758.261" y1="295.42" x2="758.261" y2="178.563"/>
			
				<line fill="none" stroke="#0E1968" stroke-width="5" stroke-linecap="round" stroke-miterlimit="10" x1="807.837" y1="295.465" x2="807.837" y2="234.317"/>
			
				<line fill="none" stroke="#49B4DA" stroke-width="5" stroke-linecap="round" stroke-miterlimit="10" x1="815.543" y1="295.42" x2="815.543" y2="234.317"/>
			
				<line fill="none" stroke="#0E1968" stroke-width="5" stroke-linecap="round" stroke-miterlimit="10" x1="863.284" y1="295.465" x2="863.284" y2="234.317"/>
			
				<line fill="none" stroke="#49B4DA" stroke-width="5" stroke-linecap="round" stroke-miterlimit="10" x1="870.989" y1="295.42" x2="870.989" y2="234.317"/>
			
				<line fill="none" stroke="#0E1968" stroke-width="5" stroke-linecap="round" stroke-miterlimit="10" x1="918.729" y1="295.465" x2="918.729" y2="179.295"/>
			
				<line fill="none" stroke="#49B4DA" stroke-width="5" stroke-linecap="round" stroke-miterlimit="10" x1="926.436" y1="295.42" x2="926.436" y2="179.295"/>
			
				<line fill="none" stroke="#0E1968" stroke-width="5" stroke-linecap="round" stroke-miterlimit="10" x1="974.177" y1="295.465" x2="974.177" y2="179.295"/>
			
				<line fill="none" stroke="#49B4DA" stroke-width="5" stroke-linecap="round" stroke-miterlimit="10" x1="981.883" y1="295.42" x2="981.883" y2="179.295"/>
			
				<line fill="none" stroke="#0E1968" stroke-width="5" stroke-linecap="round" stroke-miterlimit="10" x1="1029.623" y1="295.465" x2="1029.623" y2="234.317"/>
			
				<line fill="none" stroke="#49B4DA" stroke-width="5" stroke-linecap="round" stroke-miterlimit="10" x1="1037.329" y1="295.42" x2="1037.329" y2="234.317"/>
			
				<line fill="none" stroke="#0E1968" stroke-width="5" stroke-linecap="round" stroke-miterlimit="10" x1="1085.069" y1="295.465" x2="1085.069" y2="234.317"/>
			
				<line fill="none" stroke="#49B4DA" stroke-width="5" stroke-linecap="round" stroke-miterlimit="10" x1="1092.776" y1="295.42" x2="1092.776" y2="234.317"/>
			
				<line fill="none" stroke="#0E1968" stroke-width="5" stroke-linecap="round" stroke-miterlimit="10" x1="1140.516" y1="295.465" x2="1140.516" y2="234.317"/>
			
				<line fill="none" stroke="#49B4DA" stroke-width="5" stroke-linecap="round" stroke-miterlimit="10" x1="1148.222" y1="295.42" x2="1148.222" y2="234.317"/>
			
				<line fill="none" stroke="#0E1968" stroke-width="5" stroke-linecap="round" stroke-miterlimit="10" x1="1194.521" y1="295.465" x2="1194.521" y2="263.39"/>
			
				<line fill="none" stroke="#49B4DA" stroke-width="5" stroke-linecap="round" stroke-miterlimit="10" x1="1202.227" y1="295.42" x2="1202.227" y2="263.379"/>
			
				<line fill="none" stroke="#49B4DA" stroke-width="5" stroke-linecap="round" stroke-miterlimit="10" x1="1251.802" y1="295.465" x2="1251.802" y2="263.367"/>
			
				<line fill="none" stroke="#0E1968" stroke-width="5" stroke-linecap="round" stroke-miterlimit="10" x1="1251.802" y1="295.465" x2="1251.802" y2="263.367"/>
			
				<line fill="none" stroke="#49B4DA" stroke-width="5" stroke-linecap="round" stroke-miterlimit="10" x1="1259.509" y1="295.42" x2="1259.509" y2="263.356"/>
			
				<line fill="none" stroke="#0E1968" stroke-width="5" stroke-linecap="round" stroke-miterlimit="10" x1="1307.25" y1="295.465" x2="1307.25" y2="234.317"/>
			
				<line fill="none" stroke="#49B4DA" stroke-width="5" stroke-linecap="round" stroke-miterlimit="10" x1="1314.955" y1="295.42" x2="1314.955" y2="234.317"/>
			
				<line fill="none" stroke="#0E1968" stroke-width="5" stroke-linecap="round" stroke-miterlimit="10" x1="1362.695" y1="295.465" x2="1362.695" y2="234.317"/>
			
				<line fill="none" stroke="#49B4DA" stroke-width="5" stroke-linecap="round" stroke-miterlimit="10" x1="1370.402" y1="295.42" x2="1370.402" y2="234.317"/>
			
				<line fill="none" stroke="#0E1968" stroke-width="5" stroke-linecap="round" stroke-miterlimit="10" x1="1418.142" y1="295.465" x2="1418.142" y2="263.367"/>
			
				<line fill="none" stroke="#49B4DA" stroke-width="5" stroke-linecap="round" stroke-miterlimit="10" x1="1425.848" y1="295.42" x2="1425.848" y2="263.356"/>
			
				<line fill="none" stroke="#0E1968" stroke-width="5" stroke-linecap="round" stroke-miterlimit="10" x1="1473.589" y1="295.465" x2="1473.589" y2="263.367"/>
			
				<line fill="none" stroke="#49B4DA" stroke-width="5" stroke-linecap="round" stroke-miterlimit="10" x1="1481.295" y1="295.42" x2="1481.295" y2="263.356"/>
			
				<line fill="none" stroke="#0E1968" stroke-width="5" stroke-linecap="round" stroke-miterlimit="10" x1="1529.035" y1="295.465" x2="1529.035" y2="263.367"/>
			
				<line fill="none" stroke="#49B4DA" stroke-width="5" stroke-linecap="round" stroke-miterlimit="10" x1="1536.742" y1="295.42" x2="1536.742" y2="263.356"/>
			
				<line fill="none" stroke="#0E1968" stroke-width="5" stroke-linecap="round" stroke-miterlimit="10" x1="85.575" y1="295.465" x2="85.575" y2="119.805"/>
			
				<line fill="none" stroke="#49B4DA" stroke-width="5" stroke-linecap="round" stroke-miterlimit="10" x1="93.281" y1="295.42" x2="93.281" y2="119.805"/>
			
				<line fill="none" stroke="#0E1968" stroke-width="5" stroke-linecap="round" stroke-miterlimit="10" x1="141.022" y1="295.465" x2="141.022" y2="64.05"/>
			
				<line fill="none" stroke="#49B4DA" stroke-width="5" stroke-linecap="round" stroke-miterlimit="10" x1="148.726" y1="295.42" x2="148.726" y2="64.05"/>
			
				<line fill="none" stroke="#0E1968" stroke-width="5" stroke-linecap="round" stroke-miterlimit="10" x1="196.468" y1="295.465" x2="196.468" y2="64.05"/>
			
				<line fill="none" stroke="#49B4DA" stroke-width="5" stroke-linecap="round" stroke-miterlimit="10" x1="204.173" y1="295.42" x2="204.173" y2="64.05"/>
			
				<line fill="none" stroke="#0E1968" stroke-width="5" stroke-linecap="round" stroke-miterlimit="10" x1="251.915" y1="295.465" x2="251.915" y2="119.805"/>
			
				<line fill="none" stroke="#49B4DA" stroke-width="5" stroke-linecap="round" stroke-miterlimit="10" x1="259.62" y1="295.42" x2="259.62" y2="119.805"/>
			
				<line fill="none" stroke="#0E1968" stroke-width="5" stroke-linecap="round" stroke-miterlimit="10" x1="307.362" y1="295.465" x2="307.362" y2="119.805"/>
			
				<line fill="none" stroke="#49B4DA" stroke-width="5" stroke-linecap="round" stroke-miterlimit="10" x1="315.067" y1="295.42" x2="315.067" y2="119.805"/>
			
				<line fill="none" stroke="#0E1968" stroke-width="5" stroke-linecap="round" stroke-miterlimit="10" x1="30.129" y1="295.465" x2="30.129" y2="119.805"/>
			
				<line fill="none" stroke="#49B4DA" stroke-width="5" stroke-linecap="round" stroke-miterlimit="10" x1="37.833" y1="295.42" x2="37.833" y2="119.805"/>
			<rect x="7.877" y="291.953" fill="#FFFFFF" width="1537.713" height="50.231"/>
			
				<line fill="none" stroke="#ADADAD" stroke-width="0.7212" stroke-miterlimit="10" stroke-dasharray="2.8848,4.3272" x1="30.129" y1="292.146" x2="1541.576" y2="292.146"/>
		</g>
		<g>
			<rect x="80.942" y="304.704" fill="none" width="20.673" height="31.177"/>
			<g enable-background="new    ">
				<path fill="#676767" d="M89.809,308.224v8.641h-1.844v-7.188h-3.875v7.188h-1.836v-8.641H89.809z"/>
				<path fill="#676767" d="M98.927,308.224v1.438h-2.813v7.203H94.27v-7.203h-2.813v-1.438H98.927z"/>
			</g>
		</g>
		<g>
			<rect x="135.303" y="304.704" fill="none" width="24.604" height="31.177"/>
			<g enable-background="new    ">
				<path fill="#FF4C29" d="M140.098,317.021c-1.308,0-2.301-0.382-2.98-1.145s-1.02-1.858-1.02-3.285
					c0-1.453,0.355-2.57,1.066-3.352s1.738-1.172,3.082-1.172c0.911,0,1.731,0.169,2.461,0.508l-0.555,1.477
					c-0.776-0.302-1.417-0.453-1.922-0.453c-1.495,0-2.242,0.992-2.242,2.977c0,0.969,0.186,1.696,0.559,2.184
					c0.372,0.487,0.918,0.73,1.637,0.73c0.817,0,1.591-0.203,2.32-0.609v1.602c-0.328,0.192-0.679,0.331-1.051,0.414
					C141.081,316.979,140.63,317.021,140.098,317.021z"/>
				<path fill="#FF4C29" d="M144.036,311.677c0-1.927,0.327-3.409,0.98-4.445c0.653-1.036,1.694-1.703,3.121-2
					c1.078-0.219,2.32-0.433,3.727-0.641l0.258,1.617c-1.708,0.261-2.958,0.464-3.75,0.609c-0.818,0.151-1.408,0.487-1.77,1.008
					c-0.362,0.521-0.572,1.305-0.629,2.352h0.117c0.297-0.433,0.685-0.767,1.164-1.004c0.479-0.237,0.992-0.355,1.539-0.355
					c1.063,0,1.891,0.336,2.484,1.008s0.891,1.614,0.891,2.828c0,1.391-0.361,2.466-1.082,3.227
					c-0.722,0.761-1.72,1.141-2.996,1.141c-1.266,0-2.258-0.469-2.977-1.406S144.036,313.365,144.036,311.677z M148.216,315.521
					c1.364,0,2.047-0.896,2.047-2.688c0-1.729-0.617-2.594-1.852-2.594c-0.339,0-0.667,0.073-0.984,0.219
					c-0.318,0.146-0.611,0.339-0.879,0.578c-0.269,0.239-0.476,0.487-0.621,0.742c0,1.229,0.195,2.16,0.586,2.793
					S147.47,315.521,148.216,315.521z"/>
			</g>
		</g>
		<g>
			<rect x="24.756" y="304.704" fill="none" width="26.1" height="22.315"/>
			<g enable-background="new    ">
				<path fill="#676767" d="M27.687,308.224v3.156c0,0.886,0.458,1.328,1.375,1.328c0.442,0,0.875-0.062,1.297-0.184
					s0.875-0.319,1.359-0.59v-3.711h1.836v8.641h-1.836V313.2c-0.505,0.313-0.994,0.543-1.465,0.691
					c-0.472,0.148-0.986,0.223-1.543,0.223c-0.901,0-1.604-0.233-2.109-0.699c-0.505-0.466-0.758-1.118-0.758-1.957v-3.234H27.687z"
					/>
				<path fill="#676767" d="M42.671,308.224v1.438h-2.813v7.203h-1.844v-7.203h-2.813v-1.438H42.671z"/>
			</g>
		</g>
		<g>
			<rect x="190.124" y="304.704" fill="none" width="25.672" height="22.315"/>
			<g enable-background="new    ">
				<path fill="#FF4C29" d="M193.27,308.224v3.469h4.07v-3.469h1.836v8.641h-1.836v-3.727h-4.07v3.727h-1.836v-8.641H193.27z"/>
				<path fill="#FF4C29" d="M210.09,319.919h-1.711v-3.055h-5.922v3.055h-1.695v-4.477h0.703c0.614-0.88,1.103-1.944,1.465-3.191
					c0.362-1.247,0.577-2.59,0.645-4.027h5.25v7.219h1.266V319.919z M207.02,315.443v-5.813h-1.859
					c-0.099,1.073-0.306,2.13-0.621,3.172c-0.315,1.042-0.699,1.922-1.152,2.641H207.02z"/>
			</g>
		</g>
		<g>
			<rect x="246.92" y="304.704" fill="none" width="20.938" height="22.315"/>
			<g enable-background="new    ">
				<path fill="#676767" d="M255.784,308.224v8.641h-1.844v-7.188h-3.875v7.188h-1.836v-8.641H255.784z"/>
				<path fill="#676767" d="M260.245,308.224v3.469h4.07v-3.469h1.836v8.641h-1.836v-3.727h-4.07v3.727h-1.836v-8.641H260.245z"/>
			</g>
		</g>
		<g>
			<rect x="303.183" y="304.704" fill="none" width="26.156" height="31.177"/>
			<g enable-background="new    ">
				<path fill="#676767" d="M311.992,310.435c0,1.021-0.597,1.638-1.789,1.852v0.063c0.667,0.078,1.177,0.289,1.531,0.633
					c0.354,0.344,0.531,0.789,0.531,1.336c0,0.817-0.312,1.446-0.934,1.887c-0.623,0.44-1.527,0.66-2.715,0.66h-4.125v-8.641h4.109
					C310.862,308.224,311.992,308.961,311.992,310.435z M310.156,310.591c0-0.344-0.134-0.593-0.402-0.746
					c-0.269-0.153-0.668-0.23-1.199-0.23h-2.227v2.078h1.953c0.614,0,1.081-0.079,1.398-0.238
					C309.997,311.295,310.156,311.008,310.156,310.591z M310.383,314.208c0-0.417-0.162-0.712-0.484-0.887
					c-0.323-0.175-0.808-0.262-1.453-0.262h-2.117v2.445h2.164C309.753,315.505,310.383,315.073,310.383,314.208z"/>
				<path fill="#676767" d="M320.649,308.224v1.438h-2.813v7.203h-1.844v-7.203h-2.813v-1.438H320.649z"/>
			</g>
		</g>
		<g>
			<rect x="357.653" y="304.704" fill="none" width="25.11" height="26.563"/>
			<g enable-background="new    ">
				<path fill="#676767" d="M362.45,317.021c-1.308,0-2.301-0.382-2.98-1.145s-1.02-1.858-1.02-3.285
					c0-1.453,0.355-2.57,1.066-3.352s1.738-1.172,3.082-1.172c0.911,0,1.731,0.169,2.461,0.508l-0.555,1.477
					c-0.776-0.302-1.417-0.453-1.922-0.453c-1.495,0-2.242,0.992-2.242,2.977c0,0.969,0.186,1.696,0.559,2.184
					c0.372,0.487,0.918,0.73,1.637,0.73c0.817,0,1.591-0.203,2.32-0.609v1.602c-0.328,0.192-0.679,0.331-1.051,0.414
					C363.433,316.979,362.982,317.021,362.45,317.021z"/>
				<path fill="#676767" d="M371.271,317.021c-1.094,0-1.943-0.394-2.547-1.18h-0.109c0.073,0.729,0.109,1.172,0.109,1.328v3.539
					h-1.836v-12.484h1.484c0.042,0.161,0.127,0.547,0.258,1.156h0.094c0.573-0.875,1.432-1.313,2.578-1.313
					c1.078,0,1.918,0.391,2.52,1.172s0.902,1.878,0.902,3.289s-0.306,2.513-0.918,3.305
					C373.194,316.625,372.349,317.021,371.271,317.021z M370.825,309.568c-0.729,0-1.262,0.214-1.598,0.641
					s-0.504,1.109-0.504,2.047v0.273c0,1.052,0.167,1.813,0.5,2.285c0.333,0.472,0.877,0.707,1.633,0.707
					c0.635,0,1.125-0.261,1.469-0.781s0.516-1.263,0.516-2.227c0-0.969-0.171-1.702-0.512-2.199
					C371.988,309.817,371.487,309.568,370.825,309.568z"/>
			</g>
		</g>
		<g>
			<rect x="1245.702" y="304.704" fill="none" width="20.673" height="31.177"/>
			<g enable-background="new    ">
				<path fill="#676767" d="M1254.569,308.224v8.641h-1.844v-7.188h-3.875v7.188h-1.836v-8.641H1254.569z"/>
				<path fill="#676767" d="M1263.686,308.224v1.438h-2.813v7.203h-1.844v-7.203h-2.813v-1.438H1263.686z"/>
			</g>
		</g>
		<g>
			<rect x="1300.063" y="304.704" fill="none" width="24.604" height="31.177"/>
			<g enable-background="new    ">
				<path fill="#FF4C29" d="M1304.858,317.021c-1.308,0-2.301-0.382-2.98-1.145s-1.02-1.858-1.02-3.285
					c0-1.453,0.355-2.57,1.066-3.352s1.738-1.172,3.082-1.172c0.911,0,1.731,0.169,2.461,0.508l-0.555,1.477
					c-0.776-0.302-1.417-0.453-1.922-0.453c-1.495,0-2.242,0.992-2.242,2.977c0,0.969,0.187,1.696,0.559,2.184
					s0.918,0.73,1.637,0.73c0.817,0,1.591-0.203,2.32-0.609v1.602c-0.328,0.192-0.679,0.331-1.051,0.414
					S1305.389,317.021,1304.858,317.021z"/>
				<path fill="#FF4C29" d="M1308.796,311.677c0-1.927,0.327-3.409,0.98-4.445s1.694-1.703,3.121-2
					c1.078-0.219,2.32-0.433,3.727-0.641l0.258,1.617c-1.708,0.261-2.958,0.464-3.75,0.609c-0.817,0.151-1.407,0.487-1.77,1.008
					s-0.571,1.305-0.629,2.352h0.117c0.297-0.433,0.685-0.767,1.164-1.004s0.992-0.355,1.539-0.355c1.063,0,1.891,0.336,2.484,1.008
					s0.891,1.614,0.891,2.828c0,1.391-0.36,2.466-1.082,3.227s-1.72,1.141-2.996,1.141c-1.266,0-2.258-0.469-2.977-1.406
					S1308.796,313.365,1308.796,311.677z M1312.975,315.521c1.364,0,2.047-0.896,2.047-2.688c0-1.729-0.617-2.594-1.852-2.594
					c-0.339,0-0.667,0.073-0.984,0.219s-0.61,0.339-0.879,0.578s-0.476,0.487-0.621,0.742c0,1.229,0.195,2.16,0.586,2.793
					S1312.23,315.521,1312.975,315.521z"/>
			</g>
		</g>
		<g>
			<rect x="1189.516" y="304.704" fill="none" width="26.099" height="22.315"/>
			<g enable-background="new    ">
				<path fill="#676767" d="M1192.446,308.224v3.156c0,0.886,0.458,1.328,1.375,1.328c0.442,0,0.875-0.062,1.297-0.184
					s0.875-0.319,1.359-0.59v-3.711h1.836v8.641h-1.836V313.2c-0.505,0.313-0.993,0.543-1.465,0.691s-0.985,0.223-1.543,0.223
					c-0.901,0-1.604-0.233-2.109-0.699s-0.758-1.118-0.758-1.957v-3.234H1192.446z"/>
				<path fill="#676767" d="M1207.43,308.224v1.438h-2.813v7.203h-1.844v-7.203h-2.813v-1.438H1207.43z"/>
			</g>
		</g>
		<g>
			<rect x="1354.884" y="304.704" fill="none" width="25.672" height="22.315"/>
			<g enable-background="new    ">
				<path fill="#FF4C29" d="M1358.029,308.224v3.469h4.07v-3.469h1.836v8.641h-1.836v-3.727h-4.07v3.727h-1.836v-8.641H1358.029z"/>
				<path fill="#FF4C29" d="M1374.849,319.919h-1.711v-3.055h-5.922v3.055h-1.695v-4.477h0.703c0.614-0.88,1.103-1.944,1.465-3.191
					c0.361-1.247,0.576-2.59,0.645-4.027h5.25v7.219h1.266V319.919z M1371.779,315.443v-5.813h-1.859
					c-0.1,1.073-0.307,2.13-0.621,3.172c-0.315,1.042-0.699,1.922-1.152,2.641H1371.779z"/>
			</g>
		</g>
		<g>
			<rect x="1411.68" y="304.704" fill="none" width="20.937" height="22.315"/>
			<g enable-background="new    ">
				<path fill="#676767" d="M1420.544,308.224v8.641h-1.844v-7.188h-3.875v7.188h-1.836v-8.641H1420.544z"/>
				<path fill="#676767" d="M1425.005,308.224v3.469h4.07v-3.469h1.836v8.641h-1.836v-3.727h-4.07v3.727h-1.836v-8.641H1425.005z"/>
			</g>
		</g>
		<g>
			<rect x="1467.943" y="304.704" fill="none" width="26.157" height="31.177"/>
			<g enable-background="new    ">
				<path fill="#676767" d="M1476.752,310.435c0,1.021-0.597,1.638-1.789,1.852v0.063c0.666,0.078,1.177,0.289,1.531,0.633
					c0.354,0.344,0.531,0.789,0.531,1.336c0,0.817-0.312,1.446-0.934,1.887c-0.623,0.44-1.527,0.66-2.715,0.66h-4.125v-8.641h4.109
					C1475.621,308.224,1476.752,308.961,1476.752,310.435z M1474.916,310.591c0-0.344-0.135-0.593-0.402-0.746
					c-0.269-0.153-0.668-0.23-1.199-0.23h-2.227v2.078h1.953c0.614,0,1.08-0.079,1.398-0.238
					C1474.757,311.295,1474.916,311.008,1474.916,310.591z M1475.142,314.208c0-0.417-0.162-0.712-0.484-0.887
					c-0.323-0.175-0.808-0.262-1.453-0.262h-2.117v2.445h2.164C1474.511,315.505,1475.142,315.073,1475.142,314.208z"/>
				<path fill="#676767" d="M1485.408,308.224v1.438h-2.813v7.203h-1.844v-7.203h-2.813v-1.438H1485.408z"/>
			</g>
		</g>
		<g>
			<rect x="1522.413" y="304.704" fill="none" width="25.11" height="26.563"/>
			<g enable-background="new    ">
				<path fill="#676767" d="M1527.21,317.021c-1.308,0-2.301-0.382-2.98-1.145s-1.02-1.858-1.02-3.285
					c0-1.453,0.355-2.57,1.066-3.352s1.738-1.172,3.082-1.172c0.911,0,1.731,0.169,2.461,0.508l-0.555,1.477
					c-0.776-0.302-1.417-0.453-1.922-0.453c-1.495,0-2.242,0.992-2.242,2.977c0,0.969,0.187,1.696,0.559,2.184
					s0.918,0.73,1.637,0.73c0.817,0,1.591-0.203,2.32-0.609v1.602c-0.328,0.192-0.679,0.331-1.051,0.414
					S1527.741,317.021,1527.21,317.021z"/>
				<path fill="#676767" d="M1536.03,317.021c-1.094,0-1.942-0.394-2.547-1.18h-0.109c0.073,0.729,0.109,1.172,0.109,1.328v3.539
					h-1.836v-12.484h1.484c0.042,0.161,0.128,0.547,0.258,1.156h0.094c0.573-0.875,1.433-1.313,2.578-1.313
					c1.078,0,1.918,0.391,2.52,1.172s0.902,1.878,0.902,3.289s-0.306,2.513-0.918,3.305S1537.108,317.021,1536.03,317.021z
					 M1535.585,309.568c-0.729,0-1.262,0.214-1.598,0.641s-0.504,1.109-0.504,2.047v0.273c0,1.052,0.167,1.813,0.5,2.285
					s0.878,0.707,1.633,0.707c0.636,0,1.125-0.261,1.469-0.781s0.516-1.263,0.516-2.227c0-0.969-0.171-1.702-0.512-2.199
					S1536.246,309.568,1535.585,309.568z"/>
			</g>
		</g>
		<g>
			<rect x="858.02" y="304.704" fill="none" width="20.672" height="31.177"/>
			<g enable-background="new    ">
				<path fill="#676767" d="M866.888,308.224v8.641h-1.844v-7.188h-3.875v7.188h-1.836v-8.641H866.888z"/>
				<path fill="#676767" d="M876.006,308.224v1.438h-2.813v7.203h-1.844v-7.203h-2.813v-1.438H876.006z"/>
			</g>
		</g>
		<g>
			<rect x="912.38" y="304.704" fill="none" width="24.604" height="31.177"/>
			<g enable-background="new    ">
				<path fill="#FF4C29" d="M917.178,317.021c-1.308,0-2.301-0.382-2.98-1.145s-1.02-1.858-1.02-3.285
					c0-1.453,0.355-2.57,1.066-3.352s1.738-1.172,3.082-1.172c0.911,0,1.731,0.169,2.461,0.508l-0.555,1.477
					c-0.776-0.302-1.417-0.453-1.922-0.453c-1.495,0-2.242,0.992-2.242,2.977c0,0.969,0.187,1.696,0.559,2.184
					s0.918,0.73,1.637,0.73c0.817,0,1.591-0.203,2.32-0.609v1.602c-0.328,0.192-0.679,0.331-1.051,0.414
					S917.71,317.021,917.178,317.021z"/>
				<path fill="#FF4C29" d="M921.116,311.677c0-1.927,0.327-3.409,0.98-4.445s1.694-1.703,3.121-2
					c1.078-0.219,2.32-0.433,3.727-0.641l0.258,1.617c-1.708,0.261-2.958,0.464-3.75,0.609c-0.817,0.151-1.407,0.487-1.77,1.008
					s-0.571,1.305-0.629,2.352h0.117c0.297-0.433,0.685-0.767,1.164-1.004s0.992-0.355,1.539-0.355c1.063,0,1.891,0.336,2.484,1.008
					s0.891,1.614,0.891,2.828c0,1.391-0.36,2.466-1.082,3.227s-1.72,1.141-2.996,1.141c-1.266,0-2.258-0.469-2.977-1.406
					S921.116,313.365,921.116,311.677z M925.296,315.521c1.364,0,2.047-0.896,2.047-2.688c0-1.729-0.617-2.594-1.852-2.594
					c-0.339,0-0.667,0.073-0.984,0.219s-0.61,0.339-0.879,0.578s-0.476,0.487-0.621,0.742c0,1.229,0.195,2.16,0.586,2.793
					S924.551,315.521,925.296,315.521z"/>
			</g>
		</g>
		<g>
			<rect x="801.834" y="304.704" fill="none" width="26.099" height="22.315"/>
			<g enable-background="new    ">
				<path fill="#676767" d="M804.766,308.224v3.156c0,0.886,0.458,1.328,1.375,1.328c0.442,0,0.875-0.062,1.297-0.184
					s0.875-0.319,1.359-0.59v-3.711h1.836v8.641h-1.836V313.2c-0.505,0.313-0.993,0.543-1.465,0.691s-0.985,0.223-1.543,0.223
					c-0.901,0-1.604-0.233-2.109-0.699s-0.758-1.118-0.758-1.957v-3.234H804.766z"/>
				<path fill="#676767" d="M819.751,308.224v1.438h-2.813v7.203h-1.844v-7.203h-2.813v-1.438H819.751z"/>
			</g>
		</g>
		<g>
			<rect x="967.2" y="304.704" fill="none" width="25.675" height="22.315"/>
			<g enable-background="new    ">
				<path fill="#FF4C29" d="M970.348,308.224v3.469h4.07v-3.469h1.836v8.641h-1.836v-3.727h-4.07v3.727h-1.836v-8.641H970.348z"/>
				<path fill="#FF4C29" d="M987.169,319.919h-1.711v-3.055h-5.922v3.055h-1.695v-4.477h0.703c0.614-0.88,1.103-1.944,1.465-3.191
					s0.577-2.59,0.645-4.027h5.25v7.219h1.266V319.919z M984.098,315.443v-5.813h-1.859c-0.099,1.073-0.306,2.13-0.621,3.172
					s-0.699,1.922-1.152,2.641H984.098z"/>
			</g>
		</g>
		<g>
			<rect x="1023.998" y="304.704" fill="none" width="20.938" height="22.315"/>
			<g enable-background="new    ">
				<path fill="#676767" d="M1032.864,308.224v8.641h-1.844v-7.188h-3.875v7.188h-1.836v-8.641H1032.864z"/>
				<path fill="#676767" d="M1037.325,308.224v3.469h4.07v-3.469h1.836v8.641h-1.836v-3.727h-4.07v3.727h-1.836v-8.641H1037.325z"/>
			</g>
		</g>
		<g>
			<rect x="1080.26" y="304.704" fill="none" width="26.155" height="31.177"/>
			<g enable-background="new    ">
				<path fill="#676767" d="M1089.071,310.435c0,1.021-0.597,1.638-1.789,1.852v0.063c0.667,0.078,1.177,0.289,1.531,0.633
					s0.531,0.789,0.531,1.336c0,0.817-0.312,1.446-0.934,1.887s-1.527,0.66-2.715,0.66h-4.125v-8.641h4.109
					C1087.941,308.224,1089.071,308.961,1089.071,310.435z M1087.235,310.591c0-0.344-0.134-0.593-0.402-0.746
					s-0.668-0.23-1.199-0.23h-2.227v2.078h1.953c0.614,0,1.081-0.079,1.398-0.238S1087.235,311.008,1087.235,310.591z
					 M1087.462,314.208c0-0.417-0.161-0.712-0.484-0.887s-0.808-0.262-1.453-0.262h-2.117v2.445h2.164
					C1086.832,315.505,1087.462,315.073,1087.462,314.208z"/>
				<path fill="#676767" d="M1097.727,308.224v1.438h-2.813v7.203h-1.844v-7.203h-2.813v-1.438H1097.727z"/>
			</g>
		</g>
		<g>
			<rect x="1134.731" y="304.704" fill="none" width="407.78" height="26.563"/>
			<g enable-background="new    ">
				<path fill="#676767" d="M1139.528,317.021c-1.308,0-2.301-0.382-2.98-1.145s-1.02-1.858-1.02-3.285
					c0-1.453,0.355-2.57,1.066-3.352s1.738-1.172,3.082-1.172c0.911,0,1.731,0.169,2.461,0.508l-0.555,1.477
					c-0.776-0.302-1.417-0.453-1.922-0.453c-1.495,0-2.242,0.992-2.242,2.977c0,0.969,0.187,1.696,0.559,2.184
					s0.918,0.73,1.637,0.73c0.817,0,1.591-0.203,2.32-0.609v1.602c-0.328,0.192-0.679,0.331-1.051,0.414
					S1140.059,317.021,1139.528,317.021z"/>
				<path fill="#676767" d="M1148.348,317.021c-1.094,0-1.942-0.394-2.547-1.18h-0.109c0.073,0.729,0.109,1.172,0.109,1.328v3.539
					h-1.836v-12.484h1.484c0.042,0.161,0.128,0.547,0.258,1.156h0.094c0.573-0.875,1.433-1.313,2.578-1.313
					c1.078,0,1.918,0.391,2.52,1.172s0.902,1.878,0.902,3.289s-0.306,2.513-0.918,3.305S1149.427,317.021,1148.348,317.021z
					 M1147.903,309.568c-0.729,0-1.262,0.214-1.598,0.641s-0.504,1.109-0.504,2.047v0.273c0,1.052,0.167,1.813,0.5,2.285
					s0.878,0.707,1.633,0.707c0.636,0,1.125-0.261,1.469-0.781s0.516-1.263,0.516-2.227c0-0.969-0.171-1.702-0.512-2.199
					S1148.564,309.568,1147.903,309.568z"/>
			</g>
		</g>
		<g>
			<rect x="467.942" y="304.704" fill="none" width="20.673" height="31.177"/>
			<g enable-background="new    ">
				<path fill="#676767" d="M476.809,308.224v8.641h-1.844v-7.188h-3.875v7.188h-1.836v-8.641H476.809z"/>
				<path fill="#676767" d="M485.927,308.224v1.438h-2.813v7.203h-1.844v-7.203h-2.813v-1.438H485.927z"/>
			</g>
		</g>
		<g>
			<rect x="522.303" y="304.704" fill="none" width="24.604" height="31.177"/>
			<g enable-background="new    ">
				<path fill="#FF4C29" d="M527.098,317.021c-1.308,0-2.301-0.382-2.98-1.145s-1.02-1.858-1.02-3.285
					c0-1.453,0.355-2.57,1.066-3.352s1.738-1.172,3.082-1.172c0.911,0,1.731,0.169,2.461,0.508l-0.555,1.477
					c-0.776-0.302-1.417-0.453-1.922-0.453c-1.495,0-2.242,0.992-2.242,2.977c0,0.969,0.186,1.696,0.559,2.184
					c0.372,0.487,0.918,0.73,1.637,0.73c0.817,0,1.591-0.203,2.32-0.609v1.602c-0.328,0.192-0.679,0.331-1.051,0.414
					C528.081,316.979,527.63,317.021,527.098,317.021z"/>
				<path fill="#FF4C29" d="M531.036,311.677c0-1.927,0.327-3.409,0.98-4.445c0.653-1.036,1.694-1.703,3.121-2
					c1.078-0.219,2.32-0.433,3.727-0.641l0.258,1.617c-1.708,0.261-2.958,0.464-3.75,0.609c-0.818,0.151-1.408,0.487-1.77,1.008
					c-0.362,0.521-0.572,1.305-0.629,2.352h0.117c0.297-0.433,0.685-0.767,1.164-1.004c0.479-0.237,0.992-0.355,1.539-0.355
					c1.063,0,1.891,0.336,2.484,1.008s0.891,1.614,0.891,2.828c0,1.391-0.361,2.466-1.082,3.227
					c-0.722,0.761-1.72,1.141-2.996,1.141c-1.266,0-2.258-0.469-2.977-1.406S531.036,313.365,531.036,311.677z M535.216,315.521
					c1.364,0,2.047-0.896,2.047-2.688c0-1.729-0.617-2.594-1.852-2.594c-0.339,0-0.667,0.073-0.984,0.219
					c-0.318,0.146-0.611,0.339-0.879,0.578c-0.269,0.239-0.476,0.487-0.621,0.742c0,1.229,0.195,2.16,0.586,2.793
					S534.47,315.521,535.216,315.521z"/>
			</g>
		</g>
		<g>
			<rect x="411.756" y="304.704" fill="none" width="26.1" height="22.315"/>
			<g enable-background="new    ">
				<path fill="#676767" d="M414.687,308.224v3.156c0,0.886,0.458,1.328,1.375,1.328c0.442,0,0.875-0.062,1.297-0.184
					s0.875-0.319,1.359-0.59v-3.711h1.836v8.641h-1.836V313.2c-0.505,0.313-0.994,0.543-1.465,0.691
					c-0.472,0.148-0.986,0.223-1.543,0.223c-0.901,0-1.604-0.233-2.109-0.699c-0.505-0.466-0.758-1.118-0.758-1.957v-3.234H414.687z
					"/>
				<path fill="#676767" d="M429.671,308.224v1.438h-2.813v7.203h-1.844v-7.203h-2.813v-1.438H429.671z"/>
			</g>
		</g>
		<g>
			<rect x="577.125" y="304.704" fill="none" width="25.672" height="22.315"/>
			<g enable-background="new    ">
				<path fill="#FF4C29" d="M580.27,308.224v3.469h4.07v-3.469h1.836v8.641h-1.836v-3.727h-4.07v3.727h-1.836v-8.641H580.27z"/>
				<path fill="#FF4C29" d="M597.09,319.919h-1.711v-3.055h-5.922v3.055h-1.695v-4.477h0.703c0.614-0.88,1.103-1.944,1.465-3.191
					c0.362-1.247,0.577-2.59,0.645-4.027h5.25v7.219h1.266V319.919z M594.02,315.443v-5.813h-1.859
					c-0.099,1.073-0.306,2.13-0.621,3.172c-0.315,1.042-0.699,1.922-1.152,2.641H594.02z"/>
			</g>
		</g>
		<g>
			<rect x="633.921" y="304.704" fill="none" width="20.937" height="22.315"/>
			<g enable-background="new    ">
				<path fill="#676767" d="M642.784,308.224v8.641h-1.844v-7.188h-3.875v7.188h-1.836v-8.641H642.784z"/>
				<path fill="#676767" d="M647.245,308.224v3.469h4.07v-3.469h1.836v8.641h-1.836v-3.727h-4.07v3.727h-1.836v-8.641H647.245z"/>
			</g>
		</g>
		<g>
			<rect x="690.183" y="304.704" fill="none" width="26.157" height="31.177"/>
			<g enable-background="new    ">
				<path fill="#676767" d="M698.992,310.435c0,1.021-0.597,1.638-1.789,1.852v0.063c0.667,0.078,1.177,0.289,1.531,0.633
					c0.354,0.344,0.531,0.789,0.531,1.336c0,0.817-0.312,1.446-0.934,1.887c-0.623,0.44-1.527,0.66-2.715,0.66h-4.125v-8.641h4.109
					C697.862,308.224,698.992,308.961,698.992,310.435z M697.156,310.591c0-0.344-0.134-0.593-0.402-0.746
					c-0.269-0.153-0.668-0.23-1.199-0.23h-2.227v2.078h1.953c0.614,0,1.081-0.079,1.398-0.238
					C696.997,311.295,697.156,311.008,697.156,310.591z M697.383,314.208c0-0.417-0.162-0.712-0.484-0.887
					c-0.323-0.175-0.808-0.262-1.453-0.262h-2.117v2.445h2.164C696.753,315.505,697.383,315.073,697.383,314.208z"/>
				<path fill="#676767" d="M707.649,308.224v1.438h-2.813v7.203h-1.844v-7.203h-2.813v-1.438H707.649z"/>
			</g>
		</g>
		<g>
			<rect x="744.653" y="304.704" fill="none" width="795.688" height="26.563"/>
			<g enable-background="new    ">
				<path fill="#676767" d="M749.45,317.021c-1.308,0-2.301-0.382-2.98-1.145s-1.02-1.858-1.02-3.285
					c0-1.453,0.355-2.57,1.066-3.352s1.738-1.172,3.082-1.172c0.911,0,1.731,0.169,2.461,0.508l-0.555,1.477
					c-0.776-0.302-1.417-0.453-1.922-0.453c-1.495,0-2.242,0.992-2.242,2.977c0,0.969,0.186,1.696,0.559,2.184
					c0.372,0.487,0.918,0.73,1.637,0.73c0.817,0,1.591-0.203,2.32-0.609v1.602c-0.328,0.192-0.679,0.331-1.051,0.414
					C750.433,316.979,749.981,317.021,749.45,317.021z"/>
				<path fill="#676767" d="M758.27,317.021c-1.094,0-1.943-0.394-2.547-1.18h-0.109c0.073,0.729,0.109,1.172,0.109,1.328v3.539
					h-1.836v-12.484h1.484c0.042,0.161,0.127,0.547,0.258,1.156h0.094c0.573-0.875,1.432-1.313,2.578-1.313
					c1.078,0,1.918,0.391,2.52,1.172s0.902,1.878,0.902,3.289s-0.306,2.513-0.918,3.305
					C760.193,316.625,759.348,317.021,758.27,317.021z M757.825,309.568c-0.729,0-1.262,0.214-1.598,0.641s-0.504,1.109-0.504,2.047
					v0.273c0,1.052,0.167,1.813,0.5,2.285c0.333,0.472,0.877,0.707,1.633,0.707c0.635,0,1.125-0.261,1.469-0.781
					s0.516-1.263,0.516-2.227c0-0.969-0.171-1.702-0.512-2.199C758.988,309.817,758.486,309.568,757.825,309.568z"/>
			</g>
		</g>
		<g>
			<g>
				<g>
					<path fill="none" stroke="#FFD600" stroke-width="1.1587" stroke-miterlimit="10" d="M0,48.884v233.234v5.188v12.146
						c0,8.709,7.045,15.755,15.754,15.755"/>
					
						<polygon fill="#FFD600" stroke="#FFD600" stroke-width="1.1587" stroke-linecap="round" stroke-linejoin="round" stroke-miterlimit="10" points="
						155.994,0 0,0 0,32.352 0,47.894 0,54.658 8.207,47.894 155.994,47.894 					"/>
					<g>
						<rect x="13.142" y="10.258" fill="none" width="127.637" height="28.188"/>
						<g enable-background="new    ">
							<path d="M19.883,18.618h-0.548v-7.337h-4.533v7.337h-0.548v-7.853h5.629V18.618z"/>
							<path d="M26.801,15.691c0,0.953-0.231,1.697-0.693,2.232s-1.099,0.803-1.912,0.803c-0.512,0-0.963-0.123-1.354-0.371
								c-0.39-0.246-0.689-0.602-0.897-1.063c-0.208-0.463-0.312-0.996-0.312-1.602c0-0.952,0.231-1.694,0.693-2.226
								c0.462-0.532,1.096-0.798,1.901-0.798c0.802,0,1.432,0.27,1.888,0.809C26.573,14.015,26.801,14.753,26.801,15.691z
								 M22.192,15.691c0,0.803,0.176,1.429,0.529,1.878c0.353,0.449,0.852,0.674,1.496,0.674s1.143-0.225,1.496-0.674
								c0.353-0.449,0.529-1.075,0.529-1.878c0-0.805-0.178-1.43-0.535-1.874c-0.356-0.444-0.856-0.666-1.501-0.666
								s-1.142,0.221-1.49,0.663C22.366,14.256,22.192,14.882,22.192,15.691z"/>
							<path d="M28.847,12.781v1.955c0,0.494,0.12,0.85,0.36,1.068s0.609,0.328,1.106,0.328c0.351,0,0.686-0.063,1.004-0.188
								s0.65-0.326,0.994-0.602v-2.562h0.532v5.838h-0.532v-2.771c-0.358,0.275-0.71,0.473-1.055,0.591
								c-0.346,0.118-0.719,0.177-1.12,0.177c-0.598,0-1.05-0.155-1.356-0.467c-0.306-0.312-0.459-0.761-0.459-1.348v-2.02H28.847z"
								/>
							<path d="M38.343,18.618l-0.134-0.924h-0.043c-0.293,0.376-0.595,0.642-0.905,0.798c-0.31,0.155-0.676,0.233-1.099,0.233
								c-0.573,0-1.019-0.146-1.337-0.44s-0.478-0.7-0.478-1.22c0-0.568,0.237-1.011,0.712-1.326c0.474-0.315,1.161-0.481,2.06-0.5
								l1.112-0.031v-0.387c0-0.556-0.113-0.975-0.338-1.258c-0.226-0.282-0.589-0.424-1.09-0.424c-0.541,0-1.101,0.15-1.681,0.451
								l-0.199-0.462c0.641-0.301,1.275-0.451,1.901-0.451c0.641,0,1.12,0.167,1.437,0.499c0.316,0.334,0.475,0.853,0.475,1.559
								v3.883H38.343z M36.195,18.242c0.623,0,1.114-0.178,1.475-0.534c0.359-0.356,0.54-0.852,0.54-1.485v-0.575l-1.021,0.043
								c-0.82,0.04-1.405,0.168-1.753,0.385c-0.35,0.217-0.524,0.554-0.524,1.012c0,0.365,0.112,0.649,0.335,0.852
								C35.47,18.141,35.786,18.242,36.195,18.242z"/>
							<path d="M44.332,13.241h-1.944v5.377h-0.526v-5.377h-1.993v-0.461h4.463V13.241z"/>
							<path d="M50.358,15.691c0,0.953-0.231,1.697-0.693,2.232s-1.099,0.803-1.912,0.803c-0.512,0-0.963-0.123-1.354-0.371
								c-0.39-0.246-0.689-0.602-0.897-1.063c-0.208-0.463-0.312-0.996-0.312-1.602c0-0.952,0.231-1.694,0.693-2.226
								c0.462-0.532,1.096-0.798,1.901-0.798c0.802,0,1.432,0.27,1.888,0.809C50.13,14.015,50.358,14.753,50.358,15.691z
								 M45.75,15.691c0,0.803,0.176,1.429,0.529,1.878c0.353,0.449,0.852,0.674,1.496,0.674s1.143-0.225,1.496-0.674
								c0.353-0.449,0.529-1.075,0.529-1.878c0-0.805-0.178-1.43-0.535-1.874c-0.356-0.444-0.856-0.666-1.501-0.666
								s-1.142,0.221-1.49,0.663C45.924,14.256,45.75,14.882,45.75,15.691z"/>
							<path d="M55.144,12.781h0.661l-2.616,2.824l2.804,3.014h-0.714l-2.761-2.959v2.959h-0.542v-5.838h0.542v2.836L55.144,12.781z
								"/>
							<path d="M60.413,18.618h-0.532v-5.838h4.657v5.838h-0.532v-5.334h-3.593V18.618z"/>
							<path d="M68.99,18.726c-0.899,0-1.554-0.337-1.966-1.01h-0.038l0.016,0.451c0.014,0.265,0.021,0.555,0.021,0.87v2.224h-0.532
								v-8.48h0.451l0.102,0.832h0.032c0.401-0.63,1.042-0.945,1.923-0.945c0.788,0,1.389,0.259,1.802,0.776
								c0.414,0.518,0.621,1.271,0.621,2.259c0,0.959-0.217,1.703-0.653,2.231C70.336,18.462,69.742,18.726,68.99,18.726z
								 M68.98,18.253c0.598,0,1.061-0.222,1.389-0.666c0.327-0.444,0.491-1.065,0.491-1.863c0-1.716-0.62-2.573-1.858-2.573
								c-0.68,0-1.18,0.188-1.499,0.562s-0.478,0.983-0.478,1.828v0.172c0,0.914,0.153,1.565,0.459,1.955
								C67.79,18.058,68.289,18.253,68.98,18.253z"/>
							<path d="M75.398,18.726c-0.849,0-1.51-0.262-1.985-0.784c-0.474-0.522-0.711-1.255-0.711-2.196
								c0-0.932,0.229-1.677,0.688-2.237s1.076-0.841,1.853-0.841c0.688,0,1.23,0.24,1.627,0.72s0.596,1.132,0.596,1.955v0.43H73.26
								c0.007,0.802,0.194,1.414,0.561,1.837c0.367,0.423,0.893,0.634,1.577,0.634c0.333,0,0.625-0.023,0.878-0.069
								c0.252-0.047,0.572-0.147,0.958-0.301v0.482c-0.33,0.144-0.634,0.241-0.913,0.293S75.735,18.726,75.398,18.726z
								 M75.242,13.14c-0.562,0-1.013,0.186-1.354,0.556c-0.34,0.371-0.539,0.905-0.596,1.604h3.609c0-0.677-0.147-1.206-0.44-1.587
								C76.168,13.33,75.761,13.14,75.242,13.14z"/>
							<path d="M81.795,18.049l0.333-0.94l1.681-4.328h0.736v5.838H84.04v-5.193c-0.079,0.225-0.162,0.456-0.25,0.692
								c-0.087,0.236-0.672,1.736-1.753,4.501h-0.473l-1.617-4.104c-0.068-0.165-0.132-0.338-0.19-0.521
								c-0.06-0.182-0.125-0.379-0.196-0.59v5.215h-0.483v-5.838h0.704l1.687,4.297C81.6,17.424,81.709,17.748,81.795,18.049z"/>
							<path d="M86.898,10.766l0.064,0.107c-0.269,0.949-0.58,1.81-0.935,2.583h-0.349c0.104-0.344,0.213-0.775,0.328-1.297
								c0.115-0.521,0.202-0.985,0.263-1.394H86.898z"/>
							<path d="M90.486,18.726c-0.849,0-1.516-0.268-2.001-0.803c-0.485-0.535-0.728-1.266-0.728-2.189
								c0-0.948,0.251-1.697,0.755-2.244c0.503-0.549,1.186-0.822,2.049-0.822c0.222,0,0.477,0.023,0.766,0.07
								c0.288,0.046,0.536,0.11,0.744,0.193l-0.156,0.473c-0.211-0.076-0.448-0.137-0.712-0.184
								c-0.263-0.046-0.48-0.069-0.652-0.069c-0.663,0-1.184,0.188-1.563,0.563c-0.379,0.377-0.6,0.904-0.661,1.585h3.357v0.473
								h-3.378c0.007,0.777,0.206,1.383,0.596,1.818c0.39,0.435,0.915,0.652,1.574,0.652c0.562,0,1.071-0.095,1.525-0.284v0.494
								c-0.165,0.082-0.381,0.148-0.65,0.198S90.794,18.726,90.486,18.726z"/>
							<path d="M95.927,18.726c-0.899,0-1.554-0.337-1.966-1.01h-0.038l0.016,0.451c0.014,0.265,0.021,0.555,0.021,0.87v2.224
								h-0.532v-8.48h0.451l0.102,0.832h0.032c0.401-0.63,1.042-0.945,1.923-0.945c0.788,0,1.388,0.259,1.802,0.776
								c0.413,0.518,0.62,1.271,0.62,2.259c0,0.959-0.218,1.703-0.652,2.231C97.272,18.462,96.678,18.726,95.927,18.726z
								 M95.916,18.253c0.598,0,1.061-0.222,1.388-0.666c0.328-0.444,0.492-1.065,0.492-1.863c0-1.716-0.62-2.573-1.858-2.573
								c-0.68,0-1.18,0.188-1.499,0.562s-0.478,0.983-0.478,1.828v0.172c0,0.914,0.153,1.565,0.459,1.955
								C94.726,18.058,95.225,18.253,95.916,18.253z"/>
							<path d="M100.508,12.781v2.562h3.706v-2.562h0.526v5.838h-0.526v-2.814h-3.706v2.814h-0.532v-5.838H100.508z"/>
							<path d="M111.524,15.691c0,0.953-0.231,1.697-0.693,2.232s-1.099,0.803-1.912,0.803c-0.512,0-0.963-0.123-1.354-0.371
								c-0.39-0.246-0.689-0.602-0.897-1.063c-0.208-0.463-0.312-0.996-0.312-1.602c0-0.952,0.231-1.694,0.693-2.226
								c0.462-0.532,1.096-0.798,1.901-0.798c0.802,0,1.432,0.27,1.888,0.809C111.296,14.015,111.524,14.753,111.524,15.691z
								 M106.916,15.691c0,0.803,0.176,1.429,0.529,1.878c0.353,0.449,0.852,0.674,1.496,0.674s1.143-0.225,1.496-0.674
								c0.353-0.449,0.529-1.075,0.529-1.878c0-0.805-0.178-1.43-0.535-1.874c-0.356-0.444-0.856-0.666-1.501-0.666
								s-1.142,0.221-1.49,0.663C107.09,14.256,106.916,14.882,106.916,15.691z"/>
							<path d="M116.573,13.241h-2.9v5.377h-0.532v-5.838h3.432V13.241z"/>
							<path d="M122.599,15.691c0,0.953-0.231,1.697-0.693,2.232s-1.099,0.803-1.912,0.803c-0.512,0-0.963-0.123-1.354-0.371
								c-0.39-0.246-0.689-0.602-0.897-1.063c-0.208-0.463-0.312-0.996-0.312-1.602c0-0.952,0.231-1.694,0.693-2.226
								c0.462-0.532,1.096-0.798,1.901-0.798c0.802,0,1.432,0.27,1.888,0.809C122.371,14.015,122.599,14.753,122.599,15.691z
								 M117.991,15.691c0,0.803,0.176,1.429,0.529,1.878c0.353,0.449,0.852,0.674,1.496,0.674s1.143-0.225,1.496-0.674
								c0.353-0.449,0.529-1.075,0.529-1.878c0-0.805-0.178-1.43-0.535-1.874c-0.356-0.444-0.856-0.666-1.501-0.666
								s-1.142,0.221-1.49,0.663C118.165,14.256,117.991,14.882,117.991,15.691z"/>
						</g>
						<g enable-background="new    ">
							<path d="M14.651,33.618h-0.532v-5.838h4.657v5.838h-0.532v-5.334h-3.593V33.618z"/>
							<path d="M23.089,33.726c-0.849,0-1.51-0.262-1.984-0.784c-0.475-0.522-0.712-1.255-0.712-2.196
								c0-0.932,0.229-1.677,0.688-2.237s1.076-0.841,1.853-0.841c0.688,0,1.23,0.24,1.627,0.72s0.596,1.132,0.596,1.955v0.43
								h-4.206c0.007,0.802,0.194,1.414,0.562,1.837c0.367,0.423,0.892,0.634,1.576,0.634c0.333,0,0.626-0.023,0.878-0.069
								c0.253-0.047,0.572-0.147,0.959-0.301v0.482c-0.33,0.144-0.634,0.241-0.913,0.293S23.426,33.726,23.089,33.726z
								 M22.933,28.14c-0.562,0-1.013,0.186-1.354,0.556c-0.34,0.371-0.539,0.905-0.596,1.604h3.609c0-0.677-0.147-1.206-0.44-1.587
								C23.859,28.33,23.452,28.14,22.933,28.14z"/>
							<path d="M29.266,33.726c-0.899,0-1.554-0.337-1.966-1.01h-0.038l0.016,0.451c0.014,0.265,0.021,0.555,0.021,0.87v2.224
								h-0.532v-8.48h0.451l0.102,0.832h0.032c0.401-0.63,1.042-0.945,1.923-0.945c0.788,0,1.389,0.259,1.802,0.776
								c0.414,0.518,0.621,1.271,0.621,2.259c0,0.959-0.217,1.703-0.653,2.231C30.612,33.462,30.018,33.726,29.266,33.726z
								 M29.255,33.253c0.598,0,1.061-0.222,1.389-0.666c0.327-0.444,0.491-1.065,0.491-1.863c0-1.716-0.62-2.573-1.858-2.573
								c-0.68,0-1.18,0.188-1.499,0.562S27.3,29.696,27.3,30.54v0.172c0,0.914,0.153,1.565,0.459,1.955
								C28.066,33.058,28.564,33.253,29.255,33.253z"/>
							<path d="M33.24,26.157c0-0.344,0.113-0.516,0.338-0.516c0.111,0,0.198,0.045,0.26,0.135c0.063,0.09,0.094,0.217,0.094,0.381
								c0,0.162-0.031,0.289-0.094,0.382c-0.063,0.093-0.149,0.14-0.26,0.14C33.353,26.679,33.24,26.505,33.24,26.157z
								 M33.847,33.618h-0.532v-5.838h0.532V33.618z"/>
							<path d="M40.631,30.691c0,0.953-0.231,1.697-0.693,2.232s-1.099,0.803-1.912,0.803c-0.512,0-0.963-0.123-1.354-0.371
								c-0.39-0.246-0.689-0.602-0.897-1.063c-0.208-0.463-0.312-0.996-0.312-1.602c0-0.952,0.231-1.694,0.693-2.226
								c0.462-0.532,1.096-0.798,1.901-0.798c0.802,0,1.431,0.27,1.888,0.809C40.403,29.015,40.631,29.753,40.631,30.691z
								 M36.023,30.691c0,0.803,0.176,1.429,0.529,1.878c0.353,0.449,0.851,0.674,1.496,0.674s1.143-0.225,1.496-0.674
								c0.353-0.449,0.529-1.075,0.529-1.878c0-0.805-0.178-1.43-0.534-1.874c-0.356-0.444-0.857-0.666-1.501-0.666
								s-1.141,0.221-1.491,0.663C36.198,29.256,36.023,29.882,36.023,30.691z"/>
							<path d="M47.012,35.601h-0.526v-1.982h-4.469v1.982H41.49v-2.487h0.387c0.487-0.684,0.863-1.478,1.128-2.38
								s0.405-1.887,0.419-2.953h2.809v5.333h0.779V35.601z M45.701,33.114v-4.839h-1.815c-0.086,1.937-0.555,3.55-1.407,4.839
								H45.701z"/>
							<path d="M47.275,27.781h0.548l1.235,3.275c0.376,1.007,0.614,1.686,0.714,2.036h0.032c0.15-0.462,0.396-1.151,0.736-2.067
								l1.235-3.244h0.548l-2.616,6.783c-0.211,0.552-0.389,0.924-0.532,1.117s-0.311,0.338-0.502,0.436
								c-0.191,0.096-0.423,0.145-0.695,0.145c-0.204,0-0.432-0.037-0.682-0.113v-0.461c0.208,0.057,0.432,0.086,0.671,0.086
								c0.183,0,0.344-0.043,0.483-0.129s0.266-0.22,0.379-0.4c0.112-0.181,0.243-0.468,0.392-0.859
								c0.149-0.393,0.245-0.647,0.288-0.766L47.275,27.781z"/>
						</g>
					</g>
				</g>
			</g>
			<circle fill="none" stroke="#FFD600" stroke-width="1.1587" stroke-miterlimit="10" cx="33.398" cy="313.195" r="18.037"/>
		</g>
		<g>
			<g>
				<g>
					<path fill="none" stroke="#FFD600" stroke-width="1.1587" stroke-miterlimit="10" d="M612,45.382v236.736v5.188v12.146
						c0,8.709,7.046,15.755,15.755,15.755"/>
					
						<polygon fill="#FFD600" stroke="#FFD600" stroke-width="1.1587" stroke-linecap="round" stroke-linejoin="round" stroke-miterlimit="10" points="
						815.722,1.503 612,1.503 612,31.853 612,44.392 612,51.156 620.207,44.392 815.722,44.392 					"/>
					<g>
						<g>
							<rect x="625.141" y="9.759" fill="none" width="176.614" height="28.188"/>
							<g enable-background="new    ">
								<path d="M630.518,12.103c0,1.024-0.542,1.654-1.627,1.891v0.032c1.189,0.254,1.783,0.892,1.783,1.912
									c0,0.72-0.253,1.281-0.76,1.684c-0.507,0.403-1.222,0.604-2.146,0.604c-0.867,0-1.595-0.154-2.186-0.462v-0.559
									c0.34,0.165,0.704,0.292,1.09,0.382c0.387,0.089,0.752,0.134,1.096,0.134c0.716,0,1.281-0.155,1.695-0.465
									c0.413-0.31,0.62-0.743,0.62-1.302c0-0.545-0.201-0.957-0.604-1.236c-0.402-0.279-1.005-0.418-1.807-0.418h-1.166v-0.516
									h1.208c0.759,0,1.319-0.144,1.681-0.43c0.362-0.287,0.542-0.693,0.542-1.22c0-0.447-0.166-0.806-0.497-1.074
									c-0.332-0.269-0.764-0.403-1.297-0.403c-0.397,0-0.763,0.057-1.096,0.17c-0.333,0.112-0.693,0.307-1.08,0.582l-0.312-0.43
									c0.723-0.551,1.552-0.826,2.487-0.826c0.734,0,1.313,0.175,1.738,0.525C630.305,11.031,630.518,11.505,630.518,12.103z"/>
								<path d="M635.814,18.118l-0.134-0.924h-0.043c-0.293,0.376-0.595,0.642-0.905,0.798c-0.31,0.155-0.676,0.233-1.098,0.233
									c-0.573,0-1.019-0.146-1.337-0.44s-0.478-0.7-0.478-1.22c0-0.568,0.237-1.011,0.711-1.326c0.475-0.315,1.161-0.481,2.06-0.5
									l1.112-0.031v-0.387c0-0.556-0.113-0.975-0.338-1.258c-0.226-0.282-0.589-0.424-1.09-0.424c-0.541,0-1.101,0.15-1.681,0.451
									l-0.199-0.462c0.641-0.301,1.275-0.451,1.901-0.451c0.641,0,1.12,0.167,1.437,0.499c0.317,0.334,0.476,0.853,0.476,1.559
									v3.883H635.814z M633.665,17.742c0.623,0,1.115-0.178,1.474-0.534c0.36-0.356,0.54-0.852,0.54-1.485v-0.575l-1.021,0.043
									c-0.82,0.04-1.404,0.168-1.754,0.385c-0.349,0.217-0.523,0.554-0.523,1.012c0,0.365,0.112,0.649,0.336,0.852
									C632.941,17.641,633.257,17.742,633.665,17.742z"/>
								<path d="M641.265,12.281h0.661l-2.616,2.824l2.804,3.014H641.4l-2.761-2.959v2.959h-0.542v-5.838h0.542v2.836
									L641.265,12.281z"/>
								<path d="M643.07,10.657c0-0.344,0.113-0.516,0.338-0.516c0.111,0,0.198,0.045,0.26,0.135
									c0.063,0.09,0.094,0.217,0.094,0.381c0,0.162-0.031,0.289-0.094,0.382c-0.063,0.093-0.149,0.14-0.26,0.14
									C643.183,11.179,643.07,11.005,643.07,10.657z M643.677,18.118h-0.532v-5.838h0.532V18.118z"/>
								<path d="M646.164,12.281v2.562h3.706v-2.562h0.526v5.838h-0.526v-2.814h-3.706v2.814h-0.532v-5.838H646.164z"/>
								<path d="M652.781,12.281v1.955c0,0.494,0.12,0.85,0.36,1.068s0.609,0.328,1.106,0.328c0.351,0,0.686-0.063,1.004-0.188
									s0.65-0.326,0.994-0.602v-2.562h0.532v5.838h-0.532v-2.771c-0.358,0.275-0.71,0.473-1.055,0.591
									c-0.346,0.118-0.719,0.177-1.12,0.177c-0.598,0-1.05-0.155-1.356-0.467c-0.306-0.312-0.459-0.761-0.459-1.348v-2.02H652.781
									z"/>
								<path d="M661.09,18.226c-0.849,0-1.51-0.262-1.985-0.784c-0.474-0.522-0.711-1.255-0.711-2.196
									c0-0.932,0.229-1.677,0.688-2.237s1.076-0.841,1.853-0.841c0.688,0,1.23,0.24,1.627,0.72s0.596,1.132,0.596,1.955v0.43
									h-4.206c0.007,0.802,0.194,1.414,0.561,1.837c0.367,0.423,0.893,0.634,1.577,0.634c0.333,0,0.625-0.023,0.878-0.069
									c0.252-0.047,0.572-0.147,0.958-0.301v0.482c-0.33,0.144-0.634,0.241-0.913,0.293S661.427,18.226,661.09,18.226z
									 M660.934,12.64c-0.562,0-1.013,0.186-1.354,0.556c-0.34,0.371-0.539,0.905-0.596,1.604h3.609
									c0-0.677-0.147-1.206-0.44-1.587C661.86,12.83,661.453,12.64,660.934,12.64z"/>
								<path d="M665.301,12.281v2.562h3.706v-2.562h0.526v5.838h-0.526v-2.814h-3.706v2.814h-0.532v-5.838H665.301z"/>
								<path d="M672.02,12.281v2.562h3.706v-2.562h0.526v5.838h-0.526v-2.814h-3.706v2.814h-0.532v-5.838H672.02z"/>
								<path d="M678.122,18.118h-0.671l1.762-2.52c-0.537-0.1-0.925-0.286-1.163-0.559c-0.238-0.271-0.357-0.621-0.357-1.047
									c0-0.53,0.178-0.948,0.534-1.254c0.356-0.307,0.835-0.459,1.437-0.459h2.406v5.838h-0.526v-2.455h-1.783L678.122,18.118z
									 M678.251,13.972c0,0.401,0.13,0.699,0.39,0.895c0.259,0.195,0.65,0.293,1.173,0.293h1.729v-2.375h-1.891
									c-0.444,0-0.789,0.102-1.034,0.304C678.373,13.29,678.251,13.585,678.251,13.972z"/>
								<path d="M687.414,18.118h-0.532v-5.838h4.657v5.838h-0.532v-5.334h-3.593V18.118z"/>
								<path d="M695.991,18.226c-0.899,0-1.554-0.337-1.966-1.01h-0.038l0.016,0.451c0.014,0.265,0.021,0.555,0.021,0.87v2.224
									h-0.532v-8.48h0.451l0.102,0.832h0.032c0.401-0.63,1.042-0.945,1.923-0.945c0.788,0,1.388,0.259,1.802,0.776
									c0.413,0.518,0.62,1.271,0.62,2.259c0,0.959-0.218,1.703-0.652,2.231C697.337,17.962,696.743,18.226,695.991,18.226z
									 M695.981,17.753c0.598,0,1.061-0.222,1.388-0.666c0.328-0.444,0.492-1.065,0.492-1.863c0-1.716-0.62-2.573-1.858-2.573
									c-0.68,0-1.18,0.188-1.499,0.562s-0.478,0.983-0.478,1.828v0.172c0,0.914,0.153,1.565,0.459,1.955
									C694.791,17.558,695.29,17.753,695.981,17.753z"/>
								<path d="M702.399,18.226c-0.849,0-1.51-0.262-1.984-0.784c-0.475-0.522-0.712-1.255-0.712-2.196
									c0-0.932,0.229-1.677,0.688-2.237s1.076-0.841,1.853-0.841c0.688,0,1.23,0.24,1.627,0.72s0.596,1.132,0.596,1.955v0.43
									h-4.206c0.007,0.802,0.194,1.414,0.562,1.837c0.367,0.423,0.892,0.634,1.576,0.634c0.333,0,0.626-0.023,0.878-0.069
									c0.253-0.047,0.572-0.147,0.959-0.301v0.482c-0.33,0.144-0.634,0.241-0.913,0.293S702.736,18.226,702.399,18.226z
									 M702.243,12.64c-0.562,0-1.013,0.186-1.354,0.556c-0.34,0.371-0.539,0.905-0.596,1.604h3.609
									c0-0.677-0.147-1.206-0.44-1.587C703.169,12.83,702.762,12.64,702.243,12.64z"/>
								<path d="M708.796,17.549l0.333-0.94l1.681-4.328h0.736v5.838h-0.505v-5.193c-0.079,0.225-0.162,0.456-0.25,0.692
									c-0.088,0.236-0.672,1.736-1.754,4.501h-0.473l-1.617-4.104c-0.068-0.165-0.131-0.338-0.191-0.521
									c-0.059-0.182-0.124-0.379-0.196-0.59v5.215h-0.483v-5.838h0.704l1.687,4.297C708.601,16.924,708.71,17.248,708.796,17.549z
									"/>
								<path d="M713.899,10.266l0.064,0.107c-0.269,0.949-0.58,1.81-0.935,2.583h-0.349c0.104-0.344,0.213-0.775,0.328-1.297
									c0.115-0.521,0.202-0.985,0.263-1.394H713.899z"/>
								<path d="M717.487,18.226c-0.849,0-1.516-0.268-2-0.803c-0.485-0.535-0.728-1.266-0.728-2.189
									c0-0.948,0.251-1.697,0.754-2.244c0.503-0.549,1.187-0.822,2.049-0.822c0.222,0,0.477,0.023,0.765,0.07
									c0.289,0.046,0.537,0.11,0.744,0.193l-0.156,0.473c-0.211-0.076-0.449-0.137-0.711-0.184
									c-0.264-0.046-0.481-0.069-0.653-0.069c-0.663,0-1.184,0.188-1.563,0.563c-0.379,0.377-0.6,0.904-0.661,1.585h3.357v0.473
									h-3.378c0.007,0.777,0.206,1.383,0.596,1.818c0.39,0.435,0.915,0.652,1.574,0.652c0.562,0,1.071-0.095,1.525-0.284v0.494
									c-0.165,0.082-0.381,0.148-0.65,0.198S717.795,18.226,717.487,18.226z"/>
								<path d="M722.927,18.226c-0.899,0-1.554-0.337-1.966-1.01h-0.038l0.016,0.451c0.014,0.265,0.021,0.555,0.021,0.87v2.224
									h-0.532v-8.48h0.451l0.102,0.832h0.032c0.401-0.63,1.042-0.945,1.923-0.945c0.788,0,1.389,0.259,1.802,0.776
									c0.414,0.518,0.621,1.271,0.621,2.259c0,0.959-0.217,1.703-0.653,2.231C724.273,17.962,723.679,18.226,722.927,18.226z
									 M722.917,17.753c0.598,0,1.061-0.222,1.389-0.666c0.327-0.444,0.491-1.065,0.491-1.863c0-1.716-0.62-2.573-1.858-2.573
									c-0.68,0-1.18,0.188-1.499,0.562s-0.478,0.983-0.478,1.828v0.172c0,0.914,0.153,1.565,0.459,1.955
									C721.727,17.558,722.226,17.753,722.917,17.753z"/>
								<path d="M727.509,12.281v2.562h3.706v-2.562h0.526v5.838h-0.526v-2.814h-3.706v2.814h-0.532v-5.838H727.509z"/>
								<path d="M738.525,15.191c0,0.953-0.231,1.697-0.693,2.232s-1.099,0.803-1.912,0.803c-0.512,0-0.963-0.123-1.354-0.371
									c-0.39-0.246-0.689-0.602-0.897-1.063c-0.208-0.463-0.312-0.996-0.312-1.602c0-0.952,0.231-1.694,0.693-2.226
									c0.462-0.532,1.096-0.798,1.901-0.798c0.802,0,1.431,0.27,1.888,0.809C738.297,13.515,738.525,14.253,738.525,15.191z
									 M733.917,15.191c0,0.803,0.176,1.429,0.529,1.878c0.353,0.449,0.851,0.674,1.496,0.674s1.143-0.225,1.496-0.674
									c0.353-0.449,0.529-1.075,0.529-1.878c0-0.805-0.178-1.43-0.534-1.874c-0.356-0.444-0.857-0.666-1.501-0.666
									s-1.141,0.221-1.491,0.663C734.092,13.756,733.917,14.382,733.917,15.191z"/>
								<path d="M743.574,12.741h-2.9v5.377h-0.532v-5.838h3.432V12.741z"/>
								<path d="M749.6,15.191c0,0.953-0.231,1.697-0.693,2.232s-1.099,0.803-1.912,0.803c-0.512,0-0.963-0.123-1.354-0.371
									c-0.39-0.246-0.689-0.602-0.897-1.063c-0.208-0.463-0.312-0.996-0.312-1.602c0-0.952,0.231-1.694,0.693-2.226
									c0.462-0.532,1.096-0.798,1.901-0.798c0.802,0,1.431,0.27,1.888,0.809C749.372,13.515,749.6,14.253,749.6,15.191z
									 M744.992,15.191c0,0.803,0.176,1.429,0.529,1.878c0.353,0.449,0.851,0.674,1.496,0.674s1.143-0.225,1.496-0.674
									c0.353-0.449,0.529-1.075,0.529-1.878c0-0.805-0.178-1.43-0.534-1.874c-0.356-0.444-0.857-0.666-1.501-0.666
									s-1.141,0.221-1.491,0.663C745.167,13.756,744.992,14.382,744.992,15.191z"/>
							</g>
							<g enable-background="new    ">
								<path d="M626.651,33.118h-0.532v-5.838h4.657v5.838h-0.532v-5.334h-3.593V33.118z"/>
								<path d="M635.089,33.226c-0.849,0-1.51-0.262-1.984-0.784c-0.475-0.522-0.712-1.255-0.712-2.196
									c0-0.932,0.229-1.677,0.688-2.237s1.076-0.841,1.853-0.841c0.688,0,1.23,0.24,1.627,0.72s0.596,1.132,0.596,1.955v0.43
									h-4.206c0.007,0.802,0.194,1.414,0.562,1.837c0.367,0.423,0.892,0.634,1.576,0.634c0.333,0,0.626-0.023,0.878-0.069
									c0.253-0.047,0.572-0.147,0.959-0.301v0.482c-0.33,0.144-0.634,0.241-0.913,0.293S635.425,33.226,635.089,33.226z
									 M634.933,27.64c-0.562,0-1.013,0.186-1.354,0.556c-0.34,0.371-0.539,0.905-0.596,1.604h3.609
									c0-0.677-0.147-1.206-0.44-1.587C635.859,27.83,635.452,27.64,634.933,27.64z"/>
								<path d="M641.265,33.226c-0.899,0-1.554-0.337-1.966-1.01h-0.038l0.016,0.451c0.014,0.265,0.021,0.555,0.021,0.87v2.224
									h-0.532v-8.48h0.451l0.102,0.832h0.032c0.401-0.63,1.042-0.945,1.923-0.945c0.788,0,1.389,0.259,1.802,0.776
									c0.414,0.518,0.621,1.271,0.621,2.259c0,0.959-0.217,1.703-0.653,2.231C642.611,32.962,642.017,33.226,641.265,33.226z
									 M641.255,32.753c0.598,0,1.061-0.222,1.389-0.666c0.327-0.444,0.491-1.065,0.491-1.863c0-1.716-0.62-2.573-1.858-2.573
									c-0.68,0-1.18,0.188-1.499,0.562s-0.478,0.983-0.478,1.828v0.172c0,0.914,0.153,1.565,0.459,1.955
									C640.065,32.558,640.564,32.753,641.255,32.753z"/>
								<path d="M645.24,25.657c0-0.344,0.113-0.516,0.338-0.516c0.111,0,0.198,0.045,0.26,0.135
									c0.063,0.09,0.094,0.217,0.094,0.381c0,0.162-0.031,0.289-0.094,0.382c-0.063,0.093-0.149,0.14-0.26,0.14
									C645.353,26.179,645.24,26.005,645.24,25.657z M645.847,33.118h-0.532v-5.838h0.532V33.118z"/>
								<path d="M652.631,30.191c0,0.953-0.231,1.697-0.693,2.232s-1.099,0.803-1.912,0.803c-0.512,0-0.963-0.123-1.354-0.371
									c-0.39-0.246-0.689-0.602-0.897-1.063c-0.208-0.463-0.312-0.996-0.312-1.602c0-0.952,0.231-1.694,0.693-2.226
									c0.462-0.532,1.096-0.798,1.901-0.798c0.802,0,1.431,0.27,1.888,0.809C652.402,28.515,652.631,29.253,652.631,30.191z
									 M648.022,30.191c0,0.803,0.176,1.429,0.529,1.878c0.353,0.449,0.851,0.674,1.496,0.674s1.143-0.225,1.496-0.674
									c0.353-0.449,0.529-1.075,0.529-1.878c0-0.805-0.178-1.43-0.534-1.874c-0.356-0.444-0.857-0.666-1.501-0.666
									s-1.141,0.221-1.491,0.663C648.197,28.756,648.022,29.382,648.022,30.191z"/>
								<path d="M659.011,35.101h-0.526v-1.982h-4.469v1.982h-0.526v-2.487h0.387c0.487-0.684,0.863-1.478,1.128-2.38
									s0.405-1.887,0.419-2.953h2.809v5.333h0.779V35.101z M657.701,32.614v-4.839h-1.815c-0.086,1.937-0.555,3.55-1.407,4.839
									H657.701z"/>
								<path d="M659.275,27.281h0.548l1.235,3.275c0.376,1.007,0.614,1.686,0.714,2.036h0.032c0.15-0.462,0.396-1.151,0.736-2.067
									l1.235-3.244h0.548l-2.616,6.783c-0.211,0.552-0.389,0.924-0.532,1.117s-0.311,0.338-0.502,0.436
									c-0.191,0.096-0.423,0.145-0.695,0.145c-0.204,0-0.432-0.037-0.682-0.113v-0.461c0.208,0.057,0.432,0.086,0.671,0.086
									c0.183,0,0.344-0.043,0.483-0.129s0.266-0.22,0.379-0.4c0.112-0.181,0.243-0.468,0.392-0.859
									c0.149-0.393,0.245-0.647,0.288-0.766L659.275,27.281z"/>
								<path d="M671.865,27.741h-1.944v5.377h-0.526v-5.377h-1.993v-0.461h4.463V27.741z"/>
								<path d="M676.607,33.118l-0.134-0.924h-0.043c-0.293,0.376-0.595,0.642-0.905,0.798c-0.31,0.155-0.676,0.233-1.099,0.233
									c-0.573,0-1.019-0.146-1.337-0.44s-0.478-0.7-0.478-1.22c0-0.568,0.237-1.011,0.712-1.326c0.474-0.315,1.161-0.481,2.06-0.5
									l1.112-0.031v-0.387c0-0.556-0.113-0.975-0.338-1.258c-0.226-0.282-0.589-0.424-1.09-0.424c-0.541,0-1.101,0.15-1.681,0.451
									l-0.199-0.462c0.641-0.301,1.275-0.451,1.901-0.451c0.641,0,1.12,0.167,1.437,0.499c0.316,0.334,0.475,0.853,0.475,1.559
									v3.883H676.607z M674.459,32.742c0.623,0,1.114-0.178,1.475-0.534c0.359-0.356,0.54-0.852,0.54-1.485v-0.575l-1.021,0.043
									c-0.82,0.04-1.405,0.168-1.753,0.385c-0.35,0.217-0.524,0.554-0.524,1.012c0,0.365,0.112,0.649,0.335,0.852
									C673.735,32.641,674.051,32.742,674.459,32.742z"/>
								<path d="M682.279,33.118h-0.532v-5.838h4.657v5.838h-0.532v-5.334h-3.593V33.118z"/>
								<path d="M693.188,30.191c0,0.953-0.231,1.697-0.693,2.232s-1.099,0.803-1.912,0.803c-0.512,0-0.963-0.123-1.354-0.371
									c-0.39-0.246-0.689-0.602-0.897-1.063c-0.208-0.463-0.312-0.996-0.312-1.602c0-0.952,0.231-1.694,0.693-2.226
									c0.462-0.532,1.096-0.798,1.901-0.798c0.802,0,1.432,0.27,1.888,0.809C692.96,28.515,693.188,29.253,693.188,30.191z
									 M688.579,30.191c0,0.803,0.176,1.429,0.529,1.878c0.353,0.449,0.852,0.674,1.496,0.674s1.143-0.225,1.496-0.674
									c0.353-0.449,0.529-1.075,0.529-1.878c0-0.805-0.178-1.43-0.535-1.874c-0.356-0.444-0.856-0.666-1.501-0.666
									s-1.142,0.221-1.49,0.663C688.754,28.756,688.579,29.382,688.579,30.191z"/>
								<path d="M695.234,27.281v1.955c0,0.494,0.12,0.85,0.36,1.068s0.609,0.328,1.106,0.328c0.351,0,0.686-0.063,1.004-0.188
									s0.65-0.326,0.994-0.602v-2.562h0.532v5.838h-0.532v-2.771c-0.358,0.275-0.71,0.473-1.055,0.591
									c-0.346,0.118-0.719,0.177-1.12,0.177c-0.598,0-1.05-0.155-1.356-0.467c-0.306-0.312-0.459-0.761-0.459-1.348v-2.02H695.234
									z"/>
								<path d="M704.73,33.118l-0.134-0.924h-0.043c-0.293,0.376-0.595,0.642-0.905,0.798c-0.31,0.155-0.676,0.233-1.099,0.233
									c-0.573,0-1.019-0.146-1.337-0.44s-0.478-0.7-0.478-1.22c0-0.568,0.237-1.011,0.712-1.326c0.474-0.315,1.161-0.481,2.06-0.5
									l1.112-0.031v-0.387c0-0.556-0.113-0.975-0.338-1.258c-0.226-0.282-0.589-0.424-1.09-0.424c-0.541,0-1.101,0.15-1.681,0.451
									l-0.199-0.462c0.641-0.301,1.275-0.451,1.901-0.451c0.641,0,1.12,0.167,1.437,0.499c0.316,0.334,0.475,0.853,0.475,1.559
									v3.883H704.73z M702.582,32.742c0.623,0,1.114-0.178,1.475-0.534c0.359-0.356,0.54-0.852,0.54-1.485v-0.575l-1.021,0.043
									c-0.82,0.04-1.405,0.168-1.753,0.385c-0.35,0.217-0.524,0.554-0.524,1.012c0,0.365,0.112,0.649,0.335,0.852
									C701.858,32.641,702.174,32.742,702.582,32.742z"/>
								<path d="M710.719,27.741h-1.944v5.377h-0.526v-5.377h-1.993v-0.461h4.463V27.741z"/>
								<path d="M716.745,30.191c0,0.953-0.231,1.697-0.693,2.232s-1.099,0.803-1.912,0.803c-0.512,0-0.963-0.123-1.354-0.371
									c-0.39-0.246-0.689-0.602-0.897-1.063c-0.208-0.463-0.312-0.996-0.312-1.602c0-0.952,0.231-1.694,0.693-2.226
									c0.462-0.532,1.096-0.798,1.901-0.798c0.802,0,1.432,0.27,1.888,0.809C716.517,28.515,716.745,29.253,716.745,30.191z
									 M712.137,30.191c0,0.803,0.176,1.429,0.529,1.878c0.353,0.449,0.852,0.674,1.496,0.674s1.143-0.225,1.496-0.674
									c0.353-0.449,0.529-1.075,0.529-1.878c0-0.805-0.178-1.43-0.535-1.874c-0.356-0.444-0.856-0.666-1.501-0.666
									s-1.142,0.221-1.49,0.663C712.311,28.756,712.137,29.382,712.137,30.191z"/>
								<path d="M721.531,27.281h0.661l-2.616,2.824l2.804,3.014h-0.714l-2.761-2.959v2.959h-0.542v-5.838h0.542v2.836
									L721.531,27.281z"/>
								<path d="M731.032,35.101h-0.526v-1.982h-4.469v1.982h-0.526v-2.487h0.387c0.487-0.684,0.863-1.478,1.128-2.38
									s0.405-1.887,0.419-2.953h2.809v5.333h0.779V35.101z M729.722,32.614v-4.839h-1.815c-0.086,1.937-0.555,3.55-1.407,4.839
									H729.722z"/>
								<path d="M732.198,25.657c0-0.344,0.113-0.516,0.338-0.516c0.111,0,0.198,0.045,0.26,0.135
									c0.063,0.09,0.094,0.217,0.094,0.381c0,0.162-0.031,0.289-0.094,0.382c-0.063,0.093-0.149,0.14-0.26,0.14
									C732.311,26.179,732.198,26.005,732.198,25.657z M732.805,33.118h-0.532v-5.838h0.532V33.118z"/>
								<path d="M733.67,25.657c0-0.164,0.028-0.282,0.083-0.354c0.056-0.072,0.141-0.107,0.255-0.107
									c0.229,0,0.344,0.153,0.344,0.461c0,0.309-0.115,0.463-0.344,0.463C733.782,26.12,733.67,25.966,733.67,25.657z
									 M735.292,33.118h-0.532v-5.838h0.532V33.118z M735.716,25.657c0-0.164,0.028-0.282,0.083-0.354
									c0.055-0.072,0.14-0.107,0.255-0.107c0.229,0,0.344,0.153,0.344,0.461c0,0.309-0.115,0.463-0.344,0.463
									C735.829,26.12,735.716,25.966,735.716,25.657z"/>
								<path d="M741.205,29.799c1.056,0,1.584-0.363,1.584-1.091c0-0.347-0.122-0.611-0.365-0.795
									c-0.244-0.182-0.591-0.273-1.042-0.273c-0.287,0-0.553,0.033-0.8,0.1s-0.512,0.162-0.795,0.287l-0.199-0.44
									c0.623-0.279,1.228-0.419,1.815-0.419c0.637,0,1.121,0.133,1.45,0.397s0.494,0.632,0.494,1.101
									c0,0.678-0.347,1.108-1.042,1.295v0.032c0.433,0.107,0.749,0.285,0.945,0.534s0.295,0.566,0.295,0.953
									c0,0.541-0.198,0.967-0.593,1.279c-0.396,0.311-0.945,0.467-1.646,0.467c-0.379,0-0.726-0.037-1.039-0.11
									c-0.313-0.073-0.572-0.171-0.776-0.292v-0.532c0.369,0.176,0.688,0.295,0.956,0.357s0.555,0.094,0.859,0.094
									c0.53,0,0.942-0.112,1.238-0.336c0.295-0.224,0.443-0.543,0.443-0.958c0-0.405-0.142-0.704-0.424-0.897
									s-0.707-0.29-1.273-0.29h-0.811v-0.462H741.205z"/>
								<path d="M745.61,27.281v2.562h3.706v-2.562h0.526v5.838h-0.526v-2.814h-3.706v2.814h-0.532v-5.838H745.61z"/>
								<path d="M752.302,27.281v4.221l-0.032,1.102l3.464-5.322h0.709v5.838h-0.51v-4.195l0.021-1.127l-3.464,5.322h-0.693v-5.838
									H752.302z"/>
								<path d="M760.81,27.281h0.537v2.836l2.508-2.836h0.65l-2.53,2.836l2.729,3.002h-0.682l-2.675-2.959v2.959h-0.537v-2.959
									l-2.675,2.959h-0.682l2.718-2.98l-2.519-2.857h0.65l2.508,2.836V27.281z"/>
								<path d="M770.542,30.191c0,0.953-0.231,1.697-0.693,2.232s-1.099,0.803-1.912,0.803c-0.512,0-0.963-0.123-1.354-0.371
									c-0.39-0.246-0.689-0.602-0.897-1.063c-0.208-0.463-0.312-0.996-0.312-1.602c0-0.952,0.231-1.694,0.693-2.226
									c0.462-0.532,1.096-0.798,1.901-0.798c0.802,0,1.432,0.27,1.888,0.809C770.314,28.515,770.542,29.253,770.542,30.191z
									 M765.934,30.191c0,0.803,0.176,1.429,0.529,1.878c0.353,0.449,0.852,0.674,1.496,0.674s1.143-0.225,1.496-0.674
									c0.353-0.449,0.529-1.075,0.529-1.878c0-0.805-0.178-1.43-0.535-1.874c-0.356-0.444-0.856-0.666-1.501-0.666
									s-1.142,0.221-1.49,0.663C766.108,28.756,765.934,29.382,765.934,30.191z"/>
								<path d="M775.328,27.281h0.66l-2.615,2.824l2.804,3.014h-0.714l-2.761-2.959v2.959h-0.542v-5.838h0.542v2.836
									L775.328,27.281z"/>
							</g>
						</g>
					</g>
				</g>
			</g>
			<circle fill="none" stroke="#FFD600" stroke-width="1.1587" stroke-miterlimit="10" cx="645.399" cy="313.195" r="18.037"/>
		</g>
	</g>
	
		<line fill="none" stroke="#FF4C29" stroke-miterlimit="10" stroke-dasharray="3,4" x1="394.18" y1="292.828" x2="394.18" y2="68.828"/>
	
		<line fill="none" stroke="#FF4C29" stroke-miterlimit="10" stroke-dasharray="3,4" x1="783.18" y1="292.828" x2="783.18" y2="68.828"/>
	
		<line fill="none" stroke="#FF4C29" stroke-miterlimit="10" stroke-dasharray="3,4" x1="1172.18" y1="292.828" x2="1172.18" y2="68.828"/>
</g>
</svg>
