<?xml version="1.0" encoding="utf-8"?>
<!-- Generator: Adobe Illustrator 16.0.0, SVG Export Plug-In . SVG Version: 6.00 Build 0)  -->
<!DOCTYPE svg PUBLIC "-//W3C//DTD SVG 1.1//EN" "http://www.w3.org/Graphics/SVG/1.1/DTD/svg11.dtd">
<svg version="1.1" id="Layer_1" xmlns="http://www.w3.org/2000/svg" xmlns:xlink="http://www.w3.org/1999/xlink" x="0px" y="0px"
	 width="1920px" height="1020px" viewBox="0 0 1920 1020" enable-background="new 0 0 1920 1020" xml:space="preserve">
<g>
	<g>
		<g>
			
				<line fill="none" stroke="#ADADAD" stroke-width="0.7212" stroke-miterlimit="10" x1="806.089" y1="563.359" x2="807.531" y2="563.359"/>
			
				<line fill="none" stroke="#ADADAD" stroke-width="0.7212" stroke-miterlimit="10" stroke-dasharray="2.9081,4.3621" x1="811.893" y1="563.359" x2="1151.412" y2="563.359"/>
			
				<line fill="none" stroke="#ADADAD" stroke-width="0.7212" stroke-miterlimit="10" x1="1153.593" y1="563.359" x2="1155.035" y2="563.359"/>
		</g>
	</g>
	<g>
		<g>
			
				<line fill="none" stroke="#ADADAD" stroke-width="0.7212" stroke-miterlimit="10" x1="806.089" y1="507.604" x2="807.531" y2="507.604"/>
			
				<line fill="none" stroke="#ADADAD" stroke-width="0.7212" stroke-miterlimit="10" stroke-dasharray="2.9081,4.3621" x1="811.893" y1="507.604" x2="1151.412" y2="507.604"/>
			
				<line fill="none" stroke="#ADADAD" stroke-width="0.7212" stroke-miterlimit="10" x1="1153.593" y1="507.604" x2="1155.035" y2="507.604"/>
		</g>
	</g>
	<g>
		<g>
			
				<line fill="none" stroke="#ADADAD" stroke-width="0.7212" stroke-miterlimit="10" x1="806.089" y1="451.849" x2="807.531" y2="451.849"/>
			
				<line fill="none" stroke="#ADADAD" stroke-width="0.7212" stroke-miterlimit="10" stroke-dasharray="2.9081,4.3621" x1="811.893" y1="451.849" x2="1151.412" y2="451.849"/>
			
				<line fill="none" stroke="#ADADAD" stroke-width="0.7212" stroke-miterlimit="10" x1="1153.593" y1="451.849" x2="1155.035" y2="451.849"/>
		</g>
	</g>
	<g>
		<g>
			
				<line fill="none" stroke="#ADADAD" stroke-width="0.7212" stroke-miterlimit="10" x1="1155.035" y1="396.094" x2="1153.593" y2="396.094"/>
			
				<line fill="none" stroke="#ADADAD" stroke-width="0.7212" stroke-miterlimit="10" stroke-dasharray="2.9081,4.3621" x1="1149.23" y1="396.094" x2="809.712" y2="396.094"/>
			
				<line fill="none" stroke="#ADADAD" stroke-width="0.7212" stroke-miterlimit="10" x1="807.531" y1="396.094" x2="806.089" y2="396.094"/>
		</g>
	</g>
	<polyline fill="none" points="748.861,632.552 1171.138,632.552 1171.138,659.116 748.861,659.116 	"/>
	
		<line fill="none" stroke="#0E1968" stroke-width="5" stroke-linecap="round" stroke-miterlimit="10" x1="808.885" y1="623.312" x2="808.885" y2="559.509"/>
	
		<line fill="none" stroke="#49B4DA" stroke-width="5" stroke-linecap="round" stroke-miterlimit="10" x1="816.59" y1="623.267" x2="816.59" y2="502.829"/>
	
		<line fill="none" stroke="#0E1968" stroke-width="5" stroke-linecap="round" stroke-miterlimit="10" x1="864.332" y1="623.312" x2="864.332" y2="559.509"/>
	
		<line fill="none" stroke="#49B4DA" stroke-width="5" stroke-linecap="round" stroke-miterlimit="10" x1="872.037" y1="623.267" x2="872.037" y2="502.829"/>
	
		<line fill="none" stroke="#0E1968" stroke-width="5" stroke-linecap="round" stroke-miterlimit="10" x1="919.778" y1="623.312" x2="919.778" y2="508.528"/>
	
		<line fill="none" stroke="#49B4DA" stroke-width="5" stroke-linecap="round" stroke-miterlimit="10" x1="927.483" y1="623.267" x2="927.483" y2="396.094"/>
	
		<line fill="none" stroke="#0E1968" stroke-width="5" stroke-linecap="round" stroke-miterlimit="10" x1="975.225" y1="623.312" x2="975.225" y2="508.528"/>
	
		<line fill="none" stroke="#49B4DA" stroke-width="5" stroke-linecap="round" stroke-miterlimit="10" x1="982.93" y1="623.267" x2="982.93" y2="396.094"/>
	
		<line fill="none" stroke="#0E1968" stroke-width="5" stroke-linecap="round" stroke-miterlimit="10" x1="1030.671" y1="623.312" x2="1030.671" y2="562.511"/>
	
		<line fill="none" stroke="#49B4DA" stroke-width="5" stroke-linecap="round" stroke-miterlimit="10" x1="1038.378" y1="623.267" x2="1038.378" y2="505.832"/>
	
		<line fill="none" stroke="#0E1968" stroke-width="5" stroke-linecap="round" stroke-miterlimit="10" x1="1086.118" y1="623.312" x2="1086.118" y2="562.511"/>
	
		<line fill="none" stroke="#49B4DA" stroke-width="5" stroke-linecap="round" stroke-miterlimit="10" x1="1093.825" y1="623.267" x2="1093.825" y2="505.832"/>
	
		<line fill="none" stroke="#0E1968" stroke-width="5" stroke-linecap="round" stroke-miterlimit="10" x1="1141.763" y1="623.312" x2="1141.763" y2="563.089"/>
	
		<line fill="none" stroke="#49B4DA" stroke-width="5" stroke-linecap="round" stroke-miterlimit="10" x1="1149.469" y1="623.267" x2="1149.469" y2="506.409"/>
	<rect x="783.5" y="620.5" fill="#FFFFFF" width="371" height="53"/>
	
		<line fill="none" stroke="#ADADAD" stroke-width="0.7212" stroke-miterlimit="10" stroke-dasharray="2.8848,4.3272" x1="806.089" y1="619.993" x2="1154.812" y2="619.993"/>
	<g>
		<g>
			<path fill="#676767" d="M868.017,636.073v8.641h-1.844v-7.188h-3.875v7.188h-1.836v-8.641H868.017z"/>
			<path fill="#676767" d="M877.135,636.073v1.438h-2.813v7.203h-1.844v-7.203h-2.813v-1.438H877.135z"/>
		</g>
	</g>
	<g>
		<g>
			<path fill="#FF4C29" d="M918.306,644.869c-1.307,0-2.301-0.382-2.98-1.145s-1.02-1.858-1.02-3.285
				c0-1.453,0.355-2.57,1.066-3.352s1.738-1.172,3.082-1.172c0.912,0,1.732,0.169,2.461,0.508l-0.555,1.477
				c-0.776-0.302-1.417-0.453-1.922-0.453c-1.495,0-2.242,0.992-2.242,2.977c0,0.969,0.186,1.696,0.559,2.184s0.918,0.73,1.637,0.73
				c0.818,0,1.591-0.203,2.32-0.609v1.602c-0.328,0.192-0.678,0.331-1.051,0.414S918.838,644.869,918.306,644.869z"/>
			<path fill="#FF4C29" d="M922.244,639.526c0-1.927,0.327-3.409,0.98-4.445s1.694-1.703,3.121-2
				c1.078-0.219,2.32-0.433,3.727-0.641l0.258,1.617c-1.708,0.261-2.958,0.464-3.75,0.609c-0.818,0.151-1.408,0.487-1.77,1.008
				s-0.572,1.305-0.629,2.352h0.117c0.297-0.433,0.685-0.767,1.164-1.004s0.992-0.355,1.539-0.355c1.063,0,1.891,0.336,2.484,1.008
				s0.891,1.614,0.891,2.828c0,1.391-0.361,2.466-1.082,3.227s-1.72,1.141-2.996,1.141c-1.266,0-2.258-0.469-2.977-1.406
				S922.244,641.213,922.244,639.526z M926.424,643.369c1.365,0,2.047-0.896,2.047-2.688c0-1.729-0.617-2.594-1.852-2.594
				c-0.338,0-0.667,0.073-0.984,0.219s-0.611,0.339-0.879,0.578s-0.475,0.487-0.621,0.742c0,1.229,0.195,2.16,0.586,2.793
				S925.679,643.369,926.424,643.369z"/>
		</g>
	</g>
	<g>
		<g>
			<path fill="#676767" d="M805.895,636.073v3.156c0,0.886,0.458,1.328,1.375,1.328c0.442,0,0.875-0.062,1.297-0.184
				s0.875-0.319,1.359-0.59v-3.711h1.836v8.641h-1.836v-3.664c-0.505,0.313-0.994,0.543-1.465,0.691
				c-0.472,0.148-0.986,0.223-1.543,0.223c-0.901,0-1.604-0.233-2.109-0.699c-0.505-0.466-0.758-1.118-0.758-1.957v-3.234H805.895z"
				/>
			<path fill="#676767" d="M820.879,636.073v1.438h-2.813v7.203h-1.844v-7.203h-2.813v-1.438H820.879z"/>
		</g>
	</g>
	<g>
		<g>
			<path fill="#FF4C29" d="M971.478,636.073v3.469h4.07v-3.469h1.836v8.641h-1.836v-3.727h-4.07v3.727h-1.836v-8.641H971.478z"/>
			<path fill="#FF4C29" d="M988.299,647.768h-1.711v-3.055h-5.922v3.055h-1.695v-4.477h0.703c0.613-0.88,1.102-1.944,1.465-3.191
				c0.361-1.247,0.576-2.59,0.645-4.027h5.25v7.219h1.266V647.768z M985.228,643.291v-5.813h-1.859
				c-0.1,1.073-0.307,2.13-0.621,3.172c-0.316,1.042-0.699,1.922-1.152,2.641H985.228z"/>
		</g>
	</g>
	<g>
		<g>
			<path fill="#676767" d="M1033.992,636.073v8.641h-1.844v-7.188h-3.875v7.188h-1.836v-8.641H1033.992z"/>
			<path fill="#676767" d="M1038.453,636.073v3.469h4.07v-3.469h1.836v8.641h-1.836v-3.727h-4.07v3.727h-1.836v-8.641H1038.453z"/>
		</g>
	</g>
	<g>
		<g>
			<path fill="#676767" d="M1090.201,638.283c0,1.021-0.598,1.638-1.789,1.852v0.063c0.666,0.078,1.176,0.289,1.531,0.633
				c0.354,0.344,0.531,0.789,0.531,1.336c0,0.817-0.313,1.446-0.934,1.887c-0.623,0.44-1.527,0.66-2.715,0.66h-4.125v-8.641h4.109
				C1089.07,636.073,1090.201,636.81,1090.201,638.283z M1088.365,638.44c0-0.344-0.135-0.593-0.402-0.746
				c-0.27-0.153-0.668-0.23-1.199-0.23h-2.227v2.078h1.953c0.613,0,1.08-0.079,1.398-0.238
				C1088.205,639.144,1088.365,638.857,1088.365,638.44z M1088.592,642.057c0-0.417-0.162-0.712-0.484-0.887
				c-0.324-0.175-0.809-0.262-1.453-0.262h-2.117v2.445h2.164C1087.961,643.354,1088.592,642.921,1088.592,642.057z"/>
			<path fill="#676767" d="M1098.857,636.073v1.438h-2.813v7.203h-1.844v-7.203h-2.813v-1.438H1098.857z"/>
		</g>
	</g>
	<g>
		<g>
			<path fill="#676767" d="M1140.658,644.869c-1.307,0-2.301-0.382-2.98-1.145s-1.02-1.858-1.02-3.285
				c0-1.453,0.355-2.57,1.066-3.352s1.738-1.172,3.082-1.172c0.912,0,1.732,0.169,2.461,0.508l-0.555,1.477
				c-0.775-0.302-1.416-0.453-1.922-0.453c-1.494,0-2.242,0.992-2.242,2.977c0,0.969,0.186,1.696,0.559,2.184s0.918,0.73,1.637,0.73
				c0.818,0,1.592-0.203,2.32-0.609v1.602c-0.328,0.192-0.678,0.331-1.051,0.414S1141.189,644.869,1140.658,644.869z"/>
			<path fill="#676767" d="M1149.478,644.869c-1.094,0-1.943-0.394-2.547-1.18h-0.109c0.072,0.729,0.109,1.172,0.109,1.328v3.539
				h-1.836v-12.484h1.484c0.041,0.161,0.127,0.547,0.258,1.156h0.094c0.572-0.875,1.432-1.313,2.578-1.313
				c1.078,0,1.918,0.391,2.52,1.172s0.902,1.878,0.902,3.289s-0.307,2.513-0.918,3.305S1150.556,644.869,1149.478,644.869z
				 M1149.033,637.416c-0.729,0-1.262,0.214-1.598,0.641s-0.504,1.109-0.504,2.047v0.273c0,1.052,0.166,1.813,0.5,2.285
				s0.877,0.707,1.633,0.707c0.635,0,1.125-0.261,1.469-0.781s0.516-1.263,0.516-2.227c0-0.969-0.17-1.702-0.512-2.199
				S1149.695,637.416,1149.033,637.416z"/>
		</g>
	</g>
	<g>
		<g>
			<g>
				<path fill="none" stroke="#FFD600" stroke-width="1.1587" stroke-miterlimit="10" d="M779.209,390.32v218.646v5.188V626.3
					c0,8.709,7.045,15.756,15.754,15.756"/>
				
					<polygon fill="#FFD600" stroke="#FFD600" stroke-width="1.1587" stroke-linecap="round" stroke-linejoin="round" stroke-miterlimit="10" points="
					870.488,346.441 779.209,346.441 779.209,376.79 779.209,389.329 779.209,396.094 787.415,389.329 870.488,389.329 				"/>
				<g>
					<g>
						<g>
							<path d="M799.091,363.057h-0.548v-7.337h-4.533v7.337h-0.548v-7.853h5.629V363.057z"/>
							<path d="M806.779,360.13c0,0.953-0.231,1.696-0.693,2.232c-0.462,0.535-1.099,0.803-1.912,0.803
								c-0.512,0-0.963-0.124-1.354-0.371s-0.689-0.602-0.897-1.063s-0.312-0.996-0.312-1.601c0-0.953,0.231-1.695,0.693-2.226
								c0.462-0.532,1.096-0.798,1.901-0.798c0.802,0,1.432,0.27,1.888,0.809C806.551,358.453,806.779,359.192,806.779,360.13z
								 M802.17,360.13c0,0.802,0.176,1.428,0.529,1.877c0.353,0.449,0.852,0.674,1.496,0.674s1.143-0.225,1.496-0.674
								c0.353-0.45,0.529-1.075,0.529-1.877c0-0.806-0.178-1.431-0.535-1.875c-0.356-0.444-0.856-0.666-1.501-0.666
								s-1.142,0.221-1.49,0.663C802.344,358.695,802.17,359.321,802.17,360.13z"/>
							<path d="M809.595,357.219v1.955c0,0.494,0.12,0.851,0.36,1.069s0.609,0.328,1.106,0.328c0.351,0,0.686-0.063,1.004-0.188
								s0.65-0.326,0.994-0.602v-2.562h0.532v5.838h-0.532v-2.771c-0.358,0.276-0.71,0.473-1.056,0.591
								c-0.345,0.118-0.719,0.177-1.12,0.177c-0.598,0-1.05-0.156-1.356-0.467c-0.307-0.312-0.459-0.761-0.459-1.348v-2.02H809.595z
								"/>
							<path d="M819.861,363.057l-0.134-0.924h-0.043c-0.293,0.376-0.595,0.642-0.905,0.798c-0.31,0.155-0.676,0.233-1.099,0.233
								c-0.573,0-1.019-0.147-1.337-0.44s-0.478-0.7-0.478-1.219c0-0.569,0.237-1.012,0.712-1.327c0.474-0.315,1.161-0.481,2.06-0.5
								l1.112-0.032v-0.387c0-0.555-0.113-0.974-0.338-1.257s-0.589-0.424-1.09-0.424c-0.541,0-1.101,0.15-1.681,0.451l-0.199-0.462
								c0.641-0.301,1.275-0.451,1.901-0.451c0.641,0,1.12,0.167,1.437,0.5c0.316,0.333,0.475,0.852,0.475,1.558v3.883H819.861z
								 M817.713,362.681c0.623,0,1.114-0.178,1.475-0.534c0.359-0.356,0.54-0.852,0.54-1.485v-0.575l-1.021,0.043
								c-0.82,0.04-1.405,0.167-1.753,0.384c-0.35,0.216-0.524,0.554-0.524,1.012c0,0.365,0.112,0.649,0.335,0.851
								C816.989,362.58,817.304,362.681,817.713,362.681z"/>
							<path d="M826.62,357.68h-1.944v5.376h-0.526v-5.376h-1.993v-0.462h4.463V357.68z"/>
							<path d="M833.416,360.13c0,0.953-0.231,1.696-0.693,2.232c-0.462,0.535-1.099,0.803-1.912,0.803
								c-0.512,0-0.963-0.124-1.354-0.371s-0.689-0.602-0.897-1.063s-0.312-0.996-0.312-1.601c0-0.953,0.231-1.695,0.693-2.226
								c0.462-0.532,1.096-0.798,1.901-0.798c0.802,0,1.432,0.27,1.888,0.809C833.188,358.453,833.416,359.192,833.416,360.13z
								 M828.808,360.13c0,0.802,0.176,1.428,0.529,1.877c0.353,0.449,0.852,0.674,1.496,0.674s1.143-0.225,1.496-0.674
								c0.353-0.45,0.529-1.075,0.529-1.877c0-0.806-0.178-1.431-0.535-1.875c-0.356-0.444-0.856-0.666-1.501-0.666
								s-1.142,0.221-1.49,0.663C828.982,358.695,828.808,359.321,828.808,360.13z"/>
							<path d="M838.972,357.219h0.661l-2.616,2.825l2.804,3.013h-0.714l-2.761-2.959v2.959h-0.542v-5.838h0.542v2.836
								L838.972,357.219z"/>
							<path d="M850.013,365.039h-0.526v-1.982h-4.469v1.982h-0.526v-2.487h0.387c0.487-0.684,0.863-1.477,1.128-2.379
								s0.405-1.887,0.419-2.954h2.809v5.333h0.779V365.039z M848.703,362.552v-4.839h-1.815c-0.086,1.937-0.555,3.55-1.407,4.839
								H848.703z"/>
							<path d="M851.949,355.596c0-0.344,0.113-0.516,0.338-0.516c0.111,0,0.198,0.045,0.26,0.134
								c0.063,0.089,0.094,0.217,0.094,0.381c0,0.161-0.031,0.288-0.094,0.381c-0.063,0.093-0.149,0.14-0.26,0.14
								C852.062,356.117,851.949,355.944,851.949,355.596z M852.556,363.057h-0.532v-5.838h0.532V363.057z"/>
							<path d="M854.191,355.596c0-0.165,0.028-0.283,0.083-0.354c0.055-0.072,0.14-0.107,0.255-0.107
								c0.229,0,0.344,0.154,0.344,0.462s-0.115,0.462-0.344,0.462C854.303,356.058,854.191,355.905,854.191,355.596z
								 M855.813,363.057h-0.532v-5.838h0.532V363.057z M856.237,355.596c0-0.165,0.028-0.283,0.083-0.354
								c0.056-0.072,0.141-0.107,0.255-0.107c0.229,0,0.344,0.154,0.344,0.462s-0.115,0.462-0.344,0.462
								C856.35,356.058,856.237,355.905,856.237,355.596z"/>
							<path d="M794.428,374.738c1.056,0,1.584-0.363,1.584-1.09c0-0.347-0.122-0.612-0.365-0.795s-0.591-0.274-1.042-0.274
								c-0.287,0-0.553,0.033-0.8,0.1c-0.247,0.066-0.512,0.162-0.795,0.287l-0.199-0.44c0.623-0.279,1.228-0.419,1.815-0.419
								c0.637,0,1.121,0.132,1.45,0.397s0.494,0.632,0.494,1.101c0,0.677-0.347,1.108-1.042,1.294v0.032
								c0.433,0.107,0.749,0.286,0.945,0.534c0.197,0.249,0.295,0.567,0.295,0.954c0,0.541-0.198,0.967-0.594,1.278
								c-0.396,0.312-0.944,0.467-1.646,0.467c-0.379,0-0.726-0.037-1.04-0.11c-0.313-0.073-0.572-0.171-0.776-0.292v-0.532
								c0.369,0.175,0.688,0.294,0.956,0.357c0.269,0.063,0.555,0.094,0.859,0.094c0.53,0,0.943-0.112,1.238-0.336
								c0.296-0.224,0.443-0.543,0.443-0.958c0-0.405-0.142-0.704-0.424-0.897s-0.707-0.29-1.273-0.29h-0.811v-0.462H794.428z"/>
							<path d="M799.603,372.219v2.562h3.706v-2.562h0.526v5.838h-0.526v-2.814h-3.706v2.814h-0.532v-5.838H799.603z"/>
							<path d="M807.065,372.219v4.222l-0.032,1.101l3.464-5.323h0.709v5.838h-0.51v-4.195l0.021-1.128l-3.464,5.323h-0.693v-5.838
								H807.065z"/>
							<path d="M816.343,372.219h0.537v2.836l2.508-2.836h0.65l-2.53,2.836l2.729,3.002h-0.682l-2.675-2.959v2.959h-0.537v-2.959
								l-2.675,2.959h-0.682l2.718-2.981l-2.519-2.857h0.65l2.508,2.836V372.219z"/>
							<path d="M826.845,375.13c0,0.953-0.231,1.696-0.693,2.232c-0.462,0.535-1.099,0.803-1.912,0.803
								c-0.512,0-0.963-0.124-1.354-0.371s-0.689-0.602-0.897-1.063s-0.312-0.996-0.312-1.601c0-0.953,0.231-1.695,0.693-2.226
								c0.462-0.532,1.096-0.798,1.901-0.798c0.802,0,1.431,0.27,1.888,0.809C826.617,373.453,826.845,374.192,826.845,375.13z
								 M822.237,375.13c0,0.802,0.176,1.428,0.529,1.877c0.353,0.449,0.851,0.674,1.496,0.674s1.143-0.225,1.496-0.674
								c0.353-0.45,0.529-1.075,0.529-1.877c0-0.806-0.178-1.431-0.534-1.875c-0.356-0.444-0.857-0.666-1.501-0.666
								s-1.141,0.221-1.491,0.663C822.412,373.695,822.237,374.321,822.237,375.13z"/>
							<path d="M832.401,372.219h0.661l-2.616,2.825l2.804,3.013h-0.714l-2.761-2.959v2.959h-0.542v-5.838h0.542v2.836
								L832.401,372.219z"/>
						</g>
					</g>
				</g>
			</g>
		</g>
		<circle fill="none" stroke="#FFD600" stroke-width="1.1587" stroke-miterlimit="10" cx="812.719" cy="639.865" r="18.037"/>
	</g>
</g>
</svg>
