<?xml version="1.0" encoding="utf-8"?>
<!-- Generator: Adobe Illustrator 16.0.0, SVG Export Plug-In . SVG Version: 6.00 Build 0)  -->
<!DOCTYPE svg PUBLIC "-//W3C//DTD SVG 1.1//EN" "http://www.w3.org/Graphics/SVG/1.1/DTD/svg11.dtd">
<svg version="1.1" id="Layer_1" xmlns="http://www.w3.org/2000/svg" xmlns:xlink="http://www.w3.org/1999/xlink" x="0px" y="0px"
	 width="1541.5px" height="334px" viewBox="0 0 1541.5 334" enable-background="new 0 0 1541.5 334" xml:space="preserve">
<g>
	<g>
		<g>
			
				<line fill="none" stroke="#ADADAD" stroke-width="0.7212" stroke-miterlimit="10" x1="26.881" y1="216.918" x2="28.322" y2="216.918"/>
			
				<line fill="none" stroke="#ADADAD" stroke-width="0.7212" stroke-miterlimit="10" stroke-dasharray="2.9081,4.3621" x1="32.684" y1="216.918" x2="372.203" y2="216.918"/>
			
				<line fill="none" stroke="#ADADAD" stroke-width="0.7212" stroke-miterlimit="10" x1="374.385" y1="216.918" x2="375.826" y2="216.918"/>
		</g>
	</g>
	<g>
		<g>
			
				<line fill="none" stroke="#ADADAD" stroke-width="0.7212" stroke-miterlimit="10" x1="26.881" y1="161.163" x2="28.322" y2="161.163"/>
			
				<line fill="none" stroke="#ADADAD" stroke-width="0.7212" stroke-miterlimit="10" stroke-dasharray="2.9081,4.3621" x1="32.684" y1="161.163" x2="372.203" y2="161.163"/>
			
				<line fill="none" stroke="#ADADAD" stroke-width="0.7212" stroke-miterlimit="10" x1="374.385" y1="161.163" x2="375.826" y2="161.163"/>
		</g>
	</g>
	<g>
		<g>
			
				<line fill="none" stroke="#ADADAD" stroke-width="0.7212" stroke-miterlimit="10" x1="26.881" y1="105.408" x2="28.322" y2="105.408"/>
			
				<line fill="none" stroke="#ADADAD" stroke-width="0.7212" stroke-miterlimit="10" stroke-dasharray="2.9081,4.3621" x1="32.684" y1="105.408" x2="372.203" y2="105.408"/>
			
				<line fill="none" stroke="#ADADAD" stroke-width="0.7212" stroke-miterlimit="10" x1="374.385" y1="105.408" x2="375.826" y2="105.408"/>
		</g>
	</g>
	<g>
		<g>
			
				<line fill="none" stroke="#ADADAD" stroke-width="0.7212" stroke-miterlimit="10" x1="375.826" y1="49.654" x2="374.385" y2="49.654"/>
			
				<line fill="none" stroke="#ADADAD" stroke-width="0.7212" stroke-miterlimit="10" stroke-dasharray="2.9081,4.3621" x1="370.021" y1="49.654" x2="30.504" y2="49.654"/>
			
				<line fill="none" stroke="#ADADAD" stroke-width="0.7212" stroke-miterlimit="10" x1="28.322" y1="49.654" x2="26.881" y2="49.654"/>
		</g>
	</g>
	<polyline fill="none" points="10.291,286.112 391.929,286.112 391.929,312.675 10.291,312.675 	"/>
	
		<line fill="none" stroke="#0E1968" stroke-width="5" stroke-linecap="round" stroke-miterlimit="10" x1="29.677" y1="276.871" x2="29.677" y2="213.069"/>
	
		<line fill="none" stroke="#49B4DA" stroke-width="5" stroke-linecap="round" stroke-miterlimit="10" x1="37.382" y1="276.826" x2="37.382" y2="156.388"/>
	
		<line fill="none" stroke="#0E1968" stroke-width="5" stroke-linecap="round" stroke-miterlimit="10" x1="85.123" y1="276.871" x2="85.123" y2="213.069"/>
	
		<line fill="none" stroke="#49B4DA" stroke-width="5" stroke-linecap="round" stroke-miterlimit="10" x1="92.828" y1="276.826" x2="92.828" y2="156.388"/>
	
		<line fill="none" stroke="#0E1968" stroke-width="5" stroke-linecap="round" stroke-miterlimit="10" x1="140.569" y1="276.871" x2="140.569" y2="162.087"/>
	
		<line fill="none" stroke="#49B4DA" stroke-width="5" stroke-linecap="round" stroke-miterlimit="10" x1="148.274" y1="276.826" x2="148.274" y2="49.654"/>
	
		<line fill="none" stroke="#0E1968" stroke-width="5" stroke-linecap="round" stroke-miterlimit="10" x1="196.016" y1="276.871" x2="196.016" y2="162.087"/>
	
		<line fill="none" stroke="#49B4DA" stroke-width="5" stroke-linecap="round" stroke-miterlimit="10" x1="203.721" y1="276.826" x2="203.721" y2="49.654"/>
	
		<line fill="none" stroke="#0E1968" stroke-width="5" stroke-linecap="round" stroke-miterlimit="10" x1="251.463" y1="276.871" x2="251.463" y2="216.071"/>
	
		<line fill="none" stroke="#49B4DA" stroke-width="5" stroke-linecap="round" stroke-miterlimit="10" x1="259.17" y1="276.826" x2="259.17" y2="159.391"/>
	
		<line fill="none" stroke="#0E1968" stroke-width="5" stroke-linecap="round" stroke-miterlimit="10" x1="306.909" y1="276.871" x2="306.909" y2="216.071"/>
	
		<line fill="none" stroke="#49B4DA" stroke-width="5" stroke-linecap="round" stroke-miterlimit="10" x1="314.616" y1="276.826" x2="314.616" y2="159.391"/>
	
		<line fill="none" stroke="#0E1968" stroke-width="5" stroke-linecap="round" stroke-miterlimit="10" x1="362.554" y1="276.871" x2="362.554" y2="216.649"/>
	
		<line fill="none" stroke="#49B4DA" stroke-width="5" stroke-linecap="round" stroke-miterlimit="10" x1="370.26" y1="276.826" x2="370.26" y2="159.968"/>
	<rect x="4.291" y="274.06" fill="#FFFFFF" width="371" height="53"/>
	
		<line fill="none" stroke="#ADADAD" stroke-width="0.7212" stroke-miterlimit="10" stroke-dasharray="2.8848,4.3272" x1="26.881" y1="273.552" x2="375.603" y2="273.552"/>
	<g>
		<g>
			<path fill="#676767" d="M88.808,289.632v8.642h-1.844v-7.188H83.09v7.188h-1.836v-8.642H88.808z"/>
			<path fill="#676767" d="M97.927,289.632v1.438h-2.813v7.203h-1.844v-7.203h-2.813v-1.438H97.927z"/>
		</g>
	</g>
	<g>
		<g>
			<path fill="#FF4C29" d="M139.097,298.428c-1.307,0-2.301-0.382-2.98-1.145c-0.679-0.763-1.02-1.858-1.02-3.285
				c0-1.453,0.354-2.57,1.066-3.352c0.711-0.782,1.737-1.173,3.081-1.173c0.912,0,1.732,0.17,2.462,0.509l-0.556,1.477
				c-0.776-0.302-1.417-0.453-1.922-0.453c-1.495,0-2.242,0.992-2.242,2.978c0,0.969,0.187,1.695,0.56,2.184s0.918,0.73,1.637,0.73
				c0.818,0,1.591-0.203,2.32-0.609v1.602c-0.328,0.192-0.679,0.331-1.052,0.414S139.63,298.428,139.097,298.428z"/>
			<path fill="#FF4C29" d="M143.035,293.085c0-1.927,0.327-3.409,0.98-4.445c0.652-1.035,1.693-1.702,3.121-2
				c1.078-0.219,2.32-0.433,3.727-0.641l0.258,1.617c-1.708,0.261-2.958,0.464-3.75,0.609c-0.817,0.15-1.408,0.486-1.77,1.008
				c-0.362,0.521-0.572,1.305-0.629,2.352h0.117c0.297-0.433,0.685-0.767,1.164-1.004c0.479-0.237,0.991-0.355,1.539-0.355
				c1.063,0,1.891,0.337,2.483,1.009s0.892,1.613,0.892,2.828c0,1.391-0.361,2.466-1.082,3.227
				c-0.722,0.761-1.721,1.141-2.996,1.141c-1.267,0-2.258-0.469-2.978-1.405C143.393,296.087,143.035,294.773,143.035,293.085z
				 M147.216,296.928c1.364,0,2.047-0.896,2.047-2.688c0-1.729-0.617-2.594-1.853-2.594c-0.338,0-0.667,0.072-0.983,0.219
				c-0.317,0.146-0.611,0.339-0.879,0.578c-0.269,0.239-0.476,0.486-0.621,0.742c0,1.229,0.194,2.159,0.586,2.793
				C145.903,296.612,146.47,296.928,147.216,296.928z"/>
		</g>
	</g>
	<g>
		<g>
			<path fill="#676767" d="M26.686,289.632v3.156c0,0.886,0.458,1.328,1.375,1.328c0.442,0,0.875-0.063,1.297-0.185
				s0.875-0.318,1.359-0.59v-3.711h1.836v8.642h-1.836v-3.664c-0.505,0.313-0.994,0.543-1.466,0.69
				c-0.472,0.148-0.985,0.224-1.543,0.224c-0.9,0-1.604-0.233-2.108-0.699s-0.758-1.118-0.758-1.957v-3.234H26.686z"/>
			<path fill="#676767" d="M41.671,289.632v1.438h-2.813v7.203h-1.844v-7.203H34.2v-1.438H41.671z"/>
		</g>
	</g>
	<g>
		<g>
			<path fill="#FF4C29" d="M192.269,289.632v3.469h4.07v-3.469h1.836v8.642h-1.836v-3.728h-4.07v3.728h-1.836v-8.642H192.269z"/>
			<path fill="#FF4C29" d="M209.091,301.327h-1.711v-3.055h-5.923v3.055h-1.694v-4.477h0.703c0.612-0.881,1.102-1.944,1.465-3.191
				c0.36-1.247,0.576-2.59,0.645-4.027h5.25v7.22h1.267L209.091,301.327L209.091,301.327z M206.019,296.851v-5.813h-1.859
				c-0.1,1.073-0.307,2.13-0.621,3.172c-0.315,1.042-0.698,1.922-1.151,2.642H206.019z"/>
		</g>
	</g>
	<g>
		<g>
			<path fill="#676767" d="M254.783,289.632v8.642h-1.844v-7.188h-3.875v7.188h-1.836v-8.642H254.783z"/>
			<path fill="#676767" d="M259.244,289.632v3.469h4.07v-3.469h1.836v8.642h-1.836v-3.728h-4.07v3.728h-1.836v-8.642H259.244z"/>
		</g>
	</g>
	<g>
		<g>
			<path fill="#676767" d="M310.992,291.842c0,1.021-0.598,1.639-1.789,1.853v0.063c0.666,0.078,1.177,0.289,1.531,0.633
				c0.354,0.345,0.531,0.789,0.531,1.336c0,0.817-0.313,1.446-0.934,1.888c-0.623,0.439-1.527,0.66-2.715,0.66h-4.125v-8.642h4.108
				C309.861,289.632,310.992,290.369,310.992,291.842z M309.156,291.999c0-0.344-0.135-0.593-0.401-0.746
				c-0.271-0.152-0.668-0.229-1.199-0.229h-2.228v2.078h1.953c0.613,0,1.08-0.079,1.398-0.238
				C308.996,292.703,309.156,292.416,309.156,291.999z M309.384,295.616c0-0.417-0.162-0.712-0.484-0.887
				c-0.324-0.176-0.809-0.263-1.453-0.263h-2.116v2.445h2.163C308.753,296.913,309.384,296.481,309.384,295.616z"/>
			<path fill="#676767" d="M319.648,289.632v1.438h-2.813v7.203h-1.845v-7.203h-2.813v-1.438H319.648z"/>
		</g>
	</g>
	<g>
		<g>
			<path fill="#676767" d="M361.449,298.428c-1.307,0-2.301-0.382-2.979-1.145s-1.021-1.858-1.021-3.285
				c0-1.453,0.355-2.57,1.066-3.352c0.711-0.782,1.738-1.173,3.082-1.173c0.912,0,1.732,0.17,2.461,0.509l-0.555,1.477
				c-0.775-0.302-1.416-0.453-1.922-0.453c-1.494,0-2.242,0.992-2.242,2.978c0,0.969,0.186,1.695,0.559,2.184s0.918,0.73,1.637,0.73
				c0.818,0,1.593-0.203,2.32-0.609v1.602c-0.328,0.192-0.678,0.331-1.051,0.414S361.98,298.428,361.449,298.428z"/>
			<path fill="#676767" d="M370.269,298.428c-1.094,0-1.943-0.394-2.547-1.18h-0.109c0.072,0.729,0.109,1.172,0.109,1.328v3.539
				h-1.836v-12.484h1.483c0.041,0.161,0.127,0.547,0.259,1.156h0.094c0.572-0.875,1.432-1.313,2.578-1.313
				c1.078,0,1.918,0.392,2.52,1.173c0.603,0.78,0.902,1.878,0.902,3.289c0,1.41-0.307,2.513-0.918,3.305
				S371.347,298.428,370.269,298.428z M369.824,290.976c-0.729,0-1.262,0.214-1.598,0.641s-0.504,1.109-0.504,2.047v0.273
				c0,1.052,0.166,1.813,0.5,2.284c0.334,0.473,0.877,0.707,1.633,0.707c0.635,0,1.125-0.261,1.469-0.78
				c0.344-0.521,0.517-1.264,0.517-2.228c0-0.969-0.171-1.702-0.513-2.199S370.486,290.976,369.824,290.976z"/>
		</g>
	</g>
	<g>
		<g>
			<g>
				<path fill="none" stroke="#FFD600" stroke-width="1.1587" stroke-miterlimit="10" d="M0,43.879v218.646v5.188v12.146
					c0,8.709,7.045,15.756,15.755,15.756"/>
				
					<polygon fill="#FFD600" stroke="#FFD600" stroke-width="1.1587" stroke-linecap="round" stroke-linejoin="round" stroke-miterlimit="10" points="
					91.279,0 0,0 0,30.349 0,42.888 0,49.654 8.207,42.888 91.279,42.888 				"/>
				<g>
					<g>
						<g>
							<path d="M19.883,16.616h-0.549V9.28h-4.532v7.337h-0.548V8.763h5.629V16.616z"/>
							<path d="M27.57,13.69c0,0.952-0.23,1.695-0.693,2.231c-0.461,0.535-1.099,0.803-1.911,0.803c-0.513,0-0.964-0.123-1.354-0.37
								s-0.688-0.603-0.896-1.063s-0.313-0.996-0.313-1.601c0-0.953,0.231-1.695,0.693-2.227c0.462-0.532,1.096-0.798,1.9-0.798
								c0.803,0,1.433,0.27,1.889,0.809C27.343,12.012,27.57,12.751,27.57,13.69z M22.961,13.69c0,0.802,0.177,1.428,0.529,1.877
								c0.354,0.448,0.853,0.674,1.496,0.674c0.645,0,1.143-0.226,1.496-0.674c0.354-0.45,0.529-1.075,0.529-1.877
								c0-0.807-0.178-1.432-0.535-1.875c-0.356-0.444-0.856-0.666-1.501-0.666c-0.646,0-1.142,0.221-1.49,0.663
								C23.135,12.254,22.961,12.88,22.961,13.69z"/>
							<path d="M30.386,10.779v1.955c0,0.494,0.12,0.851,0.359,1.068c0.24,0.219,0.609,0.328,1.106,0.328
								c0.351,0,0.686-0.063,1.004-0.188s0.65-0.326,0.994-0.603v-2.562h0.532v5.838H33.85v-2.771
								c-0.358,0.276-0.71,0.474-1.056,0.592c-0.346,0.117-0.72,0.177-1.12,0.177c-0.599,0-1.05-0.156-1.356-0.467
								c-0.307-0.313-0.459-0.762-0.459-1.349v-2.02H30.386L30.386,10.779z"/>
							<path d="M40.652,16.616l-0.134-0.924h-0.043c-0.293,0.376-0.595,0.642-0.905,0.798c-0.31,0.155-0.676,0.232-1.099,0.232
								c-0.573,0-1.02-0.146-1.337-0.439c-0.318-0.293-0.479-0.7-0.479-1.219c0-0.569,0.237-1.013,0.712-1.327
								c0.475-0.315,1.161-0.481,2.061-0.5l1.112-0.032v-0.387c0-0.556-0.113-0.975-0.339-1.257
								c-0.225-0.283-0.589-0.425-1.09-0.425c-0.541,0-1.101,0.15-1.681,0.451l-0.199-0.462c0.641-0.301,1.275-0.451,1.901-0.451
								c0.641,0,1.12,0.167,1.437,0.5s0.475,0.853,0.475,1.559v3.883H40.652z M38.505,16.24c0.622,0,1.113-0.178,1.475-0.534
								c0.359-0.355,0.54-0.852,0.54-1.485v-0.574l-1.021,0.043c-0.819,0.04-1.404,0.167-1.753,0.384
								c-0.35,0.216-0.523,0.554-0.523,1.012c0,0.365,0.112,0.649,0.335,0.852C37.78,16.139,38.095,16.24,38.505,16.24z"/>
							<path d="M47.411,11.24h-1.943v5.376h-0.526V11.24h-1.993v-0.462h4.464L47.411,11.24L47.411,11.24z"/>
							<path d="M54.207,13.69c0,0.952-0.23,1.695-0.692,2.231c-0.462,0.535-1.099,0.803-1.912,0.803
								c-0.512,0-0.963-0.123-1.354-0.37c-0.391-0.247-0.688-0.603-0.896-1.063s-0.313-0.996-0.313-1.601
								c0-0.953,0.231-1.695,0.693-2.227c0.462-0.532,1.096-0.798,1.901-0.798c0.802,0,1.432,0.27,1.888,0.809
								C53.979,12.012,54.207,12.751,54.207,13.69z M49.599,13.69c0,0.802,0.176,1.428,0.529,1.877
								c0.353,0.448,0.852,0.674,1.496,0.674c0.644,0,1.143-0.226,1.495-0.674c0.354-0.45,0.529-1.075,0.529-1.877
								c0-0.807-0.178-1.432-0.535-1.875c-0.355-0.444-0.855-0.666-1.501-0.666c-0.645,0-1.142,0.221-1.49,0.663
								C49.773,12.254,49.599,12.88,49.599,13.69z"/>
							<path d="M59.763,10.779h0.661l-2.616,2.825l2.804,3.013h-0.714l-2.761-2.959v2.959h-0.542v-5.838h0.542v2.836L59.763,10.779z
								"/>
							<path d="M70.804,18.598h-0.526v-1.981h-4.469v1.981h-0.526v-2.486h0.388c0.486-0.685,0.862-1.478,1.128-2.379
								c0.265-0.902,0.404-1.888,0.419-2.954h2.809v5.333h0.779L70.804,18.598L70.804,18.598z M69.494,16.112v-4.839h-1.814
								c-0.086,1.937-0.555,3.55-1.407,4.839H69.494z"/>
							<path d="M72.74,9.156c0-0.344,0.113-0.517,0.338-0.517c0.111,0,0.198,0.046,0.261,0.135s0.094,0.217,0.094,0.381
								c0,0.161-0.031,0.288-0.094,0.381c-0.063,0.093-0.149,0.14-0.261,0.14C72.853,9.676,72.74,9.503,72.74,9.156z M73.347,16.616
								h-0.532v-5.838h0.532V16.616z"/>
							<path d="M74.982,9.156c0-0.165,0.028-0.283,0.083-0.354s0.14-0.106,0.255-0.106c0.229,0,0.344,0.153,0.344,0.462
								c0,0.308-0.114,0.462-0.344,0.462C75.094,9.617,74.982,9.464,74.982,9.156z M76.604,16.616h-0.532v-5.838h0.532V16.616z
								 M77.028,9.156c0-0.165,0.028-0.283,0.083-0.354c0.057-0.071,0.141-0.106,0.255-0.106c0.229,0,0.345,0.153,0.345,0.462
								c0,0.308-0.115,0.462-0.345,0.462C77.141,9.617,77.028,9.464,77.028,9.156z"/>
							<path d="M15.219,28.297c1.056,0,1.584-0.362,1.584-1.09c0-0.347-0.122-0.612-0.365-0.795s-0.591-0.274-1.042-0.274
								c-0.287,0-0.553,0.033-0.8,0.101c-0.247,0.065-0.513,0.162-0.795,0.287l-0.199-0.44c0.623-0.279,1.228-0.419,1.815-0.419
								c0.637,0,1.121,0.132,1.449,0.397c0.329,0.265,0.494,0.632,0.494,1.101c0,0.677-0.347,1.108-1.042,1.294v0.032
								c0.434,0.106,0.749,0.286,0.945,0.534c0.197,0.249,0.295,0.566,0.295,0.954c0,0.541-0.198,0.967-0.594,1.277
								c-0.396,0.313-0.944,0.468-1.646,0.468c-0.379,0-0.726-0.037-1.04-0.11c-0.313-0.073-0.572-0.171-0.775-0.292v-0.532
								c0.369,0.175,0.688,0.294,0.956,0.357c0.269,0.063,0.555,0.094,0.858,0.094c0.53,0,0.943-0.112,1.238-0.336
								C16.852,30.68,17,30.362,17,29.947c0-0.405-0.143-0.704-0.425-0.897c-0.281-0.192-0.706-0.29-1.272-0.29h-0.812v-0.462
								H15.219L15.219,28.297z"/>
							<path d="M20.394,25.779v2.562H24.1v-2.562h0.526v5.838H24.1v-2.814h-3.706v2.814h-0.532v-5.838H20.394z"/>
							<path d="M27.856,25.779V30l-0.032,1.101l3.465-5.322h0.709v5.838h-0.511v-4.195l0.021-1.128l-3.464,5.323h-0.693v-5.838
								H27.856z"/>
							<path d="M37.135,25.779h0.537v2.836l2.508-2.836h0.65l-2.53,2.836l2.729,3.002h-0.682l-2.675-2.959v2.959h-0.537v-2.959
								l-2.676,2.959h-0.682l2.719-2.981l-2.52-2.856h0.65l2.508,2.836V25.779z"/>
							<path d="M47.636,28.69c0,0.952-0.231,1.695-0.693,2.231c-0.462,0.535-1.099,0.803-1.912,0.803
								c-0.512,0-0.963-0.123-1.354-0.37c-0.392-0.247-0.689-0.603-0.897-1.063s-0.312-0.996-0.312-1.601
								c0-0.953,0.23-1.695,0.692-2.227c0.462-0.532,1.097-0.798,1.901-0.798c0.802,0,1.431,0.27,1.888,0.809
								C47.408,27.012,47.636,27.751,47.636,28.69z M43.028,28.69c0,0.802,0.177,1.428,0.529,1.877
								c0.353,0.448,0.851,0.674,1.496,0.674c0.645,0,1.143-0.226,1.496-0.674c0.353-0.45,0.528-1.075,0.528-1.877
								c0-0.807-0.178-1.432-0.533-1.875c-0.356-0.444-0.857-0.666-1.502-0.666c-0.644,0-1.141,0.221-1.49,0.663
								S43.028,27.88,43.028,28.69z"/>
							<path d="M53.192,25.779h0.661l-2.616,2.825l2.804,3.013h-0.714l-2.761-2.959v2.959h-0.542v-5.838h0.542v2.836L53.192,25.779z
								"/>
						</g>
					</g>
				</g>
			</g>
		</g>
		<circle fill="none" stroke="#FFD600" stroke-width="1.1587" stroke-miterlimit="10" cx="33.51" cy="293.424" r="18.037"/>
	</g>
</g>
</svg>
