<?xml version="1.0" encoding="utf-8"?>
<!-- Generator: Adobe Illustrator 16.0.0, SVG Export Plug-In . SVG Version: 6.00 Build 0)  -->
<!DOCTYPE svg PUBLIC "-//W3C//DTD SVG 1.1//EN" "http://www.w3.org/Graphics/SVG/1.1/DTD/svg11.dtd">
<svg version="1.1" id="Layer_1" xmlns="http://www.w3.org/2000/svg" xmlns:xlink="http://www.w3.org/1999/xlink" x="0px" y="0px"
	 width="1920px" height="1020px" viewBox="0 0 1920 1020" enable-background="new 0 0 1920 1020" xml:space="preserve">
<g>
	<g>
		<g>
			<g>
				<g>
					
						<line fill="none" stroke="#ADADAD" stroke-width="0.7212" stroke-miterlimit="10" x1="600.164" y1="574.419" x2="601.606" y2="574.419"/>
					
						<line fill="none" stroke="#ADADAD" stroke-width="0.7212" stroke-miterlimit="10" stroke-dasharray="2.8772,4.3158" x1="605.922" y1="574.419" x2="1330.26" y2="574.419"/>
					
						<line fill="none" stroke="#ADADAD" stroke-width="0.7212" stroke-miterlimit="10" x1="1332.419" y1="574.419" x2="1333.861" y2="574.419"/>
				</g>
			</g>
		</g>
		<g>
			<g>
				<g>
					
						<line fill="none" stroke="#ADADAD" stroke-width="0.7212" stroke-miterlimit="10" x1="600.164" y1="518.664" x2="601.606" y2="518.664"/>
					
						<line fill="none" stroke="#ADADAD" stroke-width="0.7212" stroke-miterlimit="10" stroke-dasharray="2.8772,4.3158" x1="605.922" y1="518.664" x2="1330.26" y2="518.664"/>
					
						<line fill="none" stroke="#ADADAD" stroke-width="0.7212" stroke-miterlimit="10" x1="1332.419" y1="518.664" x2="1333.861" y2="518.664"/>
				</g>
			</g>
		</g>
		<g>
			<g>
				<g>
					
						<line fill="none" stroke="#ADADAD" stroke-width="0.7212" stroke-miterlimit="10" x1="600.164" y1="462.909" x2="601.606" y2="462.909"/>
					
						<line fill="none" stroke="#ADADAD" stroke-width="0.7212" stroke-miterlimit="10" stroke-dasharray="2.8772,4.3158" x1="605.922" y1="462.909" x2="1330.26" y2="462.909"/>
					
						<line fill="none" stroke="#ADADAD" stroke-width="0.7212" stroke-miterlimit="10" x1="1332.419" y1="462.909" x2="1333.861" y2="462.909"/>
				</g>
			</g>
		</g>
		<g>
			<g>
				<g>
					
						<line fill="none" stroke="#ADADAD" stroke-width="0.7212" stroke-miterlimit="10" x1="1333.861" y1="407.155" x2="1332.419" y2="407.155"/>
					
						<line fill="none" stroke="#ADADAD" stroke-width="0.7212" stroke-miterlimit="10" stroke-dasharray="2.8772,4.3158" x1="1328.103" y1="407.155" x2="603.764" y2="407.155"/>
					
						<line fill="none" stroke="#ADADAD" stroke-width="0.7212" stroke-miterlimit="10" x1="601.606" y1="407.155" x2="600.164" y2="407.155"/>
				</g>
			</g>
		</g>
		<g>
			<g>
				<path fill="#676767" d="M659.844,647.132v8.641H658v-7.188h-3.875v7.188h-1.836v-8.641H659.844z"/>
				<path fill="#676767" d="M668.961,647.132v1.438h-2.813v7.203h-1.844v-7.203h-2.813v-1.438H668.961z"/>
			</g>
		</g>
		<g>
			<g>
				<path fill="#676767" d="M710.133,655.929c-1.308,0-2.301-0.382-2.98-1.145s-1.02-1.858-1.02-3.285
					c0-1.453,0.355-2.57,1.066-3.352s1.738-1.172,3.082-1.172c0.911,0,1.731,0.169,2.461,0.508l-0.555,1.477
					c-0.776-0.302-1.417-0.453-1.922-0.453c-1.495,0-2.242,0.992-2.242,2.977c0,0.969,0.186,1.696,0.559,2.184
					c0.372,0.487,0.918,0.73,1.637,0.73c0.817,0,1.591-0.203,2.32-0.609v1.602c-0.328,0.192-0.679,0.331-1.051,0.414
					C711.115,655.887,710.664,655.929,710.133,655.929z"/>
				<path fill="#676767" d="M714.07,650.585c0-1.927,0.327-3.409,0.98-4.445c0.653-1.036,1.694-1.703,3.121-2
					c1.078-0.219,2.32-0.433,3.727-0.641l0.258,1.617c-1.708,0.261-2.958,0.464-3.75,0.609c-0.818,0.151-1.408,0.487-1.77,1.008
					c-0.362,0.521-0.572,1.305-0.629,2.352h0.117c0.297-0.433,0.685-0.767,1.164-1.004c0.479-0.237,0.992-0.355,1.539-0.355
					c1.063,0,1.891,0.336,2.484,1.008s0.891,1.614,0.891,2.828c0,1.391-0.361,2.466-1.082,3.227
					c-0.722,0.761-1.72,1.141-2.996,1.141c-1.266,0-2.258-0.469-2.977-1.406S714.07,652.273,714.07,650.585z M718.25,654.429
					c1.364,0,2.047-0.896,2.047-2.688c0-1.729-0.617-2.594-1.852-2.594c-0.339,0-0.667,0.073-0.984,0.219
					c-0.318,0.146-0.611,0.339-0.879,0.578c-0.269,0.239-0.476,0.487-0.621,0.742c0,1.229,0.195,2.16,0.586,2.793
					S717.505,654.429,718.25,654.429z"/>
			</g>
		</g>
		<g>
			<g>
				<path fill="#676767" d="M597.721,647.132v3.156c0,0.886,0.458,1.328,1.375,1.328c0.442,0,0.875-0.062,1.297-0.184
					s0.875-0.319,1.359-0.59v-3.711h1.836v8.641h-1.836v-3.664c-0.505,0.313-0.994,0.543-1.465,0.691
					c-0.472,0.148-0.986,0.223-1.543,0.223c-0.901,0-1.604-0.233-2.109-0.699c-0.505-0.466-0.758-1.118-0.758-1.957v-3.234H597.721z
					"/>
				<path fill="#676767" d="M612.705,647.132v1.438h-2.813v7.203h-1.844v-7.203h-2.813v-1.438H612.705z"/>
			</g>
		</g>
		<g>
			<g>
				<path fill="#676767" d="M763.304,647.132v3.469h4.07v-3.469h1.836v8.641h-1.836v-3.727h-4.07v3.727h-1.836v-8.641H763.304z"/>
				<path fill="#676767" d="M780.124,658.827h-1.711v-3.055h-5.922v3.055h-1.695v-4.477h0.703c0.614-0.88,1.103-1.944,1.465-3.191
					c0.362-1.247,0.577-2.59,0.645-4.027h5.25v7.219h1.266V658.827z M777.054,654.351v-5.813h-1.859
					c-0.099,1.073-0.306,2.13-0.621,3.172c-0.315,1.042-0.699,1.922-1.152,2.641H777.054z"/>
			</g>
		</g>
		<g>
			<g>
				<path fill="#676767" d="M825.819,647.132v8.641h-1.844v-7.188H820.1v7.188h-1.836v-8.641H825.819z"/>
				<path fill="#676767" d="M830.28,647.132v3.469h4.07v-3.469h1.836v8.641h-1.836v-3.727h-4.07v3.727h-1.836v-8.641H830.28z"/>
			</g>
		</g>
		<g>
			<g>
				<path fill="#676767" d="M882.027,649.343c0,1.021-0.597,1.638-1.789,1.852v0.063c0.667,0.078,1.177,0.289,1.531,0.633
					c0.354,0.344,0.531,0.789,0.531,1.336c0,0.817-0.312,1.446-0.934,1.887c-0.623,0.44-1.527,0.66-2.715,0.66h-4.125v-8.641h4.109
					C880.896,647.132,882.027,647.869,882.027,649.343z M880.191,649.499c0-0.344-0.134-0.593-0.402-0.746
					c-0.269-0.153-0.668-0.23-1.199-0.23h-2.227v2.078h1.953c0.614,0,1.081-0.079,1.398-0.238
					C880.031,650.203,880.191,649.916,880.191,649.499z M880.417,653.116c0-0.417-0.162-0.712-0.484-0.887
					c-0.323-0.175-0.808-0.262-1.453-0.262h-2.117v2.445h2.164C879.787,654.413,880.417,653.981,880.417,653.116z"/>
				<path fill="#676767" d="M890.683,647.132v1.438h-2.813v7.203h-1.844v-7.203h-2.813v-1.438H890.683z"/>
			</g>
		</g>
		<g>
			<g>
				<path fill="#676767" d="M932.484,655.929c-1.307,0-2.301-0.382-2.98-1.145s-1.02-1.858-1.02-3.285
					c0-1.453,0.355-2.57,1.066-3.352s1.738-1.172,3.082-1.172c0.912,0,1.732,0.169,2.461,0.508l-0.555,1.477
					c-0.776-0.302-1.417-0.453-1.922-0.453c-1.495,0-2.242,0.992-2.242,2.977c0,0.969,0.186,1.696,0.559,2.184
					s0.918,0.73,1.637,0.73c0.818,0,1.591-0.203,2.32-0.609v1.602c-0.328,0.192-0.678,0.331-1.051,0.414
					S933.015,655.929,932.484,655.929z"/>
				<path fill="#676767" d="M941.304,655.929c-1.094,0-1.943-0.394-2.547-1.18h-0.109c0.073,0.729,0.109,1.172,0.109,1.328v3.539
					h-1.836v-12.484h1.484c0.042,0.161,0.127,0.547,0.258,1.156h0.094c0.573-0.875,1.432-1.313,2.578-1.313
					c1.078,0,1.918,0.391,2.52,1.172s0.902,1.878,0.902,3.289s-0.306,2.513-0.918,3.305S942.383,655.929,941.304,655.929z
					 M940.859,648.476c-0.729,0-1.262,0.214-1.598,0.641s-0.504,1.109-0.504,2.047v0.273c0,1.052,0.167,1.813,0.5,2.285
					s0.877,0.707,1.633,0.707c0.635,0,1.125-0.261,1.469-0.781s0.516-1.263,0.516-2.227c0-0.969-0.17-1.702-0.512-2.199
					S941.521,648.476,940.859,648.476z"/>
			</g>
		</g>
		<g>
			
				<line fill="none" stroke="#0E1968" stroke-width="5" stroke-linecap="round" stroke-miterlimit="10" x1="932.842" y1="634.372" x2="932.842" y2="518.394"/>
			
				<line fill="none" stroke="#49B4DA" stroke-width="5" stroke-linecap="round" stroke-miterlimit="10" x1="940.548" y1="634.327" x2="940.548" y2="407.239"/>
			
				<line fill="none" stroke="#0E1968" stroke-width="5" stroke-linecap="round" stroke-miterlimit="10" x1="987.712" y1="634.372" x2="987.712" y2="570.569"/>
			
				<line fill="none" stroke="#49B4DA" stroke-width="5" stroke-linecap="round" stroke-miterlimit="10" x1="995.416" y1="634.327" x2="995.416" y2="513.89"/>
			
				<line fill="none" stroke="#0E1968" stroke-width="5" stroke-linecap="round" stroke-miterlimit="10" x1="1043.158" y1="634.372" x2="1043.158" y2="570.569"/>
			
				<line fill="none" stroke="#49B4DA" stroke-width="5" stroke-linecap="round" stroke-miterlimit="10" x1="1050.863" y1="634.327" x2="1050.863" y2="513.89"/>
			
				<line fill="none" stroke="#0E1968" stroke-width="5" stroke-linecap="round" stroke-miterlimit="10" x1="1098.604" y1="634.372" x2="1098.604" y2="519.588"/>
			
				<line fill="none" stroke="#49B4DA" stroke-width="5" stroke-linecap="round" stroke-miterlimit="10" x1="1106.309" y1="634.327" x2="1106.309" y2="407.155"/>
			
				<line fill="none" stroke="#0E1968" stroke-width="5" stroke-linecap="round" stroke-miterlimit="10" x1="1154.052" y1="634.372" x2="1154.052" y2="519.588"/>
			
				<line fill="none" stroke="#49B4DA" stroke-width="5" stroke-linecap="round" stroke-miterlimit="10" x1="1161.757" y1="634.327" x2="1161.757" y2="407.155"/>
			
				<line fill="none" stroke="#0E1968" stroke-width="5" stroke-linecap="round" stroke-miterlimit="10" x1="1209.497" y1="634.372" x2="1209.497" y2="573.572"/>
			
				<line fill="none" stroke="#49B4DA" stroke-width="5" stroke-linecap="round" stroke-miterlimit="10" x1="1217.204" y1="634.327" x2="1217.204" y2="516.893"/>
			
				<line fill="none" stroke="#0E1968" stroke-width="5" stroke-linecap="round" stroke-miterlimit="10" x1="1264.944" y1="634.372" x2="1264.944" y2="573.572"/>
			
				<line fill="none" stroke="#49B4DA" stroke-width="5" stroke-linecap="round" stroke-miterlimit="10" x1="1272.651" y1="634.327" x2="1272.651" y2="516.893"/>
			
				<line fill="none" stroke="#0E1968" stroke-width="5" stroke-linecap="round" stroke-miterlimit="10" x1="1320.59" y1="634.372" x2="1320.59" y2="574.149"/>
			
				<line fill="none" stroke="#49B4DA" stroke-width="5" stroke-linecap="round" stroke-miterlimit="10" x1="1328.296" y1="634.327" x2="1328.296" y2="517.47"/>
			
				<line fill="none" stroke="#0E1968" stroke-width="5" stroke-linecap="round" stroke-miterlimit="10" x1="655.609" y1="634.372" x2="655.609" y2="517.393"/>
			
				<line fill="none" stroke="#49B4DA" stroke-width="5" stroke-linecap="round" stroke-miterlimit="10" x1="663.315" y1="634.327" x2="663.315" y2="407.155"/>
			
				<line fill="none" stroke="#0E1968" stroke-width="5" stroke-linecap="round" stroke-miterlimit="10" x1="711.056" y1="634.372" x2="711.056" y2="461.638"/>
			
				<line fill="none" stroke="#49B4DA" stroke-width="5" stroke-linecap="round" stroke-miterlimit="10" x1="718.76" y1="634.327" x2="718.76" y2="406.961"/>
			
				<line fill="none" stroke="#0E1968" stroke-width="5" stroke-linecap="round" stroke-miterlimit="10" x1="766.503" y1="634.372" x2="766.503" y2="461.638"/>
			
				<line fill="none" stroke="#49B4DA" stroke-width="5" stroke-linecap="round" stroke-miterlimit="10" x1="774.208" y1="634.327" x2="774.208" y2="406.961"/>
			
				<line fill="none" stroke="#0E1968" stroke-width="5" stroke-linecap="round" stroke-miterlimit="10" x1="821.949" y1="634.372" x2="821.949" y2="518.394"/>
			
				<line fill="none" stroke="#49B4DA" stroke-width="5" stroke-linecap="round" stroke-miterlimit="10" x1="829.654" y1="634.327" x2="829.654" y2="407.155"/>
			
				<line fill="none" stroke="#0E1968" stroke-width="5" stroke-linecap="round" stroke-miterlimit="10" x1="877.396" y1="634.372" x2="877.396" y2="518.394"/>
			
				<line fill="none" stroke="#49B4DA" stroke-width="5" stroke-linecap="round" stroke-miterlimit="10" x1="885.101" y1="634.327" x2="885.101" y2="407.155"/>
			
				<line fill="none" stroke="#0E1968" stroke-width="5" stroke-linecap="round" stroke-miterlimit="10" x1="600.164" y1="634.372" x2="600.164" y2="517.393"/>
			
				<line fill="none" stroke="#49B4DA" stroke-width="5" stroke-linecap="round" stroke-miterlimit="10" x1="607.868" y1="634.327" x2="607.868" y2="407.155"/>
			<rect x="577.912" y="630.861" fill="#FFFFFF" width="759.74" height="50.232"/>
			
				<line fill="none" stroke="#ADADAD" stroke-width="0.7212" stroke-miterlimit="10" stroke-dasharray="2.8848,4.3272" x1="600.164" y1="631.054" x2="1333.638" y2="631.054"/>
		</g>
		<g>
			<g>
				<path fill="#676767" d="M659.844,647.132v8.641H658v-7.188h-3.875v7.188h-1.836v-8.641H659.844z"/>
				<path fill="#676767" d="M668.961,647.132v1.438h-2.813v7.203h-1.844v-7.203h-2.813v-1.438H668.961z"/>
			</g>
		</g>
		<g>
			<g>
				<path fill="#FF4C29" d="M710.133,655.929c-1.307,0-2.301-0.382-2.98-1.145s-1.02-1.858-1.02-3.285
					c0-1.453,0.355-2.57,1.066-3.352s1.738-1.172,3.082-1.172c0.912,0,1.732,0.169,2.461,0.508l-0.555,1.477
					c-0.776-0.302-1.417-0.453-1.922-0.453c-1.495,0-2.242,0.992-2.242,2.977c0,0.969,0.186,1.696,0.559,2.184
					s0.918,0.73,1.637,0.73c0.818,0,1.591-0.203,2.32-0.609v1.602c-0.328,0.192-0.678,0.331-1.051,0.414
					S710.664,655.929,710.133,655.929z"/>
				<path fill="#FF4C29" d="M714.07,650.585c0-1.927,0.327-3.409,0.98-4.445s1.694-1.703,3.121-2
					c1.078-0.219,2.32-0.433,3.727-0.641l0.258,1.617c-1.708,0.261-2.958,0.464-3.75,0.609c-0.818,0.151-1.408,0.487-1.77,1.008
					s-0.572,1.305-0.629,2.352h0.117c0.297-0.433,0.685-0.767,1.164-1.004s0.992-0.355,1.539-0.355c1.063,0,1.891,0.336,2.484,1.008
					s0.891,1.614,0.891,2.828c0,1.391-0.361,2.466-1.082,3.227s-1.72,1.141-2.996,1.141c-1.266,0-2.258-0.469-2.977-1.406
					S714.07,652.273,714.07,650.585z M718.25,654.429c1.365,0,2.047-0.896,2.047-2.688c0-1.729-0.617-2.594-1.852-2.594
					c-0.338,0-0.667,0.073-0.984,0.219s-0.611,0.339-0.879,0.578s-0.475,0.487-0.621,0.742c0,1.229,0.195,2.16,0.586,2.793
					S717.505,654.429,718.25,654.429z"/>
			</g>
		</g>
		<g>
			<g>
				<path fill="#676767" d="M597.721,647.132v3.156c0,0.886,0.458,1.328,1.375,1.328c0.442,0,0.875-0.062,1.297-0.184
					s0.875-0.319,1.359-0.59v-3.711h1.836v8.641h-1.836v-3.664c-0.505,0.313-0.994,0.543-1.465,0.691
					c-0.472,0.148-0.986,0.223-1.543,0.223c-0.901,0-1.604-0.233-2.109-0.699c-0.505-0.466-0.758-1.118-0.758-1.957v-3.234H597.721z
					"/>
				<path fill="#676767" d="M612.705,647.132v1.438h-2.813v7.203h-1.844v-7.203h-2.813v-1.438H612.705z"/>
			</g>
		</g>
		<g>
			<g>
				<path fill="#FF4C29" d="M763.304,647.132v3.469h4.07v-3.469h1.836v8.641h-1.836v-3.727h-4.07v3.727h-1.836v-8.641H763.304z"/>
				<path fill="#FF4C29" d="M780.124,658.827h-1.711v-3.055h-5.922v3.055h-1.695v-4.477h0.703c0.614-0.88,1.103-1.944,1.465-3.191
					c0.362-1.247,0.577-2.59,0.645-4.027h5.25v7.219h1.266V658.827z M777.054,654.351v-5.813h-1.859
					c-0.099,1.073-0.306,2.13-0.621,3.172c-0.315,1.042-0.699,1.922-1.152,2.641H777.054z"/>
			</g>
		</g>
		<g>
			<g>
				<path fill="#676767" d="M825.819,647.132v8.641h-1.844v-7.188H820.1v7.188h-1.836v-8.641H825.819z"/>
				<path fill="#676767" d="M830.28,647.132v3.469h4.07v-3.469h1.836v8.641h-1.836v-3.727h-4.07v3.727h-1.836v-8.641H830.28z"/>
			</g>
		</g>
		<g>
			<g>
				<path fill="#676767" d="M882.027,649.343c0,1.021-0.597,1.638-1.789,1.852v0.063c0.667,0.078,1.177,0.289,1.531,0.633
					c0.354,0.344,0.531,0.789,0.531,1.336c0,0.817-0.312,1.446-0.934,1.887c-0.623,0.44-1.527,0.66-2.715,0.66h-4.125v-8.641h4.109
					C880.896,647.132,882.027,647.869,882.027,649.343z M880.191,649.499c0-0.344-0.134-0.593-0.402-0.746
					c-0.269-0.153-0.668-0.23-1.199-0.23h-2.227v2.078h1.953c0.614,0,1.081-0.079,1.398-0.238
					C880.031,650.203,880.191,649.916,880.191,649.499z M880.417,653.116c0-0.417-0.162-0.712-0.484-0.887
					c-0.323-0.175-0.808-0.262-1.453-0.262h-2.117v2.445h2.164C879.787,654.413,880.417,653.981,880.417,653.116z"/>
				<path fill="#676767" d="M890.683,647.132v1.438h-2.813v7.203h-1.844v-7.203h-2.813v-1.438H890.683z"/>
			</g>
		</g>
		<g>
			<g>
				<path fill="#676767" d="M932.485,655.929c-1.308,0-2.301-0.382-2.98-1.145s-1.02-1.858-1.02-3.285
					c0-1.453,0.355-2.57,1.066-3.352s1.738-1.172,3.082-1.172c0.911,0,1.731,0.169,2.461,0.508l-0.555,1.477
					c-0.776-0.302-1.417-0.453-1.922-0.453c-1.495,0-2.242,0.992-2.242,2.977c0,0.969,0.186,1.696,0.559,2.184
					c0.372,0.487,0.918,0.73,1.637,0.73c0.817,0,1.591-0.203,2.32-0.609v1.602c-0.328,0.192-0.679,0.331-1.051,0.414
					C933.468,655.887,933.016,655.929,932.485,655.929z"/>
				<path fill="#676767" d="M941.305,655.929c-1.094,0-1.943-0.394-2.547-1.18h-0.109c0.073,0.729,0.109,1.172,0.109,1.328v3.539
					h-1.836v-12.484h1.484c0.042,0.161,0.127,0.547,0.258,1.156h0.094c0.573-0.875,1.432-1.313,2.578-1.313
					c1.078,0,1.918,0.391,2.52,1.172s0.902,1.878,0.902,3.289s-0.306,2.513-0.918,3.305
					C943.228,655.533,942.383,655.929,941.305,655.929z M940.86,648.476c-0.729,0-1.262,0.214-1.598,0.641s-0.504,1.109-0.504,2.047
					v0.273c0,1.052,0.167,1.813,0.5,2.285c0.333,0.472,0.877,0.707,1.633,0.707c0.635,0,1.125-0.261,1.469-0.781
					s0.516-1.263,0.516-2.227c0-0.969-0.171-1.702-0.512-2.199C942.022,648.725,941.521,648.476,940.86,648.476z"/>
			</g>
		</g>
		<g>
			<g>
				<path fill="#676767" d="M1046.844,647.132v8.641H1045v-7.188h-3.875v7.188h-1.836v-8.641H1046.844z"/>
				<path fill="#676767" d="M1055.961,647.132v1.438h-2.813v7.203h-1.844v-7.203h-2.813v-1.438H1055.961z"/>
			</g>
		</g>
		<g>
			<g>
				<path fill="#FF4C29" d="M1097.133,655.929c-1.307,0-2.301-0.382-2.98-1.145s-1.02-1.858-1.02-3.285
					c0-1.453,0.355-2.57,1.066-3.352s1.738-1.172,3.082-1.172c0.912,0,1.732,0.169,2.461,0.508l-0.555,1.477
					c-0.775-0.302-1.416-0.453-1.922-0.453c-1.494,0-2.242,0.992-2.242,2.977c0,0.969,0.186,1.696,0.559,2.184
					s0.918,0.73,1.637,0.73c0.818,0,1.592-0.203,2.32-0.609v1.602c-0.328,0.192-0.678,0.331-1.051,0.414
					S1097.664,655.929,1097.133,655.929z"/>
				<path fill="#FF4C29" d="M1101.07,650.585c0-1.927,0.326-3.409,0.98-4.445s1.693-1.703,3.121-2
					c1.078-0.219,2.32-0.433,3.727-0.641l0.258,1.617c-1.709,0.261-2.959,0.464-3.75,0.609c-0.818,0.151-1.408,0.487-1.77,1.008
					s-0.572,1.305-0.629,2.352h0.117c0.297-0.433,0.686-0.767,1.164-1.004s0.992-0.355,1.539-0.355c1.063,0,1.891,0.336,2.484,1.008
					s0.891,1.614,0.891,2.828c0,1.391-0.361,2.466-1.082,3.227s-1.721,1.141-2.996,1.141c-1.266,0-2.258-0.469-2.977-1.406
					S1101.07,652.273,1101.07,650.585z M1105.25,654.429c1.365,0,2.047-0.896,2.047-2.688c0-1.729-0.617-2.594-1.852-2.594
					c-0.338,0-0.666,0.073-0.984,0.219s-0.611,0.339-0.879,0.578s-0.475,0.487-0.621,0.742c0,1.229,0.195,2.16,0.586,2.793
					S1104.506,654.429,1105.25,654.429z"/>
			</g>
		</g>
		<g>
			<g>
				<path fill="#676767" d="M984.72,647.132v3.156c0,0.886,0.459,1.328,1.375,1.328c0.443,0,0.875-0.062,1.297-0.184
					s0.875-0.319,1.359-0.59v-3.711h1.836v8.641h-1.836v-3.664c-0.505,0.313-0.993,0.543-1.465,0.691
					c-0.471,0.148-0.985,0.223-1.543,0.223c-0.9,0-1.604-0.233-2.109-0.699c-0.505-0.466-0.758-1.118-0.758-1.957v-3.234H984.72z"/>
				<path fill="#676767" d="M999.705,647.132v1.438h-2.813v7.203h-1.844v-7.203h-2.813v-1.438H999.705z"/>
			</g>
		</g>
		<g>
			<g>
				<path fill="#FF4C29" d="M1150.304,647.132v3.469h4.07v-3.469h1.836v8.641h-1.836v-3.727h-4.07v3.727h-1.836v-8.641H1150.304z"/>
				<path fill="#FF4C29" d="M1167.125,658.827h-1.711v-3.055h-5.922v3.055h-1.695v-4.477h0.703c0.613-0.88,1.102-1.944,1.465-3.191
					c0.361-1.247,0.576-2.59,0.645-4.027h5.25v7.219h1.266V658.827z M1164.054,654.351v-5.813h-1.859
					c-0.1,1.073-0.307,2.13-0.621,3.172c-0.316,1.042-0.699,1.922-1.152,2.641H1164.054z"/>
			</g>
		</g>
		<g>
			<g>
				<path fill="#676767" d="M1212.818,647.132v8.641h-1.844v-7.188h-3.875v7.188h-1.836v-8.641H1212.818z"/>
				<path fill="#676767" d="M1217.279,647.132v3.469h4.07v-3.469h1.836v8.641h-1.836v-3.727h-4.07v3.727h-1.836v-8.641H1217.279z"/>
			</g>
		</g>
		<g>
			<g>
				<path fill="#676767" d="M1269.027,649.343c0,1.021-0.598,1.638-1.789,1.852v0.063c0.666,0.078,1.176,0.289,1.531,0.633
					c0.354,0.344,0.531,0.789,0.531,1.336c0,0.817-0.313,1.446-0.934,1.887c-0.623,0.44-1.527,0.66-2.715,0.66h-4.125v-8.641h4.109
					C1267.896,647.132,1269.027,647.869,1269.027,649.343z M1267.191,649.499c0-0.344-0.135-0.593-0.402-0.746
					c-0.27-0.153-0.668-0.23-1.199-0.23h-2.227v2.078h1.953c0.613,0,1.08-0.079,1.398-0.238
					C1267.031,650.203,1267.191,649.916,1267.191,649.499z M1267.418,653.116c0-0.417-0.162-0.712-0.484-0.887
					c-0.324-0.175-0.809-0.262-1.453-0.262h-2.117v2.445h2.164C1266.787,654.413,1267.418,653.981,1267.418,653.116z"/>
				<path fill="#676767" d="M1277.683,647.132v1.438h-2.813v7.203h-1.844v-7.203h-2.813v-1.438H1277.683z"/>
			</g>
		</g>
		<g>
			<g>
				<path fill="#676767" d="M1319.484,655.929c-1.307,0-2.301-0.382-2.98-1.145s-1.02-1.858-1.02-3.285
					c0-1.453,0.355-2.57,1.066-3.352s1.738-1.172,3.082-1.172c0.912,0,1.732,0.169,2.461,0.508l-0.555,1.477
					c-0.775-0.302-1.416-0.453-1.922-0.453c-1.494,0-2.242,0.992-2.242,2.977c0,0.969,0.186,1.696,0.559,2.184
					s0.918,0.73,1.637,0.73c0.818,0,1.592-0.203,2.32-0.609v1.602c-0.328,0.192-0.678,0.331-1.051,0.414
					S1320.015,655.929,1319.484,655.929z"/>
				<path fill="#676767" d="M1328.304,655.929c-1.094,0-1.943-0.394-2.547-1.18h-0.109c0.072,0.729,0.109,1.172,0.109,1.328v3.539
					h-1.836v-12.484h1.484c0.041,0.161,0.127,0.547,0.258,1.156h0.094c0.572-0.875,1.432-1.313,2.578-1.313
					c1.078,0,1.918,0.391,2.52,1.172s0.902,1.878,0.902,3.289s-0.307,2.513-0.918,3.305S1329.383,655.929,1328.304,655.929z
					 M1327.859,648.476c-0.729,0-1.262,0.214-1.598,0.641s-0.504,1.109-0.504,2.047v0.273c0,1.052,0.166,1.813,0.5,2.285
					s0.877,0.707,1.633,0.707c0.635,0,1.125-0.261,1.469-0.781s0.516-1.263,0.516-2.227c0-0.969-0.17-1.702-0.512-2.199
					S1328.521,648.476,1327.859,648.476z"/>
			</g>
		</g>
		<g>
			<g>
				<g>
					<path fill="none" stroke="#FFD600" stroke-width="1.1587" stroke-miterlimit="10" d="M958.035,383.289v236.736v5.188v12.146
						c0,8.709,7.045,15.755,15.754,15.755"/>
					
						<polygon fill="#FFD600" stroke="#FFD600" stroke-width="1.1587" stroke-linecap="round" stroke-linejoin="round" stroke-miterlimit="10" points="
						1161.757,339.41 958.035,339.41 958.035,369.76 958.035,382.299 958.035,389.064 966.241,382.299 1161.757,382.299 					"/>
					<g>
						<g>
							<g>
								<path d="M976.552,350.01c0,1.024-0.543,1.654-1.628,1.891v0.032c1.188,0.254,1.783,0.892,1.783,1.912
									c0,0.72-0.253,1.281-0.76,1.684c-0.507,0.402-1.222,0.604-2.146,0.604c-0.867,0-1.596-0.154-2.187-0.462v-0.559
									c0.341,0.165,0.704,0.292,1.091,0.381s0.752,0.134,1.096,0.134c0.716,0,1.28-0.155,1.694-0.464
									c0.413-0.31,0.62-0.744,0.62-1.303c0-0.544-0.201-0.956-0.604-1.235c-0.402-0.279-1.005-0.419-1.808-0.419h-1.165v-0.516
									h1.208c0.76,0,1.32-0.143,1.682-0.43s0.543-0.693,0.543-1.219c0-0.448-0.166-0.806-0.497-1.074s-0.764-0.403-1.298-0.403
									c-0.396,0-0.762,0.057-1.096,0.169c-0.332,0.113-0.692,0.307-1.079,0.583l-0.312-0.43c0.723-0.551,1.553-0.827,2.486-0.827
									c0.734,0,1.313,0.175,1.738,0.526C976.34,348.938,976.552,349.412,976.552,350.01z"/>
								<path d="M982.618,356.026l-0.134-0.924h-0.043c-0.294,0.376-0.596,0.642-0.905,0.797c-0.31,0.156-0.677,0.234-1.099,0.234
									c-0.572,0-1.019-0.147-1.338-0.44c-0.318-0.293-0.478-0.7-0.478-1.219c0-0.569,0.237-1.012,0.712-1.327s1.16-0.481,2.06-0.5
									l1.112-0.032v-0.387c0-0.555-0.113-0.974-0.339-1.257s-0.589-0.424-1.091-0.424c-0.54,0-1.101,0.15-1.681,0.451
									l-0.198-0.462c0.641-0.301,1.274-0.451,1.9-0.451c0.642,0,1.12,0.167,1.438,0.5c0.316,0.333,0.475,0.852,0.475,1.558v3.883
									H982.618z M980.469,355.65c0.623,0,1.114-0.178,1.475-0.535c0.359-0.356,0.54-0.851,0.54-1.485v-0.575l-1.021,0.043
									c-0.819,0.04-1.404,0.167-1.753,0.384c-0.35,0.217-0.524,0.554-0.524,1.013c0,0.365,0.112,0.649,0.336,0.852
									C979.746,355.549,980.061,355.65,980.469,355.65z"/>
								<path d="M988.84,350.188h0.66l-2.615,2.825l2.804,3.013h-0.714l-2.762-2.959v2.959h-0.542v-5.838h0.542v2.836
									L988.84,350.188z"/>
								<path d="M991.414,348.566c0-0.344,0.113-0.516,0.339-0.516c0.11,0,0.198,0.045,0.261,0.134s0.094,0.217,0.094,0.381
									c0,0.161-0.031,0.288-0.094,0.381s-0.15,0.14-0.261,0.14C991.527,349.087,991.414,348.913,991.414,348.566z
									 M992.021,356.026h-0.531v-5.838h0.531V356.026z"/>
								<path d="M995.278,350.188v2.562h3.706v-2.562h0.526v5.838h-0.526v-2.814h-3.706v2.814h-0.532v-5.838H995.278z"/>
								<path d="M1002.666,350.188v1.955c0,0.494,0.119,0.851,0.359,1.069s0.609,0.328,1.106,0.328c0.351,0,0.686-0.063,1.005-0.188
									c0.318-0.125,0.649-0.326,0.993-0.602v-2.562h0.532v5.838h-0.532v-2.771c-0.358,0.276-0.71,0.473-1.056,0.591
									s-0.719,0.177-1.119,0.177c-0.599,0-1.051-0.156-1.356-0.467c-0.307-0.312-0.46-0.761-0.46-1.348v-2.02H1002.666z"/>
								<path d="M1011.744,356.134c-0.848,0-1.51-0.261-1.984-0.784s-0.711-1.255-0.711-2.197c0-0.931,0.229-1.677,0.688-2.237
									c0.458-0.56,1.076-0.84,1.853-0.84c0.688,0,1.229,0.24,1.628,0.72c0.396,0.48,0.596,1.131,0.596,1.955v0.43h-4.205
									c0.007,0.802,0.193,1.415,0.561,1.837s0.893,0.634,1.576,0.634c0.334,0,0.626-0.023,0.879-0.07
									c0.252-0.046,0.572-0.147,0.959-0.301v0.483c-0.33,0.143-0.635,0.241-0.914,0.293
									C1012.388,356.108,1012.081,356.134,1011.744,356.134z M1011.589,350.548c-0.562,0-1.013,0.185-1.354,0.556
									c-0.341,0.37-0.539,0.905-0.597,1.603h3.609c0-0.677-0.146-1.206-0.439-1.587
									C1012.514,350.739,1012.107,350.548,1011.589,350.548z"/>
								<path d="M1016.725,350.188v2.562h3.706v-2.562h0.526v5.838h-0.526v-2.814h-3.706v2.814h-0.532v-5.838H1016.725z"/>
								<path d="M1024.215,350.188v2.562h3.706v-2.562h0.526v5.838h-0.526v-2.814h-3.706v2.814h-0.531v-5.838H1024.215z"/>
								<path d="M1031.086,356.026h-0.671l1.762-2.519c-0.537-0.1-0.925-0.287-1.163-0.559s-0.357-0.621-0.357-1.047
									c0-0.53,0.179-0.948,0.535-1.254c0.355-0.306,0.835-0.459,1.437-0.459h2.406v5.838h-0.526v-2.455h-1.783L1031.086,356.026z
									 M1031.215,351.88c0,0.401,0.131,0.699,0.39,0.894c0.26,0.195,0.651,0.293,1.174,0.293h1.729v-2.374h-1.891
									c-0.443,0-0.789,0.101-1.034,0.304C1031.338,351.198,1031.215,351.493,1031.215,351.88z"/>
								<path d="M1041.918,356.026h-0.531v-5.838h4.656v5.838h-0.531v-5.333h-3.594V356.026z"/>
								<path d="M1051.265,356.134c-0.898,0-1.554-0.336-1.965-1.01h-0.038l0.017,0.451c0.014,0.265,0.021,0.555,0.021,0.87v2.224
									h-0.532v-8.481h0.451l0.103,0.833h0.031c0.401-0.63,1.043-0.945,1.924-0.945c0.787,0,1.388,0.259,1.802,0.776
									c0.413,0.518,0.62,1.271,0.62,2.259c0,0.959-0.218,1.704-0.652,2.231C1052.611,355.869,1052.017,356.134,1051.265,356.134z
									 M1051.256,355.661c0.598,0,1.061-0.222,1.388-0.666c0.328-0.444,0.491-1.065,0.491-1.864c0-1.715-0.619-2.573-1.857-2.573
									c-0.681,0-1.18,0.187-1.499,0.561c-0.319,0.375-0.478,0.984-0.478,1.829v0.172c0,0.913,0.152,1.565,0.459,1.955
									C1050.065,355.466,1050.564,355.661,1051.256,355.661z"/>
								<path d="M1058.443,356.134c-0.849,0-1.51-0.261-1.984-0.784s-0.712-1.255-0.712-2.197c0-0.931,0.229-1.677,0.688-2.237
									c0.458-0.56,1.076-0.84,1.853-0.84c0.688,0,1.23,0.24,1.628,0.72s0.597,1.131,0.597,1.955v0.43h-4.206
									c0.007,0.802,0.194,1.415,0.562,1.837s0.893,0.634,1.576,0.634c0.333,0,0.626-0.023,0.878-0.07
									c0.253-0.046,0.572-0.147,0.959-0.301v0.483c-0.329,0.143-0.634,0.241-0.913,0.293
									C1059.088,356.108,1058.779,356.134,1058.443,356.134z M1058.287,350.548c-0.562,0-1.013,0.185-1.354,0.556
									c-0.34,0.37-0.539,0.905-0.596,1.603h3.609c0-0.677-0.146-1.206-0.44-1.587
									C1059.213,350.739,1058.806,350.548,1058.287,350.548z"/>
								<path d="M1065.61,355.457l0.333-0.94l1.682-4.329h0.735v5.838h-0.505v-5.194c-0.078,0.226-0.162,0.457-0.25,0.693
									s-0.672,1.737-1.754,4.501h-0.473l-1.616-4.104c-0.067-0.165-0.132-0.338-0.19-0.521c-0.06-0.183-0.125-0.379-0.196-0.591
									v5.215h-0.483v-5.838h0.703l1.688,4.297C1065.415,354.832,1065.524,355.156,1065.61,355.457z"/>
								<path d="M1071.482,348.174l0.064,0.107c-0.268,0.949-0.58,1.81-0.934,2.583h-0.35c0.104-0.344,0.213-0.776,0.328-1.297
									c0.114-0.521,0.201-0.986,0.263-1.394H1071.482z"/>
								<path d="M1075.841,356.134c-0.849,0-1.516-0.268-2.001-0.803c-0.484-0.535-0.728-1.265-0.728-2.188
									c0-0.949,0.251-1.697,0.755-2.245c0.503-0.548,1.186-0.822,2.049-0.822c0.223,0,0.477,0.023,0.766,0.07
									c0.288,0.046,0.536,0.111,0.744,0.193l-0.156,0.473c-0.211-0.075-0.448-0.136-0.712-0.183
									c-0.263-0.046-0.48-0.07-0.652-0.07c-0.663,0-1.184,0.188-1.563,0.564c-0.379,0.376-0.6,0.904-0.66,1.584h3.357v0.473
									h-3.379c0.008,0.777,0.206,1.383,0.596,1.818c0.391,0.436,0.916,0.653,1.574,0.653c0.563,0,1.07-0.095,1.525-0.285v0.494
									c-0.164,0.083-0.381,0.148-0.65,0.199C1076.437,356.109,1076.148,356.134,1075.841,356.134z"/>
								<path d="M1082.052,356.134c-0.899,0-1.554-0.336-1.966-1.01h-0.037l0.016,0.451c0.014,0.265,0.021,0.555,0.021,0.87v2.224
									h-0.531v-8.481h0.451l0.102,0.833h0.032c0.401-0.63,1.042-0.945,1.923-0.945c0.787,0,1.389,0.259,1.802,0.776
									c0.414,0.518,0.62,1.271,0.62,2.259c0,0.959-0.217,1.704-0.652,2.231C1083.397,355.869,1082.803,356.134,1082.052,356.134z
									 M1082.041,355.661c0.598,0,1.061-0.222,1.389-0.666c0.327-0.444,0.491-1.065,0.491-1.864c0-1.715-0.62-2.573-1.858-2.573
									c-0.68,0-1.18,0.187-1.498,0.561c-0.319,0.375-0.479,0.984-0.479,1.829v0.172c0,0.913,0.153,1.565,0.459,1.955
									C1080.851,355.466,1081.349,355.661,1082.041,355.661z"/>
								<path d="M1087.403,350.188v2.562h3.706v-2.562h0.526v5.838h-0.526v-2.814h-3.706v2.814h-0.532v-5.838H1087.403z"/>
								<path d="M1099.189,353.099c0,0.953-0.23,1.696-0.693,2.231c-0.461,0.536-1.099,0.803-1.912,0.803
									c-0.512,0-0.963-0.124-1.354-0.371c-0.39-0.247-0.689-0.602-0.896-1.063s-0.312-0.996-0.312-1.601
									c0-0.953,0.231-1.694,0.692-2.227c0.463-0.531,1.096-0.797,1.902-0.797c0.802,0,1.431,0.27,1.888,0.808
									C1098.961,351.422,1099.189,352.161,1099.189,353.099z M1094.581,353.099c0,0.802,0.177,1.428,0.529,1.877
									c0.353,0.45,0.851,0.674,1.495,0.674s1.144-0.225,1.496-0.674c0.354-0.449,0.529-1.075,0.529-1.877
									c0-0.806-0.178-1.431-0.534-1.875s-0.856-0.666-1.501-0.666s-1.142,0.221-1.491,0.664
									C1094.756,351.664,1094.581,352.29,1094.581,353.099z"/>
								<path d="M1105.008,350.65h-2.9v5.376h-0.531v-5.838h3.432V350.65z"/>
								<path d="M1111.804,353.099c0,0.953-0.23,1.696-0.693,2.231c-0.461,0.536-1.099,0.803-1.912,0.803
									c-0.512,0-0.963-0.124-1.354-0.371c-0.39-0.247-0.689-0.602-0.896-1.063s-0.312-0.996-0.312-1.601
									c0-0.953,0.231-1.694,0.692-2.227c0.463-0.531,1.096-0.797,1.902-0.797c0.802,0,1.431,0.27,1.888,0.808
									C1111.576,351.422,1111.804,352.161,1111.804,353.099z M1107.196,353.099c0,0.802,0.177,1.428,0.529,1.877
									c0.353,0.45,0.851,0.674,1.495,0.674s1.144-0.225,1.496-0.674c0.354-0.449,0.529-1.075,0.529-1.877
									c0-0.806-0.178-1.431-0.534-1.875s-0.856-0.666-1.501-0.666s-1.142,0.221-1.491,0.664
									C1107.371,351.664,1107.196,352.29,1107.196,353.099z"/>
								<path d="M972.685,371.026h-0.532v-5.838h4.657v5.838h-0.532v-5.333h-3.593V371.026z"/>
								<path d="M981.892,371.134c-0.848,0-1.51-0.261-1.984-0.784s-0.711-1.255-0.711-2.197c0-0.931,0.229-1.677,0.688-2.237
									c0.458-0.56,1.076-0.84,1.853-0.84c0.688,0,1.229,0.24,1.628,0.72c0.396,0.48,0.596,1.131,0.596,1.955v0.43h-4.205
									c0.007,0.802,0.193,1.415,0.561,1.837s0.893,0.634,1.576,0.634c0.334,0,0.626-0.023,0.879-0.07
									c0.252-0.046,0.572-0.147,0.959-0.301v0.483c-0.33,0.143-0.635,0.241-0.914,0.293
									C982.537,371.108,982.229,371.134,981.892,371.134z M981.737,365.548c-0.562,0-1.013,0.185-1.354,0.556
									c-0.341,0.37-0.539,0.905-0.597,1.603h3.609c0-0.677-0.146-1.206-0.439-1.587
									C982.663,365.739,982.256,365.548,981.737,365.548z"/>
								<path d="M988.84,371.134c-0.898,0-1.555-0.336-1.966-1.01h-0.038l0.017,0.451c0.015,0.265,0.021,0.555,0.021,0.87v2.224
									h-0.532v-8.481h0.451l0.103,0.833h0.032c0.4-0.63,1.042-0.945,1.923-0.945c0.788,0,1.389,0.259,1.802,0.776
									c0.414,0.518,0.621,1.271,0.621,2.259c0,0.959-0.218,1.704-0.653,2.231C990.185,370.869,989.592,371.134,988.84,371.134z
									 M988.829,370.661c0.599,0,1.061-0.222,1.389-0.666c0.327-0.444,0.491-1.065,0.491-1.864c0-1.715-0.619-2.573-1.858-2.573
									c-0.681,0-1.18,0.187-1.499,0.561c-0.318,0.375-0.478,0.984-0.478,1.829v0.172c0,0.913,0.153,1.565,0.459,1.955
									C987.639,370.466,988.138,370.661,988.829,370.661z"/>
								<path d="M993.584,363.566c0-0.344,0.113-0.516,0.339-0.516c0.11,0,0.198,0.045,0.261,0.134s0.094,0.217,0.094,0.381
									c0,0.161-0.031,0.288-0.094,0.381s-0.15,0.14-0.261,0.14C993.697,364.087,993.584,363.913,993.584,363.566z
									 M994.191,371.026h-0.531v-5.838h0.531V371.026z"/>
								<path d="M1001.745,368.099c0,0.953-0.231,1.696-0.692,2.231c-0.463,0.536-1.1,0.803-1.912,0.803
									c-0.513,0-0.964-0.124-1.354-0.371c-0.391-0.247-0.689-0.602-0.897-1.063s-0.312-0.996-0.312-1.601
									c0-0.953,0.23-1.694,0.693-2.227c0.461-0.531,1.096-0.797,1.9-0.797c0.803,0,1.432,0.27,1.889,0.808
									C1001.516,366.422,1001.745,367.161,1001.745,368.099z M997.136,368.099c0,0.802,0.176,1.428,0.529,1.877
									c0.353,0.45,0.852,0.674,1.496,0.674s1.143-0.225,1.495-0.674c0.353-0.449,0.529-1.075,0.529-1.877
									c0-0.806-0.179-1.431-0.534-1.875c-0.356-0.444-0.857-0.666-1.502-0.666s-1.141,0.221-1.49,0.664
									C997.311,366.664,997.136,367.29,997.136,368.099z"/>
								<path d="M1008.896,373.008h-0.527v-1.982h-4.469v1.982h-0.525v-2.487h0.387c0.486-0.684,0.862-1.477,1.127-2.379
									c0.266-0.902,0.405-1.887,0.42-2.954h2.809v5.333h0.779V373.008z M1007.586,370.521v-4.839h-1.816
									c-0.086,1.937-0.555,3.55-1.406,4.839H1007.586z"/>
								<path d="M1009.929,365.188h0.547l1.236,3.276c0.375,1.006,0.613,1.685,0.714,2.036h0.032
									c0.15-0.462,0.396-1.151,0.736-2.068l1.234-3.244h0.549l-2.616,6.784c-0.212,0.551-0.389,0.924-0.532,1.117
									c-0.143,0.193-0.311,0.338-0.502,0.435s-0.424,0.145-0.695,0.145c-0.204,0-0.432-0.038-0.682-0.113v-0.462
									c0.207,0.057,0.432,0.086,0.671,0.086c0.183,0,0.344-0.043,0.483-0.129s0.266-0.219,0.379-0.4
									c0.112-0.181,0.243-0.467,0.392-0.859c0.149-0.392,0.245-0.647,0.288-0.765L1009.929,365.188z"/>
								<path d="M1024.058,365.65h-1.943v5.376h-0.527v-5.376h-1.992v-0.462h4.463V365.65z"/>
								<path d="M1029.572,371.026l-0.135-0.924h-0.043c-0.293,0.376-0.596,0.642-0.905,0.797c-0.31,0.156-0.676,0.234-1.099,0.234
									c-0.572,0-1.018-0.147-1.337-0.44s-0.478-0.7-0.478-1.219c0-0.569,0.236-1.012,0.711-1.327s1.161-0.481,2.061-0.5
									l1.111-0.032v-0.387c0-0.555-0.113-0.974-0.338-1.257c-0.227-0.283-0.59-0.424-1.091-0.424c-0.54,0-1.101,0.15-1.681,0.451
									l-0.199-0.462c0.641-0.301,1.275-0.451,1.901-0.451c0.642,0,1.12,0.167,1.437,0.5c0.317,0.333,0.476,0.852,0.476,1.558
									v3.883H1029.572z M1027.424,370.65c0.623,0,1.114-0.178,1.474-0.535c0.36-0.356,0.54-0.851,0.54-1.485v-0.575l-1.021,0.043
									c-0.819,0.04-1.404,0.167-1.754,0.384c-0.349,0.217-0.523,0.554-0.523,1.013c0,0.365,0.112,0.649,0.336,0.852
									C1026.699,370.549,1027.015,370.65,1027.424,370.65z"/>
								<path d="M1036.783,371.026h-0.531v-5.838h4.656v5.838h-0.531v-5.333h-3.594V371.026z"/>
								<path d="M1048.463,368.099c0,0.953-0.231,1.696-0.693,2.231c-0.462,0.536-1.1,0.803-1.912,0.803
									c-0.512,0-0.963-0.124-1.354-0.371s-0.689-0.602-0.896-1.063c-0.208-0.462-0.313-0.996-0.313-1.601
									c0-0.953,0.231-1.694,0.693-2.227c0.462-0.531,1.096-0.797,1.901-0.797c0.802,0,1.432,0.27,1.888,0.808
									C1048.234,366.422,1048.463,367.161,1048.463,368.099z M1043.853,368.099c0,0.802,0.177,1.428,0.529,1.877
									c0.354,0.45,0.852,0.674,1.496,0.674s1.143-0.225,1.496-0.674c0.353-0.449,0.529-1.075,0.529-1.877
									c0-0.806-0.179-1.431-0.535-1.875c-0.355-0.444-0.856-0.666-1.501-0.666s-1.142,0.221-1.49,0.664
									C1044.028,366.664,1043.853,367.29,1043.853,368.099z"/>
								<path d="M1051.278,365.188v1.955c0,0.494,0.12,0.851,0.36,1.069c0.239,0.218,0.608,0.328,1.105,0.328
									c0.352,0,0.686-0.063,1.005-0.188s0.649-0.326,0.993-0.602v-2.562h0.532v5.838h-0.532v-2.771
									c-0.357,0.276-0.709,0.473-1.055,0.591s-0.719,0.177-1.12,0.177c-0.599,0-1.05-0.156-1.356-0.467
									c-0.306-0.312-0.459-0.761-0.459-1.348v-2.02H1051.278z"/>
								<path d="M1061.545,371.026l-0.135-0.924h-0.043c-0.293,0.376-0.596,0.642-0.905,0.797c-0.31,0.156-0.676,0.234-1.099,0.234
									c-0.572,0-1.018-0.147-1.337-0.44s-0.478-0.7-0.478-1.219c0-0.569,0.236-1.012,0.711-1.327s1.161-0.481,2.061-0.5
									l1.111-0.032v-0.387c0-0.555-0.113-0.974-0.338-1.257c-0.227-0.283-0.59-0.424-1.091-0.424c-0.54,0-1.101,0.15-1.681,0.451
									l-0.199-0.462c0.641-0.301,1.275-0.451,1.901-0.451c0.642,0,1.12,0.167,1.437,0.5c0.317,0.333,0.476,0.852,0.476,1.558
									v3.883H1061.545z M1059.396,370.65c0.623,0,1.114-0.178,1.474-0.535c0.36-0.356,0.54-0.851,0.54-1.485v-0.575l-1.021,0.043
									c-0.819,0.04-1.404,0.167-1.754,0.384c-0.349,0.217-0.523,0.554-0.523,1.013c0,0.365,0.112,0.649,0.336,0.852
									C1058.672,370.549,1058.988,370.65,1059.396,370.65z"/>
								<path d="M1068.302,365.65h-1.943v5.376h-0.527v-5.376h-1.992v-0.462h4.463V365.65z"/>
								<path d="M1075.099,368.099c0,0.953-0.23,1.696-0.693,2.231c-0.461,0.536-1.099,0.803-1.912,0.803
									c-0.512,0-0.963-0.124-1.354-0.371c-0.39-0.247-0.689-0.602-0.896-1.063s-0.312-0.996-0.312-1.601
									c0-0.953,0.231-1.694,0.692-2.227c0.463-0.531,1.096-0.797,1.902-0.797c0.802,0,1.431,0.27,1.888,0.808
									C1074.871,366.422,1075.099,367.161,1075.099,368.099z M1070.491,368.099c0,0.802,0.177,1.428,0.529,1.877
									c0.353,0.45,0.851,0.674,1.495,0.674s1.144-0.225,1.496-0.674c0.354-0.449,0.529-1.075,0.529-1.877
									c0-0.806-0.178-1.431-0.534-1.875s-0.856-0.666-1.501-0.666s-1.142,0.221-1.491,0.664
									C1070.666,366.664,1070.491,367.29,1070.491,368.099z"/>
								<path d="M1080.655,365.188h0.661l-2.616,2.825l2.804,3.013h-0.715l-2.76-2.959v2.959h-0.543v-5.838h0.543v2.836
									L1080.655,365.188z"/>
								<path d="M1091.697,373.008h-0.527v-1.982h-4.469v1.982h-0.525v-2.487h0.387c0.486-0.684,0.862-1.477,1.127-2.379
									c0.266-0.902,0.405-1.887,0.42-2.954h2.809v5.333h0.779V373.008z M1090.386,370.521v-4.839h-1.816
									c-0.086,1.937-0.555,3.55-1.406,4.839H1090.386z"/>
								<path d="M1093.633,363.566c0-0.344,0.112-0.516,0.338-0.516c0.111,0,0.197,0.045,0.261,0.134
									c0.063,0.089,0.094,0.217,0.094,0.381c0,0.161-0.031,0.288-0.094,0.381c-0.063,0.093-0.149,0.14-0.261,0.14
									C1093.745,364.087,1093.633,363.913,1093.633,363.566z M1094.239,371.026h-0.532v-5.838h0.532V371.026z"/>
								<path d="M1095.874,363.566c0-0.165,0.028-0.283,0.083-0.354c0.056-0.072,0.141-0.107,0.256-0.107
									c0.229,0,0.344,0.154,0.344,0.462s-0.115,0.462-0.344,0.462C1095.986,364.028,1095.874,363.874,1095.874,363.566z
									 M1097.496,371.026h-0.531v-5.838h0.531V371.026z M1097.92,363.566c0-0.165,0.028-0.283,0.084-0.354
									c0.055-0.072,0.141-0.107,0.255-0.107c0.229,0,0.344,0.154,0.344,0.462s-0.114,0.462-0.344,0.462
									C1098.033,364.028,1097.92,363.874,1097.92,363.566z"/>
								<path d="M1104.949,367.707c1.057,0,1.585-0.363,1.585-1.09c0-0.347-0.122-0.612-0.365-0.795s-0.591-0.274-1.042-0.274
									c-0.287,0-0.553,0.033-0.801,0.099c-0.246,0.066-0.512,0.162-0.795,0.288l-0.198-0.44c0.623-0.279,1.228-0.419,1.815-0.419
									c0.637,0,1.121,0.132,1.45,0.397s0.494,0.632,0.494,1.101c0,0.677-0.347,1.108-1.042,1.294v0.032
									c0.434,0.107,0.748,0.286,0.945,0.535c0.197,0.249,0.295,0.566,0.295,0.953c0,0.541-0.197,0.967-0.593,1.278
									s-0.944,0.467-1.646,0.467c-0.38,0-0.726-0.037-1.039-0.11c-0.313-0.074-0.572-0.171-0.776-0.293v-0.532
									c0.369,0.175,0.688,0.294,0.956,0.357c0.269,0.063,0.556,0.094,0.859,0.094c0.53,0,0.942-0.112,1.238-0.335
									c0.295-0.224,0.442-0.543,0.442-0.959c0-0.405-0.141-0.704-0.424-0.897s-0.707-0.29-1.273-0.29h-0.811v-0.462H1104.949z"/>
								<path d="M1110.124,365.188v2.562h3.706v-2.562h0.526v5.838h-0.526v-2.814h-3.706v2.814h-0.532v-5.838H1110.124z"/>
								<path d="M1117.586,365.188v4.222l-0.031,1.101l3.464-5.323h0.709v5.838h-0.511v-4.195l0.021-1.128l-3.464,5.323h-0.692
									v-5.838H1117.586z"/>
								<path d="M1126.864,365.188h0.537v2.836l2.509-2.836h0.649l-2.53,2.836l2.729,3.002h-0.682l-2.675-2.959v2.959h-0.537v-2.959
									l-2.675,2.959h-0.682l2.717-2.981l-2.519-2.857h0.649l2.509,2.836V365.188z"/>
								<path d="M1137.367,368.099c0,0.953-0.231,1.696-0.693,2.231c-0.462,0.536-1.1,0.803-1.912,0.803
									c-0.512,0-0.963-0.124-1.354-0.371s-0.689-0.602-0.896-1.063c-0.208-0.462-0.313-0.996-0.313-1.601
									c0-0.953,0.231-1.694,0.693-2.227c0.462-0.531,1.096-0.797,1.901-0.797c0.802,0,1.432,0.27,1.888,0.808
									C1137.138,366.422,1137.367,367.161,1137.367,368.099z M1132.758,368.099c0,0.802,0.177,1.428,0.529,1.877
									c0.354,0.45,0.852,0.674,1.496,0.674s1.143-0.225,1.496-0.674c0.353-0.449,0.529-1.075,0.529-1.877
									c0-0.806-0.179-1.431-0.535-1.875c-0.355-0.444-0.856-0.666-1.501-0.666s-1.142,0.221-1.49,0.664
									C1132.932,366.664,1132.758,367.29,1132.758,368.099z"/>
								<path d="M1142.922,365.188h0.661l-2.616,2.825l2.805,3.013h-0.715l-2.761-2.959v2.959h-0.542v-5.838h0.542v2.836
									L1142.922,365.188z"/>
							</g>
						</g>
					</g>
				</g>
			</g>
			<circle fill="none" stroke="#FFD600" stroke-width="1.1587" stroke-miterlimit="10" cx="991.433" cy="651.103" r="18.037"/>
		</g>
		<g>
			<g>
				<g>
					<path fill="none" stroke="#FFD600" stroke-width="1.1587" stroke-miterlimit="10" d="M570.035,387.791v233.234v5.188v12.146
						c0,8.709,7.045,15.755,15.754,15.755"/>
					
						<polygon fill="#FFD600" stroke="#FFD600" stroke-width="1.1587" stroke-linecap="round" stroke-linejoin="round" stroke-miterlimit="10" points="
						726.028,338.907 570.035,338.907 570.035,371.259 570.035,386.801 570.035,393.566 578.241,386.801 726.028,386.801 					"/>
					<g>
						<g>
							<path d="M589.917,357.526h-0.548v-7.337h-4.533v7.337h-0.548v-7.853h5.629V357.526z"/>
							<path d="M597.605,354.599c0,0.953-0.231,1.696-0.693,2.231c-0.462,0.536-1.099,0.803-1.912,0.803
								c-0.512,0-0.963-0.124-1.354-0.371s-0.689-0.602-0.897-1.063s-0.312-0.996-0.312-1.601c0-0.953,0.231-1.694,0.693-2.227
								c0.462-0.531,1.096-0.797,1.901-0.797c0.802,0,1.432,0.27,1.888,0.808C597.377,352.922,597.605,353.661,597.605,354.599z
								 M592.996,354.599c0,0.802,0.176,1.428,0.529,1.877c0.353,0.45,0.852,0.674,1.496,0.674s1.143-0.225,1.496-0.674
								c0.353-0.449,0.529-1.075,0.529-1.877c0-0.806-0.178-1.431-0.535-1.875c-0.356-0.444-0.856-0.666-1.501-0.666
								s-1.142,0.221-1.49,0.664C593.171,353.164,592.996,353.79,592.996,354.599z"/>
							<path d="M600.421,351.688v1.955c0,0.494,0.12,0.851,0.36,1.069s0.609,0.328,1.106,0.328c0.351,0,0.686-0.063,1.004-0.188
								s0.65-0.326,0.994-0.602v-2.562h0.532v5.838h-0.532v-2.771c-0.358,0.276-0.71,0.473-1.056,0.591
								c-0.345,0.118-0.719,0.177-1.12,0.177c-0.598,0-1.05-0.156-1.356-0.467c-0.307-0.312-0.459-0.761-0.459-1.348v-2.02H600.421z
								"/>
							<path d="M610.687,357.526l-0.134-0.924h-0.043c-0.293,0.376-0.595,0.642-0.905,0.797c-0.31,0.156-0.676,0.234-1.099,0.234
								c-0.573,0-1.019-0.147-1.337-0.44s-0.478-0.7-0.478-1.219c0-0.569,0.237-1.012,0.712-1.327c0.474-0.315,1.161-0.481,2.06-0.5
								l1.112-0.032v-0.387c0-0.555-0.113-0.974-0.338-1.257s-0.589-0.424-1.09-0.424c-0.541,0-1.101,0.15-1.681,0.451l-0.199-0.462
								c0.641-0.301,1.275-0.451,1.901-0.451c0.641,0,1.12,0.167,1.437,0.5c0.316,0.333,0.475,0.852,0.475,1.558v3.883H610.687z
								 M608.539,357.15c0.623,0,1.114-0.178,1.475-0.535c0.359-0.356,0.54-0.851,0.54-1.485v-0.575l-1.021,0.043
								c-0.82,0.04-1.405,0.167-1.753,0.384c-0.35,0.217-0.524,0.554-0.524,1.013c0,0.365,0.112,0.649,0.335,0.852
								C607.815,357.049,608.131,357.15,608.539,357.15z"/>
							<path d="M617.446,352.15h-1.944v5.376h-0.526v-5.376h-1.993v-0.462h4.463V352.15z"/>
							<path d="M624.242,354.599c0,0.953-0.231,1.696-0.693,2.231c-0.462,0.536-1.099,0.803-1.912,0.803
								c-0.512,0-0.963-0.124-1.354-0.371s-0.689-0.602-0.897-1.063s-0.312-0.996-0.312-1.601c0-0.953,0.231-1.694,0.693-2.227
								c0.462-0.531,1.096-0.797,1.901-0.797c0.802,0,1.432,0.27,1.888,0.808C624.014,352.922,624.242,353.661,624.242,354.599z
								 M619.634,354.599c0,0.802,0.176,1.428,0.529,1.877c0.353,0.45,0.852,0.674,1.496,0.674s1.143-0.225,1.496-0.674
								c0.353-0.449,0.529-1.075,0.529-1.877c0-0.806-0.178-1.431-0.535-1.875c-0.356-0.444-0.856-0.666-1.501-0.666
								s-1.142,0.221-1.49,0.664C619.808,353.164,619.634,353.79,619.634,354.599z"/>
							<path d="M629.798,351.688h0.661l-2.616,2.825l2.804,3.013h-0.714l-2.761-2.959v2.959h-0.542v-5.838h0.542v2.836
								L629.798,351.688z"/>
							<path d="M636.607,357.526h-0.532v-5.838h4.657v5.838H640.2v-5.333h-3.593V357.526z"/>
							<path d="M645.955,357.634c-0.899,0-1.554-0.336-1.966-1.01h-0.038l0.016,0.451c0.014,0.265,0.021,0.555,0.021,0.87v2.224
								h-0.532v-8.481h0.451l0.102,0.833h0.032c0.401-0.63,1.042-0.945,1.923-0.945c0.788,0,1.389,0.259,1.802,0.776
								c0.414,0.518,0.621,1.271,0.621,2.259c0,0.959-0.217,1.704-0.653,2.231C647.301,357.369,646.707,357.634,645.955,357.634z
								 M645.944,357.161c0.598,0,1.061-0.222,1.389-0.666c0.327-0.444,0.491-1.065,0.491-1.864c0-1.715-0.62-2.573-1.858-2.573
								c-0.68,0-1.18,0.187-1.499,0.561c-0.319,0.375-0.478,0.984-0.478,1.829v0.172c0,0.913,0.153,1.565,0.459,1.955
								C644.755,356.966,645.253,357.161,645.944,357.161z"/>
							<path d="M653.133,357.634c-0.849,0-1.51-0.261-1.984-0.784c-0.475-0.523-0.712-1.255-0.712-2.197
								c0-0.931,0.229-1.677,0.688-2.237c0.458-0.56,1.076-0.84,1.853-0.84c0.688,0,1.23,0.24,1.627,0.72s0.596,1.131,0.596,1.955
								v0.43h-4.206c0.007,0.802,0.194,1.415,0.562,1.837c0.367,0.422,0.892,0.634,1.576,0.634c0.333,0,0.626-0.023,0.878-0.07
								c0.253-0.046,0.572-0.147,0.959-0.301v0.483c-0.33,0.143-0.634,0.241-0.913,0.293
								C653.777,357.608,653.469,357.634,653.133,357.634z M652.977,352.048c-0.562,0-1.013,0.185-1.354,0.556
								c-0.34,0.37-0.539,0.905-0.596,1.603h3.609c0-0.677-0.147-1.206-0.44-1.587C653.903,352.239,653.496,352.048,652.977,352.048
								z"/>
							<path d="M660.3,356.957l0.333-0.94l1.681-4.329h0.736v5.838h-0.505v-5.194c-0.079,0.226-0.162,0.457-0.25,0.693
								c-0.087,0.236-0.672,1.737-1.753,4.501h-0.473l-1.617-4.104c-0.068-0.165-0.132-0.338-0.19-0.521
								c-0.06-0.183-0.125-0.379-0.196-0.591v5.215h-0.483v-5.838h0.704l1.687,4.297C660.104,356.332,660.214,356.656,660.3,356.957
								z"/>
							<path d="M666.172,349.674l0.064,0.107c-0.269,0.949-0.58,1.81-0.935,2.583h-0.349c0.104-0.344,0.213-0.776,0.328-1.297
								c0.115-0.521,0.202-0.986,0.263-1.394H666.172z"/>
							<path d="M670.53,357.634c-0.849,0-1.516-0.268-2-0.803c-0.485-0.535-0.728-1.265-0.728-2.188
								c0-0.949,0.251-1.697,0.754-2.245c0.503-0.548,1.187-0.822,2.049-0.822c0.222,0,0.477,0.023,0.765,0.07
								c0.289,0.046,0.537,0.111,0.744,0.193l-0.156,0.473c-0.211-0.075-0.449-0.136-0.711-0.183
								c-0.264-0.046-0.481-0.07-0.653-0.07c-0.663,0-1.184,0.188-1.563,0.564s-0.6,0.904-0.661,1.584h3.357v0.473h-3.378
								c0.007,0.777,0.206,1.383,0.596,1.818c0.39,0.436,0.915,0.653,1.574,0.653c0.562,0,1.071-0.095,1.525-0.285v0.494
								c-0.165,0.083-0.381,0.148-0.65,0.199S670.838,357.634,670.53,357.634z"/>
							<path d="M676.74,357.634c-0.899,0-1.554-0.336-1.966-1.01h-0.038l0.016,0.451c0.014,0.265,0.021,0.555,0.021,0.87v2.224
								h-0.532v-8.481h0.451l0.102,0.833h0.032c0.401-0.63,1.042-0.945,1.923-0.945c0.788,0,1.388,0.259,1.802,0.776
								c0.413,0.518,0.62,1.271,0.62,2.259c0,0.959-0.218,1.704-0.652,2.231C678.086,357.369,677.492,357.634,676.74,357.634z
								 M676.73,357.161c0.598,0,1.061-0.222,1.388-0.666c0.328-0.444,0.492-1.065,0.492-1.864c0-1.715-0.62-2.573-1.858-2.573
								c-0.68,0-1.18,0.187-1.499,0.561c-0.319,0.375-0.478,0.984-0.478,1.829v0.172c0,0.913,0.153,1.565,0.459,1.955
								C675.54,356.966,676.039,357.161,676.73,357.161z"/>
							<path d="M682.092,351.688v2.562h3.706v-2.562h0.526v5.838h-0.526v-2.814h-3.706v2.814h-0.532v-5.838H682.092z"/>
							<path d="M693.878,354.599c0,0.953-0.231,1.696-0.693,2.231c-0.462,0.536-1.099,0.803-1.912,0.803
								c-0.512,0-0.963-0.124-1.354-0.371s-0.689-0.602-0.897-1.063s-0.312-0.996-0.312-1.601c0-0.953,0.231-1.694,0.693-2.227
								c0.462-0.531,1.096-0.797,1.901-0.797c0.802,0,1.432,0.27,1.888,0.808C693.65,352.922,693.878,353.661,693.878,354.599z
								 M689.27,354.599c0,0.802,0.176,1.428,0.529,1.877c0.353,0.45,0.852,0.674,1.496,0.674s1.143-0.225,1.496-0.674
								c0.353-0.449,0.529-1.075,0.529-1.877c0-0.806-0.178-1.431-0.535-1.875c-0.356-0.444-0.856-0.666-1.501-0.666
								s-1.142,0.221-1.49,0.664C689.444,353.164,689.27,353.79,689.27,354.599z"/>
							<path d="M699.697,352.15h-2.9v5.376h-0.532v-5.838h3.432V352.15z"/>
							<path d="M706.493,354.599c0,0.953-0.231,1.696-0.693,2.231c-0.462,0.536-1.099,0.803-1.912,0.803
								c-0.512,0-0.963-0.124-1.354-0.371s-0.689-0.602-0.897-1.063s-0.312-0.996-0.312-1.601c0-0.953,0.231-1.694,0.693-2.227
								c0.462-0.531,1.096-0.797,1.901-0.797c0.802,0,1.432,0.27,1.888,0.808C706.265,352.922,706.493,353.661,706.493,354.599z
								 M701.885,354.599c0,0.802,0.176,1.428,0.529,1.877c0.353,0.45,0.852,0.674,1.496,0.674s1.143-0.225,1.496-0.674
								c0.353-0.449,0.529-1.075,0.529-1.877c0-0.806-0.178-1.431-0.535-1.875c-0.356-0.444-0.856-0.666-1.501-0.666
								s-1.142,0.221-1.49,0.664C702.059,353.164,701.885,353.79,701.885,354.599z"/>
							<path d="M584.685,372.526h-0.532v-5.838h4.657v5.838h-0.532v-5.333h-3.593V372.526z"/>
							<path d="M593.893,372.634c-0.849,0-1.51-0.261-1.984-0.784c-0.475-0.523-0.712-1.255-0.712-2.197
								c0-0.931,0.229-1.677,0.688-2.237c0.458-0.56,1.076-0.84,1.853-0.84c0.688,0,1.23,0.24,1.627,0.72s0.596,1.131,0.596,1.955
								v0.43h-4.206c0.007,0.802,0.194,1.415,0.562,1.837c0.367,0.422,0.892,0.634,1.576,0.634c0.333,0,0.626-0.023,0.878-0.07
								c0.253-0.046,0.572-0.147,0.959-0.301v0.483c-0.33,0.143-0.634,0.241-0.913,0.293
								C594.538,372.608,594.23,372.634,593.893,372.634z M593.738,367.048c-0.562,0-1.013,0.185-1.354,0.556
								c-0.34,0.37-0.539,0.905-0.596,1.603h3.609c0-0.677-0.147-1.206-0.44-1.587C594.663,367.239,594.257,367.048,593.738,367.048
								z"/>
							<path d="M600.84,372.634c-0.899,0-1.554-0.336-1.966-1.01h-0.038l0.016,0.451c0.014,0.265,0.021,0.555,0.021,0.87v2.224
								h-0.532v-8.481h0.451l0.102,0.833h0.032c0.401-0.63,1.042-0.945,1.923-0.945c0.788,0,1.388,0.259,1.802,0.776
								c0.413,0.518,0.62,1.271,0.62,2.259c0,0.959-0.218,1.704-0.652,2.231C602.185,372.369,601.592,372.634,600.84,372.634z
								 M600.829,372.161c0.598,0,1.061-0.222,1.388-0.666c0.328-0.444,0.492-1.065,0.492-1.864c0-1.715-0.62-2.573-1.858-2.573
								c-0.68,0-1.18,0.187-1.499,0.561c-0.319,0.375-0.478,0.984-0.478,1.829v0.172c0,0.913,0.153,1.565,0.459,1.955
								C599.639,371.966,600.138,372.161,600.829,372.161z"/>
							<path d="M605.585,365.066c0-0.344,0.113-0.516,0.338-0.516c0.111,0,0.198,0.045,0.26,0.134
								c0.063,0.089,0.094,0.217,0.094,0.381c0,0.161-0.031,0.288-0.094,0.381c-0.063,0.093-0.149,0.14-0.26,0.14
								C605.698,365.587,605.585,365.413,605.585,365.066z M606.192,372.526h-0.532v-5.838h0.532V372.526z"/>
							<path d="M613.745,369.599c0,0.953-0.231,1.696-0.693,2.231c-0.462,0.536-1.099,0.803-1.912,0.803
								c-0.512,0-0.963-0.124-1.354-0.371s-0.689-0.602-0.897-1.063s-0.312-0.996-0.312-1.601c0-0.953,0.231-1.694,0.693-2.227
								c0.462-0.531,1.096-0.797,1.901-0.797c0.802,0,1.432,0.27,1.888,0.808C613.517,367.922,613.745,368.661,613.745,369.599z
								 M609.137,369.599c0,0.802,0.176,1.428,0.529,1.877c0.353,0.45,0.852,0.674,1.496,0.674s1.143-0.225,1.496-0.674
								c0.353-0.449,0.529-1.075,0.529-1.877c0-0.806-0.178-1.431-0.535-1.875c-0.356-0.444-0.856-0.666-1.501-0.666
								s-1.142,0.221-1.49,0.664C609.311,368.164,609.137,368.79,609.137,369.599z"/>
							<path d="M620.896,374.508h-0.526v-1.982h-4.469v1.982h-0.526v-2.487h0.387c0.487-0.684,0.863-1.477,1.128-2.379
								s0.405-1.887,0.419-2.954h2.809v5.333h0.779V374.508z M619.586,372.021v-4.839h-1.815c-0.086,1.937-0.555,3.55-1.407,4.839
								H619.586z"/>
							<path d="M621.929,366.688h0.548l1.235,3.276c0.376,1.006,0.614,1.685,0.714,2.036h0.032c0.15-0.462,0.396-1.151,0.736-2.068
								l1.235-3.244h0.548l-2.616,6.784c-0.211,0.551-0.389,0.924-0.532,1.117s-0.311,0.338-0.502,0.435
								c-0.192,0.097-0.424,0.145-0.696,0.145c-0.204,0-0.432-0.038-0.682-0.113v-0.462c0.208,0.057,0.432,0.086,0.671,0.086
								c0.183,0,0.344-0.043,0.483-0.129s0.266-0.219,0.378-0.4c0.113-0.181,0.244-0.467,0.393-0.859
								c0.148-0.392,0.244-0.647,0.287-0.765L621.929,366.688z"/>
						</g>
					</g>
				</g>
			</g>
			<circle fill="none" stroke="#FFD600" stroke-width="1.1587" stroke-miterlimit="10" cx="603.433" cy="652.103" r="18.037"/>
		</g>
	</g>
	<line fill="none" stroke="#FF4C29" stroke-miterlimit="10" stroke-dasharray="3,4" x1="964" y1="631.5" x2="964" y2="407.5"/>
</g>
</svg>
