<?xml version="1.0" encoding="utf-8"?>
<!-- Generator: Adobe Illustrator 16.0.0, SVG Export Plug-In . SVG Version: 6.00 Build 0)  -->
<!DOCTYPE svg PUBLIC "-//W3C//DTD SVG 1.1//EN" "http://www.w3.org/Graphics/SVG/1.1/DTD/svg11.dtd">
<svg version="1.1" id="Layer_1" xmlns="http://www.w3.org/2000/svg" xmlns:xlink="http://www.w3.org/1999/xlink" x="0px" y="0px"
	 width="1920px" height="1020px" viewBox="0 0 1920 1020" enable-background="new 0 0 1920 1020" xml:space="preserve">
<g>
	<g>
		<g>
			<g>
				<g>
					
						<line fill="none" stroke="#ADADAD" stroke-width="0.7212" stroke-miterlimit="10" x1="217.334" y1="574.42" x2="218.776" y2="574.42"/>
					
						<line fill="none" stroke="#ADADAD" stroke-width="0.7212" stroke-miterlimit="10" stroke-dasharray="2.8794,4.319" x1="223.094" y1="574.42" x2="1725.402" y2="574.42"/>
					
						<line fill="none" stroke="#ADADAD" stroke-width="0.7212" stroke-miterlimit="10" x1="1727.561" y1="574.42" x2="1729.004" y2="574.42"/>
				</g>
			</g>
		</g>
		<g>
			<g>
				<g>
					
						<line fill="none" stroke="#ADADAD" stroke-width="0.7212" stroke-miterlimit="10" x1="217.334" y1="518.664" x2="218.776" y2="518.664"/>
					
						<line fill="none" stroke="#ADADAD" stroke-width="0.7212" stroke-miterlimit="10" stroke-dasharray="2.8794,4.319" x1="223.094" y1="518.664" x2="1725.402" y2="518.664"/>
					
						<line fill="none" stroke="#ADADAD" stroke-width="0.7212" stroke-miterlimit="10" x1="1727.561" y1="518.664" x2="1729.004" y2="518.664"/>
				</g>
			</g>
		</g>
		<g>
			<g>
				<g>
					
						<line fill="none" stroke="#ADADAD" stroke-width="0.7212" stroke-miterlimit="10" x1="217.334" y1="462.91" x2="218.776" y2="462.91"/>
					
						<line fill="none" stroke="#ADADAD" stroke-width="0.7212" stroke-miterlimit="10" stroke-dasharray="2.8794,4.319" x1="223.094" y1="462.91" x2="1725.402" y2="462.91"/>
					
						<line fill="none" stroke="#ADADAD" stroke-width="0.7212" stroke-miterlimit="10" x1="1727.561" y1="462.91" x2="1729.004" y2="462.91"/>
				</g>
			</g>
		</g>
		<g>
			<g>
				<g>
					
						<line fill="none" stroke="#ADADAD" stroke-width="0.7212" stroke-miterlimit="10" x1="1729.004" y1="407.154" x2="1727.561" y2="407.154"/>
					
						<line fill="none" stroke="#ADADAD" stroke-width="0.7212" stroke-miterlimit="10" stroke-dasharray="2.8794,4.319" x1="1723.241" y1="407.154" x2="220.936" y2="407.154"/>
					
						<line fill="none" stroke="#ADADAD" stroke-width="0.7212" stroke-miterlimit="10" x1="218.776" y1="407.154" x2="217.334" y2="407.154"/>
				</g>
			</g>
		</g>
		<g>
			<g>
				<path fill="#676767" d="M277.013,647.133v8.641h-1.844v-7.188h-3.875v7.188h-1.836v-8.641H277.013z"/>
				<path fill="#676767" d="M286.131,647.133v1.438h-2.813v7.203h-1.845v-7.203h-2.813v-1.438H286.131z"/>
			</g>
		</g>
		<g>
			<g>
				<path fill="#676767" d="M327.302,655.928c-1.308,0-2.301-0.381-2.979-1.145c-0.68-0.764-1.021-1.857-1.021-3.285
					c0-1.453,0.355-2.57,1.066-3.352s1.738-1.172,3.082-1.172c0.911,0,1.73,0.168,2.461,0.508l-0.555,1.477
					c-0.776-0.301-1.417-0.453-1.922-0.453c-1.495,0-2.242,0.992-2.242,2.977c0,0.971,0.186,1.697,0.559,2.186
					c0.372,0.486,0.918,0.729,1.637,0.729c0.817,0,1.592-0.203,2.32-0.607v1.602c-0.328,0.191-0.679,0.33-1.051,0.414
					C328.286,655.887,327.834,655.928,327.302,655.928z"/>
				<path fill="#676767" d="M331.24,650.586c0-1.928,0.327-3.41,0.979-4.445c0.653-1.037,1.694-1.703,3.121-2
					c1.078-0.219,2.32-0.434,3.728-0.641l0.258,1.617c-1.708,0.26-2.958,0.463-3.75,0.607c-0.818,0.152-1.408,0.488-1.771,1.008
					c-0.361,0.521-0.571,1.307-0.629,2.354h0.117c0.297-0.434,0.686-0.768,1.164-1.004c0.479-0.238,0.992-0.355,1.539-0.355
					c1.063,0,1.891,0.336,2.484,1.008c0.593,0.672,0.891,1.613,0.891,2.828c0,1.391-0.361,2.465-1.082,3.227
					c-0.722,0.762-1.72,1.141-2.996,1.141c-1.266,0-2.258-0.469-2.977-1.406C331.597,653.588,331.24,652.272,331.24,650.586z
					 M335.42,654.428c1.364,0,2.047-0.895,2.047-2.688c0-1.729-0.617-2.594-1.852-2.594c-0.339,0-0.667,0.072-0.984,0.219
					s-0.61,0.34-0.879,0.578s-0.476,0.486-0.621,0.742c0,1.229,0.195,2.16,0.586,2.793
					C334.108,654.112,334.675,654.428,335.42,654.428z"/>
			</g>
		</g>
		<g>
			<g>
				<path fill="#676767" d="M214.89,647.133v3.156c0,0.885,0.458,1.328,1.375,1.328c0.442,0,0.875-0.063,1.298-0.186
					c0.422-0.121,0.875-0.318,1.358-0.59v-3.711h1.836v8.641h-1.836v-3.664c-0.505,0.314-0.994,0.543-1.465,0.691
					c-0.472,0.148-0.986,0.223-1.543,0.223c-0.901,0-1.604-0.232-2.109-0.699c-0.505-0.465-0.758-1.117-0.758-1.955v-3.234H214.89z"
					/>
				<path fill="#676767" d="M229.876,647.133v1.438h-2.813v7.203h-1.845v-7.203h-2.813v-1.438H229.876z"/>
			</g>
		</g>
		<g>
			<g>
				<path fill="#676767" d="M380.473,647.133v3.469h4.07v-3.469h1.836v8.641h-1.836v-3.727h-4.07v3.727h-1.836v-8.641H380.473z"/>
				<path fill="#676767" d="M397.295,658.828h-1.711v-3.057h-5.922v3.057h-1.695v-4.479h0.703c0.614-0.879,1.104-1.943,1.465-3.189
					c0.362-1.248,0.577-2.592,0.646-4.027h5.25v7.219h1.266L397.295,658.828L397.295,658.828z M394.223,654.35v-5.811h-1.858
					c-0.1,1.072-0.307,2.129-0.621,3.172c-0.315,1.041-0.699,1.922-1.152,2.641h3.632V654.35z"/>
			</g>
		</g>
		<g>
			<g>
				<path fill="#676767" d="M442.989,647.133v8.641h-1.844v-7.188h-3.875v7.188h-1.836v-8.641H442.989z"/>
				<path fill="#676767" d="M447.45,647.133v3.469h4.07v-3.469h1.836v8.641h-1.836v-3.727h-4.07v3.727h-1.836v-8.641H447.45z"/>
			</g>
		</g>
		<g>
			<g>
				<path fill="#676767" d="M499.197,649.342c0,1.021-0.597,1.639-1.789,1.852v0.064c0.667,0.078,1.177,0.289,1.531,0.633
					c0.354,0.344,0.531,0.789,0.531,1.336c0,0.816-0.313,1.445-0.935,1.887c-0.623,0.439-1.526,0.66-2.715,0.66h-4.125v-8.641h4.109
					C498.067,647.133,499.197,647.869,499.197,649.342z M497.361,649.5c0-0.346-0.134-0.594-0.402-0.746
					c-0.269-0.154-0.668-0.23-1.199-0.23h-2.227v2.078h1.953c0.614,0,1.081-0.08,1.398-0.238
					C497.202,650.203,497.361,649.916,497.361,649.5z M497.588,653.117c0-0.418-0.162-0.713-0.483-0.889
					c-0.323-0.174-0.809-0.262-1.453-0.262h-2.117v2.445h2.164C496.957,654.414,497.588,653.981,497.588,653.117z"/>
				<path fill="#676767" d="M507.853,647.133v1.438h-2.813v7.203h-1.844v-7.203h-2.812v-1.438H507.853z"/>
			</g>
		</g>
		<g>
			<g>
				<path fill="#676767" d="M549.655,655.928c-1.308,0-2.301-0.381-2.979-1.145c-0.68-0.764-1.021-1.857-1.021-3.285
					c0-1.453,0.354-2.57,1.065-3.352c0.712-0.781,1.738-1.172,3.082-1.172c0.911,0,1.731,0.168,2.461,0.508l-0.555,1.477
					c-0.775-0.301-1.417-0.453-1.922-0.453c-1.495,0-2.242,0.992-2.242,2.977c0,0.971,0.187,1.697,0.56,2.186
					c0.372,0.486,0.918,0.729,1.637,0.729c0.817,0,1.591-0.203,2.32-0.607v1.602c-0.328,0.191-0.679,0.33-1.052,0.414
					C550.638,655.887,550.186,655.928,549.655,655.928z"/>
				<path fill="#676767" d="M558.475,655.928c-1.095,0-1.943-0.393-2.548-1.18h-0.108c0.073,0.729,0.108,1.172,0.108,1.328v3.539
					h-1.836v-12.484h1.484c0.042,0.162,0.127,0.547,0.258,1.156h0.094c0.573-0.875,1.433-1.313,2.578-1.313
					c1.078,0,1.918,0.391,2.521,1.172c0.602,0.781,0.901,1.877,0.901,3.289c0,1.41-0.306,2.514-0.918,3.305
					C560.398,655.533,559.552,655.928,558.475,655.928z M558.03,648.475c-0.729,0-1.262,0.215-1.598,0.643
					c-0.337,0.426-0.505,1.107-0.505,2.047v0.271c0,1.053,0.168,1.814,0.5,2.285c0.334,0.473,0.877,0.707,1.634,0.707
					c0.635,0,1.125-0.26,1.469-0.781c0.344-0.52,0.516-1.262,0.516-2.227c0-0.969-0.171-1.701-0.512-2.199
					C559.193,648.725,558.691,648.475,558.03,648.475z"/>
			</g>
		</g>
		<g>
			
				<line fill="none" stroke="#0E1968" stroke-width="5" stroke-linecap="round" stroke-miterlimit="10" x1="550.011" y1="634.373" x2="550.011" y2="458.713"/>
			
				<line fill="none" stroke="#49B4DA" stroke-width="5" stroke-linecap="round" stroke-miterlimit="10" x1="557.719" y1="634.328" x2="557.719" y2="407.154"/>
			
				<line fill="none" stroke="#0E1968" stroke-width="5" stroke-linecap="round" stroke-miterlimit="10" x1="604.883" y1="634.373" x2="604.883" y2="513.889"/>
			
				<line fill="none" stroke="#49B4DA" stroke-width="5" stroke-linecap="round" stroke-miterlimit="10" x1="612.586" y1="634.328" x2="612.586" y2="407.154"/>
			
				<line fill="none" stroke="#0E1968" stroke-width="5" stroke-linecap="round" stroke-miterlimit="10" x1="660.328" y1="634.373" x2="660.328" y2="513.889"/>
			
				<line fill="none" stroke="#49B4DA" stroke-width="5" stroke-linecap="round" stroke-miterlimit="10" x1="668.033" y1="634.328" x2="668.033" y2="407.154"/>
			
				<line fill="none" stroke="#0E1968" stroke-width="5" stroke-linecap="round" stroke-miterlimit="10" x1="715.775" y1="634.373" x2="715.775" y2="462.91"/>
			
				<line fill="none" stroke="#49B4DA" stroke-width="5" stroke-linecap="round" stroke-miterlimit="10" x1="723.48" y1="634.328" x2="723.48" y2="407.154"/>
			
				<line fill="none" stroke="#0E1968" stroke-width="5" stroke-linecap="round" stroke-miterlimit="10" x1="771.222" y1="634.373" x2="771.222" y2="462.91"/>
			
				<line fill="none" stroke="#49B4DA" stroke-width="5" stroke-linecap="round" stroke-miterlimit="10" x1="778.927" y1="634.328" x2="778.927" y2="407.154"/>
			
				<line fill="none" stroke="#0E1968" stroke-width="5" stroke-linecap="round" stroke-miterlimit="10" x1="826.667" y1="634.373" x2="826.667" y2="516.893"/>
			
				<line fill="none" stroke="#49B4DA" stroke-width="5" stroke-linecap="round" stroke-miterlimit="10" x1="834.374" y1="634.328" x2="834.374" y2="516.893"/>
			
				<line fill="none" stroke="#0E1968" stroke-width="5" stroke-linecap="round" stroke-miterlimit="10" x1="882.114" y1="634.373" x2="882.114" y2="516.893"/>
			
				<line fill="none" stroke="#49B4DA" stroke-width="5" stroke-linecap="round" stroke-miterlimit="10" x1="889.822" y1="634.328" x2="889.822" y2="516.893"/>
			
				<line fill="none" stroke="#0E1968" stroke-width="5" stroke-linecap="round" stroke-miterlimit="10" x1="937.76" y1="634.373" x2="937.76" y2="517.469"/>
			
				<line fill="none" stroke="#49B4DA" stroke-width="5" stroke-linecap="round" stroke-miterlimit="10" x1="945.467" y1="634.328" x2="945.467" y2="517.469"/>
			
				<line fill="none" stroke="#0E1968" stroke-width="5" stroke-linecap="round" stroke-miterlimit="10" x1="995.041" y1="634.373" x2="995.041" y2="573.225"/>
			
				<line fill="none" stroke="#49B4DA" stroke-width="5" stroke-linecap="round" stroke-miterlimit="10" x1="1002.747" y1="634.328" x2="1002.747" y2="517.201"/>
			
				<line fill="none" stroke="#0E1968" stroke-width="5" stroke-linecap="round" stroke-miterlimit="10" x1="1050.489" y1="634.373" x2="1050.489" y2="573.225"/>
			
				<line fill="none" stroke="#49B4DA" stroke-width="5" stroke-linecap="round" stroke-miterlimit="10" x1="1058.194" y1="634.328" x2="1058.194" y2="517.201"/>
			
				<line fill="none" stroke="#0E1968" stroke-width="5" stroke-linecap="round" stroke-miterlimit="10" x1="1105.934" y1="634.373" x2="1105.934" y2="518.203"/>
			
				<line fill="none" stroke="#49B4DA" stroke-width="5" stroke-linecap="round" stroke-miterlimit="10" x1="1113.641" y1="634.328" x2="1113.641" y2="407.154"/>
			
				<line fill="none" stroke="#0E1968" stroke-width="5" stroke-linecap="round" stroke-miterlimit="10" x1="1161.381" y1="634.373" x2="1161.381" y2="518.203"/>
			
				<line fill="none" stroke="#49B4DA" stroke-width="5" stroke-linecap="round" stroke-miterlimit="10" x1="1169.087" y1="634.328" x2="1169.087" y2="407.154"/>
			
				<line fill="none" stroke="#0E1968" stroke-width="5" stroke-linecap="round" stroke-miterlimit="10" x1="1216.827" y1="634.373" x2="1216.827" y2="573.225"/>
			
				<line fill="none" stroke="#49B4DA" stroke-width="5" stroke-linecap="round" stroke-miterlimit="10" x1="1224.533" y1="634.328" x2="1224.533" y2="516.893"/>
			
				<line fill="none" stroke="#0E1968" stroke-width="5" stroke-linecap="round" stroke-miterlimit="10" x1="1272.274" y1="634.373" x2="1272.274" y2="573.225"/>
			
				<line fill="none" stroke="#49B4DA" stroke-width="5" stroke-linecap="round" stroke-miterlimit="10" x1="1279.981" y1="634.328" x2="1279.981" y2="516.893"/>
			
				<line fill="none" stroke="#0E1968" stroke-width="5" stroke-linecap="round" stroke-miterlimit="10" x1="1327.721" y1="634.373" x2="1327.721" y2="573.225"/>
			
				<line fill="none" stroke="#49B4DA" stroke-width="5" stroke-linecap="round" stroke-miterlimit="10" x1="1335.427" y1="634.328" x2="1335.427" y2="516.893"/>
			
				<line fill="none" stroke="#0E1968" stroke-width="5" stroke-linecap="round" stroke-miterlimit="10" x1="1381.726" y1="634.373" x2="1381.726" y2="602.297"/>
			
				<line fill="none" stroke="#49B4DA" stroke-width="5" stroke-linecap="round" stroke-miterlimit="10" x1="1389.432" y1="634.328" x2="1389.432" y2="516.903"/>
			
				<line fill="none" stroke="#49B4DA" stroke-width="5" stroke-linecap="round" stroke-miterlimit="10" x1="1439.007" y1="634.373" x2="1439.007" y2="602.274"/>
			
				<line fill="none" stroke="#0E1968" stroke-width="5" stroke-linecap="round" stroke-miterlimit="10" x1="1439.007" y1="634.373" x2="1439.007" y2="602.274"/>
			
				<line fill="none" stroke="#49B4DA" stroke-width="5" stroke-linecap="round" stroke-miterlimit="10" x1="1446.713" y1="634.328" x2="1446.713" y2="516.881"/>
			
				<line fill="none" stroke="#0E1968" stroke-width="5" stroke-linecap="round" stroke-miterlimit="10" x1="1494.454" y1="634.373" x2="1494.454" y2="573.225"/>
			
				<line fill="none" stroke="#49B4DA" stroke-width="5" stroke-linecap="round" stroke-miterlimit="10" x1="1502.159" y1="634.328" x2="1502.159" y2="407.154"/>
			
				<line fill="none" stroke="#0E1968" stroke-width="5" stroke-linecap="round" stroke-miterlimit="10" x1="1549.9" y1="634.373" x2="1549.9" y2="573.225"/>
			
				<line fill="none" stroke="#49B4DA" stroke-width="5" stroke-linecap="round" stroke-miterlimit="10" x1="1557.607" y1="634.328" x2="1557.607" y2="407.154"/>
			
				<line fill="none" stroke="#0E1968" stroke-width="5" stroke-linecap="round" stroke-miterlimit="10" x1="1605.347" y1="634.373" x2="1605.347" y2="602.274"/>
			
				<line fill="none" stroke="#49B4DA" stroke-width="5" stroke-linecap="round" stroke-miterlimit="10" x1="1613.052" y1="634.328" x2="1613.052" y2="516.881"/>
			
				<line fill="none" stroke="#0E1968" stroke-width="5" stroke-linecap="round" stroke-miterlimit="10" x1="1660.793" y1="634.373" x2="1660.793" y2="602.274"/>
			
				<line fill="none" stroke="#49B4DA" stroke-width="5" stroke-linecap="round" stroke-miterlimit="10" x1="1668.499" y1="634.328" x2="1668.499" y2="516.881"/>
			
				<line fill="none" stroke="#0E1968" stroke-width="5" stroke-linecap="round" stroke-miterlimit="10" x1="1716.239" y1="634.373" x2="1716.239" y2="602.274"/>
			
				<line fill="none" stroke="#49B4DA" stroke-width="5" stroke-linecap="round" stroke-miterlimit="10" x1="1723.947" y1="634.328" x2="1723.947" y2="516.881"/>
			
				<line fill="none" stroke="#0E1968" stroke-width="5" stroke-linecap="round" stroke-miterlimit="10" x1="272.78" y1="634.373" x2="272.78" y2="458.713"/>
			
				<line fill="none" stroke="#49B4DA" stroke-width="5" stroke-linecap="round" stroke-miterlimit="10" x1="280.486" y1="634.328" x2="280.486" y2="407.154"/>
			
				<line fill="none" stroke="#0E1968" stroke-width="5" stroke-linecap="round" stroke-miterlimit="10" x1="328.227" y1="634.373" x2="328.227" y2="402.958"/>
			
				<line fill="none" stroke="#49B4DA" stroke-width="5" stroke-linecap="round" stroke-miterlimit="10" x1="335.93" y1="634.328" x2="335.93" y2="402.958"/>
			
				<line fill="none" stroke="#0E1968" stroke-width="5" stroke-linecap="round" stroke-miterlimit="10" x1="383.673" y1="634.373" x2="383.673" y2="402.958"/>
			
				<line fill="none" stroke="#49B4DA" stroke-width="5" stroke-linecap="round" stroke-miterlimit="10" x1="391.378" y1="634.328" x2="391.378" y2="402.958"/>
			
				<line fill="none" stroke="#0E1968" stroke-width="5" stroke-linecap="round" stroke-miterlimit="10" x1="439.119" y1="634.373" x2="439.119" y2="458.713"/>
			
				<line fill="none" stroke="#49B4DA" stroke-width="5" stroke-linecap="round" stroke-miterlimit="10" x1="446.824" y1="634.328" x2="446.824" y2="407.154"/>
			
				<line fill="none" stroke="#0E1968" stroke-width="5" stroke-linecap="round" stroke-miterlimit="10" x1="494.567" y1="634.373" x2="494.567" y2="458.713"/>
			
				<line fill="none" stroke="#49B4DA" stroke-width="5" stroke-linecap="round" stroke-miterlimit="10" x1="502.272" y1="634.328" x2="502.272" y2="407.154"/>
			
				<line fill="none" stroke="#0E1968" stroke-width="5" stroke-linecap="round" stroke-miterlimit="10" x1="217.334" y1="634.373" x2="217.334" y2="458.713"/>
			
				<line fill="none" stroke="#49B4DA" stroke-width="5" stroke-linecap="round" stroke-miterlimit="10" x1="225.038" y1="634.328" x2="225.038" y2="407.154"/>
			<rect x="195.082" y="630.86" fill="#FFFFFF" width="1537.713" height="50.232"/>
			
				<line fill="none" stroke="#ADADAD" stroke-width="0.7212" stroke-miterlimit="10" stroke-dasharray="2.8848,4.3272" x1="217.334" y1="631.053" x2="1728.781" y2="631.053"/>
		</g>
		<g>
			<g>
				<path fill="#676767" d="M277.013,647.133v8.641h-1.844v-7.188h-3.875v7.188h-1.836v-8.641H277.013z"/>
				<path fill="#676767" d="M286.131,647.133v1.438h-2.813v7.203h-1.845v-7.203h-2.813v-1.438H286.131z"/>
			</g>
		</g>
		<g>
			<g>
				<path fill="#FF4C29" d="M327.302,655.928c-1.307,0-2.301-0.381-2.979-1.145c-0.68-0.764-1.021-1.857-1.021-3.285
					c0-1.453,0.355-2.57,1.066-3.352s1.738-1.172,3.082-1.172c0.912,0,1.731,0.168,2.461,0.508l-0.555,1.477
					c-0.776-0.301-1.417-0.453-1.922-0.453c-1.495,0-2.242,0.992-2.242,2.977c0,0.971,0.186,1.697,0.559,2.186
					s0.918,0.729,1.637,0.729c0.818,0,1.592-0.203,2.32-0.607v1.602c-0.328,0.191-0.678,0.33-1.051,0.414
					C328.285,655.887,327.834,655.928,327.302,655.928z"/>
				<path fill="#FF4C29" d="M331.24,650.586c0-1.928,0.327-3.41,0.979-4.445c0.653-1.037,1.694-1.703,3.121-2
					c1.078-0.219,2.32-0.434,3.728-0.641l0.258,1.617c-1.708,0.26-2.958,0.463-3.75,0.607c-0.818,0.152-1.408,0.488-1.771,1.008
					c-0.361,0.521-0.571,1.307-0.629,2.354h0.117c0.297-0.434,0.686-0.768,1.164-1.004c0.479-0.238,0.992-0.355,1.539-0.355
					c1.063,0,1.891,0.336,2.484,1.008c0.593,0.672,0.891,1.613,0.891,2.828c0,1.391-0.361,2.465-1.082,3.227
					s-1.72,1.141-2.996,1.141c-1.266,0-2.258-0.469-2.977-1.406C331.597,653.588,331.24,652.272,331.24,650.586z M335.42,654.428
					c1.365,0,2.047-0.895,2.047-2.688c0-1.729-0.617-2.594-1.852-2.594c-0.338,0-0.667,0.072-0.984,0.219
					c-0.316,0.146-0.61,0.34-0.879,0.578c-0.268,0.238-0.475,0.486-0.621,0.742c0,1.229,0.195,2.16,0.586,2.793
					C334.108,654.112,334.676,654.428,335.42,654.428z"/>
			</g>
		</g>
		<g>
			<g>
				<path fill="#676767" d="M214.89,647.133v3.156c0,0.885,0.458,1.328,1.375,1.328c0.442,0,0.875-0.063,1.298-0.186
					c0.422-0.121,0.875-0.318,1.358-0.59v-3.711h1.836v8.641h-1.836v-3.664c-0.505,0.314-0.994,0.543-1.465,0.691
					c-0.472,0.148-0.986,0.223-1.543,0.223c-0.901,0-1.604-0.232-2.109-0.699c-0.505-0.465-0.758-1.117-0.758-1.955v-3.234H214.89z"
					/>
				<path fill="#676767" d="M229.876,647.133v1.438h-2.813v7.203h-1.845v-7.203h-2.813v-1.438H229.876z"/>
			</g>
		</g>
		<g>
			<g>
				<path fill="#FF4C29" d="M380.473,647.133v3.469h4.07v-3.469h1.836v8.641h-1.836v-3.727h-4.07v3.727h-1.836v-8.641H380.473z"/>
				<path fill="#FF4C29" d="M397.295,658.828h-1.711v-3.057h-5.922v3.057h-1.695v-4.479h0.703c0.614-0.879,1.104-1.943,1.465-3.189
					c0.362-1.248,0.577-2.592,0.646-4.027h5.25v7.219h1.266L397.295,658.828L397.295,658.828z M394.223,654.35v-5.811h-1.858
					c-0.1,1.072-0.307,2.129-0.621,3.172c-0.315,1.041-0.699,1.922-1.152,2.641h3.632V654.35z"/>
			</g>
		</g>
		<g>
			<g>
				<path fill="#676767" d="M442.989,647.133v8.641h-1.844v-7.188h-3.875v7.188h-1.836v-8.641H442.989z"/>
				<path fill="#676767" d="M447.45,647.133v3.469h4.07v-3.469h1.836v8.641h-1.836v-3.727h-4.07v3.727h-1.836v-8.641H447.45z"/>
			</g>
		</g>
		<g>
			<g>
				<path fill="#676767" d="M499.197,649.342c0,1.021-0.597,1.639-1.789,1.852v0.064c0.667,0.078,1.177,0.289,1.531,0.633
					c0.354,0.344,0.531,0.789,0.531,1.336c0,0.816-0.313,1.445-0.935,1.887c-0.623,0.439-1.526,0.66-2.715,0.66h-4.125v-8.641h4.109
					C498.067,647.133,499.197,647.869,499.197,649.342z M497.361,649.5c0-0.346-0.134-0.594-0.402-0.746
					c-0.269-0.154-0.668-0.23-1.199-0.23h-2.227v2.078h1.953c0.614,0,1.081-0.08,1.398-0.238
					C497.202,650.203,497.361,649.916,497.361,649.5z M497.588,653.117c0-0.418-0.162-0.713-0.483-0.889
					c-0.323-0.174-0.809-0.262-1.453-0.262h-2.117v2.445h2.164C496.957,654.414,497.588,653.981,497.588,653.117z"/>
				<path fill="#676767" d="M507.853,647.133v1.438h-2.813v7.203h-1.844v-7.203h-2.812v-1.438H507.853z"/>
			</g>
		</g>
		<g>
			<g>
				<path fill="#676767" d="M549.655,655.928c-1.308,0-2.301-0.381-2.979-1.145c-0.68-0.764-1.021-1.857-1.021-3.285
					c0-1.453,0.354-2.57,1.065-3.352c0.712-0.781,1.738-1.172,3.082-1.172c0.911,0,1.731,0.168,2.461,0.508l-0.555,1.477
					c-0.775-0.301-1.417-0.453-1.922-0.453c-1.495,0-2.242,0.992-2.242,2.977c0,0.971,0.187,1.697,0.56,2.186
					c0.372,0.486,0.918,0.729,1.637,0.729c0.817,0,1.591-0.203,2.32-0.607v1.602c-0.328,0.191-0.679,0.33-1.052,0.414
					C550.638,655.887,550.186,655.928,549.655,655.928z"/>
				<path fill="#676767" d="M558.475,655.928c-1.095,0-1.943-0.393-2.548-1.18h-0.108c0.073,0.729,0.108,1.172,0.108,1.328v3.539
					h-1.836v-12.484h1.484c0.042,0.162,0.127,0.547,0.258,1.156h0.094c0.573-0.875,1.433-1.313,2.578-1.313
					c1.078,0,1.918,0.391,2.521,1.172c0.602,0.781,0.901,1.877,0.901,3.289c0,1.41-0.306,2.514-0.918,3.305
					C560.398,655.533,559.552,655.928,558.475,655.928z M558.03,648.475c-0.729,0-1.262,0.215-1.598,0.643
					c-0.337,0.426-0.505,1.107-0.505,2.047v0.271c0,1.053,0.168,1.814,0.5,2.285c0.334,0.473,0.877,0.707,1.634,0.707
					c0.635,0,1.125-0.26,1.469-0.781c0.344-0.52,0.516-1.262,0.516-2.227c0-0.969-0.171-1.701-0.512-2.199
					C559.193,648.725,558.691,648.475,558.03,648.475z"/>
			</g>
		</g>
		<g>
			<g>
				<path fill="#676767" d="M1441.774,647.133v8.641h-1.844v-7.188h-3.875v7.188h-1.837v-8.641H1441.774z"/>
				<path fill="#676767" d="M1450.891,647.133v1.438h-2.813v7.203h-1.844v-7.203h-2.813v-1.438H1450.891z"/>
			</g>
		</g>
		<g>
			<g>
				<path fill="#FF4C29" d="M1492.063,655.928c-1.309,0-2.302-0.381-2.98-1.145s-1.02-1.857-1.02-3.285
					c0-1.453,0.354-2.57,1.065-3.352s1.738-1.172,3.082-1.172c0.911,0,1.731,0.168,2.461,0.508l-0.555,1.477
					c-0.775-0.301-1.417-0.453-1.922-0.453c-1.495,0-2.242,0.992-2.242,2.977c0,0.971,0.187,1.697,0.56,2.186
					c0.372,0.486,0.918,0.729,1.637,0.729c0.817,0,1.591-0.203,2.319-0.607v1.602c-0.328,0.191-0.679,0.33-1.051,0.414
					C1493.045,655.887,1492.594,655.928,1492.063,655.928z"/>
				<path fill="#FF4C29" d="M1496,650.586c0-1.928,0.326-3.41,0.98-4.445c0.652-1.037,1.693-1.703,3.121-2
					c1.078-0.219,2.319-0.434,3.727-0.641l0.258,1.617c-1.709,0.26-2.959,0.463-3.75,0.607c-0.817,0.152-1.408,0.488-1.77,1.008
					c-0.362,0.521-0.572,1.307-0.629,2.354h0.117c0.297-0.434,0.685-0.768,1.164-1.004c0.479-0.238,0.991-0.355,1.538-0.355
					c1.063,0,1.892,0.336,2.484,1.008s0.891,1.613,0.891,2.828c0,1.391-0.36,2.465-1.082,3.227s-1.721,1.141-2.995,1.141
					c-1.267,0-2.259-0.469-2.978-1.406C1496.357,653.588,1496,652.272,1496,650.586z M1500.179,654.428
					c1.365,0,2.048-0.895,2.048-2.688c0-1.729-0.617-2.594-1.853-2.594c-0.339,0-0.667,0.072-0.984,0.219s-0.61,0.34-0.879,0.578
					s-0.476,0.486-0.621,0.742c0,1.229,0.195,2.16,0.587,2.793C1498.868,654.112,1499.435,654.428,1500.179,654.428z"/>
			</g>
		</g>
		<g>
			<g>
				<path fill="#676767" d="M1379.651,647.133v3.156c0,0.885,0.458,1.328,1.375,1.328c0.442,0,0.875-0.063,1.297-0.186
					c0.422-0.121,0.875-0.318,1.359-0.59v-3.711h1.836v8.641h-1.836v-3.664c-0.507,0.314-0.994,0.543-1.466,0.691
					s-0.985,0.223-1.543,0.223c-0.9,0-1.604-0.232-2.108-0.699c-0.506-0.465-0.758-1.117-0.758-1.955v-3.234H1379.651z"/>
				<path fill="#676767" d="M1394.635,647.133v1.438h-2.813v7.203h-1.844v-7.203h-2.813v-1.438H1394.635z"/>
			</g>
		</g>
		<g>
			<g>
				<path fill="#FF4C29" d="M1545.234,647.133v3.469h4.07v-3.469h1.836v8.641h-1.836v-3.727h-4.07v3.727h-1.836v-8.641H1545.234z"/>
				<path fill="#FF4C29" d="M1562.054,658.828h-1.711v-3.057h-5.923v3.057h-1.694v-4.479h0.703c0.613-0.879,1.103-1.943,1.465-3.189
					c0.361-1.248,0.576-2.592,0.645-4.027h5.25v7.219h1.266V658.828L1562.054,658.828z M1558.984,654.35v-5.811h-1.859
					c-0.099,1.072-0.306,2.129-0.621,3.172c-0.314,1.041-0.699,1.922-1.151,2.641h3.632V654.35z"/>
			</g>
		</g>
		<g>
			<g>
				<path fill="#676767" d="M1607.748,647.133v8.641h-1.844v-7.188h-3.875v7.188h-1.836v-8.641H1607.748z"/>
				<path fill="#676767" d="M1612.209,647.133v3.469h4.07v-3.469h1.836v8.641h-1.836v-3.727h-4.07v3.727h-1.836v-8.641H1612.209z"/>
			</g>
		</g>
		<g>
			<g>
				<path fill="#676767" d="M1663.956,649.342c0,1.021-0.597,1.639-1.788,1.852v0.064c0.666,0.078,1.176,0.289,1.53,0.633
					s0.531,0.789,0.531,1.336c0,0.816-0.312,1.445-0.935,1.887c-0.621,0.441-1.526,0.66-2.715,0.66h-4.125v-8.641h4.109
					C1662.826,647.133,1663.956,647.869,1663.956,649.342z M1662.12,649.5c0-0.346-0.134-0.594-0.401-0.746
					c-0.269-0.154-0.668-0.23-1.199-0.23h-2.228v2.078h1.953c0.614,0,1.081-0.08,1.397-0.238
					C1661.96,650.205,1662.12,649.916,1662.12,649.5z M1662.347,653.117c0-0.418-0.161-0.713-0.484-0.889
					c-0.323-0.174-0.809-0.262-1.453-0.262h-2.117v2.445h2.164C1661.717,654.414,1662.347,653.981,1662.347,653.117z"/>
				<path fill="#676767" d="M1672.613,647.133v1.438h-2.813v7.203h-1.845v-7.203h-2.813v-1.438H1672.613z"/>
			</g>
		</g>
		<g>
			<g>
				<path fill="#676767" d="M1714.414,655.928c-1.307,0-2.301-0.381-2.979-1.145s-1.021-1.857-1.021-3.285
					c0-1.453,0.355-2.57,1.066-3.352s1.738-1.172,3.082-1.172c0.912,0,1.732,0.168,2.461,0.508l-0.555,1.477
					c-0.775-0.301-1.416-0.453-1.922-0.453c-1.494,0-2.242,0.992-2.242,2.977c0,0.971,0.187,1.697,0.559,2.186
					c0.373,0.486,0.918,0.729,1.637,0.729c0.818,0,1.592-0.203,2.32-0.607v1.602c-0.328,0.191-0.678,0.33-1.051,0.414
					C1715.398,655.887,1714.946,655.928,1714.414,655.928z"/>
				<path fill="#676767" d="M1723.235,655.928c-1.095,0-1.942-0.393-2.547-1.18h-0.109c0.073,0.729,0.109,1.172,0.109,1.328v3.539
					h-1.837v-12.484h1.484c0.042,0.162,0.129,0.547,0.258,1.156h0.095c0.573-0.875,1.433-1.313,2.577-1.313
					c1.078,0,1.918,0.391,2.521,1.172s0.902,1.877,0.902,3.289c0,1.41-0.306,2.514-0.918,3.305
					C1725.158,655.533,1724.313,655.928,1723.235,655.928z M1722.789,648.475c-0.729,0-1.262,0.215-1.598,0.643
					c-0.336,0.426-0.504,1.107-0.504,2.047v0.271c0,1.053,0.167,1.814,0.5,2.285c0.334,0.473,0.878,0.707,1.633,0.707
					c0.636,0,1.125-0.26,1.469-0.781c0.344-0.52,0.516-1.262,0.516-2.227c0-0.969-0.17-1.701-0.512-2.199
					C1723.952,648.725,1723.451,648.475,1722.789,648.475z"/>
			</g>
		</g>
		<g>
			<g>
				<path fill="#676767" d="M1054.094,647.133v8.641h-1.845v-7.188h-3.875v7.188h-1.836v-8.641H1054.094z"/>
				<path fill="#676767" d="M1063.21,647.133v1.438h-2.813v7.203h-1.845v-7.203h-2.813v-1.438H1063.21z"/>
			</g>
		</g>
		<g>
			<g>
				<path fill="#FF4C29" d="M1104.383,655.928c-1.308,0-2.301-0.381-2.979-1.145s-1.021-1.857-1.021-3.285
					c0-1.453,0.355-2.57,1.066-3.352s1.738-1.172,3.082-1.172c0.911,0,1.731,0.168,2.461,0.508l-0.555,1.477
					c-0.776-0.301-1.417-0.453-1.922-0.453c-1.495,0-2.242,0.992-2.242,2.977c0,0.971,0.186,1.697,0.559,2.186
					c0.372,0.486,0.918,0.729,1.638,0.729c0.816,0,1.591-0.203,2.319-0.607v1.602c-0.328,0.191-0.679,0.33-1.051,0.414
					C1105.365,655.887,1104.914,655.928,1104.383,655.928z"/>
				<path fill="#FF4C29" d="M1108.321,650.586c0-1.928,0.326-3.41,0.979-4.445c0.653-1.037,1.693-1.703,3.121-2
					c1.078-0.219,2.32-0.434,3.728-0.641l0.258,1.617c-1.709,0.26-2.959,0.463-3.75,0.607c-0.817,0.152-1.408,0.488-1.77,1.008
					c-0.362,0.521-0.572,1.307-0.63,2.354h0.117c0.297-0.434,0.686-0.768,1.164-1.004c0.479-0.238,0.992-0.355,1.539-0.355
					c1.063,0,1.891,0.336,2.484,1.008c0.593,0.672,0.891,1.613,0.891,2.828c0,1.391-0.361,2.465-1.082,3.227
					c-0.722,0.762-1.721,1.141-2.996,1.141c-1.266,0-2.258-0.469-2.977-1.406C1108.678,653.588,1108.321,652.272,1108.321,650.586z
					 M1112.5,654.428c1.364,0,2.047-0.895,2.047-2.688c0-1.729-0.616-2.594-1.852-2.594c-0.339,0-0.667,0.072-0.984,0.219
					s-0.61,0.34-0.879,0.578s-0.476,0.486-0.621,0.742c0,1.229,0.195,2.16,0.586,2.793
					C1111.188,654.112,1111.755,654.428,1112.5,654.428z"/>
			</g>
		</g>
		<g>
			<g>
				<path fill="#676767" d="M991.97,647.133v3.156c0,0.885,0.457,1.328,1.375,1.328c0.441,0,0.875-0.063,1.298-0.186
					c0.422-0.121,0.875-0.318,1.358-0.59v-3.711h1.836v8.641h-1.836v-3.664c-0.506,0.314-0.994,0.543-1.465,0.691
					c-0.473,0.148-0.986,0.223-1.543,0.223c-0.902,0-1.605-0.232-2.109-0.699c-0.506-0.465-0.758-1.117-0.758-1.955v-3.234H991.97z"
					/>
				<path fill="#676767" d="M1006.955,647.133v1.438h-2.813v7.203h-1.844v-7.203h-2.813v-1.438H1006.955z"/>
			</g>
		</g>
		<g>
			<g>
				<path fill="#FF4C29" d="M1157.552,647.133v3.469h4.07v-3.469h1.836v8.641h-1.836v-3.727h-4.07v3.727h-1.836v-8.641H1157.552z"/>
				<path fill="#FF4C29" d="M1174.373,658.828h-1.711v-3.057h-5.922v3.057h-1.695v-4.479h0.703c0.615-0.879,1.104-1.943,1.465-3.189
					c0.362-1.248,0.577-2.592,0.646-4.027h5.25v7.219h1.266L1174.373,658.828L1174.373,658.828z M1171.302,654.35v-5.811h-1.858
					c-0.099,1.072-0.306,2.129-0.621,3.172c-0.313,1.041-0.699,1.922-1.152,2.641h3.632V654.35z"/>
			</g>
		</g>
		<g>
			<g>
				<path fill="#676767" d="M1220.069,647.133v8.641h-1.844v-7.188h-3.875v7.188h-1.837v-8.641H1220.069z"/>
				<path fill="#676767" d="M1224.53,647.133v3.469h4.07v-3.469h1.836v8.641h-1.836v-3.727h-4.07v3.727h-1.836v-8.641H1224.53z"/>
			</g>
		</g>
		<g>
			<g>
				<path fill="#676767" d="M1276.276,649.342c0,1.021-0.596,1.639-1.789,1.852v0.064c0.667,0.078,1.178,0.289,1.531,0.633
					s0.53,0.789,0.53,1.336c0,0.816-0.311,1.445-0.934,1.887c-0.622,0.439-1.527,0.66-2.715,0.66h-4.125v-8.641h4.109
					C1275.146,647.133,1276.276,647.869,1276.276,649.342z M1274.44,649.5c0-0.346-0.134-0.594-0.402-0.746
					c-0.268-0.154-0.668-0.23-1.198-0.23h-2.228v2.078h1.953c0.615,0,1.081-0.08,1.397-0.238
					C1274.281,650.203,1274.44,649.916,1274.44,649.5z M1274.666,653.117c0-0.418-0.161-0.713-0.483-0.889
					c-0.322-0.174-0.808-0.262-1.453-0.262h-2.117v2.445h2.164C1274.036,654.414,1274.666,653.981,1274.666,653.117z"/>
				<path fill="#676767" d="M1284.932,647.133v1.438h-2.813v7.203h-1.844v-7.203h-2.813v-1.438H1284.932z"/>
			</g>
		</g>
		<g>
			<g>
				<path fill="#676767" d="M1326.733,655.928c-1.308,0-2.301-0.381-2.98-1.145c-0.679-0.764-1.02-1.857-1.02-3.285
					c0-1.453,0.354-2.57,1.065-3.352c0.712-0.781,1.738-1.172,3.082-1.172c0.911,0,1.731,0.168,2.462,0.508l-0.556,1.477
					c-0.775-0.301-1.417-0.453-1.922-0.453c-1.495,0-2.242,0.992-2.242,2.977c0,0.971,0.187,1.697,0.56,2.186
					c0.372,0.486,0.918,0.729,1.637,0.729c0.817,0,1.591-0.203,2.32-0.607v1.602c-0.328,0.191-0.68,0.33-1.052,0.414
					C1327.715,655.887,1327.264,655.928,1326.733,655.928z"/>
				<path fill="#676767" d="M1335.552,655.928c-1.094,0-1.942-0.393-2.547-1.18h-0.108c0.071,0.729,0.108,1.172,0.108,1.328v3.539
					h-1.836v-12.484h1.484c0.041,0.162,0.127,0.547,0.258,1.156h0.094c0.572-0.875,1.433-1.313,2.578-1.313
					c1.078,0,1.918,0.391,2.521,1.172c0.602,0.781,0.901,1.877,0.901,3.289c0,1.41-0.307,2.514-0.918,3.305
					C1337.476,655.533,1336.631,655.928,1335.552,655.928z M1335.108,648.475c-0.729,0-1.262,0.215-1.599,0.643
					c-0.336,0.426-0.504,1.107-0.504,2.047v0.271c0,1.053,0.166,1.814,0.5,2.285c0.333,0.473,0.877,0.707,1.634,0.707
					c0.635,0,1.125-0.26,1.469-0.781c0.344-0.52,0.516-1.262,0.516-2.227c0-0.969-0.171-1.701-0.512-2.199
					C1336.27,648.725,1335.769,648.475,1335.108,648.475z"/>
			</g>
		</g>
		<g>
			<g>
				<path fill="#676767" d="M664.014,647.133v8.641h-1.845v-7.188h-3.875v7.188h-1.836v-8.641H664.014z"/>
				<path fill="#676767" d="M673.131,647.133v1.438h-2.813v7.203h-1.844v-7.203h-2.813v-1.438H673.131z"/>
			</g>
		</g>
		<g>
			<g>
				<path fill="#FF4C29" d="M714.302,655.928c-1.307,0-2.301-0.381-2.979-1.145s-1.021-1.857-1.021-3.285
					c0-1.453,0.355-2.57,1.066-3.352s1.738-1.172,3.082-1.172c0.912,0,1.732,0.168,2.461,0.508l-0.555,1.477
					c-0.776-0.301-1.417-0.453-1.922-0.453c-1.495,0-2.242,0.992-2.242,2.977c0,0.971,0.186,1.697,0.559,2.186
					s0.918,0.729,1.638,0.729c0.817,0,1.591-0.203,2.319-0.607v1.602c-0.328,0.191-0.678,0.33-1.051,0.414
					C715.285,655.887,714.834,655.928,714.302,655.928z"/>
				<path fill="#FF4C29" d="M718.24,650.586c0-1.928,0.327-3.41,0.98-4.445c0.652-1.037,1.693-1.703,3.12-2
					c1.078-0.219,2.32-0.434,3.728-0.641l0.258,1.617c-1.708,0.26-2.958,0.463-3.75,0.607c-0.818,0.152-1.408,0.488-1.77,1.008
					c-0.362,0.521-0.572,1.307-0.63,2.354h0.117c0.297-0.434,0.686-0.768,1.164-1.004c0.479-0.238,0.992-0.355,1.539-0.355
					c1.063,0,1.892,0.336,2.484,1.008s0.891,1.613,0.891,2.828c0,1.391-0.361,2.465-1.082,3.227s-1.72,1.141-2.996,1.141
					c-1.266,0-2.258-0.469-2.977-1.406C718.597,653.588,718.24,652.272,718.24,650.586z M722.42,654.428
					c1.365,0,2.047-0.895,2.047-2.688c0-1.729-0.616-2.594-1.852-2.594c-0.338,0-0.667,0.072-0.984,0.219
					c-0.316,0.146-0.61,0.34-0.879,0.578c-0.268,0.238-0.475,0.486-0.621,0.742c0,1.229,0.195,2.16,0.586,2.793
					C721.108,654.112,721.676,654.428,722.42,654.428z"/>
			</g>
		</g>
		<g>
			<g>
				<path fill="#676767" d="M601.891,647.133v3.156c0,0.885,0.458,1.328,1.375,1.328c0.441,0,0.875-0.063,1.297-0.186
					c0.422-0.121,0.875-0.318,1.358-0.59v-3.711h1.836v8.641h-1.836v-3.664c-0.505,0.314-0.994,0.543-1.465,0.691
					c-0.472,0.148-0.986,0.223-1.543,0.223c-0.9,0-1.604-0.232-2.109-0.699c-0.505-0.465-0.758-1.117-0.758-1.955v-3.234H601.891z"
					/>
				<path fill="#676767" d="M616.876,647.133v1.438h-2.813v7.203h-1.845v-7.203h-2.813v-1.438H616.876z"/>
			</g>
		</g>
		<g>
			<g>
				<path fill="#FF4C29" d="M767.474,647.133v3.469h4.069v-3.469h1.836v8.641h-1.836v-3.727h-4.069v3.727h-1.836v-8.641H767.474z"/>
				<path fill="#FF4C29" d="M784.295,658.828h-1.711v-3.057h-5.922v3.057h-1.695v-4.479h0.703c0.614-0.879,1.104-1.943,1.465-3.189
					c0.362-1.248,0.577-2.592,0.646-4.027h5.25v7.219h1.266L784.295,658.828L784.295,658.828z M781.224,654.35v-5.811h-1.859
					c-0.099,1.072-0.306,2.129-0.621,3.172c-0.314,1.041-0.699,1.922-1.152,2.641h3.633V654.35z"/>
			</g>
		</g>
		<g>
			<g>
				<path fill="#676767" d="M829.989,647.133v8.641h-1.844v-7.188h-3.875v7.188h-1.836v-8.641H829.989z"/>
				<path fill="#676767" d="M834.45,647.133v3.469h4.07v-3.469h1.836v8.641h-1.836v-3.727h-4.07v3.727h-1.836v-8.641H834.45z"/>
			</g>
		</g>
		<g>
			<g>
				<path fill="#676767" d="M886.197,649.342c0,1.021-0.597,1.639-1.789,1.852v0.064c0.667,0.078,1.177,0.289,1.531,0.633
					c0.354,0.344,0.531,0.789,0.531,1.336c0,0.816-0.313,1.445-0.935,1.887c-0.623,0.439-1.526,0.66-2.715,0.66h-4.125v-8.641h4.108
					C885.067,647.133,886.197,647.869,886.197,649.342z M884.361,649.5c0-0.346-0.134-0.594-0.402-0.746
					c-0.269-0.154-0.668-0.23-1.199-0.23h-2.227v2.078h1.953c0.614,0,1.081-0.08,1.398-0.238
					C884.202,650.203,884.361,649.916,884.361,649.5z M884.588,653.117c0-0.418-0.162-0.713-0.483-0.889
					c-0.323-0.174-0.809-0.262-1.453-0.262h-2.117v2.445h2.164C883.957,654.414,884.588,653.981,884.588,653.117z"/>
				<path fill="#676767" d="M894.853,647.133v1.438h-2.813v7.203h-1.844v-7.203h-2.812v-1.438H894.853z"/>
			</g>
		</g>
		<g>
			<g>
				<path fill="#676767" d="M936.655,655.928c-1.307,0-2.301-0.381-2.979-1.145c-0.68-0.764-1.021-1.857-1.021-3.285
					c0-1.453,0.354-2.57,1.065-3.352c0.712-0.781,1.738-1.172,3.082-1.172c0.912,0,1.732,0.168,2.461,0.508l-0.555,1.477
					c-0.775-0.301-1.417-0.453-1.922-0.453c-1.495,0-2.242,0.992-2.242,2.977c0,0.971,0.187,1.697,0.56,2.186
					s0.918,0.729,1.637,0.729c0.818,0,1.591-0.203,2.32-0.607v1.602c-0.328,0.191-0.679,0.33-1.052,0.414
					C937.636,655.887,937.186,655.928,936.655,655.928z"/>
				<path fill="#676767" d="M945.475,655.928c-1.095,0-1.943-0.393-2.548-1.18h-0.108c0.073,0.729,0.108,1.172,0.108,1.328v3.539
					h-1.836v-12.484h1.484c0.042,0.162,0.127,0.547,0.258,1.156h0.094c0.573-0.875,1.433-1.313,2.578-1.313
					c1.078,0,1.918,0.391,2.521,1.172c0.602,0.781,0.901,1.877,0.901,3.289c0,1.41-0.307,2.514-0.918,3.305
					C947.399,655.533,946.552,655.928,945.475,655.928z M945.03,648.475c-0.729,0-1.262,0.215-1.598,0.643
					c-0.337,0.426-0.505,1.107-0.505,2.047v0.271c0,1.053,0.168,1.814,0.5,2.285c0.334,0.473,0.877,0.707,1.634,0.707
					c0.635,0,1.125-0.26,1.469-0.781c0.344-0.52,0.516-1.262,0.516-2.227c0-0.969-0.17-1.701-0.512-2.199
					C946.192,648.725,945.691,648.475,945.03,648.475z"/>
			</g>
		</g>
		<g>
			<g>
				<g>
					<path fill="none" stroke="#FFD600" stroke-width="1.1587" stroke-miterlimit="10" d="M187.205,387.792v233.234v5.188v12.146
						c0,8.709,7.045,15.754,15.754,15.754"/>
					
						<polygon fill="#FFD600" stroke="#FFD600" stroke-width="1.1587" stroke-linecap="round" stroke-linejoin="round" stroke-miterlimit="10" points="
						343.198,338.908 187.205,338.908 187.205,371.26 187.205,386.802 187.205,393.565 195.411,386.802 343.198,386.802 					"/>
					<g>
						<g>
							<path d="M207.087,357.526h-0.548v-7.337h-4.533v7.337h-0.548v-7.853h5.629V357.526L207.087,357.526z"/>
							<path d="M214.775,354.598c0,0.953-0.231,1.696-0.693,2.231c-0.462,0.536-1.099,0.803-1.912,0.803
								c-0.512,0-0.963-0.124-1.354-0.371c-0.392-0.247-0.689-0.602-0.897-1.063c-0.208-0.462-0.312-0.996-0.312-1.602
								c0-0.953,0.23-1.694,0.692-2.227c0.462-0.531,1.097-0.797,1.901-0.797c0.802,0,1.432,0.27,1.888,0.808
								C214.547,352.923,214.775,353.661,214.775,354.598z M210.167,354.598c0,0.802,0.176,1.428,0.529,1.877
								c0.353,0.45,0.852,0.674,1.496,0.674c0.644,0,1.143-0.225,1.496-0.674c0.353-0.449,0.528-1.075,0.528-1.877
								c0-0.806-0.178-1.431-0.535-1.875c-0.355-0.444-0.855-0.666-1.501-0.666c-0.645,0-1.142,0.221-1.489,0.664
								C210.341,353.164,210.167,353.79,210.167,354.598z"/>
							<path d="M217.592,351.687v1.955c0,0.494,0.12,0.852,0.36,1.069s0.609,0.328,1.105,0.328c0.352,0,0.687-0.063,1.005-0.188
								c0.317-0.125,0.649-0.326,0.993-0.602v-2.563h0.532v5.838h-0.532v-2.771c-0.357,0.276-0.71,0.473-1.056,0.591
								c-0.345,0.118-0.719,0.177-1.12,0.177c-0.598,0-1.05-0.155-1.355-0.467c-0.308-0.312-0.459-0.761-0.459-1.348v-2.021H217.592
								L217.592,351.687z"/>
							<path d="M227.858,357.526l-0.135-0.924h-0.043c-0.293,0.376-0.595,0.643-0.904,0.797c-0.311,0.156-0.677,0.234-1.1,0.234
								c-0.572,0-1.019-0.147-1.337-0.44c-0.317-0.293-0.478-0.699-0.478-1.219c0-0.569,0.236-1.012,0.712-1.327
								c0.474-0.314,1.161-0.48,2.06-0.5l1.112-0.031v-0.388c0-0.555-0.113-0.974-0.338-1.257c-0.226-0.283-0.589-0.424-1.09-0.424
								c-0.541,0-1.102,0.15-1.682,0.451l-0.198-0.462c0.641-0.302,1.274-0.451,1.9-0.451c0.642,0,1.12,0.167,1.438,0.5
								c0.315,0.333,0.475,0.852,0.475,1.558v3.883H227.858z M225.709,357.15c0.623,0,1.114-0.178,1.475-0.534
								c0.359-0.356,0.54-0.852,0.54-1.485v-0.575l-1.021,0.043c-0.82,0.04-1.405,0.167-1.753,0.384
								c-0.351,0.218-0.524,0.555-0.524,1.014c0,0.364,0.112,0.648,0.335,0.852C224.985,357.05,225.301,357.15,225.709,357.15z"/>
							<path d="M234.616,352.149h-1.944v5.376h-0.525v-5.376h-1.993v-0.462h4.463V352.149z"/>
							<path d="M241.413,354.598c0,0.953-0.231,1.696-0.693,2.231c-0.462,0.536-1.099,0.803-1.912,0.803
								c-0.512,0-0.963-0.124-1.354-0.371s-0.689-0.602-0.897-1.063c-0.208-0.462-0.312-0.996-0.312-1.602
								c0-0.953,0.23-1.694,0.693-2.227c0.462-0.531,1.096-0.797,1.9-0.797c0.802,0,1.433,0.27,1.889,0.808
								C241.184,352.923,241.413,353.661,241.413,354.598z M236.803,354.598c0,0.802,0.177,1.428,0.529,1.877
								c0.354,0.45,0.853,0.674,1.496,0.674s1.143-0.225,1.496-0.674c0.353-0.449,0.529-1.075,0.529-1.877
								c0-0.806-0.179-1.431-0.535-1.875s-0.856-0.666-1.501-0.666c-0.646,0-1.143,0.221-1.49,0.664
								C236.979,353.164,236.803,353.79,236.803,354.598z"/>
							<path d="M246.968,351.687h0.661l-2.616,2.825l2.805,3.013h-0.714l-2.762-2.959v2.959H243.8v-5.838h0.542v2.836
								L246.968,351.687z"/>
							<path d="M253.778,357.526h-0.532v-5.838h4.657v5.838h-0.532v-5.333h-3.593V357.526z"/>
							<path d="M263.125,357.634c-0.899,0-1.554-0.336-1.966-1.01h-0.038l0.016,0.451c0.015,0.265,0.021,0.555,0.021,0.869v2.225
								h-0.532v-8.481h0.451l0.102,0.833h0.032c0.401-0.63,1.042-0.944,1.923-0.944c0.788,0,1.39,0.259,1.802,0.775
								c0.414,0.519,0.621,1.271,0.621,2.259c0,0.959-0.217,1.704-0.652,2.231C264.47,357.37,263.877,357.634,263.125,357.634z
								 M263.114,357.161c0.598,0,1.061-0.223,1.389-0.666c0.327-0.444,0.491-1.065,0.491-1.864c0-1.715-0.62-2.573-1.858-2.573
								c-0.68,0-1.18,0.188-1.499,0.562c-0.318,0.375-0.478,0.983-0.478,1.829v0.172c0,0.913,0.153,1.564,0.459,1.955
								C261.925,356.966,262.424,357.161,263.114,357.161z"/>
							<path d="M270.302,357.634c-0.849,0-1.51-0.261-1.983-0.784c-0.476-0.522-0.712-1.255-0.712-2.197
								c0-0.931,0.229-1.677,0.688-2.236c0.458-0.561,1.076-0.84,1.854-0.84c0.688,0,1.229,0.239,1.627,0.72
								c0.396,0.479,0.596,1.131,0.596,1.955v0.43h-4.206c0.007,0.802,0.194,1.415,0.563,1.837c0.366,0.422,0.892,0.634,1.575,0.634
								c0.333,0,0.626-0.022,0.878-0.069c0.253-0.046,0.572-0.147,0.959-0.302v0.483c-0.329,0.144-0.634,0.241-0.912,0.293
								C270.948,357.607,270.638,357.634,270.302,357.634z M270.147,352.048c-0.563,0-1.014,0.185-1.354,0.556
								c-0.34,0.37-0.539,0.905-0.596,1.604h3.608c0-0.678-0.146-1.206-0.439-1.587S270.666,352.048,270.147,352.048z"/>
							<path d="M277.469,356.957l0.333-0.94l1.682-4.329h0.735v5.838h-0.505v-5.193c-0.079,0.226-0.162,0.457-0.25,0.692
								c-0.087,0.236-0.672,1.737-1.753,4.501h-0.473l-1.617-4.104c-0.068-0.165-0.132-0.338-0.19-0.521
								c-0.06-0.183-0.125-0.379-0.195-0.591v5.215h-0.483v-5.838h0.704l1.688,4.297
								C277.275,356.332,277.384,356.655,277.469,356.957z"/>
							<path d="M283.343,349.674l0.064,0.106c-0.27,0.949-0.58,1.811-0.936,2.584h-0.349c0.104-0.345,0.213-0.776,0.328-1.298
								c0.115-0.521,0.202-0.985,0.263-1.394L283.343,349.674L283.343,349.674z"/>
							<path d="M287.7,357.634c-0.85,0-1.517-0.268-2-0.803c-0.485-0.535-0.729-1.266-0.729-2.188c0-0.949,0.251-1.697,0.754-2.245
								c0.504-0.548,1.188-0.821,2.05-0.821c0.222,0,0.477,0.022,0.765,0.069c0.289,0.046,0.537,0.111,0.744,0.193l-0.156,0.473
								c-0.211-0.075-0.449-0.136-0.711-0.183c-0.264-0.046-0.48-0.07-0.653-0.07c-0.663,0-1.184,0.188-1.563,0.564
								s-0.601,0.903-0.661,1.584h3.357v0.473h-3.378c0.007,0.777,0.205,1.383,0.596,1.818c0.39,0.436,0.915,0.652,1.574,0.652
								c0.562,0,1.07-0.095,1.524-0.284v0.493c-0.165,0.083-0.381,0.148-0.649,0.199C288.295,357.609,288.008,357.634,287.7,357.634
								z"/>
							<path d="M293.911,357.634c-0.899,0-1.554-0.336-1.966-1.01h-0.038l0.016,0.451c0.015,0.265,0.021,0.555,0.021,0.869v2.225
								h-0.532v-8.481h0.451l0.102,0.833h0.032c0.401-0.63,1.042-0.944,1.923-0.944c0.788,0,1.388,0.259,1.802,0.775
								c0.413,0.519,0.62,1.271,0.62,2.259c0,0.959-0.218,1.704-0.651,2.231C295.256,357.37,294.663,357.634,293.911,357.634z
								 M293.9,357.161c0.598,0,1.061-0.223,1.388-0.666c0.328-0.444,0.492-1.065,0.492-1.864c0-1.715-0.62-2.573-1.858-2.573
								c-0.68,0-1.18,0.188-1.499,0.562c-0.318,0.375-0.478,0.983-0.478,1.829v0.172c0,0.913,0.152,1.564,0.459,1.955
								C292.71,356.966,293.209,357.161,293.9,357.161z"/>
							<path d="M299.261,351.687v2.563h3.706v-2.563h0.526v5.838h-0.526v-2.813h-3.706v2.813h-0.531v-5.838H299.261z"/>
							<path d="M311.049,354.598c0,0.953-0.23,1.696-0.692,2.231c-0.462,0.536-1.1,0.803-1.912,0.803
								c-0.513,0-0.963-0.124-1.354-0.371c-0.391-0.247-0.688-0.602-0.896-1.063c-0.208-0.462-0.313-0.996-0.313-1.602
								c0-0.953,0.231-1.694,0.693-2.227c0.462-0.531,1.096-0.797,1.9-0.797c0.803,0,1.433,0.27,1.889,0.808
								C310.821,352.923,311.049,353.661,311.049,354.598z M306.44,354.598c0,0.802,0.176,1.428,0.528,1.877
								c0.354,0.45,0.853,0.674,1.496,0.674c0.645,0,1.144-0.225,1.496-0.674c0.354-0.449,0.529-1.075,0.529-1.877
								c0-0.806-0.178-1.431-0.535-1.875c-0.356-0.444-0.856-0.666-1.501-0.666c-0.646,0-1.142,0.221-1.49,0.664
								C306.614,353.164,306.44,353.79,306.44,354.598z"/>
							<path d="M316.867,352.149h-2.9v5.376h-0.532v-5.838h3.433V352.149z"/>
							<path d="M323.664,354.598c0,0.953-0.231,1.696-0.693,2.231c-0.462,0.536-1.099,0.803-1.912,0.803
								c-0.512,0-0.963-0.124-1.354-0.371s-0.689-0.602-0.897-1.063c-0.208-0.462-0.312-0.996-0.312-1.602
								c0-0.953,0.23-1.694,0.693-2.227c0.462-0.531,1.096-0.797,1.9-0.797c0.802,0,1.433,0.27,1.889,0.808
								C323.436,352.923,323.664,353.661,323.664,354.598z M319.054,354.598c0,0.802,0.177,1.428,0.529,1.877
								c0.354,0.45,0.853,0.674,1.496,0.674s1.143-0.225,1.496-0.674c0.353-0.449,0.529-1.075,0.529-1.877
								c0-0.806-0.179-1.431-0.535-1.875s-0.856-0.666-1.501-0.666c-0.646,0-1.143,0.221-1.49,0.664
								C319.23,353.164,319.054,353.79,319.054,354.598z"/>
							<path d="M201.856,372.526h-0.532v-5.838h4.657v5.838h-0.532v-5.333h-3.593V372.526z"/>
							<path d="M211.064,372.634c-0.85,0-1.511-0.261-1.984-0.784c-0.475-0.522-0.712-1.255-0.712-2.197
								c0-0.931,0.229-1.677,0.688-2.236c0.458-0.561,1.076-0.84,1.854-0.84c0.688,0,1.229,0.239,1.627,0.72
								c0.396,0.479,0.596,1.131,0.596,1.955v0.43h-4.206c0.007,0.802,0.194,1.415,0.563,1.837c0.367,0.422,0.892,0.634,1.576,0.634
								c0.333,0,0.626-0.022,0.878-0.069c0.253-0.046,0.571-0.147,0.959-0.302v0.483c-0.33,0.144-0.635,0.241-0.913,0.293
								C211.708,372.607,211.4,372.634,211.064,372.634z M210.908,367.048c-0.563,0-1.013,0.185-1.354,0.556
								c-0.34,0.37-0.539,0.905-0.596,1.604h3.609c0-0.678-0.147-1.206-0.44-1.587S211.427,367.048,210.908,367.048z"/>
							<path d="M218.01,372.634c-0.898,0-1.554-0.336-1.966-1.01h-0.038l0.017,0.451c0.014,0.265,0.021,0.555,0.021,0.869v2.225
								h-0.532v-8.481h0.451l0.103,0.833h0.031c0.401-0.63,1.042-0.944,1.924-0.944c0.787,0,1.388,0.259,1.802,0.775
								c0.413,0.519,0.62,1.271,0.62,2.259c0,0.959-0.219,1.704-0.652,2.231C219.356,372.37,218.761,372.634,218.01,372.634z
								 M218,372.161c0.598,0,1.062-0.223,1.388-0.666c0.328-0.444,0.492-1.065,0.492-1.864c0-1.715-0.62-2.573-1.857-2.573
								c-0.681,0-1.181,0.188-1.499,0.562c-0.319,0.375-0.479,0.983-0.479,1.829v0.172c0,0.913,0.153,1.564,0.459,1.955
								S217.308,372.161,218,372.161z"/>
							<path d="M222.755,365.065c0-0.344,0.113-0.516,0.338-0.516c0.111,0,0.198,0.045,0.261,0.134s0.094,0.217,0.094,0.381
								c0,0.161-0.031,0.288-0.094,0.382c-0.063,0.093-0.149,0.14-0.261,0.14C222.868,365.587,222.755,365.413,222.755,365.065z
								 M223.362,372.526h-0.532v-5.838h0.532V372.526z"/>
							<path d="M230.916,369.598c0,0.953-0.231,1.696-0.693,2.231c-0.462,0.536-1.099,0.803-1.911,0.803
								c-0.513,0-0.964-0.124-1.354-0.371s-0.689-0.602-0.897-1.063c-0.208-0.462-0.312-0.996-0.312-1.602
								c0-0.953,0.231-1.694,0.693-2.227c0.462-0.531,1.096-0.797,1.9-0.797c0.803,0,1.433,0.27,1.889,0.808
								C230.688,367.923,230.916,368.661,230.916,369.598z M226.306,369.598c0,0.802,0.177,1.428,0.529,1.877
								c0.354,0.45,0.853,0.674,1.496,0.674s1.143-0.225,1.496-0.674c0.353-0.449,0.529-1.075,0.529-1.877
								c0-0.806-0.179-1.431-0.535-1.875s-0.856-0.666-1.501-0.666c-0.646,0-1.143,0.221-1.49,0.664
								C226.482,368.164,226.306,368.79,226.306,369.598z"/>
							<path d="M238.067,374.509h-0.526v-1.982h-4.469v1.982h-0.526v-2.487h0.387c0.487-0.684,0.863-1.477,1.129-2.379
								c0.265-0.901,0.404-1.887,0.419-2.954h2.809v5.333h0.779L238.067,374.509L238.067,374.509z M236.756,372.021v-4.839h-1.814
								c-0.086,1.938-0.556,3.55-1.407,4.839H236.756z"/>
							<path d="M239.099,366.687h0.549l1.234,3.276c0.376,1.006,0.614,1.685,0.714,2.036h0.032c0.15-0.462,0.396-1.151,0.736-2.068
								l1.234-3.244h0.549l-2.616,6.784c-0.211,0.551-0.39,0.924-0.532,1.117s-0.311,0.338-0.502,0.435
								c-0.192,0.098-0.424,0.146-0.696,0.146c-0.204,0-0.432-0.038-0.682-0.113v-0.462c0.208,0.057,0.432,0.086,0.671,0.086
								c0.183,0,0.344-0.043,0.483-0.129c0.139-0.086,0.266-0.219,0.378-0.4c0.112-0.181,0.244-0.467,0.393-0.858
								c0.148-0.393,0.244-0.647,0.287-0.766L239.099,366.687z"/>
						</g>
					</g>
				</g>
			</g>
			<circle fill="none" stroke="#FFD600" stroke-width="1.1587" stroke-miterlimit="10" cx="220.603" cy="652.102" r="18.037"/>
		</g>
		<g>
			<g>
				<g>
					<path fill="none" stroke="#FFD600" stroke-width="1.1587" stroke-miterlimit="10" d="M799.205,384.29v236.736v5.188v12.146
						c0,8.709,7.045,15.754,15.754,15.754"/>
					
						<polygon fill="#FFD600" stroke="#FFD600" stroke-width="1.1587" stroke-linecap="round" stroke-linejoin="round" stroke-miterlimit="10" points="
						1002.927,340.411 799.205,340.411 799.205,370.76 799.205,383.3 799.205,390.063 807.411,383.3 1002.927,383.3 					"/>
					<g>
						<g>
							<g>
								<path d="M817.722,351.01c0,1.024-0.543,1.654-1.627,1.891v0.032c1.188,0.254,1.782,0.893,1.782,1.912
									c0,0.72-0.253,1.281-0.76,1.684s-1.222,0.604-2.146,0.604c-0.867,0-1.596-0.154-2.187-0.462v-0.56
									c0.34,0.165,0.704,0.292,1.09,0.382c0.387,0.089,0.752,0.134,1.097,0.134c0.716,0,1.28-0.155,1.694-0.464
									c0.413-0.311,0.62-0.744,0.62-1.304c0-0.544-0.201-0.955-0.604-1.234s-1.006-0.419-1.808-0.419h-1.166v-0.517h1.208
									c0.76,0,1.319-0.143,1.682-0.43c0.361-0.287,0.542-0.693,0.542-1.219c0-0.448-0.166-0.807-0.497-1.074
									c-0.332-0.269-0.764-0.403-1.297-0.403c-0.397,0-0.764,0.058-1.097,0.169c-0.333,0.113-0.692,0.308-1.08,0.583l-0.312-0.43
									c0.723-0.551,1.552-0.827,2.486-0.827c0.734,0,1.313,0.175,1.738,0.526C817.51,349.938,817.722,350.413,817.722,351.01z"/>
								<path d="M823.788,357.026l-0.134-0.924h-0.043c-0.293,0.376-0.595,0.643-0.905,0.797c-0.31,0.156-0.676,0.234-1.099,0.234
									c-0.573,0-1.02-0.147-1.337-0.44c-0.318-0.293-0.479-0.699-0.479-1.219c0-0.569,0.237-1.012,0.712-1.327
									c0.475-0.314,1.161-0.48,2.061-0.5l1.111-0.031v-0.388c0-0.555-0.112-0.974-0.338-1.257
									c-0.225-0.283-0.589-0.424-1.09-0.424c-0.541,0-1.101,0.15-1.681,0.451l-0.199-0.462c0.641-0.302,1.275-0.451,1.901-0.451
									c0.641,0,1.119,0.167,1.437,0.5c0.316,0.333,0.476,0.852,0.476,1.558v3.883H823.788z M821.64,356.65
									c0.623,0,1.113-0.178,1.475-0.534c0.359-0.356,0.54-0.852,0.54-1.485v-0.575l-1.021,0.043
									c-0.82,0.04-1.405,0.167-1.754,0.384c-0.35,0.218-0.523,0.555-0.523,1.014c0,0.364,0.111,0.648,0.335,0.852
									C820.916,356.55,821.232,356.65,821.64,356.65z"/>
								<path d="M830.01,351.187h0.661l-2.616,2.825l2.805,3.013h-0.714l-2.761-2.959v2.959h-0.543v-5.838h0.543v2.836
									L830.01,351.187z"/>
								<path d="M832.585,349.565c0-0.344,0.113-0.516,0.339-0.516c0.11,0,0.197,0.045,0.261,0.134
									c0.063,0.089,0.094,0.217,0.094,0.381c0,0.161-0.031,0.288-0.094,0.382c-0.063,0.093-0.15,0.14-0.261,0.14
									C832.698,350.087,832.585,349.913,832.585,349.565z M833.192,357.026h-0.532v-5.838h0.532V357.026z"/>
								<path d="M836.448,351.187v2.563h3.706v-2.563h0.525v5.838h-0.525v-2.813h-3.706v2.813h-0.532v-5.838H836.448z"/>
								<path d="M843.836,351.187v1.955c0,0.494,0.12,0.852,0.36,1.069s0.608,0.328,1.106,0.328c0.351,0,0.686-0.063,1.004-0.188
									c0.317-0.125,0.649-0.326,0.994-0.602v-2.563h0.531v5.838h-0.531v-2.771c-0.358,0.276-0.711,0.473-1.057,0.591
									c-0.345,0.118-0.719,0.177-1.12,0.177c-0.598,0-1.05-0.155-1.355-0.467c-0.308-0.312-0.459-0.761-0.459-1.348v-2.021
									H843.836L843.836,351.187z"/>
								<path d="M852.915,357.134c-0.849,0-1.51-0.261-1.984-0.784c-0.475-0.522-0.712-1.255-0.712-2.197
									c0-0.931,0.229-1.677,0.688-2.236c0.458-0.561,1.076-0.84,1.853-0.84c0.688,0,1.23,0.239,1.628,0.72
									c0.396,0.479,0.596,1.131,0.596,1.955v0.43h-4.206c0.007,0.802,0.194,1.415,0.561,1.837
									c0.367,0.422,0.894,0.634,1.577,0.634c0.333,0,0.625-0.022,0.878-0.069c0.252-0.046,0.572-0.147,0.958-0.302v0.483
									c-0.329,0.144-0.634,0.241-0.913,0.293C853.559,357.107,853.251,357.134,852.915,357.134z M852.76,351.548
									c-0.563,0-1.014,0.185-1.354,0.556c-0.34,0.37-0.539,0.905-0.596,1.604h3.608c0-0.678-0.146-1.206-0.439-1.587
									S853.278,351.548,852.76,351.548z"/>
								<path d="M857.896,351.187v2.563h3.706v-2.563h0.525v5.838h-0.525v-2.813h-3.706v2.813h-0.532v-5.838H857.896z"/>
								<path d="M865.385,351.187v2.563h3.707v-2.563h0.525v5.838h-0.525v-2.813h-3.707v2.813h-0.531v-5.838H865.385z"/>
								<path d="M872.258,357.026h-0.673l1.763-2.519c-0.537-0.1-0.926-0.287-1.163-0.559c-0.238-0.272-0.357-0.621-0.357-1.048
									c0-0.529,0.178-0.947,0.535-1.254c0.356-0.306,0.835-0.459,1.437-0.459h2.406v5.838h-0.525v-2.455h-1.783L872.258,357.026z
									 M872.385,352.88c0,0.4,0.131,0.699,0.39,0.894c0.26,0.195,0.651,0.293,1.174,0.293h1.729v-2.374h-1.892
									c-0.444,0-0.789,0.102-1.034,0.305C872.508,352.199,872.385,352.493,872.385,352.88z"/>
								<path d="M883.089,357.026h-0.531v-5.838h4.656v5.838h-0.531v-5.333h-3.594V357.026z"/>
								<path d="M892.436,357.134c-0.899,0-1.554-0.336-1.966-1.01h-0.038l0.016,0.451c0.014,0.265,0.021,0.555,0.021,0.869v2.225
									h-0.531v-8.481h0.451l0.102,0.833h0.032c0.4-0.63,1.042-0.944,1.923-0.944c0.788,0,1.388,0.259,1.802,0.775
									c0.413,0.519,0.62,1.271,0.62,2.259c0,0.959-0.218,1.704-0.652,2.231C893.781,356.87,893.188,357.134,892.436,357.134z
									 M892.426,356.661c0.599,0,1.062-0.223,1.389-0.666c0.328-0.444,0.492-1.065,0.492-1.864c0-1.715-0.62-2.573-1.858-2.573
									c-0.68,0-1.18,0.188-1.499,0.562c-0.318,0.375-0.479,0.983-0.479,1.829v0.172c0,0.913,0.153,1.564,0.459,1.955
									C891.236,356.466,891.735,356.661,892.426,356.661z"/>
								<path d="M899.614,357.134c-0.849,0-1.51-0.261-1.984-0.784c-0.475-0.522-0.712-1.255-0.712-2.197
									c0-0.931,0.229-1.677,0.688-2.236c0.458-0.561,1.076-0.84,1.853-0.84c0.688,0,1.23,0.239,1.627,0.72
									c0.397,0.479,0.597,1.131,0.597,1.955v0.43h-4.206c0.007,0.802,0.193,1.415,0.562,1.837
									c0.367,0.422,0.893,0.634,1.576,0.634c0.333,0,0.626-0.022,0.878-0.069c0.253-0.046,0.572-0.147,0.959-0.302v0.483
									c-0.33,0.144-0.634,0.241-0.913,0.293C900.258,357.107,899.95,357.134,899.614,357.134z M899.458,351.548
									c-0.562,0-1.013,0.185-1.354,0.556c-0.341,0.37-0.539,0.905-0.597,1.604h3.609c0-0.678-0.146-1.206-0.439-1.587
									S899.977,351.548,899.458,351.548z"/>
								<path d="M906.781,356.457l0.333-0.94l1.681-4.329h0.736v5.838h-0.505v-5.193c-0.079,0.226-0.162,0.457-0.25,0.692
									c-0.087,0.236-0.672,1.737-1.753,4.501h-0.473l-1.617-4.104c-0.068-0.165-0.133-0.338-0.19-0.521
									c-0.06-0.183-0.125-0.379-0.196-0.591v5.215h-0.482v-5.838h0.704l1.687,4.297
									C906.585,355.832,906.695,356.155,906.781,356.457z"/>
								<path d="M912.653,349.174l0.063,0.106c-0.269,0.949-0.58,1.811-0.935,2.584h-0.349c0.104-0.345,0.213-0.776,0.328-1.298
									c0.114-0.521,0.201-0.985,0.263-1.394L912.653,349.174L912.653,349.174z"/>
								<path d="M917.011,357.134c-0.85,0-1.517-0.268-2.002-0.803c-0.484-0.535-0.728-1.266-0.728-2.188
									c0-0.949,0.251-1.697,0.755-2.245c0.503-0.548,1.186-0.821,2.049-0.821c0.223,0,0.478,0.022,0.767,0.069
									c0.288,0.046,0.536,0.111,0.743,0.193l-0.155,0.473c-0.211-0.075-0.448-0.136-0.712-0.183
									c-0.264-0.046-0.48-0.07-0.652-0.07c-0.663,0-1.184,0.188-1.563,0.564s-0.601,0.903-0.661,1.584h3.356v0.473h-3.378
									c0.007,0.777,0.206,1.383,0.597,1.818c0.39,0.436,0.914,0.652,1.573,0.652c0.563,0,1.071-0.095,1.525-0.284v0.493
									c-0.165,0.083-0.381,0.148-0.65,0.199C917.607,357.109,917.319,357.134,917.011,357.134z"/>
								<path d="M923.222,357.134c-0.899,0-1.555-0.336-1.967-1.01h-0.037l0.016,0.451c0.014,0.265,0.021,0.555,0.021,0.869v2.225
									h-0.532v-8.481h0.451l0.103,0.833h0.032c0.4-0.63,1.041-0.944,1.923-0.944c0.788,0,1.389,0.259,1.802,0.775
									c0.414,0.519,0.621,1.271,0.621,2.259c0,0.959-0.217,1.704-0.653,2.231C924.568,356.87,923.974,357.134,923.222,357.134z
									 M923.211,356.661c0.599,0,1.062-0.223,1.39-0.666c0.327-0.444,0.491-1.065,0.491-1.864c0-1.715-0.621-2.573-1.858-2.573
									c-0.681,0-1.181,0.188-1.499,0.562c-0.319,0.375-0.479,0.983-0.479,1.829v0.172c0,0.913,0.153,1.564,0.459,1.955
									C922.022,356.466,922.52,356.661,923.211,356.661z"/>
								<path d="M928.573,351.187v2.563h3.706v-2.563h0.525v5.838h-0.525v-2.813h-3.706v2.813h-0.532v-5.838H928.573z"/>
								<path d="M940.36,354.098c0,0.953-0.231,1.696-0.693,2.231c-0.462,0.536-1.099,0.803-1.912,0.803
									c-0.512,0-0.963-0.124-1.354-0.371c-0.392-0.247-0.689-0.602-0.897-1.063c-0.207-0.462-0.312-0.996-0.312-1.602
									c0-0.953,0.231-1.694,0.692-2.227c0.463-0.531,1.097-0.797,1.901-0.797c0.802,0,1.431,0.27,1.888,0.808
									C940.131,352.423,940.36,353.161,940.36,354.098z M935.751,354.098c0,0.802,0.177,1.428,0.529,1.877
									c0.353,0.45,0.851,0.674,1.496,0.674c0.645,0,1.143-0.225,1.496-0.674c0.353-0.449,0.528-1.075,0.528-1.877
									c0-0.806-0.178-1.431-0.533-1.875c-0.356-0.444-0.857-0.666-1.501-0.666c-0.645,0-1.142,0.221-1.491,0.664
									C935.926,352.664,935.751,353.29,935.751,354.098z"/>
								<path d="M946.177,351.649h-2.899v5.376h-0.532v-5.838h3.432V351.649z"/>
								<path d="M952.975,354.098c0,0.953-0.23,1.696-0.693,2.231c-0.461,0.536-1.099,0.803-1.912,0.803
									c-0.512,0-0.963-0.124-1.354-0.371s-0.689-0.602-0.896-1.063c-0.207-0.462-0.312-0.996-0.312-1.602
									c0-0.953,0.23-1.694,0.691-2.227c0.463-0.531,1.097-0.797,1.902-0.797c0.802,0,1.431,0.27,1.888,0.808
									C952.746,352.423,952.975,353.161,952.975,354.098z M948.366,354.098c0,0.802,0.177,1.428,0.529,1.877
									c0.353,0.45,0.851,0.674,1.495,0.674c0.644,0,1.144-0.225,1.496-0.674c0.354-0.449,0.528-1.075,0.528-1.877
									c0-0.806-0.178-1.431-0.534-1.875c-0.355-0.444-0.855-0.666-1.501-0.666c-0.645,0-1.142,0.221-1.491,0.664
									C948.541,352.664,948.366,353.29,948.366,354.098z"/>
								<path d="M813.855,372.026h-0.532v-5.838h4.657v5.838h-0.532v-5.333h-3.593V372.026z"/>
								<path d="M823.063,372.134c-0.85,0-1.511-0.261-1.985-0.784c-0.474-0.522-0.711-1.255-0.711-2.197
									c0-0.931,0.229-1.677,0.688-2.236c0.459-0.561,1.076-0.84,1.854-0.84c0.688,0,1.23,0.239,1.627,0.72
									c0.397,0.479,0.596,1.131,0.596,1.955v0.43h-4.205c0.007,0.802,0.193,1.415,0.561,1.837s0.893,0.634,1.577,0.634
									c0.333,0,0.625-0.022,0.878-0.069c0.252-0.046,0.572-0.147,0.958-0.302v0.483c-0.33,0.144-0.634,0.241-0.913,0.293
									C823.708,372.107,823.4,372.134,823.063,372.134z M822.907,366.548c-0.562,0-1.013,0.185-1.354,0.556
									c-0.34,0.37-0.539,0.905-0.596,1.604h3.609c0-0.678-0.147-1.206-0.44-1.587S823.427,366.548,822.907,366.548z"/>
								<path d="M830.01,372.134c-0.898,0-1.554-0.336-1.966-1.01h-0.038l0.017,0.451c0.014,0.265,0.021,0.555,0.021,0.869v2.225
									h-0.531v-8.481h0.45l0.103,0.833h0.031c0.401-0.63,1.043-0.944,1.924-0.944c0.787,0,1.389,0.259,1.802,0.775
									c0.414,0.519,0.621,1.271,0.621,2.259c0,0.959-0.218,1.704-0.653,2.231C831.356,371.87,830.761,372.134,830.01,372.134z
									 M829.999,371.661c0.599,0,1.062-0.223,1.39-0.666c0.326-0.444,0.49-1.065,0.49-1.864c0-1.715-0.619-2.573-1.857-2.573
									c-0.68,0-1.18,0.188-1.499,0.562c-0.319,0.375-0.479,0.983-0.479,1.829v0.172c0,0.913,0.153,1.564,0.459,1.955
									C828.81,371.466,829.308,371.661,829.999,371.661z"/>
								<path d="M834.755,364.565c0-0.344,0.113-0.516,0.339-0.516c0.11,0,0.197,0.045,0.261,0.134
									c0.063,0.089,0.094,0.217,0.094,0.381c0,0.161-0.031,0.288-0.094,0.382c-0.063,0.093-0.15,0.14-0.261,0.14
									C834.867,365.087,834.755,364.913,834.755,364.565z M835.362,372.026h-0.532v-5.838h0.532V372.026z"/>
								<path d="M842.915,369.098c0,0.953-0.23,1.696-0.692,2.231c-0.463,0.536-1.1,0.803-1.912,0.803
									c-0.512,0-0.963-0.124-1.354-0.371c-0.391-0.247-0.688-0.602-0.896-1.063c-0.208-0.462-0.313-0.996-0.313-1.602
									c0-0.953,0.231-1.694,0.693-2.227c0.462-0.531,1.096-0.797,1.901-0.797c0.802,0,1.431,0.27,1.888,0.808
									C842.687,367.423,842.915,368.161,842.915,369.098z M838.307,369.098c0,0.802,0.176,1.428,0.528,1.877
									c0.354,0.45,0.852,0.674,1.496,0.674c0.646,0,1.144-0.225,1.496-0.674c0.354-0.449,0.529-1.075,0.529-1.877
									c0-0.806-0.178-1.431-0.534-1.875s-0.857-0.666-1.501-0.666c-0.645,0-1.141,0.221-1.491,0.664
									C838.482,367.664,838.307,368.29,838.307,369.098z"/>
								<path d="M850.066,374.009h-0.526v-1.982h-4.469v1.982h-0.526v-2.487h0.388c0.486-0.684,0.862-1.477,1.128-2.379
									c0.265-0.901,0.404-1.887,0.419-2.954h2.809v5.333h0.779L850.066,374.009L850.066,374.009z M848.756,371.521v-4.839h-1.814
									c-0.086,1.938-0.555,3.55-1.407,4.839H848.756z"/>
								<path d="M851.099,366.187h0.548l1.234,3.276c0.376,1.006,0.614,1.685,0.714,2.036h0.032c0.15-0.462,0.396-1.151,0.736-2.068
									l1.235-3.244h0.548l-2.616,6.784c-0.211,0.551-0.389,0.924-0.532,1.117c-0.143,0.193-0.311,0.338-0.502,0.435
									c-0.19,0.098-0.423,0.146-0.695,0.146c-0.204,0-0.432-0.038-0.682-0.113v-0.462c0.208,0.057,0.432,0.086,0.671,0.086
									c0.184,0,0.344-0.043,0.483-0.129c0.139-0.086,0.266-0.219,0.379-0.4c0.112-0.181,0.243-0.467,0.392-0.858
									c0.149-0.393,0.245-0.647,0.288-0.766L851.099,366.187z"/>
								<path d="M865.229,366.649h-1.944v5.376h-0.525v-5.376h-1.993v-0.462h4.463V366.649z"/>
								<path d="M870.742,372.026l-0.134-0.924h-0.043c-0.293,0.376-0.595,0.643-0.905,0.797c-0.31,0.156-0.676,0.234-1.098,0.234
									c-0.573,0-1.02-0.147-1.337-0.44c-0.318-0.293-0.479-0.699-0.479-1.219c0-0.569,0.237-1.012,0.711-1.327
									c0.476-0.314,1.161-0.48,2.061-0.5l1.111-0.031v-0.388c0-0.555-0.112-0.974-0.338-1.257
									c-0.225-0.283-0.589-0.424-1.09-0.424c-0.541,0-1.101,0.15-1.681,0.451l-0.199-0.462c0.641-0.302,1.275-0.451,1.9-0.451
									c0.642,0,1.12,0.167,1.438,0.5s0.477,0.852,0.477,1.558v3.883H870.742z M868.594,371.65c0.623,0,1.114-0.178,1.474-0.534
									c0.36-0.356,0.54-0.852,0.54-1.485v-0.575l-1.021,0.043c-0.819,0.04-1.403,0.167-1.754,0.384
									c-0.349,0.218-0.522,0.555-0.522,1.014c0,0.364,0.111,0.648,0.336,0.852C867.869,371.55,868.185,371.65,868.594,371.65z"/>
								<path d="M877.954,372.026h-0.532v-5.838h4.657v5.838h-0.532v-5.333h-3.593V372.026z"/>
								<path d="M889.633,369.098c0,0.953-0.23,1.696-0.692,2.231c-0.462,0.536-1.099,0.803-1.912,0.803
									c-0.512,0-0.963-0.124-1.354-0.371c-0.391-0.247-0.688-0.602-0.896-1.063c-0.208-0.462-0.313-0.996-0.313-1.602
									c0-0.953,0.231-1.694,0.693-2.227c0.462-0.531,1.096-0.797,1.901-0.797c0.802,0,1.432,0.27,1.888,0.808
									C889.405,367.423,889.633,368.161,889.633,369.098z M885.024,369.098c0,0.802,0.176,1.428,0.528,1.877
									c0.354,0.45,0.853,0.674,1.496,0.674c0.645,0,1.144-0.225,1.496-0.674c0.354-0.449,0.529-1.075,0.529-1.877
									c0-0.806-0.178-1.431-0.535-1.875c-0.355-0.444-0.855-0.666-1.501-0.666c-0.645,0-1.142,0.221-1.49,0.664
									C885.198,367.664,885.024,368.29,885.024,369.098z"/>
								<path d="M892.448,366.187v1.955c0,0.494,0.12,0.852,0.36,1.069c0.239,0.218,0.608,0.328,1.105,0.328
									c0.352,0,0.687-0.063,1.004-0.188c0.318-0.125,0.65-0.326,0.994-0.602v-2.563h0.532v5.838h-0.532v-2.771
									c-0.357,0.276-0.71,0.473-1.055,0.591c-0.346,0.118-0.719,0.177-1.12,0.177c-0.598,0-1.05-0.155-1.356-0.467
									c-0.306-0.312-0.459-0.761-0.459-1.348v-2.021H892.448L892.448,366.187z"/>
								<path d="M902.715,372.026l-0.134-0.924h-0.043c-0.293,0.376-0.595,0.643-0.905,0.797c-0.31,0.156-0.676,0.234-1.098,0.234
									c-0.573,0-1.019-0.147-1.337-0.44s-0.478-0.699-0.478-1.219c0-0.569,0.236-1.012,0.711-1.327
									c0.475-0.314,1.16-0.48,2.06-0.5l1.112-0.031v-0.388c0-0.555-0.113-0.974-0.338-1.257c-0.226-0.283-0.59-0.424-1.091-0.424
									c-0.541,0-1.101,0.15-1.681,0.451l-0.199-0.462c0.642-0.302,1.275-0.451,1.901-0.451c0.641,0,1.12,0.167,1.437,0.5
									c0.317,0.333,0.477,0.852,0.477,1.558v3.883H902.715z M900.566,371.65c0.623,0,1.115-0.178,1.474-0.534
									c0.36-0.356,0.54-0.852,0.54-1.485v-0.575l-1.021,0.043c-0.82,0.04-1.404,0.167-1.755,0.384
									c-0.349,0.218-0.522,0.555-0.522,1.014c0,0.364,0.112,0.648,0.336,0.852C899.842,371.55,900.158,371.65,900.566,371.65z"/>
								<path d="M909.473,366.649h-1.944v5.376h-0.526v-5.376h-1.993v-0.462h4.464V366.649L909.473,366.649z"/>
								<path d="M916.27,369.098c0,0.953-0.231,1.696-0.693,2.231c-0.462,0.536-1.099,0.803-1.912,0.803
									c-0.512,0-0.963-0.124-1.354-0.371c-0.392-0.247-0.689-0.602-0.897-1.063c-0.208-0.462-0.312-0.996-0.312-1.602
									c0-0.953,0.23-1.694,0.692-2.227c0.463-0.531,1.097-0.797,1.901-0.797c0.802,0,1.431,0.27,1.888,0.808
									C916.041,367.423,916.27,368.161,916.27,369.098z M911.661,369.098c0,0.802,0.176,1.428,0.529,1.877
									c0.353,0.45,0.851,0.674,1.496,0.674c0.645,0,1.143-0.225,1.495-0.674c0.354-0.449,0.529-1.075,0.529-1.877
									c0-0.806-0.178-1.431-0.533-1.875c-0.356-0.444-0.857-0.666-1.502-0.666c-0.644,0-1.141,0.221-1.49,0.664
									C911.836,367.664,911.661,368.29,911.661,369.098z"/>
								<path d="M921.825,366.187h0.661l-2.616,2.825l2.804,3.013h-0.714l-2.761-2.959v2.959h-0.542v-5.838h0.542v2.836
									L921.825,366.187z"/>
								<path d="M932.867,374.009h-0.525v-1.982h-4.47v1.982h-0.526v-2.487h0.388c0.487-0.684,0.862-1.477,1.128-2.379
									c0.265-0.901,0.405-1.887,0.419-2.954h2.81v5.333h0.778L932.867,374.009L932.867,374.009z M931.556,371.521v-4.839h-1.815
									c-0.086,1.938-0.555,3.55-1.407,4.839H931.556z"/>
								<path d="M934.802,364.565c0-0.344,0.112-0.516,0.338-0.516c0.11,0,0.197,0.045,0.261,0.134
									c0.063,0.089,0.094,0.217,0.094,0.381c0,0.161-0.031,0.288-0.094,0.382c-0.063,0.093-0.15,0.14-0.261,0.14
									C934.915,365.087,934.802,364.913,934.802,364.565z M935.409,372.026h-0.532v-5.838h0.532V372.026z"/>
								<path d="M937.044,364.565c0-0.165,0.028-0.282,0.083-0.354c0.057-0.072,0.142-0.107,0.256-0.107
									c0.229,0,0.344,0.154,0.344,0.462c0,0.309-0.115,0.462-0.344,0.462C937.157,365.027,937.044,364.874,937.044,364.565z
									 M938.666,372.026h-0.531v-5.838h0.531V372.026z M939.092,364.565c0-0.165,0.027-0.282,0.082-0.354
									c0.056-0.072,0.141-0.107,0.256-0.107c0.229,0,0.344,0.154,0.344,0.462c0,0.309-0.115,0.462-0.344,0.462
									C939.203,365.027,939.092,364.874,939.092,364.565z"/>
								<path d="M946.119,368.707c1.057,0,1.585-0.363,1.585-1.09c0-0.348-0.122-0.612-0.364-0.796
									c-0.243-0.183-0.592-0.273-1.043-0.273c-0.287,0-0.553,0.033-0.8,0.099c-0.247,0.066-0.512,0.162-0.795,0.288l-0.198-0.439
									c0.622-0.279,1.228-0.419,1.814-0.419c0.637,0,1.121,0.132,1.45,0.396s0.494,0.632,0.494,1.102
									c0,0.677-0.348,1.107-1.042,1.294v0.031c0.434,0.107,0.748,0.286,0.944,0.535c0.197,0.249,0.296,0.566,0.296,0.953
									c0,0.541-0.197,0.967-0.594,1.278c-0.396,0.311-0.943,0.467-1.646,0.467c-0.38,0-0.727-0.037-1.039-0.11
									c-0.313-0.073-0.572-0.171-0.776-0.293v-0.531c0.369,0.175,0.688,0.294,0.956,0.356c0.269,0.063,0.556,0.094,0.859,0.094
									c0.53,0,0.941-0.111,1.237-0.335c0.295-0.224,0.442-0.543,0.442-0.959c0-0.404-0.141-0.704-0.424-0.896
									c-0.283-0.193-0.707-0.29-1.273-0.29h-0.811v-0.462L946.119,368.707L946.119,368.707z"/>
								<path d="M951.294,366.187v2.563H955v-2.563h0.526v5.838H955v-2.813h-3.706v2.813h-0.532v-5.838H951.294z"/>
								<path d="M958.756,366.187v4.223l-0.03,1.101l3.464-5.323h0.709v5.838h-0.512v-4.194l0.021-1.128l-3.464,5.322h-0.692v-5.838
									H958.756L958.756,366.187z"/>
								<path d="M968.034,366.187h0.537v2.836l2.509-2.836h0.649l-2.53,2.836l2.729,3.002h-0.682l-2.675-2.959v2.959h-0.537v-2.959
									l-2.675,2.959h-0.682l2.717-2.98l-2.52-2.857h0.649l2.509,2.836L968.034,366.187L968.034,366.187z"/>
								<path d="M978.537,369.098c0,0.953-0.23,1.696-0.693,2.231c-0.461,0.536-1.1,0.803-1.911,0.803
									c-0.513,0-0.964-0.124-1.354-0.371s-0.689-0.602-0.896-1.063c-0.208-0.463-0.313-0.996-0.313-1.602
									c0-0.953,0.231-1.694,0.693-2.227c0.462-0.531,1.096-0.797,1.9-0.797c0.803,0,1.433,0.27,1.889,0.808
									C978.309,367.423,978.537,368.161,978.537,369.098z M973.927,369.098c0,0.802,0.178,1.428,0.529,1.877
									c0.354,0.45,0.853,0.674,1.496,0.674c0.645,0,1.143-0.225,1.496-0.674s0.529-1.075,0.529-1.877
									c0-0.806-0.18-1.431-0.535-1.875s-0.856-0.666-1.501-0.666c-0.646,0-1.142,0.221-1.49,0.664
									C974.103,367.664,973.927,368.29,973.927,369.098z"/>
								<path d="M984.092,366.187h0.661l-2.616,2.825l2.806,3.013h-0.715l-2.762-2.959v2.959h-0.542v-5.838h0.542v2.836
									L984.092,366.187z"/>
							</g>
						</g>
					</g>
				</g>
			</g>
			<circle fill="none" stroke="#FFD600" stroke-width="1.1587" stroke-miterlimit="10" cx="832.604" cy="652.102" r="18.037"/>
		</g>
	</g>
	
		<line fill="none" stroke="#FF4C29" stroke-miterlimit="10" stroke-dasharray="3,4" x1="581.385" y1="631.239" x2="581.385" y2="407.239"/>
	
		<line fill="none" stroke="#FF4C29" stroke-miterlimit="10" stroke-dasharray="3,4" x1="970.385" y1="631.239" x2="970.385" y2="407.239"/>
	
		<line fill="none" stroke="#FF4C29" stroke-miterlimit="10" stroke-dasharray="3,4" x1="1359.385" y1="631.239" x2="1359.385" y2="407.239"/>
</g>
</svg>
