<?xml version="1.0" encoding="utf-8"?>
<!-- Generator: Adobe Illustrator 16.0.0, SVG Export Plug-In . SVG Version: 6.00 Build 0)  -->
<!DOCTYPE svg PUBLIC "-//W3C//DTD SVG 1.1//EN" "http://www.w3.org/Graphics/SVG/1.1/DTD/svg11.dtd">
<svg version="1.1" id="Layer_1" xmlns="http://www.w3.org/2000/svg" xmlns:xlink="http://www.w3.org/1999/xlink" x="0px" y="0px"
	 width="1545.59px" height="342.186px" viewBox="0 0 1545.59 342.186" enable-background="new 0 0 1545.59 342.186"
	 xml:space="preserve">
<g>
	<g>
		<g>
			
				<line fill="none" stroke="#ADADAD" stroke-width="0.7212" stroke-miterlimit="10" x1="26.88" y1="216.918" x2="28.322" y2="216.918"/>
			
				<line fill="none" stroke="#ADADAD" stroke-width="0.7212" stroke-miterlimit="10" stroke-dasharray="2.9081,4.3621" x1="32.684" y1="216.918" x2="372.202" y2="216.918"/>
			
				<line fill="none" stroke="#ADADAD" stroke-width="0.7212" stroke-miterlimit="10" x1="374.384" y1="216.918" x2="375.826" y2="216.918"/>
		</g>
	</g>
	<g>
		<g>
			
				<line fill="none" stroke="#ADADAD" stroke-width="0.7212" stroke-miterlimit="10" x1="26.88" y1="161.163" x2="28.322" y2="161.163"/>
			
				<line fill="none" stroke="#ADADAD" stroke-width="0.7212" stroke-miterlimit="10" stroke-dasharray="2.9081,4.3621" x1="32.684" y1="161.163" x2="372.202" y2="161.163"/>
			
				<line fill="none" stroke="#ADADAD" stroke-width="0.7212" stroke-miterlimit="10" x1="374.384" y1="161.163" x2="375.826" y2="161.163"/>
		</g>
	</g>
	<g>
		<g>
			
				<line fill="none" stroke="#ADADAD" stroke-width="0.7212" stroke-miterlimit="10" x1="26.88" y1="105.408" x2="28.322" y2="105.408"/>
			
				<line fill="none" stroke="#ADADAD" stroke-width="0.7212" stroke-miterlimit="10" stroke-dasharray="2.9081,4.3621" x1="32.684" y1="105.408" x2="372.202" y2="105.408"/>
			
				<line fill="none" stroke="#ADADAD" stroke-width="0.7212" stroke-miterlimit="10" x1="374.384" y1="105.408" x2="375.826" y2="105.408"/>
		</g>
	</g>
	<g>
		<g>
			
				<line fill="none" stroke="#ADADAD" stroke-width="0.7212" stroke-miterlimit="10" x1="375.826" y1="49.654" x2="374.384" y2="49.654"/>
			
				<line fill="none" stroke="#ADADAD" stroke-width="0.7212" stroke-miterlimit="10" stroke-dasharray="2.9081,4.3621" x1="370.021" y1="49.654" x2="30.503" y2="49.654"/>
			
				<line fill="none" stroke="#ADADAD" stroke-width="0.7212" stroke-miterlimit="10" x1="28.322" y1="49.654" x2="26.88" y2="49.654"/>
		</g>
	</g>
	<polyline fill="none" points="0,286.112 391.929,286.112 391.929,312.675 0,312.675 	"/>
	
		<line fill="none" stroke="#0E1968" stroke-width="5" stroke-linecap="round" stroke-miterlimit="10" x1="29.677" y1="276.871" x2="29.677" y2="213.068"/>
	
		<line fill="none" stroke="#49B4DA" stroke-width="5" stroke-linecap="round" stroke-miterlimit="10" x1="37.381" y1="276.826" x2="37.381" y2="213.068"/>
	
		<line fill="none" stroke="#0E1968" stroke-width="5" stroke-linecap="round" stroke-miterlimit="10" x1="85.123" y1="276.871" x2="85.123" y2="213.068"/>
	
		<line fill="none" stroke="#49B4DA" stroke-width="5" stroke-linecap="round" stroke-miterlimit="10" x1="92.828" y1="276.826" x2="92.828" y2="213.068"/>
	
		<line fill="none" stroke="#0E1968" stroke-width="5" stroke-linecap="round" stroke-miterlimit="10" x1="140.569" y1="276.871" x2="140.569" y2="162.087"/>
	
		<line fill="none" stroke="#49B4DA" stroke-width="5" stroke-linecap="round" stroke-miterlimit="10" x1="148.274" y1="276.826" x2="148.274" y2="162.087"/>
	
		<line fill="none" stroke="#0E1968" stroke-width="5" stroke-linecap="round" stroke-miterlimit="10" x1="196.016" y1="276.871" x2="196.016" y2="162.087"/>
	
		<line fill="none" stroke="#49B4DA" stroke-width="5" stroke-linecap="round" stroke-miterlimit="10" x1="203.721" y1="276.826" x2="203.721" y2="162.087"/>
	
		<line fill="none" stroke="#0E1968" stroke-width="5" stroke-linecap="round" stroke-miterlimit="10" x1="251.462" y1="276.871" x2="251.462" y2="216.071"/>
	
		<line fill="none" stroke="#49B4DA" stroke-width="5" stroke-linecap="round" stroke-miterlimit="10" x1="259.169" y1="276.826" x2="259.169" y2="215.781"/>
	
		<line fill="none" stroke="#0E1968" stroke-width="5" stroke-linecap="round" stroke-miterlimit="10" x1="306.909" y1="276.871" x2="306.909" y2="216.071"/>
	
		<line fill="none" stroke="#49B4DA" stroke-width="5" stroke-linecap="round" stroke-miterlimit="10" x1="314.616" y1="276.826" x2="314.616" y2="215.781"/>
	
		<line fill="none" stroke="#0E1968" stroke-width="5" stroke-linecap="round" stroke-miterlimit="10" x1="362.554" y1="276.871" x2="362.554" y2="216.648"/>
	
		<line fill="none" stroke="#49B4DA" stroke-width="5" stroke-linecap="round" stroke-miterlimit="10" x1="370.26" y1="276.826" x2="370.26" y2="216.359"/>
	<rect x="5.295" y="273.593" fill="#FFFFFF" width="371" height="53"/>
	
		<line fill="none" stroke="#ADADAD" stroke-width="0.7212" stroke-miterlimit="10" stroke-dasharray="2.8848,4.3272" x1="26.88" y1="273.553" x2="375.603" y2="273.553"/>
	<g>
		<g>
			<path fill="#676767" d="M88.808,289.631v8.641h-1.844v-7.188H83.09v7.188h-1.836v-8.641H88.808z"/>
			<path fill="#676767" d="M97.926,289.631v1.438h-2.813v7.203h-1.844v-7.203h-2.813v-1.438H97.926z"/>
		</g>
	</g>
	<g>
		<g>
			<path fill="#FF4C29" d="M139.097,298.428c-1.307,0-2.301-0.382-2.98-1.145s-1.02-1.858-1.02-3.285
				c0-1.453,0.355-2.57,1.066-3.352s1.738-1.172,3.082-1.172c0.912,0,1.732,0.169,2.461,0.508l-0.555,1.477
				c-0.776-0.302-1.417-0.453-1.922-0.453c-1.495,0-2.242,0.992-2.242,2.977c0,0.969,0.186,1.696,0.559,2.184s0.918,0.73,1.637,0.73
				c0.818,0,1.591-0.203,2.32-0.609v1.602c-0.328,0.192-0.678,0.331-1.051,0.414S139.629,298.428,139.097,298.428z"/>
			<path fill="#FF4C29" d="M143.035,293.084c0-1.927,0.327-3.409,0.98-4.445s1.694-1.703,3.121-2
				c1.078-0.219,2.32-0.433,3.727-0.641l0.258,1.617c-1.708,0.261-2.958,0.464-3.75,0.609c-0.818,0.151-1.408,0.487-1.77,1.008
				s-0.572,1.305-0.629,2.352h0.117c0.297-0.433,0.685-0.767,1.164-1.004s0.992-0.355,1.539-0.355c1.063,0,1.891,0.336,2.484,1.008
				s0.891,1.614,0.891,2.828c0,1.391-0.361,2.466-1.082,3.227s-1.72,1.141-2.996,1.141c-1.266,0-2.258-0.469-2.977-1.406
				S143.035,294.772,143.035,293.084z M147.215,296.928c1.365,0,2.047-0.896,2.047-2.688c0-1.729-0.617-2.594-1.852-2.594
				c-0.338,0-0.667,0.073-0.984,0.219s-0.611,0.339-0.879,0.578s-0.475,0.487-0.621,0.742c0,1.229,0.195,2.16,0.586,2.793
				S146.47,296.928,147.215,296.928z"/>
		</g>
	</g>
	<g>
		<g>
			<path fill="#676767" d="M26.686,289.631v3.156c0,0.886,0.458,1.328,1.375,1.328c0.442,0,0.875-0.062,1.297-0.184
				s0.875-0.319,1.359-0.59v-3.711h1.836v8.641h-1.836v-3.664c-0.505,0.313-0.994,0.543-1.465,0.691
				c-0.472,0.148-0.986,0.223-1.543,0.223c-0.901,0-1.604-0.233-2.109-0.699c-0.505-0.466-0.758-1.118-0.758-1.957v-3.234H26.686z"
				/>
			<path fill="#676767" d="M41.67,289.631v1.438h-2.813v7.203h-1.844v-7.203h-2.813v-1.438H41.67z"/>
		</g>
	</g>
	<g>
		<g>
			<path fill="#FF4C29" d="M192.269,289.631v3.469h4.07v-3.469h1.836v8.641h-1.836v-3.727h-4.07v3.727h-1.836v-8.641H192.269z"/>
			<path fill="#FF4C29" d="M209.089,301.326h-1.711v-3.055h-5.922v3.055h-1.695v-4.477h0.703c0.614-0.88,1.103-1.944,1.465-3.191
				c0.362-1.247,0.577-2.59,0.645-4.027h5.25v7.219h1.266V301.326z M206.019,296.85v-5.813h-1.859
				c-0.099,1.073-0.306,2.13-0.621,3.172c-0.315,1.042-0.699,1.922-1.152,2.641H206.019z"/>
		</g>
	</g>
	<g>
		<g>
			<path fill="#676767" d="M254.783,289.631v8.641h-1.844v-7.188h-3.875v7.188h-1.836v-8.641H254.783z"/>
			<path fill="#676767" d="M259.244,289.631v3.469h4.07v-3.469h1.836v8.641h-1.836v-3.727h-4.07v3.727h-1.836v-8.641H259.244z"/>
		</g>
	</g>
	<g>
		<g>
			<path fill="#676767" d="M310.991,291.842c0,1.021-0.597,1.638-1.789,1.852v0.063c0.667,0.078,1.177,0.289,1.531,0.633
				c0.354,0.344,0.531,0.789,0.531,1.336c0,0.817-0.312,1.446-0.934,1.887c-0.623,0.44-1.527,0.66-2.715,0.66h-4.125v-8.641h4.109
				C309.861,289.631,310.991,290.368,310.991,291.842z M309.156,291.998c0-0.344-0.134-0.593-0.402-0.746
				c-0.269-0.153-0.668-0.23-1.199-0.23h-2.227v2.078h1.953c0.614,0,1.081-0.079,1.398-0.238
				C308.996,292.702,309.156,292.415,309.156,291.998z M309.382,295.615c0-0.417-0.162-0.712-0.484-0.887
				c-0.323-0.175-0.808-0.262-1.453-0.262h-2.117v2.445h2.164C308.752,296.912,309.382,296.48,309.382,295.615z"/>
			<path fill="#676767" d="M319.648,289.631v1.438h-2.813v7.203h-1.844v-7.203h-2.813v-1.438H319.648z"/>
		</g>
	</g>
	<g>
		<g>
			<path fill="#676767" d="M361.449,298.428c-1.307,0-2.301-0.382-2.98-1.145s-1.02-1.858-1.02-3.285
				c0-1.453,0.355-2.57,1.066-3.352s1.738-1.172,3.082-1.172c0.912,0,1.732,0.169,2.461,0.508l-0.555,1.477
				c-0.776-0.302-1.417-0.453-1.922-0.453c-1.495,0-2.242,0.992-2.242,2.977c0,0.969,0.186,1.696,0.559,2.184s0.918,0.73,1.637,0.73
				c0.818,0,1.591-0.203,2.32-0.609v1.602c-0.328,0.192-0.678,0.331-1.051,0.414S361.98,298.428,361.449,298.428z"/>
			<path fill="#676767" d="M370.269,298.428c-1.094,0-1.943-0.394-2.547-1.18h-0.109c0.073,0.729,0.109,1.172,0.109,1.328v3.539
				h-1.836v-12.484h1.484c0.042,0.161,0.127,0.547,0.258,1.156h0.094c0.573-0.875,1.432-1.313,2.578-1.313
				c1.078,0,1.918,0.391,2.52,1.172s0.902,1.878,0.902,3.289s-0.306,2.513-0.918,3.305S371.347,298.428,370.269,298.428z
				 M369.824,290.975c-0.729,0-1.262,0.214-1.598,0.641s-0.504,1.109-0.504,2.047v0.273c0,1.052,0.167,1.813,0.5,2.285
				s0.877,0.707,1.633,0.707c0.635,0,1.125-0.261,1.469-0.781s0.516-1.263,0.516-2.227c0-0.969-0.17-1.702-0.512-2.199
				S370.486,290.975,369.824,290.975z"/>
		</g>
	</g>
	<g>
		<g>
			<g>
				<path fill="none" stroke="#FFD600" stroke-width="1.1587" stroke-miterlimit="10" d="M0,43.879v218.646v5.188v12.146
					c0,8.709,7.045,15.755,15.754,15.755"/>
				
					<polygon fill="#FFD600" stroke="#FFD600" stroke-width="1.1587" stroke-linecap="round" stroke-linejoin="round" stroke-miterlimit="10" points="
					91.279,0 0,0 0,30.35 0,42.889 0,49.654 8.206,42.889 91.279,42.889 				"/>
				<g>
					<g>
						<g>
							<path d="M19.882,16.615h-0.548V9.279h-4.533v7.337h-0.548V8.763h5.629V16.615z"/>
							<path d="M27.57,13.688c0,0.953-0.231,1.696-0.693,2.232c-0.462,0.535-1.099,0.803-1.912,0.803
								c-0.512,0-0.963-0.124-1.354-0.371s-0.689-0.602-0.897-1.063s-0.312-0.996-0.312-1.601c0-0.953,0.231-1.695,0.693-2.226
								c0.462-0.532,1.096-0.798,1.901-0.798c0.802,0,1.432,0.27,1.888,0.809C27.342,12.011,27.57,12.75,27.57,13.688z
								 M22.961,13.688c0,0.802,0.176,1.428,0.529,1.877c0.353,0.449,0.852,0.674,1.496,0.674s1.143-0.225,1.496-0.674
								c0.353-0.45,0.529-1.075,0.529-1.877c0-0.806-0.178-1.431-0.535-1.875c-0.356-0.444-0.856-0.666-1.501-0.666
								s-1.142,0.221-1.49,0.663C23.135,12.253,22.961,12.879,22.961,13.688z"/>
							<path d="M30.386,10.777v1.955c0,0.494,0.12,0.851,0.36,1.069s0.609,0.328,1.106,0.328c0.351,0,0.686-0.063,1.004-0.188
								s0.65-0.326,0.994-0.602v-2.562h0.532v5.838H33.85v-2.771c-0.358,0.276-0.71,0.473-1.056,0.591
								c-0.345,0.118-0.719,0.177-1.12,0.177c-0.598,0-1.05-0.156-1.356-0.467c-0.307-0.312-0.459-0.761-0.459-1.348v-2.02H30.386z"
								/>
							<path d="M40.652,16.615l-0.134-0.924h-0.043c-0.293,0.376-0.595,0.642-0.905,0.798c-0.31,0.155-0.676,0.233-1.099,0.233
								c-0.573,0-1.019-0.147-1.337-0.44s-0.478-0.7-0.478-1.219c0-0.569,0.237-1.012,0.712-1.327c0.474-0.315,1.161-0.481,2.06-0.5
								l1.112-0.032v-0.387c0-0.555-0.113-0.974-0.338-1.257s-0.589-0.424-1.09-0.424c-0.541,0-1.101,0.15-1.681,0.451l-0.199-0.462
								c0.641-0.301,1.275-0.451,1.901-0.451c0.641,0,1.12,0.167,1.437,0.5c0.316,0.333,0.475,0.852,0.475,1.558v3.883H40.652z
								 M38.504,16.24c0.623,0,1.114-0.178,1.475-0.534c0.359-0.356,0.54-0.852,0.54-1.485v-0.575l-1.021,0.043
								c-0.82,0.04-1.405,0.167-1.753,0.384c-0.35,0.216-0.524,0.554-0.524,1.012c0,0.365,0.112,0.649,0.335,0.851
								C37.78,16.138,38.095,16.24,38.504,16.24z"/>
							<path d="M47.411,11.239h-1.944v5.376H44.94v-5.376h-1.993v-0.462h4.463V11.239z"/>
							<path d="M54.207,13.688c0,0.953-0.231,1.696-0.693,2.232c-0.462,0.535-1.099,0.803-1.912,0.803
								c-0.512,0-0.963-0.124-1.354-0.371s-0.689-0.602-0.897-1.063s-0.312-0.996-0.312-1.601c0-0.953,0.231-1.695,0.693-2.226
								c0.462-0.532,1.096-0.798,1.901-0.798c0.802,0,1.432,0.27,1.888,0.809C53.979,12.011,54.207,12.75,54.207,13.688z
								 M49.599,13.688c0,0.802,0.176,1.428,0.529,1.877c0.353,0.449,0.852,0.674,1.496,0.674s1.143-0.225,1.496-0.674
								c0.353-0.45,0.529-1.075,0.529-1.877c0-0.806-0.178-1.431-0.535-1.875c-0.356-0.444-0.856-0.666-1.501-0.666
								s-1.142,0.221-1.49,0.663C49.773,12.253,49.599,12.879,49.599,13.688z"/>
							<path d="M59.763,10.777h0.661l-2.616,2.825l2.804,3.013h-0.714l-2.761-2.959v2.959h-0.542v-5.838h0.542v2.836L59.763,10.777z
								"/>
							<path d="M70.804,18.597h-0.526v-1.982h-4.469v1.982h-0.526v-2.487h0.387c0.487-0.684,0.863-1.477,1.128-2.379
								s0.405-1.887,0.419-2.954h2.809v5.333h0.779V18.597z M69.494,16.111v-4.839h-1.815c-0.086,1.937-0.555,3.55-1.407,4.839
								H69.494z"/>
							<path d="M72.74,9.155c0-0.344,0.113-0.516,0.338-0.516c0.111,0,0.198,0.045,0.26,0.134c0.063,0.089,0.094,0.217,0.094,0.381
								c0,0.161-0.031,0.288-0.094,0.381c-0.063,0.093-0.149,0.14-0.26,0.14C72.853,9.676,72.74,9.502,72.74,9.155z M73.347,16.615
								h-0.532v-5.838h0.532V16.615z"/>
							<path d="M74.982,9.155c0-0.165,0.028-0.283,0.083-0.354c0.055-0.072,0.14-0.107,0.255-0.107c0.229,0,0.344,0.154,0.344,0.462
								s-0.115,0.462-0.344,0.462C75.094,9.617,74.982,9.463,74.982,9.155z M76.604,16.615h-0.532v-5.838h0.532V16.615z
								 M77.028,9.155c0-0.165,0.028-0.283,0.083-0.354c0.056-0.072,0.141-0.107,0.255-0.107c0.229,0,0.344,0.154,0.344,0.462
								s-0.115,0.462-0.344,0.462C77.141,9.617,77.028,9.463,77.028,9.155z"/>
							<path d="M15.219,28.296c1.056,0,1.584-0.363,1.584-1.09c0-0.347-0.122-0.612-0.365-0.795s-0.591-0.274-1.042-0.274
								c-0.287,0-0.553,0.033-0.8,0.1c-0.247,0.066-0.512,0.162-0.795,0.287l-0.199-0.44c0.623-0.279,1.228-0.419,1.815-0.419
								c0.637,0,1.121,0.132,1.45,0.397s0.494,0.632,0.494,1.101c0,0.677-0.347,1.108-1.042,1.294v0.032
								c0.433,0.107,0.749,0.286,0.945,0.534c0.197,0.249,0.295,0.567,0.295,0.954c0,0.541-0.198,0.967-0.594,1.278
								c-0.396,0.312-0.944,0.467-1.646,0.467c-0.379,0-0.726-0.037-1.04-0.11c-0.313-0.073-0.572-0.171-0.776-0.292v-0.532
								c0.369,0.175,0.688,0.294,0.956,0.357c0.269,0.063,0.555,0.094,0.859,0.094c0.53,0,0.943-0.112,1.238-0.336
								c0.296-0.224,0.443-0.543,0.443-0.958c0-0.405-0.142-0.704-0.424-0.897s-0.707-0.29-1.273-0.29h-0.811v-0.462H15.219z"/>
							<path d="M20.394,25.777v2.562H24.1v-2.562h0.526v5.838H24.1v-2.814h-3.706v2.814h-0.532v-5.838H20.394z"/>
							<path d="M27.856,25.777v4.222L27.824,31.1l3.464-5.323h0.709v5.838h-0.51v-4.195l0.021-1.128l-3.464,5.323h-0.693v-5.838
								H27.856z"/>
							<path d="M37.134,25.777h0.537v2.836l2.508-2.836h0.65l-2.53,2.836l2.729,3.002h-0.682l-2.675-2.959v2.959h-0.537v-2.959
								l-2.675,2.959h-0.682l2.718-2.981l-2.519-2.857h0.65l2.508,2.836V25.777z"/>
							<path d="M47.636,28.688c0,0.953-0.231,1.696-0.693,2.232c-0.462,0.535-1.099,0.803-1.912,0.803
								c-0.512,0-0.963-0.124-1.354-0.371s-0.689-0.602-0.897-1.063s-0.312-0.996-0.312-1.601c0-0.953,0.231-1.695,0.693-2.226
								c0.462-0.532,1.096-0.798,1.901-0.798c0.802,0,1.431,0.27,1.888,0.809C47.408,27.011,47.636,27.75,47.636,28.688z
								 M43.028,28.688c0,0.802,0.176,1.428,0.529,1.877c0.353,0.449,0.851,0.674,1.496,0.674s1.143-0.225,1.496-0.674
								c0.353-0.45,0.529-1.075,0.529-1.877c0-0.806-0.178-1.431-0.534-1.875c-0.356-0.444-0.857-0.666-1.501-0.666
								s-1.141,0.221-1.491,0.663C43.203,27.253,43.028,27.879,43.028,28.688z"/>
							<path d="M53.192,25.777h0.661l-2.616,2.825l2.804,3.013h-0.714l-2.761-2.959v2.959h-0.542v-5.838h0.542v2.836L53.192,25.777z
								"/>
						</g>
					</g>
				</g>
			</g>
		</g>
		<circle fill="none" stroke="#FFD600" stroke-width="1.1587" stroke-miterlimit="10" cx="33.398" cy="293.602" r="18.037"/>
	</g>
</g>
</svg>
