<?xml version="1.0" encoding="utf-8"?>
<!-- Generator: Adobe Illustrator 16.0.0, SVG Export Plug-In . SVG Version: 6.00 Build 0)  -->
<!DOCTYPE svg PUBLIC "-//W3C//DTD SVG 1.1//EN" "http://www.w3.org/Graphics/SVG/1.1/DTD/svg11.dtd">
<svg version="1.1" id="Layer_1" xmlns="http://www.w3.org/2000/svg" xmlns:xlink="http://www.w3.org/1999/xlink" x="0px" y="0px"
	 width="1920px" height="1020px" viewBox="0 0 1920 1020" enable-background="new 0 0 1920 1020" xml:space="preserve">
<g>
	<g>
		<g>
			<g>
				<g>
					
						<line fill="none" stroke="#ADADAD" stroke-width="0.7212" stroke-miterlimit="10" x1="405.352" y1="574.419" x2="406.794" y2="574.419"/>
					
						<line fill="none" stroke="#ADADAD" stroke-width="0.7212" stroke-miterlimit="10" stroke-dasharray="2.8803,4.3204" x1="411.114" y1="574.419" x2="1525.071" y2="574.419"/>
					
						<line fill="none" stroke="#ADADAD" stroke-width="0.7212" stroke-miterlimit="10" x1="1527.231" y1="574.419" x2="1528.674" y2="574.419"/>
				</g>
			</g>
		</g>
		<g>
			<g>
				<g>
					
						<line fill="none" stroke="#ADADAD" stroke-width="0.7212" stroke-miterlimit="10" x1="405.352" y1="518.664" x2="406.794" y2="518.664"/>
					
						<line fill="none" stroke="#ADADAD" stroke-width="0.7212" stroke-miterlimit="10" stroke-dasharray="2.8803,4.3204" x1="411.114" y1="518.664" x2="1525.071" y2="518.664"/>
					
						<line fill="none" stroke="#ADADAD" stroke-width="0.7212" stroke-miterlimit="10" x1="1527.231" y1="518.664" x2="1528.674" y2="518.664"/>
				</g>
			</g>
		</g>
		<g>
			<g>
				<g>
					
						<line fill="none" stroke="#ADADAD" stroke-width="0.7212" stroke-miterlimit="10" x1="405.352" y1="462.909" x2="406.794" y2="462.909"/>
					
						<line fill="none" stroke="#ADADAD" stroke-width="0.7212" stroke-miterlimit="10" stroke-dasharray="2.8803,4.3204" x1="411.114" y1="462.909" x2="1525.071" y2="462.909"/>
					
						<line fill="none" stroke="#ADADAD" stroke-width="0.7212" stroke-miterlimit="10" x1="1527.231" y1="462.909" x2="1528.674" y2="462.909"/>
				</g>
			</g>
		</g>
		<g>
			<g>
				<g>
					
						<line fill="none" stroke="#ADADAD" stroke-width="0.7212" stroke-miterlimit="10" x1="1528.674" y1="407.154" x2="1527.231" y2="407.154"/>
					
						<line fill="none" stroke="#ADADAD" stroke-width="0.7212" stroke-miterlimit="10" stroke-dasharray="2.8803,4.3204" x1="1522.911" y1="407.154" x2="408.954" y2="407.154"/>
					
						<line fill="none" stroke="#ADADAD" stroke-width="0.7212" stroke-miterlimit="10" x1="406.794" y1="407.154" x2="405.352" y2="407.154"/>
				</g>
			</g>
		</g>
		<g>
			<g>
				<path fill="#676767" d="M465.031,647.132v8.641h-1.844v-7.188h-3.875v7.188h-1.836v-8.641H465.031z"/>
				<path fill="#676767" d="M474.148,647.132v1.438h-2.813v7.203h-1.844v-7.203h-2.813v-1.438H474.148z"/>
			</g>
		</g>
		<g>
			<g>
				<path fill="#676767" d="M515.32,655.929c-1.308,0-2.301-0.382-2.98-1.145s-1.02-1.858-1.02-3.285
					c0-1.453,0.355-2.57,1.066-3.352s1.738-1.172,3.082-1.172c0.911,0,1.731,0.169,2.461,0.508l-0.555,1.477
					c-0.776-0.302-1.417-0.453-1.922-0.453c-1.495,0-2.242,0.992-2.242,2.977c0,0.969,0.186,1.696,0.559,2.184
					c0.372,0.487,0.918,0.73,1.637,0.73c0.817,0,1.591-0.203,2.32-0.609v1.602c-0.328,0.192-0.679,0.331-1.051,0.414
					C516.303,655.887,515.852,655.929,515.32,655.929z"/>
				<path fill="#676767" d="M519.258,650.585c0-1.927,0.327-3.409,0.98-4.445c0.653-1.036,1.694-1.703,3.121-2
					c1.078-0.219,2.32-0.433,3.727-0.641l0.258,1.617c-1.708,0.261-2.958,0.464-3.75,0.609c-0.818,0.151-1.408,0.487-1.77,1.008
					c-0.362,0.521-0.572,1.305-0.629,2.352h0.117c0.297-0.433,0.685-0.767,1.164-1.004c0.479-0.237,0.992-0.355,1.539-0.355
					c1.063,0,1.891,0.336,2.484,1.008s0.891,1.614,0.891,2.828c0,1.391-0.361,2.466-1.082,3.227
					c-0.722,0.761-1.72,1.141-2.996,1.141c-1.266,0-2.258-0.469-2.977-1.406S519.258,652.272,519.258,650.585z M523.438,654.429
					c1.364,0,2.047-0.896,2.047-2.688c0-1.729-0.617-2.594-1.852-2.594c-0.339,0-0.667,0.073-0.984,0.219
					c-0.318,0.146-0.611,0.339-0.879,0.578c-0.269,0.239-0.476,0.487-0.621,0.742c0,1.229,0.195,2.16,0.586,2.793
					S522.692,654.429,523.438,654.429z"/>
			</g>
		</g>
		<g>
			<g>
				<path fill="#676767" d="M402.909,647.132v3.156c0,0.886,0.458,1.328,1.375,1.328c0.442,0,0.875-0.062,1.297-0.184
					s0.875-0.319,1.359-0.59v-3.711h1.836v8.641h-1.836v-3.664c-0.505,0.313-0.994,0.543-1.465,0.691
					c-0.472,0.148-0.986,0.223-1.543,0.223c-0.901,0-1.604-0.233-2.109-0.699c-0.505-0.466-0.758-1.118-0.758-1.957v-3.234H402.909z
					"/>
				<path fill="#676767" d="M417.893,647.132v1.438h-2.813v7.203h-1.844v-7.203h-2.813v-1.438H417.893z"/>
			</g>
		</g>
		<g>
			<g>
				<path fill="#676767" d="M568.492,647.132v3.469h4.07v-3.469h1.836v8.641h-1.836v-3.727h-4.07v3.727h-1.836v-8.641H568.492z"/>
				<path fill="#676767" d="M585.312,658.827h-1.711v-3.055h-5.922v3.055h-1.695v-4.477h0.703c0.614-0.88,1.103-1.944,1.465-3.191
					c0.362-1.247,0.577-2.59,0.645-4.027h5.25v7.219h1.266V658.827z M582.242,654.351v-5.813h-1.859
					c-0.099,1.073-0.306,2.13-0.621,3.172c-0.315,1.042-0.699,1.922-1.152,2.641H582.242z"/>
			</g>
		</g>
		<g>
			<g>
				<path fill="#676767" d="M631.006,647.132v8.641h-1.844v-7.188h-3.875v7.188h-1.836v-8.641H631.006z"/>
				<path fill="#676767" d="M635.467,647.132v3.469h4.07v-3.469h1.836v8.641h-1.836v-3.727h-4.07v3.727h-1.836v-8.641H635.467z"/>
			</g>
		</g>
		<g>
			<g>
				<path fill="#676767" d="M687.214,649.343c0,1.021-0.597,1.638-1.789,1.852v0.063c0.667,0.078,1.177,0.289,1.531,0.633
					c0.354,0.344,0.531,0.789,0.531,1.336c0,0.817-0.312,1.446-0.934,1.887c-0.623,0.44-1.527,0.66-2.715,0.66h-4.125v-8.641h4.109
					C686.084,647.132,687.214,647.869,687.214,649.343z M685.378,649.499c0-0.344-0.134-0.593-0.402-0.746
					c-0.269-0.153-0.668-0.23-1.199-0.23h-2.227v2.078h1.953c0.614,0,1.081-0.079,1.398-0.238
					C685.219,650.203,685.378,649.916,685.378,649.499z M685.605,653.116c0-0.417-0.162-0.712-0.484-0.887
					c-0.323-0.175-0.808-0.262-1.453-0.262h-2.117v2.445h2.164C684.975,654.413,685.605,653.98,685.605,653.116z"/>
				<path fill="#676767" d="M695.871,647.132v1.438h-2.813v7.203h-1.844v-7.203h-2.813v-1.438H695.871z"/>
			</g>
		</g>
		<g>
			<g>
				<path fill="#676767" d="M737.672,655.929c-1.307,0-2.301-0.382-2.98-1.145s-1.02-1.858-1.02-3.285
					c0-1.453,0.355-2.57,1.066-3.352s1.738-1.172,3.082-1.172c0.912,0,1.732,0.169,2.461,0.508l-0.555,1.477
					c-0.776-0.302-1.417-0.453-1.922-0.453c-1.495,0-2.242,0.992-2.242,2.977c0,0.969,0.186,1.696,0.559,2.184
					s0.918,0.73,1.637,0.73c0.818,0,1.591-0.203,2.32-0.609v1.602c-0.328,0.192-0.678,0.331-1.051,0.414
					S738.203,655.929,737.672,655.929z"/>
				<path fill="#676767" d="M746.492,655.929c-1.094,0-1.943-0.394-2.547-1.18h-0.109c0.073,0.729,0.109,1.172,0.109,1.328v3.539
					h-1.836v-12.484h1.484c0.042,0.161,0.127,0.547,0.258,1.156h0.094c0.573-0.875,1.432-1.313,2.578-1.313
					c1.078,0,1.918,0.391,2.52,1.172s0.902,1.878,0.902,3.289s-0.306,2.513-0.918,3.305S747.57,655.929,746.492,655.929z
					 M746.047,648.476c-0.729,0-1.262,0.214-1.598,0.641s-0.504,1.109-0.504,2.047v0.273c0,1.052,0.167,1.813,0.5,2.285
					s0.877,0.707,1.633,0.707c0.635,0,1.125-0.261,1.469-0.781s0.516-1.263,0.516-2.227c0-0.969-0.17-1.702-0.512-2.199
					S746.708,648.476,746.047,648.476z"/>
			</g>
		</g>
		<g>
			
				<line fill="none" stroke="#0E1968" stroke-width="5" stroke-linecap="round" stroke-miterlimit="10" x1="738.029" y1="634.372" x2="738.029" y2="458.712"/>
			
				<line fill="none" stroke="#49B4DA" stroke-width="5" stroke-linecap="round" stroke-miterlimit="10" x1="745.735" y1="634.327" x2="745.735" y2="407.154"/>
			
				<line fill="none" stroke="#0E1968" stroke-width="5" stroke-linecap="round" stroke-miterlimit="10" x1="792.899" y1="634.372" x2="792.899" y2="513.89"/>
			
				<line fill="none" stroke="#49B4DA" stroke-width="5" stroke-linecap="round" stroke-miterlimit="10" x1="800.604" y1="634.327" x2="800.604" y2="407.154"/>
			
				<line fill="none" stroke="#0E1968" stroke-width="5" stroke-linecap="round" stroke-miterlimit="10" x1="848.346" y1="634.372" x2="848.346" y2="513.89"/>
			
				<line fill="none" stroke="#49B4DA" stroke-width="5" stroke-linecap="round" stroke-miterlimit="10" x1="856.051" y1="634.327" x2="856.051" y2="407.154"/>
			
				<line fill="none" stroke="#0E1968" stroke-width="5" stroke-linecap="round" stroke-miterlimit="10" x1="903.792" y1="634.372" x2="903.792" y2="462.909"/>
			
				<line fill="none" stroke="#49B4DA" stroke-width="5" stroke-linecap="round" stroke-miterlimit="10" x1="911.497" y1="634.327" x2="911.497" y2="407.154"/>
			
				<line fill="none" stroke="#0E1968" stroke-width="5" stroke-linecap="round" stroke-miterlimit="10" x1="959.239" y1="634.372" x2="959.239" y2="462.909"/>
			
				<line fill="none" stroke="#49B4DA" stroke-width="5" stroke-linecap="round" stroke-miterlimit="10" x1="966.944" y1="634.327" x2="966.944" y2="407.154"/>
			
				<line fill="none" stroke="#0E1968" stroke-width="5" stroke-linecap="round" stroke-miterlimit="10" x1="1014.685" y1="634.372" x2="1014.685" y2="516.893"/>
			
				<line fill="none" stroke="#49B4DA" stroke-width="5" stroke-linecap="round" stroke-miterlimit="10" x1="1022.392" y1="634.327" x2="1022.392" y2="516.893"/>
			
				<line fill="none" stroke="#0E1968" stroke-width="5" stroke-linecap="round" stroke-miterlimit="10" x1="1070.132" y1="634.372" x2="1070.132" y2="516.893"/>
			
				<line fill="none" stroke="#49B4DA" stroke-width="5" stroke-linecap="round" stroke-miterlimit="10" x1="1077.839" y1="634.327" x2="1077.839" y2="516.893"/>
			
				<line fill="none" stroke="#0E1968" stroke-width="5" stroke-linecap="round" stroke-miterlimit="10" x1="1125.777" y1="634.372" x2="1125.777" y2="517.47"/>
			
				<line fill="none" stroke="#49B4DA" stroke-width="5" stroke-linecap="round" stroke-miterlimit="10" x1="1133.483" y1="634.327" x2="1133.483" y2="517.47"/>
			
				<line fill="none" stroke="#0E1968" stroke-width="5" stroke-linecap="round" stroke-miterlimit="10" x1="1183.059" y1="634.372" x2="1183.059" y2="570.222"/>
			
				<line fill="none" stroke="#49B4DA" stroke-width="5" stroke-linecap="round" stroke-miterlimit="10" x1="1190.765" y1="634.327" x2="1190.765" y2="517.201"/>
			
				<line fill="none" stroke="#0E1968" stroke-width="5" stroke-linecap="round" stroke-miterlimit="10" x1="1238.506" y1="634.372" x2="1238.506" y2="570.222"/>
			
				<line fill="none" stroke="#49B4DA" stroke-width="5" stroke-linecap="round" stroke-miterlimit="10" x1="1246.211" y1="634.327" x2="1246.211" y2="517.201"/>
			
				<line fill="none" stroke="#0E1968" stroke-width="5" stroke-linecap="round" stroke-miterlimit="10" x1="1293.951" y1="634.372" x2="1293.951" y2="517.201"/>
			
				<line fill="none" stroke="#49B4DA" stroke-width="5" stroke-linecap="round" stroke-miterlimit="10" x1="1301.658" y1="634.327" x2="1301.658" y2="407.154"/>
			
				<line fill="none" stroke="#0E1968" stroke-width="5" stroke-linecap="round" stroke-miterlimit="10" x1="1349.398" y1="634.372" x2="1349.398" y2="517.201"/>
			
				<line fill="none" stroke="#49B4DA" stroke-width="5" stroke-linecap="round" stroke-miterlimit="10" x1="1357.104" y1="634.327" x2="1357.104" y2="407.154"/>
			
				<line fill="none" stroke="#0E1968" stroke-width="5" stroke-linecap="round" stroke-miterlimit="10" x1="1404.845" y1="634.372" x2="1404.845" y2="570.222"/>
			
				<line fill="none" stroke="#49B4DA" stroke-width="5" stroke-linecap="round" stroke-miterlimit="10" x1="1412.551" y1="634.327" x2="1412.551" y2="516.893"/>
			
				<line fill="none" stroke="#0E1968" stroke-width="5" stroke-linecap="round" stroke-miterlimit="10" x1="1460.291" y1="634.372" x2="1460.291" y2="570.222"/>
			
				<line fill="none" stroke="#49B4DA" stroke-width="5" stroke-linecap="round" stroke-miterlimit="10" x1="1467.998" y1="634.327" x2="1467.998" y2="516.893"/>
			
				<line fill="none" stroke="#0E1968" stroke-width="5" stroke-linecap="round" stroke-miterlimit="10" x1="1515.738" y1="634.372" x2="1515.738" y2="570.222"/>
			
				<line fill="none" stroke="#49B4DA" stroke-width="5" stroke-linecap="round" stroke-miterlimit="10" x1="1523.444" y1="634.327" x2="1523.444" y2="516.893"/>
			
				<line fill="none" stroke="#0E1968" stroke-width="5" stroke-linecap="round" stroke-miterlimit="10" x1="460.797" y1="634.372" x2="460.797" y2="458.712"/>
			
				<line fill="none" stroke="#49B4DA" stroke-width="5" stroke-linecap="round" stroke-miterlimit="10" x1="468.503" y1="634.327" x2="468.503" y2="407.154"/>
			
				<line fill="none" stroke="#0E1968" stroke-width="5" stroke-linecap="round" stroke-miterlimit="10" x1="516.244" y1="634.372" x2="516.244" y2="402.957"/>
			
				<line fill="none" stroke="#49B4DA" stroke-width="5" stroke-linecap="round" stroke-miterlimit="10" x1="523.948" y1="634.327" x2="523.948" y2="402.957"/>
			
				<line fill="none" stroke="#0E1968" stroke-width="5" stroke-linecap="round" stroke-miterlimit="10" x1="571.69" y1="634.372" x2="571.69" y2="402.957"/>
			
				<line fill="none" stroke="#49B4DA" stroke-width="5" stroke-linecap="round" stroke-miterlimit="10" x1="579.396" y1="634.327" x2="579.396" y2="402.957"/>
			
				<line fill="none" stroke="#0E1968" stroke-width="5" stroke-linecap="round" stroke-miterlimit="10" x1="627.137" y1="634.372" x2="627.137" y2="458.712"/>
			
				<line fill="none" stroke="#49B4DA" stroke-width="5" stroke-linecap="round" stroke-miterlimit="10" x1="634.842" y1="634.327" x2="634.842" y2="407.154"/>
			
				<line fill="none" stroke="#0E1968" stroke-width="5" stroke-linecap="round" stroke-miterlimit="10" x1="682.584" y1="634.372" x2="682.584" y2="458.712"/>
			
				<line fill="none" stroke="#49B4DA" stroke-width="5" stroke-linecap="round" stroke-miterlimit="10" x1="690.289" y1="634.327" x2="690.289" y2="407.154"/>
			
				<line fill="none" stroke="#0E1968" stroke-width="5" stroke-linecap="round" stroke-miterlimit="10" x1="405.352" y1="634.372" x2="405.352" y2="458.712"/>
			
				<line fill="none" stroke="#49B4DA" stroke-width="5" stroke-linecap="round" stroke-miterlimit="10" x1="413.056" y1="634.327" x2="413.056" y2="407.154"/>
			<rect x="383.1" y="630.86" fill="#FFFFFF" width="1149.365" height="50.232"/>
			
				<line fill="none" stroke="#ADADAD" stroke-width="0.7212" stroke-miterlimit="10" stroke-dasharray="2.8848,4.3272" x1="405.352" y1="631.054" x2="1528.451" y2="631.054"/>
		</g>
		<g>
			<g>
				<path fill="#676767" d="M465.031,647.132v8.641h-1.844v-7.188h-3.875v7.188h-1.836v-8.641H465.031z"/>
				<path fill="#676767" d="M474.148,647.132v1.438h-2.813v7.203h-1.844v-7.203h-2.813v-1.438H474.148z"/>
			</g>
		</g>
		<g>
			<g>
				<path fill="#FF4C29" d="M515.32,655.929c-1.307,0-2.301-0.382-2.98-1.145s-1.02-1.858-1.02-3.285
					c0-1.453,0.355-2.57,1.066-3.352s1.738-1.172,3.082-1.172c0.912,0,1.732,0.169,2.461,0.508l-0.555,1.477
					c-0.776-0.302-1.417-0.453-1.922-0.453c-1.495,0-2.242,0.992-2.242,2.977c0,0.969,0.186,1.696,0.559,2.184
					s0.918,0.73,1.637,0.73c0.818,0,1.591-0.203,2.32-0.609v1.602c-0.328,0.192-0.678,0.331-1.051,0.414
					S515.852,655.929,515.32,655.929z"/>
				<path fill="#FF4C29" d="M519.258,650.585c0-1.927,0.327-3.409,0.98-4.445s1.694-1.703,3.121-2
					c1.078-0.219,2.32-0.433,3.727-0.641l0.258,1.617c-1.708,0.261-2.958,0.464-3.75,0.609c-0.818,0.151-1.408,0.487-1.77,1.008
					s-0.572,1.305-0.629,2.352h0.117c0.297-0.433,0.685-0.767,1.164-1.004s0.992-0.355,1.539-0.355c1.063,0,1.891,0.336,2.484,1.008
					s0.891,1.614,0.891,2.828c0,1.391-0.361,2.466-1.082,3.227s-1.72,1.141-2.996,1.141c-1.266,0-2.258-0.469-2.977-1.406
					S519.258,652.272,519.258,650.585z M523.438,654.429c1.365,0,2.047-0.896,2.047-2.688c0-1.729-0.617-2.594-1.852-2.594
					c-0.338,0-0.667,0.073-0.984,0.219s-0.611,0.339-0.879,0.578s-0.475,0.487-0.621,0.742c0,1.229,0.195,2.16,0.586,2.793
					S522.693,654.429,523.438,654.429z"/>
			</g>
		</g>
		<g>
			<g>
				<path fill="#676767" d="M402.909,647.132v3.156c0,0.886,0.458,1.328,1.375,1.328c0.442,0,0.875-0.062,1.297-0.184
					s0.875-0.319,1.359-0.59v-3.711h1.836v8.641h-1.836v-3.664c-0.505,0.313-0.994,0.543-1.465,0.691
					c-0.472,0.148-0.986,0.223-1.543,0.223c-0.901,0-1.604-0.233-2.109-0.699c-0.505-0.466-0.758-1.118-0.758-1.957v-3.234H402.909z
					"/>
				<path fill="#676767" d="M417.893,647.132v1.438h-2.813v7.203h-1.844v-7.203h-2.813v-1.438H417.893z"/>
			</g>
		</g>
		<g>
			<g>
				<path fill="#FF4C29" d="M568.492,647.132v3.469h4.07v-3.469h1.836v8.641h-1.836v-3.727h-4.07v3.727h-1.836v-8.641H568.492z"/>
				<path fill="#FF4C29" d="M585.312,658.827h-1.711v-3.055h-5.922v3.055h-1.695v-4.477h0.703c0.614-0.88,1.103-1.944,1.465-3.191
					c0.362-1.247,0.577-2.59,0.645-4.027h5.25v7.219h1.266V658.827z M582.242,654.351v-5.813h-1.859
					c-0.099,1.073-0.306,2.13-0.621,3.172c-0.315,1.042-0.699,1.922-1.152,2.641H582.242z"/>
			</g>
		</g>
		<g>
			<g>
				<path fill="#676767" d="M631.006,647.132v8.641h-1.844v-7.188h-3.875v7.188h-1.836v-8.641H631.006z"/>
				<path fill="#676767" d="M635.467,647.132v3.469h4.07v-3.469h1.836v8.641h-1.836v-3.727h-4.07v3.727h-1.836v-8.641H635.467z"/>
			</g>
		</g>
		<g>
			<g>
				<path fill="#676767" d="M687.214,649.343c0,1.021-0.597,1.638-1.789,1.852v0.063c0.667,0.078,1.177,0.289,1.531,0.633
					c0.354,0.344,0.531,0.789,0.531,1.336c0,0.817-0.312,1.446-0.934,1.887c-0.623,0.44-1.527,0.66-2.715,0.66h-4.125v-8.641h4.109
					C686.084,647.132,687.214,647.869,687.214,649.343z M685.378,649.499c0-0.344-0.134-0.593-0.402-0.746
					c-0.269-0.153-0.668-0.23-1.199-0.23h-2.227v2.078h1.953c0.614,0,1.081-0.079,1.398-0.238
					C685.219,650.203,685.378,649.916,685.378,649.499z M685.605,653.116c0-0.417-0.162-0.712-0.484-0.887
					c-0.323-0.175-0.808-0.262-1.453-0.262h-2.117v2.445h2.164C684.975,654.413,685.605,653.98,685.605,653.116z"/>
				<path fill="#676767" d="M695.871,647.132v1.438h-2.813v7.203h-1.844v-7.203h-2.813v-1.438H695.871z"/>
			</g>
		</g>
		<g>
			<g>
				<path fill="#676767" d="M737.672,655.929c-1.308,0-2.301-0.382-2.98-1.145s-1.02-1.858-1.02-3.285
					c0-1.453,0.355-2.57,1.066-3.352s1.738-1.172,3.082-1.172c0.911,0,1.731,0.169,2.461,0.508l-0.555,1.477
					c-0.776-0.302-1.417-0.453-1.922-0.453c-1.495,0-2.242,0.992-2.242,2.977c0,0.969,0.186,1.696,0.559,2.184
					c0.372,0.487,0.918,0.73,1.637,0.73c0.817,0,1.591-0.203,2.32-0.609v1.602c-0.328,0.192-0.679,0.331-1.051,0.414
					C738.655,655.887,738.204,655.929,737.672,655.929z"/>
				<path fill="#676767" d="M746.493,655.929c-1.094,0-1.943-0.394-2.547-1.18h-0.109c0.073,0.729,0.109,1.172,0.109,1.328v3.539
					h-1.836v-12.484h1.484c0.042,0.161,0.127,0.547,0.258,1.156h0.094c0.573-0.875,1.432-1.313,2.578-1.313
					c1.078,0,1.918,0.391,2.52,1.172s0.902,1.878,0.902,3.289s-0.306,2.513-0.918,3.305
					C748.416,655.533,747.571,655.929,746.493,655.929z M746.047,648.476c-0.729,0-1.262,0.214-1.598,0.641
					s-0.504,1.109-0.504,2.047v0.273c0,1.052,0.167,1.813,0.5,2.285c0.333,0.472,0.877,0.707,1.633,0.707
					c0.635,0,1.125-0.261,1.469-0.781s0.516-1.263,0.516-2.227c0-0.969-0.171-1.702-0.512-2.199
					C747.21,648.725,746.708,648.476,746.047,648.476z"/>
			</g>
		</g>
		<g>
			<g>
				<path fill="#676767" d="M1242.11,647.132v8.641h-1.844v-7.188h-3.875v7.188h-1.836v-8.641H1242.11z"/>
				<path fill="#676767" d="M1251.228,647.132v1.438h-2.813v7.203h-1.844v-7.203h-2.813v-1.438H1251.228z"/>
			</g>
		</g>
		<g>
			<g>
				<path fill="#FF4C29" d="M1292.4,655.929c-1.308,0-2.301-0.382-2.98-1.145s-1.02-1.858-1.02-3.285
					c0-1.453,0.355-2.57,1.066-3.352s1.738-1.172,3.082-1.172c0.911,0,1.731,0.169,2.461,0.508l-0.555,1.477
					c-0.776-0.302-1.417-0.453-1.922-0.453c-1.495,0-2.242,0.992-2.242,2.977c0,0.969,0.186,1.696,0.559,2.184
					c0.372,0.487,0.918,0.73,1.637,0.73c0.817,0,1.591-0.203,2.32-0.609v1.602c-0.328,0.192-0.679,0.331-1.051,0.414
					C1293.383,655.887,1292.932,655.929,1292.4,655.929z"/>
				<path fill="#FF4C29" d="M1296.338,650.585c0-1.927,0.326-3.409,0.98-4.445c0.653-1.036,1.693-1.703,3.121-2
					c1.078-0.219,2.32-0.433,3.727-0.641l0.258,1.617c-1.709,0.261-2.959,0.464-3.75,0.609c-0.818,0.151-1.408,0.487-1.77,1.008
					c-0.362,0.521-0.572,1.305-0.629,2.352h0.117c0.297-0.433,0.685-0.767,1.164-1.004c0.479-0.237,0.992-0.355,1.539-0.355
					c1.063,0,1.891,0.336,2.484,1.008s0.891,1.614,0.891,2.828c0,1.391-0.361,2.466-1.082,3.227
					c-0.722,0.761-1.721,1.141-2.996,1.141c-1.266,0-2.258-0.469-2.977-1.406S1296.338,652.272,1296.338,650.585z M1300.518,654.429
					c1.364,0,2.047-0.896,2.047-2.688c0-1.729-0.617-2.594-1.852-2.594c-0.339,0-0.667,0.073-0.984,0.219
					c-0.318,0.146-0.611,0.339-0.879,0.578c-0.269,0.239-0.476,0.487-0.621,0.742c0,1.229,0.195,2.16,0.586,2.793
					S1299.772,654.429,1300.518,654.429z"/>
			</g>
		</g>
		<g>
			<g>
				<path fill="#676767" d="M1179.988,647.132v3.156c0,0.886,0.457,1.328,1.375,1.328c0.441,0,0.875-0.062,1.297-0.184
					s0.875-0.319,1.359-0.59v-3.711h1.836v8.641h-1.836v-3.664c-0.506,0.313-0.994,0.543-1.465,0.691
					c-0.473,0.148-0.986,0.223-1.543,0.223c-0.902,0-1.605-0.233-2.109-0.699c-0.506-0.466-0.758-1.118-0.758-1.957v-3.234H1179.988
					z"/>
				<path fill="#676767" d="M1194.973,647.132v1.438h-2.813v7.203h-1.844v-7.203h-2.813v-1.438H1194.973z"/>
			</g>
		</g>
		<g>
			<g>
				<path fill="#FF4C29" d="M1345.57,647.132v3.469h4.07v-3.469h1.836v8.641h-1.836v-3.727h-4.07v3.727h-1.836v-8.641H1345.57z"/>
				<path fill="#FF4C29" d="M1362.391,658.827h-1.711v-3.055h-5.922v3.055h-1.695v-4.477h0.703c0.615-0.88,1.104-1.944,1.465-3.191
					c0.362-1.247,0.577-2.59,0.645-4.027h5.25v7.219h1.266V658.827z M1359.32,654.351v-5.813h-1.859
					c-0.099,1.073-0.306,2.13-0.621,3.172c-0.314,1.042-0.699,1.922-1.152,2.641H1359.32z"/>
			</g>
		</g>
		<g>
			<g>
				<path fill="#676767" d="M1408.086,647.132v8.641h-1.844v-7.188h-3.875v7.188h-1.836v-8.641H1408.086z"/>
				<path fill="#676767" d="M1412.547,647.132v3.469h4.07v-3.469h1.836v8.641h-1.836v-3.727h-4.07v3.727h-1.836v-8.641H1412.547z"/>
			</g>
		</g>
		<g>
			<g>
				<path fill="#676767" d="M1464.293,649.343c0,1.021-0.596,1.638-1.789,1.852v0.063c0.667,0.078,1.178,0.289,1.531,0.633
					c0.354,0.344,0.531,0.789,0.531,1.336c0,0.817-0.311,1.446-0.934,1.887c-0.622,0.44-1.527,0.66-2.715,0.66h-4.125v-8.641h4.109
					C1463.163,647.132,1464.293,647.869,1464.293,649.343z M1462.457,649.499c0-0.344-0.134-0.593-0.402-0.746
					c-0.268-0.153-0.668-0.23-1.199-0.23h-2.227v2.078h1.953c0.615,0,1.081-0.079,1.398-0.238
					C1462.299,650.203,1462.457,649.916,1462.457,649.499z M1462.684,653.116c0-0.417-0.161-0.712-0.484-0.887
					c-0.322-0.175-0.807-0.262-1.453-0.262h-2.117v2.445h2.164C1462.054,654.413,1462.684,653.98,1462.684,653.116z"/>
				<path fill="#676767" d="M1472.949,647.132v1.438h-2.813v7.203h-1.844v-7.203h-2.813v-1.438H1472.949z"/>
			</g>
		</g>
		<g>
			<g>
				<path fill="#676767" d="M1514.75,655.929c-1.308,0-2.301-0.382-2.98-1.145s-1.02-1.858-1.02-3.285
					c0-1.453,0.355-2.57,1.066-3.352s1.738-1.172,3.082-1.172c0.911,0,1.731,0.169,2.461,0.508l-0.555,1.477
					c-0.776-0.302-1.417-0.453-1.922-0.453c-1.495,0-2.242,0.992-2.242,2.977c0,0.969,0.186,1.696,0.559,2.184
					c0.372,0.487,0.918,0.73,1.637,0.73c0.817,0,1.591-0.203,2.32-0.609v1.602c-0.328,0.192-0.679,0.331-1.051,0.414
					C1515.732,655.887,1515.281,655.929,1514.75,655.929z"/>
				<path fill="#676767" d="M1523.57,655.929c-1.094,0-1.943-0.394-2.547-1.18h-0.109c0.072,0.729,0.109,1.172,0.109,1.328v3.539
					h-1.836v-12.484h1.484c0.041,0.161,0.127,0.547,0.258,1.156h0.094c0.572-0.875,1.432-1.313,2.578-1.313
					c1.078,0,1.918,0.391,2.52,1.172s0.902,1.878,0.902,3.289s-0.307,2.513-0.918,3.305
					C1525.493,655.533,1524.648,655.929,1523.57,655.929z M1523.125,648.476c-0.729,0-1.262,0.214-1.598,0.641
					s-0.504,1.109-0.504,2.047v0.273c0,1.052,0.166,1.813,0.5,2.285c0.333,0.472,0.877,0.707,1.633,0.707
					c0.635,0,1.125-0.261,1.469-0.781s0.516-1.263,0.516-2.227c0-0.969-0.171-1.702-0.512-2.199
					C1524.287,648.725,1523.786,648.476,1523.125,648.476z"/>
			</g>
		</g>
		<g>
			<g>
				<path fill="#676767" d="M852.031,647.132v8.641h-1.844v-7.188h-3.875v7.188h-1.836v-8.641H852.031z"/>
				<path fill="#676767" d="M861.148,647.132v1.438h-2.813v7.203h-1.844v-7.203h-2.813v-1.438H861.148z"/>
			</g>
		</g>
		<g>
			<g>
				<path fill="#FF4C29" d="M902.32,655.929c-1.307,0-2.301-0.382-2.98-1.145s-1.02-1.858-1.02-3.285
					c0-1.453,0.355-2.57,1.066-3.352s1.738-1.172,3.082-1.172c0.912,0,1.732,0.169,2.461,0.508l-0.555,1.477
					c-0.776-0.302-1.417-0.453-1.922-0.453c-1.495,0-2.242,0.992-2.242,2.977c0,0.969,0.186,1.696,0.559,2.184
					s0.918,0.73,1.637,0.73c0.818,0,1.591-0.203,2.32-0.609v1.602c-0.328,0.192-0.678,0.331-1.051,0.414
					S902.852,655.929,902.32,655.929z"/>
				<path fill="#FF4C29" d="M906.258,650.585c0-1.927,0.327-3.409,0.98-4.445s1.694-1.703,3.121-2
					c1.078-0.219,2.32-0.433,3.727-0.641l0.258,1.617c-1.708,0.261-2.958,0.464-3.75,0.609c-0.818,0.151-1.408,0.487-1.77,1.008
					s-0.572,1.305-0.629,2.352h0.117c0.297-0.433,0.685-0.767,1.164-1.004s0.992-0.355,1.539-0.355c1.063,0,1.891,0.336,2.484,1.008
					s0.891,1.614,0.891,2.828c0,1.391-0.361,2.466-1.082,3.227s-1.72,1.141-2.996,1.141c-1.266,0-2.258-0.469-2.977-1.406
					S906.258,652.272,906.258,650.585z M910.438,654.429c1.365,0,2.047-0.896,2.047-2.688c0-1.729-0.617-2.594-1.852-2.594
					c-0.338,0-0.667,0.073-0.984,0.219s-0.611,0.339-0.879,0.578s-0.475,0.487-0.621,0.742c0,1.229,0.195,2.16,0.586,2.793
					S909.693,654.429,910.438,654.429z"/>
			</g>
		</g>
		<g>
			<g>
				<path fill="#676767" d="M789.909,647.132v3.156c0,0.886,0.458,1.328,1.375,1.328c0.442,0,0.875-0.062,1.297-0.184
					s0.875-0.319,1.359-0.59v-3.711h1.836v8.641h-1.836v-3.664c-0.505,0.313-0.994,0.543-1.465,0.691
					c-0.472,0.148-0.986,0.223-1.543,0.223c-0.901,0-1.604-0.233-2.109-0.699c-0.505-0.466-0.758-1.118-0.758-1.957v-3.234H789.909z
					"/>
				<path fill="#676767" d="M804.893,647.132v1.438h-2.813v7.203h-1.844v-7.203h-2.813v-1.438H804.893z"/>
			</g>
		</g>
		<g>
			<g>
				<path fill="#FF4C29" d="M955.492,647.132v3.469h4.07v-3.469h1.836v8.641h-1.836v-3.727h-4.07v3.727h-1.836v-8.641H955.492z"/>
				<path fill="#FF4C29" d="M972.313,658.827h-1.711v-3.055h-5.922v3.055h-1.695v-4.477h0.703c0.613-0.88,1.102-1.944,1.465-3.191
					c0.361-1.247,0.576-2.59,0.645-4.027h5.25v7.219h1.266V658.827z M969.242,654.351v-5.813h-1.859
					c-0.1,1.073-0.307,2.13-0.621,3.172c-0.316,1.042-0.699,1.922-1.152,2.641H969.242z"/>
			</g>
		</g>
		<g>
			<g>
				<path fill="#676767" d="M1018.006,647.132v8.641h-1.844v-7.188h-3.875v7.188h-1.836v-8.641H1018.006z"/>
				<path fill="#676767" d="M1022.467,647.132v3.469h4.07v-3.469h1.836v8.641h-1.836v-3.727h-4.07v3.727h-1.836v-8.641H1022.467z"/>
			</g>
		</g>
		<g>
			<g>
				<path fill="#676767" d="M1074.215,649.343c0,1.021-0.598,1.638-1.789,1.852v0.063c0.666,0.078,1.176,0.289,1.531,0.633
					c0.354,0.344,0.531,0.789,0.531,1.336c0,0.817-0.313,1.446-0.934,1.887c-0.623,0.44-1.527,0.66-2.715,0.66h-4.125v-8.641h4.109
					C1073.084,647.132,1074.215,647.869,1074.215,649.343z M1072.379,649.499c0-0.344-0.135-0.593-0.402-0.746
					c-0.27-0.153-0.668-0.23-1.199-0.23h-2.227v2.078h1.953c0.613,0,1.08-0.079,1.398-0.238
					C1072.219,650.203,1072.379,649.916,1072.379,649.499z M1072.605,653.116c0-0.417-0.162-0.712-0.484-0.887
					c-0.324-0.175-0.809-0.262-1.453-0.262h-2.117v2.445h2.164C1071.975,654.413,1072.605,653.98,1072.605,653.116z"/>
				<path fill="#676767" d="M1082.871,647.132v1.438h-2.813v7.203h-1.844v-7.203h-2.813v-1.438H1082.871z"/>
			</g>
		</g>
		<g>
			<g>
				<path fill="#676767" d="M1124.672,655.929c-1.307,0-2.301-0.382-2.98-1.145s-1.02-1.858-1.02-3.285
					c0-1.453,0.355-2.57,1.066-3.352s1.738-1.172,3.082-1.172c0.912,0,1.732,0.169,2.461,0.508l-0.555,1.477
					c-0.775-0.302-1.416-0.453-1.922-0.453c-1.494,0-2.242,0.992-2.242,2.977c0,0.969,0.186,1.696,0.559,2.184
					s0.918,0.73,1.637,0.73c0.818,0,1.592-0.203,2.32-0.609v1.602c-0.328,0.192-0.678,0.331-1.051,0.414
					S1125.203,655.929,1124.672,655.929z"/>
				<path fill="#676767" d="M1133.492,655.929c-1.094,0-1.943-0.394-2.547-1.18h-0.109c0.072,0.729,0.109,1.172,0.109,1.328v3.539
					h-1.836v-12.484h1.484c0.041,0.161,0.127,0.547,0.258,1.156h0.094c0.572-0.875,1.432-1.313,2.578-1.313
					c1.078,0,1.918,0.391,2.52,1.172s0.902,1.878,0.902,3.289s-0.307,2.513-0.918,3.305S1134.57,655.929,1133.492,655.929z
					 M1133.047,648.476c-0.729,0-1.262,0.214-1.598,0.641s-0.504,1.109-0.504,2.047v0.273c0,1.052,0.166,1.813,0.5,2.285
					s0.877,0.707,1.633,0.707c0.635,0,1.125-0.261,1.469-0.781s0.516-1.263,0.516-2.227c0-0.969-0.17-1.702-0.512-2.199
					S1133.709,648.476,1133.047,648.476z"/>
			</g>
		</g>
		<g>
			<g>
				<g>
					<path fill="none" stroke="#FFD600" stroke-width="1.1587" stroke-miterlimit="10" d="M375.223,387.791v233.234v5.188v12.146
						c0,8.709,7.045,15.755,15.754,15.755"/>
					
						<polygon fill="#FFD600" stroke="#FFD600" stroke-width="1.1587" stroke-linecap="round" stroke-linejoin="round" stroke-miterlimit="10" points="
						531.216,338.907 375.223,338.907 375.223,371.259 375.223,386.801 375.223,393.565 383.429,386.801 531.216,386.801 					"/>
					<g>
						<g>
							<path d="M395.104,357.526h-0.548v-7.337h-4.533v7.337h-0.548v-7.853h5.629V357.526z"/>
							<path d="M402.792,354.599c0,0.953-0.231,1.696-0.693,2.231c-0.462,0.536-1.099,0.803-1.912,0.803
								c-0.512,0-0.963-0.124-1.354-0.371s-0.689-0.602-0.897-1.063s-0.312-0.996-0.312-1.601c0-0.953,0.231-1.694,0.693-2.227
								c0.462-0.531,1.096-0.797,1.901-0.797c0.802,0,1.432,0.27,1.888,0.808C402.564,352.922,402.792,353.661,402.792,354.599z
								 M398.184,354.599c0,0.802,0.176,1.428,0.529,1.877c0.353,0.45,0.852,0.674,1.496,0.674s1.143-0.225,1.496-0.674
								c0.353-0.449,0.529-1.075,0.529-1.877c0-0.806-0.178-1.431-0.535-1.875c-0.356-0.444-0.856-0.666-1.501-0.666
								s-1.142,0.221-1.49,0.664C398.358,353.164,398.184,353.79,398.184,354.599z"/>
							<path d="M405.609,351.688v1.955c0,0.494,0.12,0.851,0.36,1.069s0.609,0.328,1.106,0.328c0.351,0,0.686-0.063,1.004-0.188
								s0.65-0.326,0.994-0.602v-2.562h0.532v5.838h-0.532v-2.771c-0.358,0.276-0.71,0.473-1.056,0.591
								c-0.345,0.118-0.719,0.177-1.12,0.177c-0.598,0-1.05-0.156-1.356-0.467c-0.307-0.312-0.459-0.761-0.459-1.348v-2.02H405.609z
								"/>
							<path d="M415.875,357.526l-0.134-0.924h-0.043c-0.293,0.376-0.595,0.642-0.905,0.797c-0.31,0.156-0.676,0.234-1.099,0.234
								c-0.573,0-1.019-0.147-1.337-0.44s-0.478-0.7-0.478-1.219c0-0.569,0.237-1.012,0.712-1.327c0.474-0.315,1.161-0.481,2.06-0.5
								l1.112-0.032v-0.387c0-0.555-0.113-0.974-0.338-1.257s-0.589-0.424-1.09-0.424c-0.541,0-1.101,0.15-1.681,0.451l-0.199-0.462
								c0.641-0.301,1.275-0.451,1.901-0.451c0.641,0,1.12,0.167,1.437,0.5c0.316,0.333,0.475,0.852,0.475,1.558v3.883H415.875z
								 M413.727,357.15c0.623,0,1.114-0.178,1.475-0.535c0.359-0.356,0.54-0.851,0.54-1.485v-0.575l-1.021,0.043
								c-0.82,0.04-1.405,0.167-1.753,0.384c-0.35,0.217-0.524,0.554-0.524,1.013c0,0.365,0.112,0.649,0.335,0.852
								C413.002,357.049,413.318,357.15,413.727,357.15z"/>
							<path d="M422.634,352.149h-1.944v5.376h-0.526v-5.376h-1.993v-0.462h4.463V352.149z"/>
							<path d="M429.43,354.599c0,0.953-0.231,1.696-0.693,2.231c-0.462,0.536-1.099,0.803-1.912,0.803
								c-0.512,0-0.963-0.124-1.354-0.371s-0.689-0.602-0.897-1.063s-0.312-0.996-0.312-1.601c0-0.953,0.231-1.694,0.693-2.227
								c0.462-0.531,1.096-0.797,1.901-0.797c0.802,0,1.432,0.27,1.888,0.808C429.202,352.922,429.43,353.661,429.43,354.599z
								 M424.822,354.599c0,0.802,0.176,1.428,0.529,1.877c0.353,0.45,0.852,0.674,1.496,0.674s1.143-0.225,1.496-0.674
								c0.353-0.449,0.529-1.075,0.529-1.877c0-0.806-0.178-1.431-0.535-1.875c-0.356-0.444-0.856-0.666-1.501-0.666
								s-1.142,0.221-1.49,0.664C424.996,353.164,424.822,353.79,424.822,354.599z"/>
							<path d="M434.986,351.688h0.661l-2.616,2.825l2.804,3.013h-0.714l-2.761-2.959v2.959h-0.542v-5.838h0.542v2.836
								L434.986,351.688z"/>
							<path d="M441.795,357.526h-0.532v-5.838h4.657v5.838h-0.532v-5.333h-3.593V357.526z"/>
							<path d="M451.143,357.633c-0.899,0-1.554-0.336-1.966-1.01h-0.038l0.016,0.451c0.014,0.265,0.021,0.555,0.021,0.87v2.224
								h-0.532v-8.481h0.451l0.102,0.833h0.032c0.401-0.63,1.042-0.945,1.923-0.945c0.788,0,1.389,0.259,1.802,0.776
								c0.414,0.518,0.621,1.271,0.621,2.259c0,0.959-0.217,1.704-0.653,2.231C452.488,357.369,451.895,357.633,451.143,357.633z
								 M451.132,357.161c0.598,0,1.061-0.222,1.389-0.666c0.327-0.444,0.491-1.065,0.491-1.864c0-1.715-0.62-2.573-1.858-2.573
								c-0.68,0-1.18,0.187-1.499,0.561c-0.319,0.375-0.478,0.984-0.478,1.829v0.172c0,0.913,0.153,1.565,0.459,1.955
								C449.942,356.965,450.441,357.161,451.132,357.161z"/>
							<path d="M458.32,357.633c-0.849,0-1.51-0.261-1.984-0.784c-0.475-0.523-0.712-1.255-0.712-2.197
								c0-0.931,0.229-1.677,0.688-2.237c0.458-0.56,1.076-0.84,1.853-0.84c0.688,0,1.23,0.24,1.627,0.72s0.596,1.131,0.596,1.955
								v0.43h-4.206c0.007,0.802,0.194,1.415,0.562,1.837c0.367,0.422,0.892,0.634,1.576,0.634c0.333,0,0.626-0.023,0.878-0.07
								c0.253-0.046,0.572-0.147,0.959-0.301v0.483c-0.33,0.143-0.634,0.241-0.913,0.293
								C458.965,357.607,458.657,357.633,458.32,357.633z M458.165,352.047c-0.562,0-1.013,0.185-1.354,0.556
								c-0.34,0.37-0.539,0.905-0.596,1.603h3.609c0-0.677-0.147-1.206-0.44-1.587C459.09,352.238,458.684,352.047,458.165,352.047z
								"/>
							<path d="M465.487,356.957l0.333-0.94l1.681-4.329h0.736v5.838h-0.505v-5.194c-0.079,0.226-0.162,0.457-0.25,0.693
								c-0.087,0.236-0.672,1.737-1.753,4.501h-0.473l-1.617-4.104c-0.068-0.165-0.132-0.338-0.19-0.521
								c-0.06-0.183-0.125-0.379-0.196-0.591v5.215h-0.483v-5.838h0.704l1.687,4.297
								C465.292,356.332,465.401,356.656,465.487,356.957z"/>
							<path d="M471.36,349.673l0.064,0.107c-0.269,0.949-0.58,1.81-0.935,2.583h-0.349c0.104-0.344,0.213-0.776,0.328-1.297
								c0.115-0.521,0.202-0.986,0.263-1.394H471.36z"/>
							<path d="M475.717,357.633c-0.849,0-1.516-0.268-2-0.803c-0.485-0.535-0.728-1.265-0.728-2.188
								c0-0.949,0.251-1.697,0.754-2.245c0.503-0.548,1.187-0.822,2.049-0.822c0.222,0,0.477,0.023,0.765,0.07
								c0.289,0.046,0.537,0.111,0.744,0.193l-0.156,0.473c-0.211-0.075-0.449-0.136-0.711-0.183
								c-0.264-0.046-0.481-0.07-0.653-0.07c-0.663,0-1.184,0.188-1.563,0.564s-0.6,0.904-0.661,1.584h3.357v0.473h-3.378
								c0.007,0.777,0.206,1.383,0.596,1.818c0.39,0.436,0.915,0.653,1.574,0.653c0.562,0,1.071-0.095,1.525-0.285v0.494
								c-0.165,0.083-0.381,0.148-0.65,0.199S476.025,357.633,475.717,357.633z"/>
							<path d="M481.928,357.633c-0.899,0-1.554-0.336-1.966-1.01h-0.038l0.016,0.451c0.014,0.265,0.021,0.555,0.021,0.87v2.224
								h-0.532v-8.481h0.451l0.102,0.833h0.032c0.401-0.63,1.042-0.945,1.923-0.945c0.788,0,1.388,0.259,1.802,0.776
								c0.413,0.518,0.62,1.271,0.62,2.259c0,0.959-0.218,1.704-0.652,2.231C483.273,357.369,482.68,357.633,481.928,357.633z
								 M481.917,357.161c0.598,0,1.061-0.222,1.388-0.666c0.328-0.444,0.492-1.065,0.492-1.864c0-1.715-0.62-2.573-1.858-2.573
								c-0.68,0-1.18,0.187-1.499,0.561c-0.319,0.375-0.478,0.984-0.478,1.829v0.172c0,0.913,0.153,1.565,0.459,1.955
								C480.728,356.965,481.227,357.161,481.917,357.161z"/>
							<path d="M487.28,351.688v2.562h3.706v-2.562h0.526v5.838h-0.526v-2.814h-3.706v2.814h-0.532v-5.838H487.28z"/>
							<path d="M499.066,354.599c0,0.953-0.231,1.696-0.693,2.231c-0.462,0.536-1.099,0.803-1.912,0.803
								c-0.512,0-0.963-0.124-1.354-0.371s-0.689-0.602-0.897-1.063s-0.312-0.996-0.312-1.601c0-0.953,0.231-1.694,0.693-2.227
								c0.462-0.531,1.096-0.797,1.901-0.797c0.802,0,1.432,0.27,1.888,0.808C498.838,352.922,499.066,353.661,499.066,354.599z
								 M494.458,354.599c0,0.802,0.176,1.428,0.529,1.877c0.353,0.45,0.852,0.674,1.496,0.674s1.143-0.225,1.496-0.674
								c0.353-0.449,0.529-1.075,0.529-1.877c0-0.806-0.178-1.431-0.535-1.875c-0.356-0.444-0.856-0.666-1.501-0.666
								s-1.142,0.221-1.49,0.664C494.632,353.164,494.458,353.79,494.458,354.599z"/>
							<path d="M504.885,352.149h-2.9v5.376h-0.532v-5.838h3.432V352.149z"/>
							<path d="M511.681,354.599c0,0.953-0.231,1.696-0.693,2.231c-0.462,0.536-1.099,0.803-1.912,0.803
								c-0.512,0-0.963-0.124-1.354-0.371s-0.689-0.602-0.897-1.063s-0.312-0.996-0.312-1.601c0-0.953,0.231-1.694,0.693-2.227
								c0.462-0.531,1.096-0.797,1.901-0.797c0.802,0,1.432,0.27,1.888,0.808C511.453,352.922,511.681,353.661,511.681,354.599z
								 M507.073,354.599c0,0.802,0.176,1.428,0.529,1.877c0.353,0.45,0.852,0.674,1.496,0.674s1.143-0.225,1.496-0.674
								c0.353-0.449,0.529-1.075,0.529-1.877c0-0.806-0.178-1.431-0.535-1.875c-0.356-0.444-0.856-0.666-1.501-0.666
								s-1.142,0.221-1.49,0.664C507.247,353.164,507.073,353.79,507.073,354.599z"/>
							<path d="M389.873,372.526h-0.532v-5.838h4.657v5.838h-0.532v-5.333h-3.593V372.526z"/>
							<path d="M399.081,372.633c-0.849,0-1.51-0.261-1.984-0.784c-0.475-0.523-0.712-1.255-0.712-2.197
								c0-0.931,0.229-1.677,0.688-2.237c0.458-0.56,1.076-0.84,1.853-0.84c0.688,0,1.23,0.24,1.627,0.72s0.596,1.131,0.596,1.955
								v0.43h-4.206c0.007,0.802,0.194,1.415,0.562,1.837c0.367,0.422,0.892,0.634,1.576,0.634c0.333,0,0.626-0.023,0.878-0.07
								c0.253-0.046,0.572-0.147,0.959-0.301v0.483c-0.33,0.143-0.634,0.241-0.913,0.293
								C399.726,372.607,399.417,372.633,399.081,372.633z M398.925,367.047c-0.562,0-1.013,0.185-1.354,0.556
								c-0.34,0.37-0.539,0.905-0.596,1.603h3.609c0-0.677-0.147-1.206-0.44-1.587C399.851,367.238,399.444,367.047,398.925,367.047
								z"/>
							<path d="M406.028,372.633c-0.899,0-1.554-0.336-1.966-1.01h-0.038l0.016,0.451c0.014,0.265,0.021,0.555,0.021,0.87v2.224
								h-0.532v-8.481h0.451l0.102,0.833h0.032c0.401-0.63,1.042-0.945,1.923-0.945c0.788,0,1.388,0.259,1.802,0.776
								c0.413,0.518,0.62,1.271,0.62,2.259c0,0.959-0.218,1.704-0.652,2.231C407.373,372.369,406.78,372.633,406.028,372.633z
								 M406.017,372.161c0.598,0,1.061-0.222,1.388-0.666c0.328-0.444,0.492-1.065,0.492-1.864c0-1.715-0.62-2.573-1.858-2.573
								c-0.68,0-1.18,0.187-1.499,0.561c-0.319,0.375-0.478,0.984-0.478,1.829v0.172c0,0.913,0.153,1.565,0.459,1.955
								C404.827,371.965,405.326,372.161,406.017,372.161z"/>
							<path d="M410.772,365.065c0-0.344,0.113-0.516,0.338-0.516c0.111,0,0.198,0.045,0.26,0.134
								c0.063,0.089,0.094,0.217,0.094,0.381c0,0.161-0.031,0.288-0.094,0.381c-0.063,0.093-0.149,0.14-0.26,0.14
								C410.885,365.586,410.772,365.413,410.772,365.065z M411.379,372.526h-0.532v-5.838h0.532V372.526z"/>
							<path d="M418.933,369.599c0,0.953-0.231,1.696-0.693,2.231c-0.462,0.536-1.099,0.803-1.912,0.803
								c-0.512,0-0.963-0.124-1.354-0.371s-0.689-0.602-0.897-1.063s-0.312-0.996-0.312-1.601c0-0.953,0.231-1.694,0.693-2.227
								c0.462-0.531,1.096-0.797,1.901-0.797c0.802,0,1.432,0.27,1.888,0.808C418.705,367.922,418.933,368.661,418.933,369.599z
								 M414.325,369.599c0,0.802,0.176,1.428,0.529,1.877c0.353,0.45,0.852,0.674,1.496,0.674s1.143-0.225,1.496-0.674
								c0.353-0.449,0.529-1.075,0.529-1.877c0-0.806-0.178-1.431-0.535-1.875c-0.356-0.444-0.856-0.666-1.501-0.666
								s-1.142,0.221-1.49,0.664C414.499,368.164,414.325,368.79,414.325,369.599z"/>
							<path d="M426.084,374.508h-0.526v-1.982h-4.469v1.982h-0.526v-2.487h0.387c0.487-0.684,0.863-1.477,1.128-2.379
								s0.405-1.887,0.419-2.954h2.809v5.333h0.779V374.508z M424.773,372.021v-4.839h-1.815c-0.086,1.937-0.555,3.55-1.407,4.839
								H424.773z"/>
							<path d="M427.117,366.688h0.548l1.235,3.276c0.376,1.006,0.614,1.685,0.714,2.036h0.032c0.15-0.462,0.396-1.151,0.736-2.068
								l1.235-3.244h0.548l-2.616,6.784c-0.211,0.551-0.389,0.924-0.532,1.117s-0.311,0.338-0.502,0.435
								c-0.192,0.097-0.424,0.145-0.696,0.145c-0.204,0-0.432-0.038-0.682-0.113v-0.462c0.208,0.057,0.432,0.086,0.671,0.086
								c0.183,0,0.344-0.043,0.483-0.129s0.266-0.219,0.378-0.4c0.113-0.181,0.244-0.467,0.393-0.859
								c0.148-0.392,0.244-0.647,0.287-0.765L427.117,366.688z"/>
						</g>
					</g>
				</g>
			</g>
			<circle fill="none" stroke="#FFD600" stroke-width="1.1587" stroke-miterlimit="10" cx="408.621" cy="652.103" r="18.037"/>
		</g>
		<g>
			<g>
				<g>
					<path fill="none" stroke="#FFD600" stroke-width="1.1587" stroke-miterlimit="10" d="M986.223,384.289v236.736v5.188v12.146
						c0,8.709,7.045,15.755,15.754,15.755"/>
					
						<polygon fill="#FFD600" stroke="#FFD600" stroke-width="1.1587" stroke-linecap="round" stroke-linejoin="round" stroke-miterlimit="10" points="
						1189.944,340.41 986.223,340.41 986.223,370.76 986.223,383.299 986.223,390.063 994.429,383.299 1189.944,383.299 					"/>
					<g>
						<g>
							<g>
								<path d="M1004.74,351.01c0,1.024-0.543,1.654-1.628,1.891v0.032c1.188,0.254,1.783,0.892,1.783,1.912
									c0,0.72-0.253,1.281-0.76,1.684c-0.507,0.402-1.222,0.604-2.146,0.604c-0.867,0-1.596-0.154-2.187-0.462v-0.559
									c0.341,0.165,0.704,0.292,1.091,0.381s0.752,0.134,1.096,0.134c0.716,0,1.28-0.155,1.694-0.464
									c0.413-0.31,0.62-0.744,0.62-1.303c0-0.544-0.201-0.956-0.604-1.235c-0.402-0.279-1.005-0.419-1.808-0.419h-1.165v-0.516
									h1.208c0.76,0,1.32-0.143,1.682-0.43s0.543-0.693,0.543-1.219c0-0.448-0.166-0.806-0.497-1.074s-0.764-0.403-1.298-0.403
									c-0.396,0-0.762,0.057-1.096,0.169c-0.332,0.113-0.692,0.307-1.079,0.583l-0.312-0.43c0.723-0.551,1.553-0.827,2.486-0.827
									c0.734,0,1.313,0.175,1.738,0.526C1004.527,349.938,1004.74,350.412,1004.74,351.01z"/>
								<path d="M1010.806,357.026l-0.134-0.924h-0.043c-0.294,0.376-0.596,0.642-0.905,0.797c-0.31,0.156-0.677,0.234-1.099,0.234
									c-0.572,0-1.019-0.147-1.338-0.44c-0.318-0.293-0.478-0.7-0.478-1.219c0-0.569,0.237-1.012,0.712-1.327s1.16-0.481,2.06-0.5
									l1.112-0.032v-0.387c0-0.555-0.113-0.974-0.339-1.257s-0.589-0.424-1.091-0.424c-0.54,0-1.101,0.15-1.681,0.451
									l-0.198-0.462c0.641-0.301,1.274-0.451,1.9-0.451c0.642,0,1.12,0.167,1.438,0.5c0.316,0.333,0.475,0.852,0.475,1.558v3.883
									H1010.806z M1008.657,356.65c0.623,0,1.114-0.178,1.475-0.535c0.359-0.356,0.54-0.851,0.54-1.485v-0.575l-1.021,0.043
									c-0.819,0.04-1.404,0.167-1.753,0.384c-0.35,0.217-0.524,0.554-0.524,1.013c0,0.365,0.112,0.649,0.336,0.852
									C1007.934,356.549,1008.249,356.65,1008.657,356.65z"/>
								<path d="M1017.027,351.188h0.66l-2.615,2.825l2.804,3.013h-0.714l-2.762-2.959v2.959h-0.542v-5.838h0.542v2.836
									L1017.027,351.188z"/>
								<path d="M1019.602,349.565c0-0.344,0.113-0.516,0.339-0.516c0.11,0,0.198,0.045,0.261,0.134s0.094,0.217,0.094,0.381
									c0,0.161-0.031,0.288-0.094,0.381s-0.15,0.14-0.261,0.14C1019.715,350.086,1019.602,349.913,1019.602,349.565z
									 M1020.209,357.026h-0.531v-5.838h0.531V357.026z"/>
								<path d="M1023.466,351.188v2.562h3.706v-2.562h0.526v5.838h-0.526v-2.814h-3.706v2.814h-0.532v-5.838H1023.466z"/>
								<path d="M1030.854,351.188v1.955c0,0.494,0.119,0.851,0.359,1.069s0.609,0.328,1.106,0.328c0.351,0,0.686-0.063,1.005-0.188
									c0.318-0.125,0.649-0.326,0.993-0.602v-2.562h0.532v5.838h-0.532v-2.771c-0.358,0.276-0.71,0.473-1.056,0.591
									s-0.719,0.177-1.119,0.177c-0.599,0-1.051-0.156-1.356-0.467c-0.307-0.312-0.46-0.761-0.46-1.348v-2.02H1030.854z"/>
								<path d="M1039.932,357.133c-0.848,0-1.51-0.261-1.984-0.784s-0.711-1.255-0.711-2.197c0-0.931,0.229-1.677,0.688-2.237
									c0.458-0.56,1.076-0.84,1.853-0.84c0.688,0,1.229,0.24,1.628,0.72c0.396,0.48,0.596,1.131,0.596,1.955v0.43h-4.205
									c0.007,0.802,0.193,1.415,0.561,1.837s0.893,0.634,1.576,0.634c0.334,0,0.626-0.023,0.879-0.07
									c0.252-0.046,0.572-0.147,0.959-0.301v0.483c-0.33,0.143-0.635,0.241-0.914,0.293
									C1040.576,357.107,1040.269,357.133,1039.932,357.133z M1039.776,351.547c-0.562,0-1.013,0.185-1.354,0.556
									c-0.341,0.37-0.539,0.905-0.597,1.603h3.609c0-0.677-0.146-1.206-0.439-1.587
									C1040.702,351.738,1040.295,351.547,1039.776,351.547z"/>
								<path d="M1044.913,351.188v2.562h3.706v-2.562h0.526v5.838h-0.526v-2.814h-3.706v2.814h-0.532v-5.838H1044.913z"/>
								<path d="M1052.402,351.188v2.562h3.706v-2.562h0.526v5.838h-0.526v-2.814h-3.706v2.814h-0.531v-5.838H1052.402z"/>
								<path d="M1059.273,357.026h-0.671l1.762-2.519c-0.537-0.1-0.925-0.287-1.163-0.559s-0.357-0.621-0.357-1.047
									c0-0.53,0.179-0.948,0.535-1.254c0.355-0.306,0.835-0.459,1.437-0.459h2.406v5.838h-0.526v-2.455h-1.783L1059.273,357.026z
									 M1059.402,352.879c0,0.401,0.131,0.699,0.39,0.894c0.26,0.195,0.651,0.293,1.174,0.293h1.729v-2.374h-1.891
									c-0.443,0-0.789,0.101-1.034,0.304C1059.525,352.198,1059.402,352.493,1059.402,352.879z"/>
								<path d="M1070.105,357.026h-0.531v-5.838h4.656v5.838h-0.531v-5.333h-3.594V357.026z"/>
								<path d="M1079.453,357.133c-0.898,0-1.554-0.336-1.965-1.01h-0.038l0.017,0.451c0.014,0.265,0.021,0.555,0.021,0.87v2.224
									h-0.532v-8.481h0.451l0.103,0.833h0.031c0.401-0.63,1.043-0.945,1.924-0.945c0.787,0,1.388,0.259,1.802,0.776
									c0.413,0.518,0.62,1.271,0.62,2.259c0,0.959-0.218,1.704-0.652,2.231C1080.799,356.869,1080.205,357.133,1079.453,357.133z
									 M1079.443,356.661c0.598,0,1.061-0.222,1.388-0.666c0.328-0.444,0.491-1.065,0.491-1.864c0-1.715-0.619-2.573-1.857-2.573
									c-0.681,0-1.18,0.187-1.499,0.561c-0.319,0.375-0.478,0.984-0.478,1.829v0.172c0,0.913,0.152,1.565,0.459,1.955
									C1078.253,356.465,1078.752,356.661,1079.443,356.661z"/>
								<path d="M1086.631,357.133c-0.849,0-1.51-0.261-1.984-0.784s-0.712-1.255-0.712-2.197c0-0.931,0.229-1.677,0.688-2.237
									c0.458-0.56,1.076-0.84,1.853-0.84c0.688,0,1.23,0.24,1.628,0.72s0.597,1.131,0.597,1.955v0.43h-4.206
									c0.007,0.802,0.194,1.415,0.562,1.837s0.893,0.634,1.576,0.634c0.333,0,0.626-0.023,0.878-0.07
									c0.253-0.046,0.572-0.147,0.959-0.301v0.483c-0.329,0.143-0.634,0.241-0.913,0.293
									C1087.275,357.107,1086.967,357.133,1086.631,357.133z M1086.475,351.547c-0.562,0-1.013,0.185-1.354,0.556
									c-0.34,0.37-0.539,0.905-0.596,1.603h3.609c0-0.677-0.146-1.206-0.44-1.587
									C1087.4,351.738,1086.994,351.547,1086.475,351.547z"/>
								<path d="M1093.798,356.457l0.333-0.94l1.682-4.329h0.735v5.838h-0.505v-5.194c-0.078,0.226-0.162,0.457-0.25,0.693
									s-0.672,1.737-1.754,4.501h-0.473l-1.616-4.104c-0.067-0.165-0.132-0.338-0.19-0.521c-0.06-0.183-0.125-0.379-0.196-0.591
									v5.215h-0.483v-5.838h0.703l1.688,4.297C1093.603,355.832,1093.712,356.156,1093.798,356.457z"/>
								<path d="M1099.67,349.173l0.064,0.107c-0.268,0.949-0.58,1.81-0.934,2.583h-0.35c0.104-0.344,0.213-0.776,0.328-1.297
									c0.114-0.521,0.201-0.986,0.263-1.394H1099.67z"/>
								<path d="M1104.028,357.133c-0.849,0-1.516-0.268-2.001-0.803c-0.484-0.535-0.728-1.265-0.728-2.188
									c0-0.949,0.251-1.697,0.755-2.245c0.503-0.548,1.186-0.822,2.049-0.822c0.223,0,0.477,0.023,0.766,0.07
									c0.288,0.046,0.536,0.111,0.744,0.193l-0.156,0.473c-0.211-0.075-0.448-0.136-0.712-0.183
									c-0.263-0.046-0.48-0.07-0.652-0.07c-0.663,0-1.184,0.188-1.563,0.564c-0.379,0.376-0.6,0.904-0.66,1.584h3.357v0.473
									h-3.379c0.008,0.777,0.206,1.383,0.596,1.818c0.391,0.436,0.916,0.653,1.574,0.653c0.563,0,1.07-0.095,1.525-0.285v0.494
									c-0.164,0.083-0.381,0.148-0.65,0.199C1104.625,357.108,1104.336,357.133,1104.028,357.133z"/>
								<path d="M1110.239,357.133c-0.899,0-1.554-0.336-1.966-1.01h-0.037l0.016,0.451c0.014,0.265,0.021,0.555,0.021,0.87v2.224
									h-0.531v-8.481h0.451l0.102,0.833h0.032c0.401-0.63,1.042-0.945,1.923-0.945c0.787,0,1.389,0.259,1.802,0.776
									c0.414,0.518,0.62,1.271,0.62,2.259c0,0.959-0.217,1.704-0.652,2.231C1111.585,356.869,1110.991,357.133,1110.239,357.133z
									 M1110.229,356.661c0.598,0,1.061-0.222,1.389-0.666c0.327-0.444,0.491-1.065,0.491-1.864c0-1.715-0.62-2.573-1.858-2.573
									c-0.68,0-1.18,0.187-1.498,0.561c-0.319,0.375-0.479,0.984-0.479,1.829v0.172c0,0.913,0.153,1.565,0.459,1.955
									C1109.039,356.465,1109.537,356.661,1110.229,356.661z"/>
								<path d="M1115.591,351.188v2.562h3.706v-2.562h0.526v5.838h-0.526v-2.814h-3.706v2.814h-0.532v-5.838H1115.591z"/>
								<path d="M1127.377,354.099c0,0.953-0.23,1.696-0.693,2.231c-0.461,0.536-1.099,0.803-1.912,0.803
									c-0.512,0-0.963-0.124-1.354-0.371c-0.39-0.247-0.689-0.602-0.896-1.063s-0.312-0.996-0.312-1.601
									c0-0.953,0.231-1.694,0.692-2.227c0.463-0.531,1.096-0.797,1.902-0.797c0.802,0,1.431,0.27,1.888,0.808
									C1127.148,352.422,1127.377,353.161,1127.377,354.099z M1122.769,354.099c0,0.802,0.177,1.428,0.529,1.877
									c0.353,0.45,0.851,0.674,1.495,0.674s1.144-0.225,1.496-0.674c0.354-0.449,0.529-1.075,0.529-1.877
									c0-0.806-0.178-1.431-0.534-1.875s-0.856-0.666-1.501-0.666s-1.142,0.221-1.491,0.664
									C1122.943,352.664,1122.769,353.29,1122.769,354.099z"/>
								<path d="M1133.195,351.649h-2.9v5.376h-0.531v-5.838h3.432V351.649z"/>
								<path d="M1139.992,354.099c0,0.953-0.23,1.696-0.693,2.231c-0.461,0.536-1.099,0.803-1.912,0.803
									c-0.512,0-0.963-0.124-1.354-0.371c-0.39-0.247-0.689-0.602-0.896-1.063s-0.312-0.996-0.312-1.601
									c0-0.953,0.231-1.694,0.692-2.227c0.463-0.531,1.096-0.797,1.902-0.797c0.802,0,1.431,0.27,1.888,0.808
									C1139.764,352.422,1139.992,353.161,1139.992,354.099z M1135.384,354.099c0,0.802,0.177,1.428,0.529,1.877
									c0.353,0.45,0.851,0.674,1.495,0.674s1.144-0.225,1.496-0.674c0.354-0.449,0.529-1.075,0.529-1.877
									c0-0.806-0.178-1.431-0.534-1.875s-0.856-0.666-1.501-0.666s-1.142,0.221-1.491,0.664
									C1135.559,352.664,1135.384,353.29,1135.384,354.099z"/>
								<path d="M1000.873,372.026h-0.532v-5.838h4.657v5.838h-0.532v-5.333h-3.593V372.026z"/>
								<path d="M1010.08,372.133c-0.848,0-1.51-0.261-1.984-0.784s-0.711-1.255-0.711-2.197c0-0.931,0.229-1.677,0.688-2.237
									c0.458-0.56,1.076-0.84,1.853-0.84c0.688,0,1.229,0.24,1.628,0.72c0.396,0.48,0.596,1.131,0.596,1.955v0.43h-4.205
									c0.007,0.802,0.193,1.415,0.561,1.837s0.893,0.634,1.576,0.634c0.334,0,0.626-0.023,0.879-0.07
									c0.252-0.046,0.572-0.147,0.959-0.301v0.483c-0.33,0.143-0.635,0.241-0.914,0.293
									C1010.725,372.107,1010.417,372.133,1010.08,372.133z M1009.925,366.547c-0.562,0-1.013,0.185-1.354,0.556
									c-0.341,0.37-0.539,0.905-0.597,1.603h3.609c0-0.677-0.146-1.206-0.439-1.587
									C1010.851,366.738,1010.443,366.547,1009.925,366.547z"/>
								<path d="M1017.027,372.133c-0.898,0-1.555-0.336-1.966-1.01h-0.038l0.017,0.451c0.015,0.265,0.021,0.555,0.021,0.87v2.224
									h-0.532v-8.481h0.451l0.103,0.833h0.032c0.4-0.63,1.042-0.945,1.923-0.945c0.788,0,1.389,0.259,1.802,0.776
									c0.414,0.518,0.621,1.271,0.621,2.259c0,0.959-0.218,1.704-0.653,2.231C1018.373,371.869,1017.779,372.133,1017.027,372.133
									z M1017.017,371.661c0.599,0,1.061-0.222,1.389-0.666c0.327-0.444,0.491-1.065,0.491-1.864c0-1.715-0.619-2.573-1.858-2.573
									c-0.681,0-1.18,0.187-1.499,0.561c-0.318,0.375-0.478,0.984-0.478,1.829v0.172c0,0.913,0.153,1.565,0.459,1.955
									C1015.827,371.465,1016.326,371.661,1017.017,371.661z"/>
								<path d="M1021.771,364.565c0-0.344,0.113-0.516,0.339-0.516c0.11,0,0.198,0.045,0.261,0.134s0.094,0.217,0.094,0.381
									c0,0.161-0.031,0.288-0.094,0.381s-0.15,0.14-0.261,0.14C1021.885,365.086,1021.771,364.913,1021.771,364.565z
									 M1022.379,372.026h-0.531v-5.838h0.531V372.026z"/>
								<path d="M1029.933,369.099c0,0.953-0.231,1.696-0.692,2.231c-0.463,0.536-1.1,0.803-1.912,0.803
									c-0.513,0-0.964-0.124-1.354-0.371c-0.391-0.247-0.689-0.602-0.897-1.063s-0.312-0.996-0.312-1.601
									c0-0.953,0.23-1.694,0.693-2.227c0.461-0.531,1.096-0.797,1.9-0.797c0.803,0,1.432,0.27,1.889,0.808
									C1029.704,367.422,1029.933,368.161,1029.933,369.099z M1025.324,369.099c0,0.802,0.176,1.428,0.529,1.877
									c0.353,0.45,0.852,0.674,1.496,0.674s1.143-0.225,1.495-0.674c0.353-0.449,0.529-1.075,0.529-1.877
									c0-0.806-0.179-1.431-0.534-1.875c-0.356-0.444-0.857-0.666-1.502-0.666s-1.141,0.221-1.49,0.664
									C1025.499,367.664,1025.324,368.29,1025.324,369.099z"/>
								<path d="M1037.084,374.008h-0.527v-1.982h-4.469v1.982h-0.525v-2.487h0.387c0.486-0.684,0.862-1.477,1.127-2.379
									c0.266-0.902,0.405-1.887,0.42-2.954h2.809v5.333h0.779V374.008z M1035.773,371.521v-4.839h-1.816
									c-0.086,1.937-0.555,3.55-1.406,4.839H1035.773z"/>
								<path d="M1038.117,366.188h0.547l1.236,3.276c0.375,1.006,0.613,1.685,0.714,2.036h0.032
									c0.15-0.462,0.396-1.151,0.736-2.068l1.234-3.244h0.549l-2.616,6.784c-0.212,0.551-0.389,0.924-0.532,1.117
									c-0.143,0.193-0.311,0.338-0.502,0.435s-0.424,0.145-0.695,0.145c-0.204,0-0.432-0.038-0.682-0.113v-0.462
									c0.207,0.057,0.432,0.086,0.671,0.086c0.183,0,0.344-0.043,0.483-0.129s0.266-0.219,0.379-0.4
									c0.112-0.181,0.243-0.467,0.392-0.859c0.149-0.392,0.245-0.647,0.288-0.765L1038.117,366.188z"/>
								<path d="M1052.246,366.649h-1.943v5.376h-0.527v-5.376h-1.992v-0.462h4.463V366.649z"/>
								<path d="M1057.76,372.026l-0.135-0.924h-0.043c-0.293,0.376-0.596,0.642-0.905,0.797c-0.31,0.156-0.676,0.234-1.099,0.234
									c-0.572,0-1.018-0.147-1.337-0.44s-0.478-0.7-0.478-1.219c0-0.569,0.236-1.012,0.711-1.327s1.161-0.481,2.061-0.5
									l1.111-0.032v-0.387c0-0.555-0.113-0.974-0.338-1.257c-0.227-0.283-0.59-0.424-1.091-0.424c-0.54,0-1.101,0.15-1.681,0.451
									l-0.199-0.462c0.641-0.301,1.275-0.451,1.901-0.451c0.642,0,1.12,0.167,1.437,0.5c0.317,0.333,0.476,0.852,0.476,1.558
									v3.883H1057.76z M1055.611,371.65c0.623,0,1.114-0.178,1.474-0.535c0.36-0.356,0.54-0.851,0.54-1.485v-0.575l-1.021,0.043
									c-0.819,0.04-1.404,0.167-1.754,0.384c-0.349,0.217-0.523,0.554-0.523,1.013c0,0.365,0.112,0.649,0.336,0.852
									C1054.887,371.549,1055.203,371.65,1055.611,371.65z"/>
								<path d="M1064.971,372.026h-0.531v-5.838h4.656v5.838h-0.531v-5.333h-3.594V372.026z"/>
								<path d="M1076.65,369.099c0,0.953-0.231,1.696-0.693,2.231c-0.462,0.536-1.1,0.803-1.912,0.803
									c-0.512,0-0.963-0.124-1.354-0.371s-0.689-0.602-0.896-1.063c-0.208-0.462-0.313-0.996-0.313-1.601
									c0-0.953,0.231-1.694,0.693-2.227c0.462-0.531,1.096-0.797,1.901-0.797c0.802,0,1.432,0.27,1.888,0.808
									C1076.422,367.422,1076.65,368.161,1076.65,369.099z M1072.041,369.099c0,0.802,0.177,1.428,0.529,1.877
									c0.354,0.45,0.852,0.674,1.496,0.674s1.143-0.225,1.496-0.674c0.353-0.449,0.529-1.075,0.529-1.877
									c0-0.806-0.179-1.431-0.535-1.875c-0.355-0.444-0.856-0.666-1.501-0.666s-1.142,0.221-1.49,0.664
									C1072.216,367.664,1072.041,368.29,1072.041,369.099z"/>
								<path d="M1079.466,366.188v1.955c0,0.494,0.12,0.851,0.36,1.069c0.239,0.218,0.608,0.328,1.105,0.328
									c0.352,0,0.686-0.063,1.005-0.188s0.649-0.326,0.993-0.602v-2.562h0.532v5.838h-0.532v-2.771
									c-0.357,0.276-0.709,0.473-1.055,0.591s-0.719,0.177-1.12,0.177c-0.599,0-1.05-0.156-1.356-0.467
									c-0.306-0.312-0.459-0.761-0.459-1.348v-2.02H1079.466z"/>
								<path d="M1089.732,372.026l-0.135-0.924h-0.043c-0.293,0.376-0.596,0.642-0.905,0.797c-0.31,0.156-0.676,0.234-1.099,0.234
									c-0.572,0-1.018-0.147-1.337-0.44s-0.478-0.7-0.478-1.219c0-0.569,0.236-1.012,0.711-1.327s1.161-0.481,2.061-0.5
									l1.111-0.032v-0.387c0-0.555-0.113-0.974-0.338-1.257c-0.227-0.283-0.59-0.424-1.091-0.424c-0.54,0-1.101,0.15-1.681,0.451
									l-0.199-0.462c0.641-0.301,1.275-0.451,1.901-0.451c0.642,0,1.12,0.167,1.437,0.5c0.317,0.333,0.476,0.852,0.476,1.558
									v3.883H1089.732z M1087.584,371.65c0.623,0,1.114-0.178,1.474-0.535c0.36-0.356,0.54-0.851,0.54-1.485v-0.575l-1.021,0.043
									c-0.819,0.04-1.404,0.167-1.754,0.384c-0.349,0.217-0.523,0.554-0.523,1.013c0,0.365,0.112,0.649,0.336,0.852
									C1086.859,371.549,1087.176,371.65,1087.584,371.65z"/>
								<path d="M1096.49,366.649h-1.943v5.376h-0.527v-5.376h-1.992v-0.462h4.463V366.649z"/>
								<path d="M1103.287,369.099c0,0.953-0.23,1.696-0.693,2.231c-0.461,0.536-1.099,0.803-1.912,0.803
									c-0.512,0-0.963-0.124-1.354-0.371c-0.39-0.247-0.689-0.602-0.896-1.063s-0.312-0.996-0.312-1.601
									c0-0.953,0.231-1.694,0.692-2.227c0.463-0.531,1.096-0.797,1.902-0.797c0.802,0,1.431,0.27,1.888,0.808
									C1103.059,367.422,1103.287,368.161,1103.287,369.099z M1098.679,369.099c0,0.802,0.177,1.428,0.529,1.877
									c0.353,0.45,0.851,0.674,1.495,0.674s1.144-0.225,1.496-0.674c0.354-0.449,0.529-1.075,0.529-1.877
									c0-0.806-0.178-1.431-0.534-1.875s-0.856-0.666-1.501-0.666s-1.142,0.221-1.491,0.664
									C1098.854,367.664,1098.679,368.29,1098.679,369.099z"/>
								<path d="M1108.843,366.188h0.661l-2.616,2.825l2.804,3.013h-0.715l-2.76-2.959v2.959h-0.543v-5.838h0.543v2.836
									L1108.843,366.188z"/>
								<path d="M1119.885,374.008h-0.527v-1.982h-4.469v1.982h-0.525v-2.487h0.387c0.486-0.684,0.862-1.477,1.127-2.379
									c0.266-0.902,0.405-1.887,0.42-2.954h2.809v5.333h0.779V374.008z M1118.574,371.521v-4.839h-1.816
									c-0.086,1.937-0.555,3.55-1.406,4.839H1118.574z"/>
								<path d="M1121.82,364.565c0-0.344,0.112-0.516,0.338-0.516c0.111,0,0.197,0.045,0.261,0.134
									c0.063,0.089,0.094,0.217,0.094,0.381c0,0.161-0.031,0.288-0.094,0.381c-0.063,0.093-0.149,0.14-0.261,0.14
									C1121.933,365.086,1121.82,364.913,1121.82,364.565z M1122.427,372.026h-0.532v-5.838h0.532V372.026z"/>
								<path d="M1124.062,364.565c0-0.165,0.028-0.283,0.083-0.354c0.056-0.072,0.141-0.107,0.256-0.107
									c0.229,0,0.344,0.154,0.344,0.462s-0.115,0.462-0.344,0.462C1124.174,365.027,1124.062,364.874,1124.062,364.565z
									 M1125.684,372.026h-0.531v-5.838h0.531V372.026z M1126.107,364.565c0-0.165,0.028-0.283,0.084-0.354
									c0.055-0.072,0.141-0.107,0.255-0.107c0.229,0,0.344,0.154,0.344,0.462s-0.114,0.462-0.344,0.462
									C1126.221,365.027,1126.107,364.874,1126.107,364.565z"/>
								<path d="M1133.137,368.707c1.057,0,1.585-0.363,1.585-1.09c0-0.347-0.122-0.612-0.365-0.795s-0.591-0.274-1.042-0.274
									c-0.287,0-0.553,0.033-0.801,0.099c-0.246,0.066-0.512,0.162-0.795,0.288l-0.198-0.44c0.623-0.279,1.228-0.419,1.815-0.419
									c0.637,0,1.121,0.132,1.45,0.397s0.494,0.632,0.494,1.101c0,0.677-0.347,1.108-1.042,1.294v0.032
									c0.434,0.107,0.748,0.286,0.945,0.535c0.197,0.249,0.295,0.566,0.295,0.953c0,0.541-0.197,0.967-0.593,1.278
									s-0.944,0.467-1.646,0.467c-0.38,0-0.726-0.037-1.039-0.11c-0.313-0.074-0.572-0.171-0.776-0.293v-0.532
									c0.369,0.175,0.688,0.294,0.956,0.357c0.269,0.063,0.556,0.094,0.859,0.094c0.53,0,0.942-0.112,1.238-0.335
									c0.295-0.224,0.442-0.543,0.442-0.959c0-0.405-0.141-0.704-0.424-0.897s-0.707-0.29-1.273-0.29h-0.811v-0.462H1133.137z"/>
								<path d="M1138.312,366.188v2.562h3.706v-2.562h0.526v5.838h-0.526v-2.814h-3.706v2.814h-0.532v-5.838H1138.312z"/>
								<path d="M1145.773,366.188v4.222l-0.031,1.101l3.464-5.323h0.709v5.838h-0.511v-4.195l0.021-1.128l-3.464,5.323h-0.692
									v-5.838H1145.773z"/>
								<path d="M1155.052,366.188h0.537v2.836l2.509-2.836h0.649l-2.53,2.836l2.729,3.002h-0.682l-2.675-2.959v2.959h-0.537v-2.959
									l-2.675,2.959h-0.682l2.717-2.981l-2.519-2.857h0.649l2.509,2.836V366.188z"/>
								<path d="M1165.555,369.099c0,0.953-0.231,1.696-0.693,2.231c-0.462,0.536-1.1,0.803-1.912,0.803
									c-0.512,0-0.963-0.124-1.354-0.371s-0.689-0.602-0.896-1.063c-0.208-0.462-0.313-0.996-0.313-1.601
									c0-0.953,0.231-1.694,0.693-2.227c0.462-0.531,1.096-0.797,1.901-0.797c0.802,0,1.432,0.27,1.888,0.808
									C1165.326,367.422,1165.555,368.161,1165.555,369.099z M1160.945,369.099c0,0.802,0.177,1.428,0.529,1.877
									c0.354,0.45,0.852,0.674,1.496,0.674s1.143-0.225,1.496-0.674c0.353-0.449,0.529-1.075,0.529-1.877
									c0-0.806-0.179-1.431-0.535-1.875c-0.355-0.444-0.856-0.666-1.501-0.666s-1.142,0.221-1.49,0.664
									C1161.12,367.664,1160.945,368.29,1160.945,369.099z"/>
								<path d="M1171.109,366.188h0.661l-2.616,2.825l2.805,3.013h-0.715l-2.761-2.959v2.959h-0.542v-5.838h0.542v2.836
									L1171.109,366.188z"/>
							</g>
						</g>
					</g>
				</g>
			</g>
			<circle fill="none" stroke="#FFD600" stroke-width="1.1587" stroke-miterlimit="10" cx="1019.621" cy="652.103" r="18.037"/>
		</g>
	</g>
	<line fill="none" stroke="#FF4C29" stroke-miterlimit="10" stroke-dasharray="3,4" x1="769.5" y1="631" x2="769.5" y2="407"/>
	<line fill="none" stroke="#FF4C29" stroke-miterlimit="10" stroke-dasharray="3,4" x1="1158.5" y1="631" x2="1158.5" y2="407"/>
</g>
</svg>
