<?xml version="1.0" encoding="utf-8"?>
<!-- Generator: Adobe Illustrator 16.0.0, SVG Export Plug-In . SVG Version: 6.00 Build 0)  -->
<!DOCTYPE svg PUBLIC "-//W3C//DTD SVG 1.1//EN" "http://www.w3.org/Graphics/SVG/1.1/DTD/svg11.dtd">
<svg version="1.1" id="Layer_1" xmlns="http://www.w3.org/2000/svg" xmlns:xlink="http://www.w3.org/1999/xlink" x="0px" y="0px"
	 width="1541.5px" height="334px" viewBox="0 0 1541.5 334" enable-background="new 0 0 1541.5 334" xml:space="preserve">
<g>
	<g>
		<g>
			<g>
				<g>
					
						<line fill="none" stroke="#ADADAD" stroke-width="0.7212" stroke-miterlimit="10" x1="30.129" y1="235.514" x2="31.57" y2="235.514"/>
					
						<line fill="none" stroke="#ADADAD" stroke-width="0.7212" stroke-miterlimit="10" stroke-dasharray="2.8803,4.3204" x1="35.89" y1="235.514" x2="1149.847" y2="235.514"/>
					
						<line fill="none" stroke="#ADADAD" stroke-width="0.7212" stroke-miterlimit="10" x1="1152.009" y1="235.514" x2="1153.45" y2="235.514"/>
				</g>
			</g>
		</g>
		<g>
			<g>
				<g>
					
						<line fill="none" stroke="#ADADAD" stroke-width="0.7212" stroke-miterlimit="10" x1="30.129" y1="179.758" x2="31.57" y2="179.758"/>
					
						<line fill="none" stroke="#ADADAD" stroke-width="0.7212" stroke-miterlimit="10" stroke-dasharray="2.8803,4.3204" x1="35.89" y1="179.758" x2="1149.847" y2="179.758"/>
					
						<line fill="none" stroke="#ADADAD" stroke-width="0.7212" stroke-miterlimit="10" x1="1152.009" y1="179.758" x2="1153.45" y2="179.758"/>
				</g>
			</g>
		</g>
		<g>
			<g>
				<g>
					
						<line fill="none" stroke="#ADADAD" stroke-width="0.7212" stroke-miterlimit="10" x1="30.129" y1="124.002" x2="31.57" y2="124.002"/>
					
						<line fill="none" stroke="#ADADAD" stroke-width="0.7212" stroke-miterlimit="10" stroke-dasharray="2.8803,4.3204" x1="35.89" y1="124.002" x2="1149.847" y2="124.002"/>
					
						<line fill="none" stroke="#ADADAD" stroke-width="0.7212" stroke-miterlimit="10" x1="1152.009" y1="124.002" x2="1153.45" y2="124.002"/>
				</g>
			</g>
		</g>
		<g>
			<g>
				<g>
					
						<line fill="none" stroke="#ADADAD" stroke-width="0.7212" stroke-miterlimit="10" x1="1153.45" y1="68.246" x2="1152.009" y2="68.246"/>
					
						<line fill="none" stroke="#ADADAD" stroke-width="0.7212" stroke-miterlimit="10" stroke-dasharray="2.8803,4.3204" x1="1147.688" y1="68.246" x2="33.73" y2="68.246"/>
					
						<line fill="none" stroke="#ADADAD" stroke-width="0.7212" stroke-miterlimit="10" x1="31.57" y1="68.246" x2="30.129" y2="68.246"/>
				</g>
			</g>
		</g>
		<g>
			<g>
				<path fill="#676767" d="M89.807,308.227v8.641h-1.845v-7.188h-3.875v7.188h-1.836v-8.641H89.807z"/>
				<path fill="#676767" d="M98.925,308.227v1.438h-2.813v7.203h-1.845v-7.203h-2.813v-1.438H98.925z"/>
			</g>
		</g>
		<g>
			<g>
				<path fill="#676767" d="M140.096,317.024c-1.309,0-2.302-0.383-2.979-1.146c-0.679-0.763-1.021-1.857-1.021-3.285
					c0-1.451,0.354-2.568,1.065-3.353c0.711-0.78,1.738-1.172,3.082-1.172c0.911,0,1.73,0.17,2.461,0.508l-0.555,1.479
					c-0.776-0.303-1.418-0.453-1.923-0.453c-1.495,0-2.241,0.99-2.241,2.977c0,0.97,0.186,1.695,0.559,2.185
					c0.372,0.486,0.918,0.729,1.638,0.729c0.816,0,1.592-0.202,2.319-0.608v1.602c-0.328,0.191-0.679,0.332-1.051,0.414
					S140.629,317.024,140.096,317.024z"/>
				<path fill="#676767" d="M144.035,311.68c0-1.928,0.327-3.41,0.979-4.445c0.652-1.037,1.693-1.703,3.121-2
					c1.077-0.219,2.319-0.434,3.727-0.643l0.259,1.617c-1.708,0.262-2.958,0.465-3.75,0.608c-0.817,0.152-1.408,0.488-1.771,1.008
					c-0.361,0.521-0.572,1.306-0.629,2.354h0.116c0.298-0.435,0.686-0.769,1.164-1.006c0.479-0.236,0.992-0.354,1.539-0.354
					c1.063,0,1.892,0.336,2.483,1.008c0.594,0.673,0.892,1.613,0.892,2.828c0,1.392-0.36,2.465-1.082,3.228
					c-0.723,0.762-1.721,1.141-2.996,1.141c-1.266,0-2.258-0.469-2.977-1.406C144.392,314.682,144.035,313.365,144.035,311.68z
					 M148.215,315.524c1.364,0,2.048-0.896,2.048-2.689c0-1.729-0.617-2.594-1.853-2.594c-0.339,0-0.667,0.074-0.983,0.219
					c-0.317,0.146-0.611,0.341-0.88,0.578c-0.269,0.24-0.476,0.488-0.62,0.742c0,1.229,0.194,2.16,0.586,2.793
					C146.903,315.204,147.469,315.524,148.215,315.524z"/>
			</g>
		</g>
		<g>
			<g>
				<path fill="#676767" d="M27.685,308.227v3.154c0,0.887,0.458,1.328,1.375,1.328c0.441,0,0.875-0.062,1.297-0.185
					c0.422-0.121,0.875-0.318,1.358-0.59v-3.711h1.837v8.641h-1.837V313.2c-0.505,0.314-0.993,0.543-1.465,0.691
					c-0.473,0.147-0.985,0.223-1.543,0.223c-0.9,0-1.604-0.231-2.108-0.699c-0.505-0.465-0.759-1.116-0.759-1.956v-3.232H27.685z"/>
				<path fill="#676767" d="M42.67,308.227v1.438h-2.813v7.203h-1.844v-7.203H35.2v-1.438H42.67z"/>
			</g>
		</g>
		<g>
			<g>
				<path fill="#676767" d="M193.268,308.227v3.469h4.069v-3.469h1.836v8.641h-1.836v-3.727h-4.069v3.727h-1.836v-8.641H193.268z"/>
				<path fill="#676767" d="M210.089,319.92h-1.711v-3.056h-5.922v3.056h-1.694v-4.478h0.702c0.614-0.879,1.104-1.942,1.466-3.19
					c0.361-1.246,0.576-2.591,0.646-4.025h5.25v7.219h1.266L210.089,319.92L210.089,319.92z M207.018,315.446v-5.813h-1.858
					c-0.1,1.073-0.307,2.131-0.621,3.174c-0.314,1.041-0.699,1.922-1.151,2.641L207.018,315.446L207.018,315.446z"/>
			</g>
		</g>
		<g>
			<g>
				<path fill="#676767" d="M255.783,308.227v8.641h-1.845v-7.188h-3.875v7.188h-1.836v-8.641H255.783z"/>
				<path fill="#676767" d="M260.244,308.227v3.469h4.069v-3.469h1.836v8.641h-1.836v-3.727h-4.069v3.727h-1.836v-8.641H260.244z"/>
			</g>
		</g>
		<g>
			<g>
				<path fill="#676767" d="M311.991,310.438c0,1.02-0.598,1.637-1.789,1.852v0.063c0.667,0.078,1.177,0.289,1.531,0.633
					c0.354,0.344,0.53,0.789,0.53,1.336c0,0.818-0.313,1.447-0.935,1.888c-0.623,0.44-1.526,0.659-2.716,0.659h-4.125v-8.641h4.109
					C310.86,308.227,311.991,308.963,311.991,310.438z M310.155,310.592c0-0.345-0.135-0.592-0.402-0.744
					c-0.27-0.154-0.668-0.23-1.198-0.23h-2.228v2.078h1.953c0.613,0,1.08-0.08,1.397-0.238
					C309.996,311.297,310.155,311.01,310.155,310.592z M310.382,314.209c0-0.416-0.161-0.712-0.483-0.888
					c-0.322-0.174-0.809-0.262-1.453-0.262h-2.116v2.445h2.164C309.752,315.506,310.382,315.073,310.382,314.209z"/>
				<path fill="#676767" d="M320.647,308.227v1.438h-2.813v7.203h-1.844v-7.203h-2.813v-1.438H320.647z"/>
			</g>
		</g>
		<g>
			<g>
				<path fill="#676767" d="M362.449,317.024c-1.308,0-2.302-0.383-2.979-1.146c-0.68-0.763-1.021-1.857-1.021-3.285
					c0-1.451,0.354-2.568,1.065-3.353c0.711-0.78,1.737-1.172,3.082-1.172c0.911,0,1.731,0.17,2.461,0.508l-0.556,1.479
					c-0.775-0.303-1.417-0.453-1.922-0.453c-1.495,0-2.242,0.99-2.242,2.977c0,0.97,0.187,1.695,0.56,2.185s0.918,0.729,1.638,0.729
					c0.817,0,1.591-0.202,2.319-0.608v1.602c-0.328,0.191-0.678,0.332-1.051,0.414S362.979,317.024,362.449,317.024z"/>
				<path fill="#676767" d="M371.268,317.024c-1.095,0-1.942-0.395-2.547-1.182h-0.109c0.073,0.729,0.109,1.174,0.109,1.328v3.539
					h-1.836v-12.482h1.483c0.042,0.16,0.127,0.547,0.258,1.154h0.095c0.572-0.875,1.432-1.313,2.577-1.313
					c1.078,0,1.919,0.392,2.521,1.172c0.603,0.781,0.902,1.879,0.902,3.289c0,1.412-0.307,2.515-0.918,3.306
					C373.192,316.627,372.346,317.024,371.268,317.024z M370.824,309.571c-0.729,0-1.263,0.213-1.599,0.642
					c-0.336,0.428-0.504,1.108-0.504,2.047v0.272c0,1.051,0.167,1.813,0.5,2.285c0.333,0.471,0.877,0.707,1.633,0.707
					c0.635,0,1.125-0.262,1.469-0.781c0.345-0.521,0.517-1.264,0.517-2.227c0-0.971-0.17-1.703-0.512-2.199
					C371.985,309.819,371.485,309.571,370.824,309.571z"/>
			</g>
		</g>
		<g>
			
				<line fill="none" stroke="#0E1968" stroke-width="5" stroke-linecap="round" stroke-miterlimit="10" x1="362.805" y1="295.465" x2="362.805" y2="119.806"/>
			
				<line fill="none" stroke="#49B4DA" stroke-width="5" stroke-linecap="round" stroke-miterlimit="10" x1="370.511" y1="295.42" x2="370.511" y2="68.246"/>
			
				<line fill="none" stroke="#0E1968" stroke-width="5" stroke-linecap="round" stroke-miterlimit="10" x1="417.677" y1="295.465" x2="417.677" y2="174.985"/>
			
				<line fill="none" stroke="#49B4DA" stroke-width="5" stroke-linecap="round" stroke-miterlimit="10" x1="425.382" y1="295.42" x2="425.382" y2="68.246"/>
			
				<line fill="none" stroke="#0E1968" stroke-width="5" stroke-linecap="round" stroke-miterlimit="10" x1="473.123" y1="295.465" x2="473.123" y2="174.985"/>
			
				<line fill="none" stroke="#49B4DA" stroke-width="5" stroke-linecap="round" stroke-miterlimit="10" x1="480.828" y1="295.42" x2="480.828" y2="68.246"/>
			
				<line fill="none" stroke="#0E1968" stroke-width="5" stroke-linecap="round" stroke-miterlimit="10" x1="528.569" y1="295.465" x2="528.569" y2="124.002"/>
			
				<line fill="none" stroke="#49B4DA" stroke-width="5" stroke-linecap="round" stroke-miterlimit="10" x1="536.274" y1="295.42" x2="536.274" y2="68.246"/>
			
				<line fill="none" stroke="#0E1968" stroke-width="5" stroke-linecap="round" stroke-miterlimit="10" x1="584.015" y1="295.465" x2="584.015" y2="124.002"/>
			
				<line fill="none" stroke="#49B4DA" stroke-width="5" stroke-linecap="round" stroke-miterlimit="10" x1="591.72" y1="295.42" x2="591.72" y2="68.246"/>
			
				<line fill="none" stroke="#0E1968" stroke-width="5" stroke-linecap="round" stroke-miterlimit="10" x1="639.463" y1="295.465" x2="639.463" y2="177.987"/>
			
				<line fill="none" stroke="#49B4DA" stroke-width="5" stroke-linecap="round" stroke-miterlimit="10" x1="647.17" y1="295.42" x2="647.17" y2="177.987"/>
			
				<line fill="none" stroke="#0E1968" stroke-width="5" stroke-linecap="round" stroke-miterlimit="10" x1="694.909" y1="295.465" x2="694.909" y2="177.987"/>
			
				<line fill="none" stroke="#49B4DA" stroke-width="5" stroke-linecap="round" stroke-miterlimit="10" x1="702.616" y1="295.42" x2="702.616" y2="177.987"/>
			
				<line fill="none" stroke="#0E1968" stroke-width="5" stroke-linecap="round" stroke-miterlimit="10" x1="750.553" y1="295.465" x2="750.553" y2="178.565"/>
			
				<line fill="none" stroke="#49B4DA" stroke-width="5" stroke-linecap="round" stroke-miterlimit="10" x1="758.26" y1="295.42" x2="758.26" y2="178.565"/>
			
				<line fill="none" stroke="#0E1968" stroke-width="5" stroke-linecap="round" stroke-miterlimit="10" x1="807.836" y1="295.465" x2="807.836" y2="231.317"/>
			
				<line fill="none" stroke="#49B4DA" stroke-width="5" stroke-linecap="round" stroke-miterlimit="10" x1="815.543" y1="295.42" x2="815.543" y2="178.295"/>
			
				<line fill="none" stroke="#0E1968" stroke-width="5" stroke-linecap="round" stroke-miterlimit="10" x1="863.283" y1="295.465" x2="863.283" y2="231.317"/>
			
				<line fill="none" stroke="#49B4DA" stroke-width="5" stroke-linecap="round" stroke-miterlimit="10" x1="870.988" y1="295.42" x2="870.988" y2="178.295"/>
			
				<line fill="none" stroke="#0E1968" stroke-width="5" stroke-linecap="round" stroke-miterlimit="10" x1="918.727" y1="295.465" x2="918.727" y2="178.295"/>
			
				<line fill="none" stroke="#49B4DA" stroke-width="5" stroke-linecap="round" stroke-miterlimit="10" x1="926.434" y1="295.42" x2="926.434" y2="68.246"/>
			
				<line fill="none" stroke="#0E1968" stroke-width="5" stroke-linecap="round" stroke-miterlimit="10" x1="974.176" y1="295.465" x2="974.176" y2="178.295"/>
			
				<line fill="none" stroke="#49B4DA" stroke-width="5" stroke-linecap="round" stroke-miterlimit="10" x1="981.882" y1="295.42" x2="981.882" y2="68.246"/>
			
				<line fill="none" stroke="#0E1968" stroke-width="5" stroke-linecap="round" stroke-miterlimit="10" x1="1029.622" y1="295.465" x2="1029.622" y2="231.317"/>
			
				<line fill="none" stroke="#49B4DA" stroke-width="5" stroke-linecap="round" stroke-miterlimit="10" x1="1037.328" y1="295.42" x2="1037.328" y2="177.987"/>
			
				<line fill="none" stroke="#0E1968" stroke-width="5" stroke-linecap="round" stroke-miterlimit="10" x1="1085.067" y1="295.465" x2="1085.067" y2="231.317"/>
			
				<line fill="none" stroke="#49B4DA" stroke-width="5" stroke-linecap="round" stroke-miterlimit="10" x1="1092.774" y1="295.42" x2="1092.774" y2="177.987"/>
			
				<line fill="none" stroke="#0E1968" stroke-width="5" stroke-linecap="round" stroke-miterlimit="10" x1="1140.514" y1="295.465" x2="1140.514" y2="231.317"/>
			
				<line fill="none" stroke="#49B4DA" stroke-width="5" stroke-linecap="round" stroke-miterlimit="10" x1="1148.22" y1="295.42" x2="1148.22" y2="177.987"/>
			
				<line fill="none" stroke="#0E1968" stroke-width="5" stroke-linecap="round" stroke-miterlimit="10" x1="85.574" y1="295.465" x2="85.574" y2="119.806"/>
			
				<line fill="none" stroke="#49B4DA" stroke-width="5" stroke-linecap="round" stroke-miterlimit="10" x1="93.28" y1="295.42" x2="93.28" y2="68.246"/>
			
				<line fill="none" stroke="#0E1968" stroke-width="5" stroke-linecap="round" stroke-miterlimit="10" x1="141.02" y1="295.465" x2="141.02" y2="64.05"/>
			
				<line fill="none" stroke="#49B4DA" stroke-width="5" stroke-linecap="round" stroke-miterlimit="10" x1="148.724" y1="295.42" x2="148.724" y2="64.05"/>
			
				<line fill="none" stroke="#0E1968" stroke-width="5" stroke-linecap="round" stroke-miterlimit="10" x1="196.467" y1="295.465" x2="196.467" y2="64.05"/>
			
				<line fill="none" stroke="#49B4DA" stroke-width="5" stroke-linecap="round" stroke-miterlimit="10" x1="204.173" y1="295.42" x2="204.173" y2="64.05"/>
			
				<line fill="none" stroke="#0E1968" stroke-width="5" stroke-linecap="round" stroke-miterlimit="10" x1="251.914" y1="295.465" x2="251.914" y2="119.806"/>
			
				<line fill="none" stroke="#49B4DA" stroke-width="5" stroke-linecap="round" stroke-miterlimit="10" x1="259.619" y1="295.42" x2="259.619" y2="68.246"/>
			
				<line fill="none" stroke="#0E1968" stroke-width="5" stroke-linecap="round" stroke-miterlimit="10" x1="307.36" y1="295.465" x2="307.36" y2="119.806"/>
			
				<line fill="none" stroke="#49B4DA" stroke-width="5" stroke-linecap="round" stroke-miterlimit="10" x1="315.065" y1="295.42" x2="315.065" y2="68.246"/>
			
				<line fill="none" stroke="#0E1968" stroke-width="5" stroke-linecap="round" stroke-miterlimit="10" x1="30.129" y1="295.465" x2="30.129" y2="119.806"/>
			
				<line fill="none" stroke="#49B4DA" stroke-width="5" stroke-linecap="round" stroke-miterlimit="10" x1="37.833" y1="295.42" x2="37.833" y2="68.246"/>
			<rect x="7.877" y="291.952" fill="#FFFFFF" width="1149.364" height="39.232"/>
			
				<line fill="none" stroke="#ADADAD" stroke-width="0.7212" stroke-miterlimit="10" stroke-dasharray="2.8848,4.3272" x1="30.129" y1="292.149" x2="1153.227" y2="292.149"/>
		</g>
		<g>
			<g>
				<path fill="#676767" d="M89.807,308.227v8.641h-1.845v-7.188h-3.875v7.188h-1.836v-8.641H89.807z"/>
				<path fill="#676767" d="M98.925,308.227v1.438h-2.813v7.203h-1.845v-7.203h-2.813v-1.438H98.925z"/>
			</g>
		</g>
		<g>
			<g>
				<path fill="#FF4C29" d="M140.096,317.024c-1.308,0-2.302-0.383-2.979-1.146c-0.679-0.763-1.021-1.857-1.021-3.285
					c0-1.451,0.354-2.568,1.065-3.353c0.711-0.78,1.738-1.172,3.082-1.172c0.912,0,1.731,0.17,2.461,0.508l-0.555,1.479
					c-0.776-0.303-1.418-0.453-1.923-0.453c-1.495,0-2.241,0.99-2.241,2.977c0,0.97,0.186,1.695,0.559,2.185
					s0.918,0.729,1.638,0.729c0.817,0,1.592-0.202,2.319-0.608v1.602c-0.328,0.191-0.678,0.332-1.051,0.414
					C141.079,316.983,140.629,317.024,140.096,317.024z"/>
				<path fill="#FF4C29" d="M144.035,311.68c0-1.928,0.327-3.41,0.979-4.445c0.652-1.037,1.693-1.703,3.121-2
					c1.077-0.219,2.319-0.434,3.727-0.643l0.259,1.617c-1.708,0.262-2.958,0.465-3.75,0.608c-0.817,0.152-1.408,0.488-1.771,1.008
					c-0.361,0.521-0.572,1.306-0.629,2.354h0.116c0.298-0.435,0.686-0.769,1.164-1.006c0.479-0.236,0.992-0.354,1.539-0.354
					c1.063,0,1.892,0.336,2.483,1.008c0.594,0.673,0.892,1.613,0.892,2.828c0,1.392-0.36,2.465-1.082,3.228
					c-0.721,0.762-1.721,1.141-2.996,1.141c-1.266,0-2.258-0.469-2.977-1.406C144.392,314.682,144.035,313.365,144.035,311.68z
					 M148.215,315.524c1.365,0,2.048-0.896,2.048-2.689c0-1.729-0.617-2.594-1.853-2.594c-0.339,0-0.667,0.074-0.983,0.219
					c-0.317,0.146-0.611,0.341-0.88,0.578c-0.269,0.24-0.476,0.488-0.62,0.742c0,1.229,0.194,2.16,0.586,2.793
					C146.903,315.204,147.469,315.524,148.215,315.524z"/>
			</g>
		</g>
		<g>
			<g>
				<path fill="#676767" d="M27.685,308.227v3.154c0,0.887,0.458,1.328,1.375,1.328c0.441,0,0.875-0.062,1.297-0.185
					c0.422-0.121,0.875-0.318,1.358-0.59v-3.711h1.837v8.641h-1.837V313.2c-0.505,0.314-0.993,0.543-1.465,0.691
					c-0.473,0.147-0.985,0.223-1.543,0.223c-0.9,0-1.604-0.231-2.108-0.699c-0.505-0.465-0.759-1.116-0.759-1.956v-3.232H27.685z"/>
				<path fill="#676767" d="M42.67,308.227v1.438h-2.813v7.203h-1.844v-7.203H35.2v-1.438H42.67z"/>
			</g>
		</g>
		<g>
			<g>
				<path fill="#FF4C29" d="M193.268,308.227v3.469h4.069v-3.469h1.836v8.641h-1.836v-3.727h-4.069v3.727h-1.836v-8.641H193.268z"/>
				<path fill="#FF4C29" d="M210.089,319.92h-1.711v-3.056h-5.922v3.056h-1.694v-4.478h0.702c0.614-0.879,1.104-1.942,1.466-3.19
					c0.361-1.246,0.576-2.591,0.646-4.025h5.25v7.219h1.266L210.089,319.92L210.089,319.92z M207.018,315.446v-5.813h-1.858
					c-0.1,1.073-0.307,2.131-0.621,3.174c-0.314,1.041-0.699,1.922-1.151,2.641L207.018,315.446L207.018,315.446z"/>
			</g>
		</g>
		<g>
			<g>
				<path fill="#676767" d="M255.783,308.227v8.641h-1.845v-7.188h-3.875v7.188h-1.836v-8.641H255.783z"/>
				<path fill="#676767" d="M260.244,308.227v3.469h4.069v-3.469h1.836v8.641h-1.836v-3.727h-4.069v3.727h-1.836v-8.641H260.244z"/>
			</g>
		</g>
		<g>
			<g>
				<path fill="#676767" d="M311.991,310.438c0,1.02-0.598,1.637-1.789,1.852v0.063c0.667,0.078,1.177,0.289,1.531,0.633
					c0.354,0.344,0.53,0.789,0.53,1.336c0,0.818-0.313,1.447-0.935,1.888c-0.623,0.44-1.526,0.659-2.716,0.659h-4.125v-8.641h4.109
					C310.86,308.227,311.991,308.963,311.991,310.438z M310.155,310.592c0-0.345-0.135-0.592-0.402-0.744
					c-0.27-0.154-0.668-0.23-1.198-0.23h-2.228v2.078h1.953c0.613,0,1.08-0.08,1.397-0.238
					C309.996,311.297,310.155,311.01,310.155,310.592z M310.382,314.209c0-0.416-0.161-0.712-0.483-0.888
					c-0.322-0.174-0.809-0.262-1.453-0.262h-2.116v2.445h2.164C309.752,315.506,310.382,315.073,310.382,314.209z"/>
				<path fill="#676767" d="M320.647,308.227v1.438h-2.813v7.203h-1.844v-7.203h-2.813v-1.438H320.647z"/>
			</g>
		</g>
		<g>
			<g>
				<path fill="#676767" d="M362.449,317.024c-1.309,0-2.302-0.383-2.979-1.146c-0.68-0.763-1.021-1.857-1.021-3.285
					c0-1.451,0.354-2.568,1.065-3.353c0.711-0.78,1.737-1.172,3.082-1.172c0.91,0,1.73,0.17,2.461,0.508l-0.556,1.479
					c-0.775-0.303-1.417-0.453-1.922-0.453c-1.495,0-2.242,0.99-2.242,2.977c0,0.97,0.187,1.695,0.56,2.185
					c0.372,0.486,0.918,0.729,1.638,0.729c0.816,0,1.591-0.202,2.319-0.608v1.602c-0.328,0.191-0.679,0.332-1.051,0.414
					S362.98,317.024,362.449,317.024z"/>
				<path fill="#676767" d="M371.269,317.024c-1.094,0-1.942-0.395-2.547-1.182h-0.108c0.072,0.729,0.108,1.174,0.108,1.328v3.539
					h-1.836v-12.482h1.483c0.042,0.16,0.127,0.547,0.258,1.154h0.095c0.572-0.875,1.433-1.313,2.578-1.313
					c1.077,0,1.918,0.392,2.521,1.172c0.602,0.781,0.901,1.879,0.901,3.289c0,1.412-0.307,2.515-0.918,3.306
					C373.192,316.627,372.347,317.024,371.269,317.024z M370.824,309.571c-0.729,0-1.263,0.213-1.599,0.642
					c-0.336,0.428-0.504,1.108-0.504,2.047v0.272c0,1.051,0.167,1.813,0.5,2.285c0.333,0.471,0.877,0.707,1.633,0.707
					c0.635,0,1.125-0.262,1.469-0.781c0.345-0.521,0.517-1.264,0.517-2.227c0-0.971-0.171-1.703-0.512-2.199
					C371.987,309.819,371.485,309.571,370.824,309.571z"/>
			</g>
		</g>
		<g>
			<g>
				<path fill="#676767" d="M866.886,308.227v8.641h-1.844v-7.188h-3.875v7.188h-1.836v-8.641H866.886z"/>
				<path fill="#676767" d="M876.006,308.227v1.438h-2.813v7.203h-1.845v-7.203h-2.813v-1.438H876.006z"/>
			</g>
		</g>
		<g>
			<g>
				<path fill="#FF4C29" d="M917.177,317.024c-1.309,0-2.301-0.383-2.979-1.146c-0.68-0.763-1.021-1.857-1.021-3.285
					c0-1.451,0.354-2.568,1.065-3.353c0.711-0.78,1.738-1.172,3.082-1.172c0.911,0,1.73,0.17,2.461,0.508l-0.555,1.479
					c-0.776-0.303-1.418-0.453-1.923-0.453c-1.495,0-2.241,0.99-2.241,2.977c0,0.97,0.187,1.695,0.56,2.185
					c0.371,0.486,0.918,0.729,1.637,0.729c0.816,0,1.591-0.202,2.32-0.608v1.602c-0.328,0.191-0.68,0.332-1.052,0.414
					S917.709,317.024,917.177,317.024z"/>
				<path fill="#FF4C29" d="M921.115,311.68c0-1.928,0.325-3.41,0.979-4.445c0.653-1.037,1.692-1.703,3.121-2
					c1.077-0.219,2.319-0.434,3.727-0.643l0.259,1.617c-1.709,0.262-2.959,0.465-3.75,0.608c-0.817,0.152-1.408,0.488-1.771,1.008
					c-0.361,0.521-0.572,1.306-0.629,2.354h0.116c0.297-0.435,0.686-0.769,1.164-1.006c0.479-0.236,0.992-0.354,1.539-0.354
					c1.063,0,1.892,0.336,2.483,1.008c0.592,0.673,0.892,1.613,0.892,2.828c0,1.392-0.36,2.465-1.082,3.228
					c-0.723,0.762-1.722,1.141-2.996,1.141c-1.267,0-2.258-0.469-2.978-1.406C921.472,314.682,921.115,313.365,921.115,311.68z
					 M925.295,315.524c1.364,0,2.048-0.896,2.048-2.689c0-1.729-0.617-2.594-1.854-2.594c-0.339,0-0.666,0.074-0.982,0.219
					c-0.318,0.146-0.611,0.341-0.88,0.578c-0.27,0.24-0.477,0.488-0.62,0.742c0,1.229,0.193,2.16,0.586,2.793
					C923.984,315.205,924.55,315.524,925.295,315.524z"/>
			</g>
		</g>
		<g>
			<g>
				<path fill="#676767" d="M804.764,308.227v3.154c0,0.887,0.457,1.328,1.375,1.328c0.44,0,0.875-0.062,1.297-0.185
					c0.422-0.121,0.875-0.318,1.358-0.59v-3.711h1.837v8.641h-1.837V313.2c-0.506,0.314-0.993,0.543-1.465,0.691
					c-0.473,0.147-0.985,0.223-1.543,0.223c-0.901,0-1.604-0.231-2.108-0.699c-0.507-0.465-0.759-1.116-0.759-1.956v-3.232H804.764z
					"/>
				<path fill="#676767" d="M819.75,308.227v1.438h-2.813v7.203h-1.844v-7.203h-2.813v-1.438H819.75z"/>
			</g>
		</g>
		<g>
			<g>
				<path fill="#FF4C29" d="M970.346,308.227v3.469h4.069v-3.469h1.836v8.641h-1.836v-3.727h-4.069v3.727h-1.836v-8.641H970.346z"/>
				<path fill="#FF4C29" d="M987.168,319.92h-1.711v-3.056h-5.922v3.056h-1.694v-4.478h0.702c0.615-0.879,1.104-1.942,1.466-3.19
					c0.362-1.246,0.577-2.591,0.646-4.025h5.25v7.219h1.267L987.168,319.92L987.168,319.92z M984.096,315.446v-5.813h-1.859
					c-0.099,1.073-0.306,2.131-0.62,3.174c-0.313,1.041-0.699,1.922-1.151,2.641L984.096,315.446L984.096,315.446z"/>
			</g>
		</g>
		<g>
			<g>
				<path fill="#676767" d="M1032.863,308.227v8.641h-1.845v-7.188h-3.875v7.188h-1.836v-8.641H1032.863z"/>
				<path fill="#676767" d="M1037.324,308.227v3.469h4.069v-3.469h1.836v8.641h-1.836v-3.727h-4.069v3.727h-1.837v-8.641H1037.324z"
					/>
			</g>
		</g>
		<g>
			<g>
				<path fill="#676767" d="M1089.069,310.438c0,1.02-0.596,1.637-1.788,1.852v0.063c0.667,0.078,1.178,0.289,1.53,0.633
					c0.354,0.344,0.531,0.789,0.531,1.336c0,0.818-0.312,1.447-0.935,1.888c-0.621,0.44-1.526,0.659-2.715,0.659h-4.125v-8.641
					h4.108C1087.939,308.227,1089.069,308.963,1089.069,310.438z M1087.233,310.592c0-0.345-0.134-0.592-0.401-0.744
					c-0.269-0.154-0.668-0.23-1.198-0.23h-2.228v2.078h1.952c0.615,0,1.082-0.08,1.398-0.238
					C1087.076,311.297,1087.233,311.01,1087.233,310.592z M1087.462,314.209c0-0.416-0.161-0.712-0.484-0.888
					c-0.321-0.174-0.807-0.262-1.453-0.262h-2.116v2.445h2.164C1086.832,315.506,1087.462,315.073,1087.462,314.209z"/>
				<path fill="#676767" d="M1097.725,308.227v1.438h-2.813v7.203h-1.844v-7.203h-2.813v-1.438H1097.725z"/>
			</g>
		</g>
		<g>
			<g>
				<path fill="#676767" d="M1139.526,317.024c-1.308,0-2.301-0.383-2.979-1.146c-0.68-0.763-1.021-1.857-1.021-3.285
					c0-1.451,0.355-2.568,1.066-3.353c0.711-0.78,1.737-1.172,3.082-1.172c0.911,0,1.729,0.17,2.461,0.508l-0.556,1.479
					c-0.775-0.303-1.416-0.453-1.922-0.453c-1.494,0-2.241,0.99-2.241,2.977c0,0.97,0.186,1.695,0.559,2.185
					c0.372,0.486,0.918,0.729,1.637,0.729c0.817,0,1.593-0.202,2.32-0.608v1.602c-0.328,0.191-0.679,0.332-1.051,0.414
					C1140.51,316.981,1140.057,317.024,1139.526,317.024z"/>
				<path fill="#676767" d="M1148.346,317.024c-1.095,0-1.943-0.395-2.547-1.182h-0.109c0.072,0.729,0.109,1.174,0.109,1.328v3.539
					h-1.837v-12.482h1.484c0.041,0.16,0.127,0.547,0.258,1.154h0.095c0.571-0.875,1.432-1.313,2.577-1.313
					c1.078,0,1.918,0.392,2.521,1.172c0.603,0.781,0.902,1.879,0.902,3.289c0,1.412-0.308,2.515-0.918,3.306
					C1150.27,316.627,1149.426,317.024,1148.346,317.024z M1147.901,309.571c-0.729,0-1.262,0.213-1.598,0.642
					c-0.336,0.428-0.504,1.108-0.504,2.047v0.272c0,1.051,0.166,1.813,0.5,2.285c0.333,0.471,0.877,0.707,1.633,0.707
					c0.635,0,1.125-0.262,1.469-0.781c0.345-0.521,0.517-1.264,0.517-2.227c0-0.971-0.171-1.703-0.513-2.199
					C1149.063,309.819,1148.563,309.571,1147.901,309.571z"/>
			</g>
		</g>
		<g>
			<g>
				<path fill="#676767" d="M476.807,308.227v8.641h-1.844v-7.188h-3.875v7.188h-1.836v-8.641H476.807z"/>
				<path fill="#676767" d="M485.926,308.227v1.438h-2.813v7.203h-1.845v-7.203h-2.813v-1.438H485.926z"/>
			</g>
		</g>
		<g>
			<g>
				<path fill="#FF4C29" d="M527.096,317.024c-1.308,0-2.302-0.383-2.979-1.146c-0.679-0.763-1.021-1.857-1.021-3.285
					c0-1.451,0.354-2.568,1.065-3.353c0.711-0.78,1.738-1.172,3.082-1.172c0.912,0,1.731,0.17,2.461,0.508l-0.555,1.479
					c-0.775-0.303-1.418-0.453-1.923-0.453c-1.495,0-2.241,0.99-2.241,2.977c0,0.97,0.186,1.695,0.559,2.185
					s0.919,0.729,1.638,0.729c0.817,0,1.592-0.202,2.319-0.608v1.602c-0.327,0.191-0.678,0.332-1.051,0.414
					C528.079,316.983,527.63,317.024,527.096,317.024z"/>
				<path fill="#FF4C29" d="M531.035,311.68c0-1.928,0.327-3.41,0.979-4.445c0.653-1.037,1.694-1.703,3.121-2
					c1.077-0.219,2.319-0.434,3.727-0.643l0.259,1.617c-1.708,0.262-2.958,0.465-3.75,0.608c-0.817,0.152-1.408,0.488-1.771,1.008
					c-0.361,0.521-0.572,1.306-0.629,2.354h0.116c0.298-0.435,0.686-0.769,1.164-1.006c0.479-0.236,0.992-0.354,1.539-0.354
					c1.063,0,1.892,0.336,2.483,1.008c0.594,0.673,0.892,1.613,0.892,2.828c0,1.392-0.36,2.465-1.082,3.228
					c-0.721,0.762-1.721,1.141-2.996,1.141c-1.266,0-2.258-0.469-2.977-1.406C531.392,314.682,531.035,313.365,531.035,311.68z
					 M535.216,315.524c1.364,0,2.047-0.896,2.047-2.689c0-1.729-0.617-2.594-1.853-2.594c-0.339,0-0.667,0.074-0.983,0.219
					c-0.317,0.146-0.611,0.341-0.879,0.578c-0.27,0.24-0.477,0.488-0.621,0.742c0,1.229,0.194,2.16,0.586,2.793
					C533.903,315.204,534.469,315.524,535.216,315.524z"/>
			</g>
		</g>
		<g>
			<g>
				<path fill="#676767" d="M414.685,308.227v3.154c0,0.887,0.458,1.328,1.375,1.328c0.441,0,0.875-0.062,1.298-0.185
					c0.422-0.121,0.875-0.318,1.357-0.59v-3.711h1.837v8.641h-1.837V313.2c-0.505,0.314-0.993,0.543-1.465,0.691
					c-0.472,0.147-0.985,0.223-1.543,0.223c-0.9,0-1.604-0.231-2.108-0.699c-0.505-0.465-0.759-1.116-0.759-1.956v-3.232H414.685z"
					/>
				<path fill="#676767" d="M429.671,308.227v1.438h-2.813v7.203h-1.844v-7.203H422.2v-1.438H429.671z"/>
			</g>
		</g>
		<g>
			<g>
				<path fill="#FF4C29" d="M580.268,308.227v3.469h4.07v-3.469h1.836v8.641h-1.836v-3.727h-4.07v3.727h-1.836v-8.641H580.268z"/>
				<path fill="#FF4C29" d="M597.091,319.92h-1.711v-3.056h-5.923v3.056h-1.694v-4.478h0.703c0.612-0.879,1.103-1.942,1.465-3.19
					c0.36-1.246,0.576-2.591,0.646-4.025h5.25v7.219h1.267L597.091,319.92L597.091,319.92z M594.018,315.446v-5.813h-1.858
					c-0.101,1.073-0.308,2.131-0.621,3.174c-0.315,1.041-0.698,1.922-1.151,2.641L594.018,315.446L594.018,315.446z"/>
			</g>
		</g>
		<g>
			<g>
				<path fill="#676767" d="M642.783,308.227v8.641h-1.845v-7.188h-3.875v7.188h-1.836v-8.641H642.783z"/>
				<path fill="#676767" d="M647.244,308.227v3.469h4.069v-3.469h1.836v8.641h-1.836v-3.727h-4.069v3.727h-1.836v-8.641H647.244z"/>
			</g>
		</g>
		<g>
			<g>
				<path fill="#676767" d="M698.992,310.438c0,1.02-0.599,1.637-1.789,1.852v0.063c0.666,0.078,1.177,0.289,1.53,0.633
					c0.354,0.344,0.531,0.789,0.531,1.336c0,0.818-0.313,1.447-0.935,1.888c-0.623,0.44-1.526,0.659-2.715,0.659h-4.125v-8.641
					h4.108C697.86,308.227,698.992,308.963,698.992,310.438z M697.156,310.592c0-0.345-0.136-0.592-0.401-0.744
					c-0.271-0.154-0.669-0.23-1.199-0.23h-2.228v2.078h1.953c0.612,0,1.079-0.08,1.397-0.238
					C696.996,311.297,697.156,311.01,697.156,310.592z M697.383,314.209c0-0.416-0.162-0.712-0.484-0.888
					c-0.323-0.174-0.809-0.262-1.453-0.262h-2.116v2.445h2.164C696.752,315.506,697.383,315.073,697.383,314.209z"/>
				<path fill="#676767" d="M707.647,308.227v1.438h-2.813v7.203h-1.844v-7.203h-2.813v-1.438H707.647z"/>
			</g>
		</g>
		<g>
			<g>
				<path fill="#676767" d="M749.449,317.024c-1.308,0-2.302-0.383-2.979-1.146c-0.679-0.763-1.021-1.857-1.021-3.285
					c0-1.451,0.354-2.568,1.065-3.353c0.711-0.78,1.737-1.172,3.082-1.172c0.912,0,1.731,0.17,2.461,0.508l-0.556,1.479
					c-0.774-0.303-1.416-0.453-1.922-0.453c-1.494,0-2.242,0.99-2.242,2.977c0,0.97,0.188,1.695,0.56,2.185
					c0.373,0.488,0.918,0.729,1.638,0.729c0.817,0,1.592-0.202,2.319-0.608v1.602c-0.328,0.191-0.678,0.332-1.051,0.414
					S749.979,317.024,749.449,317.024z"/>
				<path fill="#676767" d="M758.268,317.024c-1.094,0-1.942-0.395-2.547-1.182h-0.109c0.072,0.729,0.109,1.174,0.109,1.328v3.539
					h-1.836v-12.482h1.483c0.041,0.16,0.127,0.547,0.258,1.154h0.095c0.571-0.875,1.432-1.313,2.578-1.313
					c1.077,0,1.918,0.392,2.52,1.172c0.604,0.781,0.902,1.879,0.902,3.289c0,1.412-0.308,2.515-0.918,3.306
					C760.192,316.627,759.346,317.024,758.268,317.024z M757.824,309.571c-0.729,0-1.263,0.213-1.599,0.642
					c-0.336,0.428-0.504,1.108-0.504,2.047v0.272c0,1.051,0.166,1.813,0.5,2.285c0.334,0.471,0.877,0.707,1.633,0.707
					c0.636,0,1.125-0.262,1.47-0.781c0.344-0.521,0.516-1.264,0.516-2.227c0-0.971-0.17-1.703-0.512-2.199
					C758.986,309.819,758.485,309.571,757.824,309.571z"/>
			</g>
		</g>
		<g>
			<g>
				<g>
					<path fill="none" stroke="#FFD600" stroke-width="1.1587" stroke-miterlimit="10" d="M0,48.884v233.234v5.188v12.146
						c0,8.709,7.045,15.755,15.754,15.755"/>
					
						<polygon fill="#FFD600" stroke="#FFD600" stroke-width="1.1587" stroke-linecap="round" stroke-linejoin="round" stroke-miterlimit="10" points="
						155.993,0 0,0 0,32.353 0,47.895 0,54.657 8.206,47.895 155.993,47.895 					"/>
					<g>
						<g>
							<path d="M19.881,18.618h-0.548v-7.337H14.8v7.337h-0.548v-7.853h5.629V18.618z"/>
							<path d="M27.568,15.693c0,0.953-0.23,1.696-0.692,2.23c-0.462,0.536-1.1,0.804-1.912,0.804c-0.512,0-0.963-0.124-1.354-0.371
								s-0.688-0.603-0.896-1.063c-0.208-0.461-0.313-0.996-0.313-1.602c0-0.953,0.23-1.694,0.693-2.228
								c0.462-0.53,1.096-0.798,1.9-0.798c0.802,0,1.433,0.271,1.888,0.81C27.341,14.016,27.568,14.754,27.568,15.693z
								 M22.961,15.693c0,0.802,0.177,1.428,0.528,1.877c0.354,0.45,0.853,0.674,1.496,0.674c0.645,0,1.144-0.225,1.496-0.674
								c0.354-0.449,0.529-1.075,0.529-1.877c0-0.806-0.179-1.431-0.535-1.875c-0.355-0.444-0.855-0.666-1.501-0.666
								s-1.143,0.221-1.49,0.664C23.135,14.257,22.961,14.883,22.961,15.693z"/>
							<path d="M30.385,12.781v1.955c0,0.494,0.119,0.852,0.359,1.069c0.239,0.218,0.608,0.327,1.105,0.327
								c0.352,0,0.687-0.063,1.004-0.188s0.649-0.326,0.994-0.602v-2.563h0.531v5.838h-0.531v-2.771
								c-0.358,0.274-0.71,0.473-1.057,0.591c-0.346,0.118-0.72,0.177-1.12,0.177c-0.599,0-1.05-0.155-1.355-0.467
								c-0.308-0.313-0.459-0.761-0.459-1.349v-2.021h0.528V12.781z"/>
							<path d="M40.651,18.618l-0.134-0.924h-0.043c-0.293,0.376-0.596,0.643-0.905,0.797c-0.31,0.156-0.676,0.234-1.099,0.234
								c-0.573,0-1.021-0.147-1.338-0.44s-0.479-0.699-0.479-1.219c0-0.569,0.237-1.012,0.712-1.327
								c0.475-0.314,1.161-0.479,2.062-0.5l1.111-0.032v-0.387c0-0.555-0.112-0.974-0.339-1.257
								c-0.225-0.283-0.589-0.424-1.09-0.424c-0.541,0-1.101,0.148-1.681,0.45l-0.199-0.462c0.642-0.302,1.274-0.45,1.9-0.45
								c0.642,0,1.12,0.167,1.438,0.5s0.476,0.852,0.476,1.558v3.883H40.651z M38.504,18.242c0.623,0,1.113-0.178,1.476-0.535
								c0.358-0.354,0.54-0.851,0.54-1.483v-0.575l-1.021,0.043c-0.819,0.04-1.404,0.167-1.753,0.384
								c-0.351,0.218-0.523,0.555-0.523,1.014c0,0.364,0.111,0.648,0.335,0.853C37.778,18.143,38.094,18.242,38.504,18.242z"/>
							<path d="M47.411,13.241h-1.944v5.376H44.94v-5.376h-1.993V12.78h4.464V13.241z"/>
							<path d="M54.207,15.693c0,0.953-0.23,1.696-0.692,2.23c-0.462,0.536-1.1,0.804-1.912,0.804c-0.513,0-0.963-0.124-1.354-0.371
								s-0.688-0.603-0.896-1.063c-0.208-0.461-0.313-0.996-0.313-1.602c0-0.953,0.23-1.694,0.692-2.228
								c0.463-0.53,1.097-0.798,1.9-0.798c0.803,0,1.433,0.271,1.889,0.81C53.978,14.016,54.207,14.754,54.207,15.693z
								 M49.598,15.693c0,0.802,0.176,1.428,0.528,1.877c0.354,0.45,0.853,0.674,1.496,0.674c0.645,0,1.144-0.225,1.496-0.674
								c0.354-0.449,0.528-1.075,0.528-1.877c0-0.806-0.178-1.431-0.534-1.875s-0.856-0.666-1.502-0.666s-1.142,0.221-1.489,0.664
								C49.772,14.257,49.598,14.883,49.598,15.693z"/>
							<path d="M59.762,12.781h0.66l-2.615,2.825l2.805,3.013h-0.715l-2.761-2.959v2.959h-0.542v-5.838h0.542v2.836L59.762,12.781z"
								/>
							<path d="M66.572,18.618H66.04v-5.838h4.657v5.838h-0.532v-5.333h-3.593V18.618z"/>
							<path d="M75.92,18.727c-0.898,0-1.554-0.336-1.966-1.011h-0.038l0.017,0.45c0.015,0.267,0.021,0.557,0.021,0.87v2.226h-0.532
								v-8.481h0.451l0.103,0.833h0.031c0.401-0.63,1.042-0.944,1.924-0.944c0.787,0,1.389,0.26,1.802,0.775
								c0.414,0.519,0.621,1.271,0.621,2.259c0,0.959-0.217,1.704-0.652,2.231S76.672,18.727,75.92,18.727z M75.909,18.254
								c0.598,0,1.062-0.223,1.389-0.666s0.491-1.064,0.491-1.863c0-1.715-0.62-2.573-1.857-2.573c-0.681,0-1.181,0.188-1.499,0.562
								c-0.318,0.375-0.479,0.983-0.479,1.829v0.172c0,0.913,0.152,1.564,0.459,1.955C74.719,18.059,75.219,18.254,75.909,18.254z"
								/>
							<path d="M83.096,18.727c-0.85,0-1.511-0.262-1.983-0.784c-0.476-0.522-0.712-1.255-0.712-2.197
								c0-0.931,0.229-1.677,0.688-2.236c0.458-0.561,1.076-0.84,1.854-0.84c0.688,0,1.229,0.239,1.628,0.721
								c0.396,0.479,0.596,1.131,0.596,1.955v0.43H80.96c0.007,0.802,0.194,1.415,0.563,1.837s0.893,0.634,1.576,0.634
								c0.333,0,0.626-0.021,0.878-0.069c0.253-0.046,0.571-0.146,0.959-0.301v0.482c-0.33,0.144-0.635,0.241-0.913,0.293
								C83.742,18.699,83.433,18.727,83.096,18.727z M82.942,13.141c-0.563,0-1.014,0.185-1.354,0.556
								c-0.34,0.37-0.539,0.905-0.596,1.604H84.6c0-0.678-0.146-1.205-0.439-1.587C83.867,13.33,83.461,13.141,82.942,13.141z"/>
							<path d="M90.263,18.05l0.333-0.939l1.682-4.329h0.735v5.838h-0.506v-5.193c-0.078,0.227-0.161,0.457-0.25,0.692
								c-0.087,0.236-0.672,1.737-1.753,4.501h-0.473l-1.617-4.104c-0.067-0.165-0.132-0.338-0.189-0.521
								c-0.061-0.183-0.125-0.379-0.195-0.591v5.215h-0.483v-5.838h0.704l1.688,4.297C90.069,17.425,90.177,17.748,90.263,18.05z"/>
							<path d="M96.136,10.767l0.063,0.105c-0.27,0.949-0.58,1.812-0.936,2.583h-0.35c0.104-0.344,0.213-0.774,0.328-1.297
								c0.115-0.521,0.202-0.985,0.263-1.394L96.136,10.767L96.136,10.767z"/>
							<path d="M100.494,18.727c-0.85,0-1.517-0.27-2-0.804c-0.484-0.534-0.729-1.266-0.729-2.188c0-0.949,0.251-1.697,0.754-2.245
								s1.188-0.821,2.05-0.821c0.222,0,0.477,0.022,0.765,0.069c0.289,0.046,0.537,0.111,0.744,0.193l-0.156,0.473
								c-0.211-0.075-0.448-0.136-0.711-0.183c-0.264-0.047-0.48-0.07-0.652-0.07c-0.663,0-1.185,0.188-1.563,0.563
								s-0.601,0.903-0.661,1.584h3.356v0.474h-3.378c0.007,0.776,0.206,1.383,0.597,1.817c0.39,0.437,0.915,0.652,1.574,0.652
								c0.562,0,1.07-0.095,1.523-0.285v0.494c-0.164,0.083-0.381,0.148-0.648,0.199C101.089,18.701,100.802,18.727,100.494,18.727z
								"/>
							<path d="M106.705,18.727c-0.898,0-1.554-0.336-1.966-1.011h-0.038l0.016,0.45c0.015,0.267,0.021,0.557,0.021,0.87v2.226
								h-0.532v-8.481h0.451l0.102,0.833h0.032c0.4-0.63,1.042-0.944,1.923-0.944c0.788,0,1.389,0.26,1.803,0.775
								c0.413,0.519,0.62,1.271,0.62,2.259c0,0.959-0.219,1.704-0.652,2.231C108.05,18.462,107.457,18.727,106.705,18.727z
								 M106.694,18.254c0.598,0,1.061-0.223,1.388-0.666c0.328-0.443,0.492-1.064,0.492-1.863c0-1.715-0.62-2.573-1.858-2.573
								c-0.68,0-1.18,0.188-1.499,0.562c-0.318,0.375-0.478,0.983-0.478,1.829v0.172c0,0.913,0.152,1.564,0.459,1.955
								C105.505,18.059,106.004,18.254,106.694,18.254z"/>
							<path d="M112.056,12.781v2.563h3.706v-2.563h0.525v5.838h-0.525v-2.813h-3.706v2.813h-0.532v-5.838H112.056z"/>
							<path d="M123.844,15.693c0,0.953-0.23,1.696-0.693,2.23c-0.462,0.536-1.099,0.804-1.911,0.804
								c-0.513,0-0.964-0.124-1.354-0.371c-0.391-0.247-0.689-0.603-0.896-1.063c-0.209-0.462-0.313-0.996-0.313-1.602
								c0-0.953,0.23-1.694,0.692-2.228c0.462-0.53,1.096-0.798,1.9-0.798c0.803,0,1.433,0.271,1.889,0.81
								C123.615,14.016,123.844,14.754,123.844,15.693z M119.235,15.693c0,0.802,0.176,1.428,0.528,1.877
								c0.354,0.45,0.853,0.674,1.496,0.674c0.643,0,1.144-0.225,1.495-0.674c0.353-0.449,0.529-1.075,0.529-1.877
								c0-0.806-0.179-1.431-0.535-1.875c-0.355-0.444-0.855-0.666-1.501-0.666s-1.143,0.221-1.49,0.664
								C119.409,14.257,119.235,14.883,119.235,15.693z"/>
							<path d="M129.662,13.241h-2.899v5.376h-0.532V12.78h3.433L129.662,13.241L129.662,13.241z"/>
							<path d="M136.458,15.693c0,0.953-0.23,1.696-0.692,2.23c-0.462,0.536-1.1,0.804-1.912,0.804
								c-0.513,0-0.963-0.124-1.354-0.371c-0.391-0.247-0.688-0.603-0.896-1.063c-0.208-0.461-0.313-0.996-0.313-1.602
								c0-0.953,0.23-1.694,0.693-2.228c0.461-0.53,1.096-0.798,1.899-0.798c0.803,0,1.433,0.271,1.889,0.81
								C136.229,14.016,136.458,14.754,136.458,15.693z M131.849,15.693c0,0.802,0.177,1.428,0.528,1.877
								c0.354,0.45,0.853,0.674,1.496,0.674c0.645,0,1.144-0.225,1.496-0.674c0.354-0.449,0.528-1.075,0.528-1.877
								c0-0.806-0.178-1.431-0.534-1.875s-0.856-0.666-1.501-0.666c-0.646,0-1.143,0.221-1.49,0.664
								C132.024,14.257,131.849,14.883,131.849,15.693z"/>
							<path d="M14.649,33.618h-0.532v-5.838h4.657v5.838h-0.532v-5.333h-3.593V33.618z"/>
							<path d="M23.857,33.727c-0.85,0-1.51-0.262-1.983-0.784c-0.476-0.522-0.712-1.255-0.712-2.197
								c0-0.931,0.229-1.677,0.688-2.236c0.458-0.561,1.076-0.84,1.853-0.84c0.688,0,1.23,0.239,1.628,0.721
								c0.396,0.479,0.597,1.131,0.597,1.955v0.43h-4.206c0.007,0.802,0.193,1.415,0.562,1.837s0.894,0.634,1.576,0.634
								c0.333,0,0.626-0.021,0.878-0.069c0.253-0.046,0.572-0.146,0.959-0.301v0.482c-0.33,0.144-0.634,0.241-0.913,0.293
								C24.503,33.699,24.193,33.727,23.857,33.727z M23.701,28.141c-0.562,0-1.013,0.185-1.354,0.556
								c-0.341,0.37-0.539,0.905-0.597,1.604h3.608c0-0.678-0.146-1.205-0.439-1.587C24.628,28.33,24.22,28.141,23.701,28.141z"/>
							<path d="M30.804,33.727c-0.899,0-1.555-0.336-1.967-1.011H28.8l0.017,0.45c0.015,0.267,0.021,0.557,0.021,0.87v2.226h-0.531
								v-8.481h0.45l0.103,0.833h0.032c0.4-0.63,1.042-0.944,1.923-0.944c0.788,0,1.388,0.26,1.802,0.775
								c0.413,0.519,0.62,1.271,0.62,2.259c0,0.959-0.218,1.704-0.651,2.231C32.149,33.462,31.556,33.727,30.804,33.727z
								 M30.794,33.254c0.599,0,1.062-0.223,1.389-0.666c0.328-0.443,0.491-1.064,0.491-1.863c0-1.715-0.619-2.573-1.857-2.573
								c-0.68,0-1.18,0.188-1.499,0.562c-0.318,0.375-0.479,0.983-0.479,1.829v0.172c0,0.913,0.152,1.564,0.459,1.955
								C29.603,33.059,30.102,33.254,30.794,33.254z"/>
							<path d="M35.549,26.157c0-0.344,0.113-0.516,0.339-0.516c0.11,0,0.197,0.045,0.26,0.134s0.094,0.217,0.094,0.381
								c0,0.161-0.03,0.288-0.094,0.381c-0.063,0.094-0.148,0.142-0.26,0.142C35.662,26.68,35.549,26.506,35.549,26.157z
								 M36.155,33.618h-0.531v-5.838h0.531V33.618z"/>
							<path d="M43.71,30.693c0,0.953-0.23,1.696-0.692,2.23c-0.462,0.536-1.1,0.804-1.912,0.804c-0.512,0-0.963-0.124-1.354-0.371
								s-0.688-0.603-0.896-1.063c-0.208-0.461-0.313-0.996-0.313-1.602c0-0.953,0.23-1.694,0.692-2.228
								c0.462-0.53,1.097-0.798,1.901-0.798c0.802,0,1.432,0.271,1.888,0.81C43.481,29.016,43.71,29.754,43.71,30.693z
								 M39.101,30.693c0,0.802,0.176,1.428,0.528,1.877c0.354,0.45,0.853,0.674,1.496,0.674c0.645,0,1.144-0.225,1.496-0.674
								c0.354-0.449,0.528-1.075,0.528-1.877c0-0.806-0.178-1.431-0.535-1.875c-0.354-0.444-0.854-0.666-1.501-0.666
								c-0.645,0-1.142,0.221-1.489,0.664C39.275,29.257,39.101,29.883,39.101,30.693z"/>
							<path d="M50.86,35.602h-0.525v-1.982h-4.469v1.982H45.34v-2.487h0.388c0.486-0.684,0.862-1.477,1.128-2.379
								c0.266-0.901,0.405-1.887,0.419-2.954h2.81v5.333h0.779v2.487H50.86z M49.55,33.115v-4.839h-1.813
								c-0.087,1.938-0.556,3.55-1.407,4.839H49.55z"/>
							<path d="M51.893,27.781h0.549l1.234,3.276c0.376,1.006,0.613,1.685,0.714,2.036h0.031c0.15-0.463,0.396-1.151,0.736-2.068
								l1.234-3.244h0.548l-2.615,6.784c-0.211,0.551-0.39,0.924-0.532,1.117c-0.144,0.191-0.312,0.338-0.502,0.435
								c-0.191,0.098-0.424,0.146-0.695,0.146c-0.204,0-0.433-0.038-0.683-0.113v-0.462c0.208,0.057,0.433,0.086,0.671,0.086
								c0.184,0,0.345-0.043,0.482-0.129c0.14-0.086,0.267-0.22,0.379-0.4c0.112-0.18,0.243-0.467,0.393-0.858
								c0.148-0.393,0.244-0.646,0.287-0.766L51.893,27.781z"/>
						</g>
					</g>
				</g>
			</g>
			<circle fill="none" stroke="#FFD600" stroke-width="1.1587" stroke-miterlimit="10" cx="33.397" cy="313.198" r="18.037"/>
		</g>
		<g>
			<g>
				<g>
					<path fill="none" stroke="#FFD600" stroke-width="1.1587" stroke-miterlimit="10" d="M611,45.382v236.736v5.188v12.146
						c0,8.709,7.045,15.755,15.755,15.755"/>
					
						<polygon fill="#FFD600" stroke="#FFD600" stroke-width="1.1587" stroke-linecap="round" stroke-linejoin="round" stroke-miterlimit="10" points="
						814.72,1.503 611,1.503 611,31.854 611,44.393 611,51.156 619.207,44.393 814.72,44.393 					"/>
					<g>
						<g>
							<g>
								<path d="M629.516,12.104c0,1.023-0.543,1.653-1.628,1.891v0.032c1.188,0.254,1.783,0.893,1.783,1.912
									c0,0.72-0.254,1.281-0.761,1.684c-0.507,0.403-1.222,0.604-2.146,0.604c-0.866,0-1.596-0.154-2.188-0.462v-0.561
									c0.342,0.165,0.704,0.292,1.092,0.382c0.387,0.09,0.752,0.135,1.096,0.135c0.716,0,1.28-0.155,1.693-0.465
									c0.414-0.311,0.62-0.743,0.62-1.304c0-0.544-0.2-0.956-0.604-1.233c-0.401-0.279-1.005-0.42-1.808-0.42h-1.166v-0.517h1.209
									c0.76,0,1.319-0.143,1.682-0.43s0.543-0.693,0.543-1.219c0-0.448-0.166-0.808-0.497-1.074
									c-0.33-0.27-0.764-0.403-1.298-0.403c-0.396,0-0.762,0.058-1.096,0.169c-0.332,0.113-0.692,0.308-1.079,0.583l-0.313-0.43
									c0.724-0.551,1.554-0.827,2.485-0.827c0.734,0,1.313,0.175,1.738,0.526C629.303,11.031,629.516,11.505,629.516,12.104z"/>
								<path d="M635.584,18.118l-0.135-0.924h-0.043c-0.294,0.376-0.597,0.643-0.904,0.797c-0.312,0.156-0.678,0.234-1.101,0.234
									c-0.571,0-1.019-0.147-1.338-0.44c-0.317-0.293-0.478-0.699-0.478-1.219c0-0.569,0.236-1.012,0.711-1.327
									c0.476-0.314,1.16-0.479,2.061-0.5l1.112-0.032v-0.387c0-0.555-0.113-0.974-0.339-1.257
									c-0.227-0.283-0.59-0.424-1.092-0.424c-0.539,0-1.102,0.148-1.682,0.45l-0.197-0.462c0.642-0.302,1.273-0.45,1.899-0.45
									c0.643,0,1.12,0.167,1.438,0.5c0.315,0.333,0.476,0.852,0.476,1.558v3.883H635.584z M633.433,17.742
									c0.623,0,1.114-0.178,1.476-0.535c0.358-0.354,0.539-0.851,0.539-1.483v-0.575l-1.021,0.043
									c-0.819,0.04-1.404,0.167-1.753,0.384c-0.351,0.218-0.523,0.555-0.523,1.014c0,0.364,0.111,0.648,0.336,0.853
									C632.711,17.643,633.026,17.742,633.433,17.742z"/>
								<path d="M641.803,12.281h0.659l-2.614,2.825l2.805,3.013h-0.715l-2.762-2.959v2.959h-0.542v-5.838h0.542v2.836
									L641.803,12.281z"/>
								<path d="M644.38,10.657c0-0.344,0.112-0.516,0.339-0.516c0.109,0,0.197,0.045,0.261,0.134s0.095,0.217,0.095,0.381
									c0,0.161-0.031,0.288-0.095,0.381c-0.063,0.094-0.149,0.142-0.261,0.142C644.492,11.18,644.38,11.006,644.38,10.657z
									 M644.985,18.118h-0.53v-5.838h0.53V18.118z"/>
								<path d="M648.243,12.281v2.563h3.706v-2.563h0.525v5.838h-0.525v-2.813h-3.706v2.813h-0.532v-5.838H648.243z"/>
								<path d="M655.632,12.281v1.955c0,0.494,0.118,0.852,0.358,1.069c0.239,0.218,0.608,0.327,1.105,0.327
									c0.351,0,0.687-0.063,1.005-0.188c0.317-0.125,0.649-0.326,0.993-0.602v-2.563h0.531v5.838h-0.531v-2.771
									c-0.358,0.274-0.71,0.473-1.057,0.591s-0.719,0.177-1.119,0.177c-0.6,0-1.051-0.155-1.355-0.467
									c-0.307-0.313-0.46-0.761-0.46-1.349v-2.021h0.529V12.281z"/>
								<path d="M664.709,18.227c-0.849,0-1.51-0.262-1.983-0.784s-0.711-1.255-0.711-2.197c0-0.931,0.229-1.677,0.688-2.236
									c0.458-0.561,1.076-0.84,1.854-0.84c0.688,0,1.229,0.239,1.628,0.721c0.396,0.479,0.596,1.131,0.596,1.955v0.43h-4.204
									c0.007,0.802,0.192,1.415,0.562,1.837s0.894,0.634,1.576,0.634c0.334,0,0.625-0.021,0.879-0.069
									c0.252-0.046,0.572-0.146,0.959-0.301v0.482c-0.33,0.144-0.635,0.241-0.914,0.293
									C665.352,18.199,665.047,18.227,664.709,18.227z M664.552,12.641c-0.563,0-1.014,0.185-1.354,0.556
									c-0.341,0.37-0.539,0.905-0.598,1.604h3.608c0-0.678-0.146-1.205-0.438-1.587C665.478,12.83,665.072,12.641,664.552,12.641z
									"/>
								<path d="M669.689,12.281v2.563h3.706v-2.563h0.526v5.838h-0.526v-2.813h-3.706v2.813h-0.531v-5.838H669.689z"/>
								<path d="M677.178,12.281v2.563h3.706v-2.563h0.525v5.838h-0.525v-2.813h-3.706v2.813h-0.531v-5.838H677.178z"/>
								<path d="M684.051,18.118h-0.672l1.763-2.519c-0.537-0.102-0.925-0.287-1.163-0.561c-0.237-0.271-0.356-0.62-0.356-1.047
									c0-0.529,0.18-0.947,0.534-1.254c0.355-0.306,0.836-0.459,1.438-0.459H688v5.838h-0.525v-2.455h-1.783L684.051,18.118z
									 M684.178,13.973c0,0.399,0.131,0.698,0.391,0.894c0.26,0.196,0.65,0.293,1.174,0.293h1.729v-2.374h-1.891
									c-0.443,0-0.789,0.103-1.034,0.305C684.302,13.291,684.178,13.586,684.178,13.973z"/>
								<path d="M694.883,18.118h-0.531v-5.838h4.656v5.838h-0.531v-5.333h-3.594V18.118z"/>
								<path d="M704.229,18.227c-0.897,0-1.554-0.336-1.965-1.011h-0.038l0.018,0.45c0.015,0.267,0.021,0.557,0.021,0.87v2.226
									h-0.531v-8.481h0.45l0.104,0.833h0.031c0.4-0.63,1.043-0.944,1.924-0.944c0.787,0,1.389,0.26,1.802,0.775
									c0.414,0.519,0.621,1.271,0.621,2.259c0,0.959-0.219,1.704-0.652,2.231C705.576,17.962,704.981,18.227,704.229,18.227z
									 M704.219,17.754c0.598,0,1.062-0.223,1.388-0.666c0.328-0.443,0.491-1.064,0.491-1.863c0-1.715-0.619-2.573-1.857-2.573
									c-0.681,0-1.18,0.188-1.498,0.562c-0.318,0.375-0.479,0.983-0.479,1.829v0.172c0,0.913,0.151,1.564,0.459,1.955
									C703.03,17.559,703.528,17.754,704.219,17.754z"/>
								<path d="M711.408,18.227c-0.85,0-1.511-0.262-1.983-0.784c-0.475-0.522-0.712-1.255-0.712-2.197
									c0-0.931,0.229-1.677,0.688-2.236c0.458-0.561,1.076-0.84,1.854-0.84c0.688,0,1.229,0.239,1.628,0.721
									c0.397,0.479,0.597,1.131,0.597,1.955v0.43h-4.206c0.007,0.802,0.194,1.415,0.563,1.837
									c0.369,0.422,0.894,0.634,1.576,0.634c0.333,0,0.626-0.021,0.879-0.069c0.252-0.046,0.571-0.146,0.959-0.301v0.482
									c-0.33,0.144-0.635,0.241-0.914,0.293C712.052,18.199,711.744,18.227,711.408,18.227z M711.252,12.641
									c-0.563,0-1.013,0.185-1.354,0.556c-0.34,0.37-0.539,0.905-0.596,1.604h3.608c0-0.678-0.146-1.205-0.439-1.587
									C712.177,12.83,711.77,12.641,711.252,12.641z"/>
								<path d="M718.575,17.55l0.333-0.939l1.683-4.329h0.734v5.838h-0.506v-5.193c-0.077,0.227-0.161,0.457-0.25,0.692
									c-0.088,0.236-0.672,1.737-1.754,4.501h-0.473l-1.616-4.104c-0.066-0.165-0.132-0.338-0.189-0.521
									c-0.061-0.183-0.125-0.379-0.195-0.591v5.215h-0.483v-5.838h0.703l1.688,4.297C718.381,16.925,718.489,17.248,718.575,17.55
									z"/>
								<path d="M724.447,10.267l0.063,0.105c-0.269,0.949-0.58,1.812-0.935,2.583h-0.351c0.104-0.344,0.214-0.774,0.328-1.297
									c0.114-0.521,0.2-0.985,0.263-1.394L724.447,10.267L724.447,10.267z"/>
								<path d="M728.804,18.227c-0.85,0-1.516-0.27-2.001-0.804c-0.484-0.534-0.729-1.266-0.729-2.188
									c0-0.949,0.251-1.697,0.755-2.245s1.187-0.821,2.05-0.821c0.223,0,0.477,0.022,0.766,0.069
									c0.288,0.046,0.536,0.111,0.744,0.193l-0.156,0.473c-0.211-0.075-0.447-0.136-0.712-0.183
									c-0.263-0.047-0.479-0.07-0.65-0.07c-0.664,0-1.186,0.188-1.563,0.563s-0.601,0.903-0.66,1.584h3.357v0.474h-3.38
									c0.009,0.776,0.207,1.383,0.597,1.817c0.391,0.437,0.916,0.652,1.574,0.652c0.563,0,1.068-0.095,1.523-0.285v0.494
									c-0.164,0.083-0.381,0.148-0.648,0.199C729.401,18.2,729.113,18.227,728.804,18.227z"/>
								<path d="M735.015,18.227c-0.898,0-1.555-0.336-1.966-1.011h-0.037l0.017,0.45c0.014,0.267,0.021,0.557,0.021,0.87v2.226
									h-0.531v-8.481h0.451l0.103,0.833h0.032c0.4-0.63,1.041-0.944,1.923-0.944c0.786,0,1.39,0.26,1.802,0.775
									c0.414,0.519,0.62,1.271,0.62,2.259c0,0.959-0.218,1.704-0.651,2.231C736.364,17.962,735.767,18.227,735.015,18.227z
									 M735.007,17.754c0.598,0,1.062-0.223,1.389-0.666s0.491-1.064,0.491-1.863c0-1.715-0.62-2.573-1.857-2.573
									c-0.681,0-1.181,0.188-1.498,0.562c-0.318,0.375-0.479,0.983-0.479,1.829v0.172c0,0.913,0.152,1.564,0.459,1.955
									C733.815,17.559,734.313,17.754,735.007,17.754z"/>
								<path d="M740.368,12.281v2.563h3.706v-2.563h0.525v5.838h-0.525v-2.813h-3.706v2.813h-0.532v-5.838H740.368z"/>
								<path d="M752.153,15.193c0,0.953-0.229,1.696-0.692,2.23c-0.461,0.536-1.099,0.804-1.911,0.804
									c-0.513,0-0.964-0.124-1.354-0.371c-0.39-0.247-0.688-0.603-0.896-1.063c-0.208-0.461-0.313-0.996-0.313-1.602
									c0-0.953,0.23-1.694,0.691-2.228c0.463-0.53,1.096-0.798,1.901-0.798c0.803,0,1.432,0.271,1.889,0.81
									C751.926,13.516,752.153,14.254,752.153,15.193z M747.547,15.193c0,0.802,0.177,1.428,0.528,1.877
									c0.354,0.45,0.852,0.674,1.495,0.674c0.645,0,1.145-0.225,1.495-0.674c0.354-0.449,0.529-1.075,0.529-1.877
									c0-0.806-0.179-1.431-0.534-1.875s-0.855-0.666-1.501-0.666s-1.142,0.221-1.49,0.664
									C747.719,13.757,747.547,14.383,747.547,15.193z"/>
								<path d="M757.971,12.741h-2.9v5.376h-0.53V12.28h3.433L757.971,12.741L757.971,12.741z"/>
								<path d="M764.768,15.193c0,0.953-0.229,1.696-0.692,2.23c-0.462,0.536-1.1,0.804-1.912,0.804
									c-0.513,0-0.963-0.124-1.354-0.371s-0.688-0.603-0.896-1.063c-0.207-0.461-0.313-0.996-0.313-1.602
									c0-0.953,0.23-1.694,0.691-2.228c0.464-0.53,1.097-0.798,1.902-0.798c0.803,0,1.432,0.271,1.889,0.81
									C764.541,13.516,764.768,14.254,764.768,15.193z M760.161,15.193c0,0.802,0.178,1.428,0.529,1.877
									c0.353,0.45,0.851,0.674,1.494,0.674c0.646,0,1.146-0.225,1.496-0.674c0.354-0.449,0.528-1.075,0.528-1.877
									c0-0.806-0.178-1.431-0.533-1.875c-0.356-0.444-0.855-0.666-1.501-0.666s-1.143,0.221-1.491,0.664
									C760.336,13.757,760.161,14.383,760.161,15.193z"/>
								<path d="M625.649,33.118h-0.531v-5.838h4.656v5.838h-0.531v-5.333h-3.594V33.118z"/>
								<path d="M634.856,33.227c-0.848,0-1.51-0.262-1.983-0.784s-0.711-1.255-0.711-2.197c0-0.931,0.229-1.677,0.688-2.236
									c0.458-0.561,1.076-0.84,1.854-0.84c0.688,0,1.229,0.239,1.627,0.721c0.396,0.479,0.597,1.131,0.597,1.955v0.43h-4.205
									c0.007,0.802,0.192,1.415,0.562,1.837s0.894,0.634,1.575,0.634c0.334,0,0.627-0.021,0.879-0.069
									c0.253-0.046,0.572-0.146,0.959-0.301v0.482c-0.329,0.144-0.635,0.241-0.913,0.293
									C635.502,33.199,635.194,33.227,634.856,33.227z M634.702,27.641c-0.563,0-1.014,0.185-1.354,0.556
									c-0.341,0.37-0.539,0.905-0.597,1.604h3.608c0-0.678-0.146-1.205-0.438-1.587C635.629,27.83,635.219,27.641,634.702,27.641z
									"/>
								<path d="M641.803,33.227c-0.898,0-1.556-0.336-1.966-1.011h-0.037l0.018,0.45c0.016,0.267,0.021,0.557,0.021,0.87v2.226
									h-0.532v-8.481h0.451l0.104,0.833h0.031c0.399-0.63,1.042-0.944,1.923-0.944c0.788,0,1.391,0.26,1.803,0.775
									c0.413,0.519,0.62,1.271,0.62,2.259c0,0.959-0.218,1.704-0.651,2.231C643.149,32.962,642.555,33.227,641.803,33.227z
									 M641.795,32.754c0.599,0,1.061-0.223,1.389-0.666c0.327-0.443,0.491-1.064,0.491-1.863c0-1.715-0.619-2.573-1.858-2.573
									c-0.681,0-1.18,0.188-1.498,0.562c-0.318,0.375-0.479,0.983-0.479,1.829v0.172c0,0.913,0.152,1.564,0.459,1.955
									C640.603,32.559,641.102,32.754,641.795,32.754z"/>
								<path d="M646.549,25.657c0-0.344,0.112-0.516,0.339-0.516c0.109,0,0.198,0.045,0.261,0.134s0.095,0.217,0.095,0.381
									c0,0.161-0.03,0.288-0.095,0.381c-0.063,0.094-0.148,0.142-0.261,0.142C646.662,26.18,646.549,26.006,646.549,25.657z
									 M647.156,33.118h-0.531v-5.838h0.531V33.118z"/>
								<path d="M654.711,30.193c0,0.953-0.231,1.696-0.692,2.23c-0.463,0.536-1.101,0.804-1.912,0.804
									c-0.513,0-0.964-0.124-1.354-0.371c-0.392-0.247-0.688-0.603-0.896-1.063c-0.208-0.461-0.313-0.996-0.313-1.602
									c0-0.953,0.229-1.694,0.692-2.228c0.462-0.53,1.097-0.798,1.9-0.798c0.803,0,1.432,0.271,1.889,0.81
									C654.48,28.516,654.711,29.254,654.711,30.193z M650.1,30.193c0,0.802,0.176,1.428,0.528,1.877
									c0.354,0.45,0.853,0.674,1.496,0.674c0.645,0,1.144-0.225,1.495-0.674c0.353-0.449,0.528-1.075,0.528-1.877
									c0-0.806-0.179-1.431-0.533-1.875c-0.355-0.444-0.856-0.666-1.502-0.666s-1.142,0.221-1.49,0.664
									C650.276,28.757,650.1,29.383,650.1,30.193z"/>
								<path d="M661.86,35.102h-0.526v-1.982h-4.469v1.982h-0.524v-2.487h0.387c0.486-0.684,0.862-1.477,1.127-2.379
									c0.267-0.901,0.405-1.887,0.42-2.954h2.81v5.333h0.779v2.487H661.86z M660.551,32.615v-4.839h-1.816
									c-0.086,1.938-0.555,3.55-1.405,4.839H660.551z"/>
								<path d="M662.893,27.281h0.547l1.236,3.276c0.375,1.006,0.612,1.685,0.714,2.036h0.032c0.149-0.463,0.396-1.151,0.735-2.068
									l1.233-3.244h0.549l-2.616,6.784c-0.212,0.551-0.389,0.924-0.531,1.117c-0.144,0.191-0.312,0.338-0.502,0.435
									c-0.19,0.098-0.424,0.146-0.694,0.146c-0.204,0-0.433-0.038-0.683-0.113v-0.462c0.207,0.057,0.433,0.086,0.672,0.086
									c0.183,0,0.344-0.043,0.482-0.129s0.266-0.22,0.379-0.4c0.111-0.181,0.242-0.467,0.393-0.858
									c0.148-0.393,0.244-0.646,0.287-0.766L662.893,27.281z"/>
								<path d="M677.022,27.741h-1.942v5.376h-0.526v-5.376h-1.992V27.28h4.464v0.462H677.022z"/>
								<path d="M682.537,33.118l-0.136-0.924h-0.043c-0.293,0.376-0.596,0.643-0.904,0.797c-0.311,0.156-0.676,0.234-1.1,0.234
									c-0.571,0-1.019-0.147-1.337-0.44c-0.319-0.293-0.479-0.699-0.479-1.219c0-0.569,0.235-1.012,0.711-1.327
									c0.476-0.314,1.161-0.479,2.062-0.5l1.111-0.032v-0.387c0-0.555-0.113-0.974-0.339-1.257
									c-0.228-0.283-0.59-0.424-1.091-0.424c-0.54,0-1.102,0.148-1.682,0.45l-0.198-0.462c0.641-0.302,1.274-0.45,1.9-0.45
									c0.643,0,1.12,0.167,1.438,0.5c0.316,0.333,0.477,0.852,0.477,1.558v3.883H682.537z M680.387,32.742
									c0.623,0,1.114-0.178,1.475-0.535c0.359-0.354,0.539-0.851,0.539-1.483v-0.575l-1.021,0.043
									c-0.819,0.04-1.404,0.167-1.754,0.384c-0.35,0.218-0.523,0.555-0.523,1.014c0,0.364,0.112,0.648,0.337,0.853
									C679.664,32.643,679.979,32.742,680.387,32.742z"/>
								<path d="M689.748,33.118h-0.53v-5.838h4.655v5.838h-0.53v-5.333h-3.595V33.118z"/>
								<path d="M701.427,30.193c0,0.953-0.23,1.696-0.693,2.23c-0.462,0.536-1.1,0.804-1.911,0.804
									c-0.513,0-0.964-0.124-1.354-0.371c-0.391-0.247-0.688-0.603-0.896-1.063c-0.208-0.463-0.313-0.996-0.313-1.602
									c0-0.953,0.23-1.694,0.692-2.228c0.463-0.53,1.097-0.798,1.9-0.798c0.803,0,1.433,0.271,1.889,0.81
									C701.199,28.516,701.427,29.254,701.427,30.193z M696.817,30.193c0,0.802,0.178,1.428,0.529,1.877
									c0.354,0.45,0.853,0.674,1.496,0.674c0.645,0,1.143-0.225,1.495-0.674c0.354-0.449,0.529-1.075,0.529-1.877
									c0-0.806-0.18-1.431-0.535-1.875c-0.354-0.444-0.855-0.666-1.5-0.666c-0.646,0-1.143,0.221-1.49,0.664
									C696.993,28.757,696.817,29.383,696.817,30.193z"/>
								<path d="M704.243,27.281v1.955c0,0.494,0.119,0.852,0.359,1.069c0.239,0.218,0.608,0.327,1.104,0.327
									c0.353,0,0.687-0.063,1.006-0.188c0.318-0.125,0.648-0.326,0.992-0.602v-2.563h0.531v5.838h-0.531v-2.771
									c-0.356,0.274-0.709,0.473-1.056,0.591c-0.346,0.118-0.719,0.177-1.12,0.177c-0.599,0-1.05-0.155-1.354-0.467
									c-0.307-0.313-0.459-0.761-0.459-1.349v-2.021h0.527V27.281z"/>
								<path d="M714.51,33.118l-0.135-0.924h-0.044c-0.293,0.376-0.596,0.643-0.904,0.797c-0.311,0.156-0.677,0.234-1.1,0.234
									c-0.571,0-1.019-0.147-1.337-0.44s-0.479-0.699-0.479-1.219c0-0.569,0.235-1.012,0.711-1.327
									c0.476-0.314,1.161-0.479,2.062-0.5l1.11-0.032v-0.387c0-0.555-0.112-0.974-0.338-1.257
									c-0.228-0.283-0.59-0.424-1.092-0.424c-0.539,0-1.101,0.148-1.681,0.45l-0.198-0.462c0.641-0.302,1.274-0.45,1.9-0.45
									c0.643,0,1.119,0.167,1.438,0.5c0.317,0.333,0.476,0.852,0.476,1.558v3.883H714.51z M712.36,32.742
									c0.623,0,1.114-0.178,1.476-0.535c0.358-0.354,0.539-0.851,0.539-1.483v-0.575l-1.021,0.043
									c-0.818,0.04-1.403,0.167-1.754,0.384c-0.349,0.218-0.522,0.555-0.522,1.014c0,0.364,0.111,0.648,0.336,0.853
									C711.635,32.643,711.953,32.742,712.36,32.742z"/>
								<path d="M721.266,27.741h-1.942v5.376h-0.526v-5.376h-1.992V27.28h4.463L721.266,27.741L721.266,27.741z"/>
								<path d="M728.063,30.193c0,0.953-0.229,1.696-0.692,2.23c-0.461,0.536-1.1,0.804-1.912,0.804
									c-0.512,0-0.963-0.124-1.354-0.371c-0.39-0.247-0.688-0.603-0.896-1.063c-0.207-0.461-0.313-0.996-0.313-1.602
									c0-0.953,0.23-1.694,0.692-2.228c0.463-0.53,1.096-0.798,1.901-0.798c0.803,0,1.432,0.271,1.889,0.81
									C727.836,28.516,728.063,29.254,728.063,30.193z M723.457,30.193c0,0.802,0.177,1.428,0.528,1.877
									c0.354,0.45,0.851,0.674,1.494,0.674c0.646,0,1.146-0.225,1.496-0.674c0.354-0.449,0.528-1.075,0.528-1.877
									c0-0.806-0.178-1.431-0.533-1.875c-0.356-0.444-0.855-0.666-1.501-0.666s-1.143,0.221-1.491,0.664
									C723.632,28.757,723.457,29.383,723.457,30.193z"/>
								<path d="M733.62,27.281h0.661l-2.615,2.825l2.804,3.013h-0.716l-2.76-2.959v2.959h-0.543v-5.838h0.543v2.836L733.62,27.281z
									"/>
								<path d="M744.662,35.102h-0.526v-1.982h-4.47v1.982h-0.524v-2.487h0.388c0.485-0.684,0.861-1.477,1.127-2.379
									c0.267-0.901,0.404-1.887,0.42-2.954h2.81v5.333h0.778L744.662,35.102L744.662,35.102z M743.35,32.615v-4.839h-1.815
									c-0.087,1.938-0.556,3.55-1.406,4.839H743.35z"/>
								<path d="M746.596,25.657c0-0.344,0.112-0.516,0.338-0.516c0.111,0,0.197,0.045,0.262,0.134
									c0.063,0.089,0.095,0.217,0.095,0.381c0,0.161-0.031,0.288-0.095,0.381c-0.063,0.094-0.148,0.142-0.262,0.142
									C746.711,26.18,746.596,26.006,746.596,25.657z M747.204,33.118h-0.531v-5.838h0.531V33.118z"/>
								<path d="M748.84,25.657c0-0.165,0.027-0.282,0.083-0.354c0.056-0.072,0.141-0.107,0.256-0.107
									c0.229,0,0.344,0.154,0.344,0.462c0,0.309-0.114,0.462-0.344,0.462C748.951,26.119,748.84,25.967,748.84,25.657z
									 M750.461,33.118h-0.53v-5.838h0.53V33.118z M750.885,25.657c0-0.165,0.027-0.282,0.084-0.354
									c0.055-0.072,0.141-0.107,0.255-0.107c0.229,0,0.345,0.154,0.345,0.462c0,0.309-0.114,0.462-0.345,0.462
									C750.998,26.119,750.885,25.967,750.885,25.657z"/>
								<path d="M757.914,29.8c1.058,0,1.586-0.362,1.586-1.09c0-0.348-0.123-0.611-0.365-0.796
									c-0.243-0.183-0.592-0.272-1.042-0.272c-0.287,0-0.554,0.032-0.802,0.099c-0.245,0.066-0.513,0.162-0.795,0.288
									l-0.197-0.439c0.623-0.278,1.228-0.419,1.813-0.419c0.638,0,1.121,0.132,1.45,0.396s0.494,0.632,0.494,1.102
									c0,0.678-0.347,1.107-1.042,1.294v0.031c0.434,0.107,0.748,0.286,0.945,0.535c0.195,0.249,0.295,0.566,0.295,0.953
									c0,0.541-0.197,0.967-0.595,1.278c-0.396,0.311-0.942,0.467-1.646,0.467c-0.38,0-0.726-0.037-1.039-0.11
									s-0.572-0.171-0.776-0.293v-0.531c0.369,0.176,0.688,0.294,0.957,0.356c0.27,0.063,0.557,0.094,0.858,0.094
									c0.53,0,0.942-0.111,1.237-0.335c0.296-0.224,0.442-0.543,0.442-0.959c0-0.404-0.142-0.704-0.425-0.896
									c-0.282-0.193-0.707-0.29-1.271-0.29h-0.813V29.8H757.914L757.914,29.8z"/>
								<path d="M763.09,27.281v2.563h3.705v-2.563h0.526v5.838h-0.526v-2.813h-3.705v2.813h-0.532v-5.838H763.09z"/>
								<path d="M770.551,27.281v4.223l-0.031,1.102l3.464-5.323h0.709v5.838h-0.511v-4.194l0.021-1.128l-3.465,5.322h-0.69v-5.838
									L770.551,27.281L770.551,27.281z"/>
								<path d="M779.829,27.281h0.537v2.836l2.509-2.836h0.649l-2.53,2.836l2.729,3.002h-0.683l-2.675-2.959v2.959h-0.537v-2.959
									l-2.676,2.959h-0.682l2.717-2.979l-2.519-2.857h0.648l2.509,2.836L779.829,27.281L779.829,27.281z"/>
								<path d="M790.332,30.193c0,0.953-0.23,1.696-0.692,2.23c-0.462,0.536-1.101,0.804-1.912,0.804
									c-0.512,0-0.963-0.124-1.354-0.371s-0.688-0.603-0.896-1.063c-0.208-0.463-0.313-0.996-0.313-1.602
									c0-0.953,0.23-1.694,0.692-2.228c0.463-0.53,1.097-0.798,1.901-0.798c0.802,0,1.433,0.271,1.888,0.81
									C790.102,28.516,790.332,29.254,790.332,30.193z M785.721,30.193c0,0.802,0.177,1.428,0.528,1.877
									c0.354,0.45,0.853,0.674,1.496,0.674c0.645,0,1.144-0.225,1.496-0.674c0.354-0.449,0.528-1.075,0.528-1.877
									c0-0.806-0.179-1.431-0.534-1.875c-0.354-0.444-0.855-0.666-1.502-0.666c-0.645,0-1.142,0.221-1.489,0.664
									C785.896,28.757,785.721,29.383,785.721,30.193z"/>
								<path d="M795.885,27.281h0.661l-2.616,2.825l2.806,3.013h-0.716l-2.761-2.959v2.959h-0.542v-5.838h0.542v2.836
									L795.885,27.281z"/>
							</g>
						</g>
					</g>
				</g>
			</g>
			<circle fill="none" stroke="#FFD600" stroke-width="1.1587" stroke-miterlimit="10" cx="644.397" cy="313.198" r="18.037"/>
		</g>
	</g>
	
		<line fill="none" stroke="#FF4C29" stroke-miterlimit="10" stroke-dasharray="3,4" x1="394.276" y1="292.094" x2="394.276" y2="68.094"/>
	
		<line fill="none" stroke="#FF4C29" stroke-miterlimit="10" stroke-dasharray="3,4" x1="783.276" y1="292.094" x2="783.276" y2="68.094"/>
</g>
</svg>
